<?xml version="1.0" encoding="utf-8"?>
<!-- Generator: Adobe Illustrator 22.1.0, SVG Export Plug-In . SVG Version: 6.00 Build 0)  -->
<svg version="1.1" id="Layer_1" xmlns="http://www.w3.org/2000/svg" xmlns:xlink="http://www.w3.org/1999/xlink" x="0px" y="0px"
	 viewBox="0 0 1000 600" style="enable-background:new 0 0 1000 600;" xml:space="preserve">
<style type="text/css">
	.st0{fill:none;stroke:#000000;stroke-width:0.4201;stroke-miterlimit:10;}
	.st1{fill:none;stroke:#000000;stroke-width:0.4975;stroke-miterlimit:10;}
	.st2{fill:none;stroke:#000000;stroke-width:0.4789;stroke-miterlimit:10;stroke-dasharray:1.9399,1.9399;}
	.st3{fill:none;stroke:#000000;stroke-width:0.4789;stroke-miterlimit:10;stroke-dasharray:2.0892,2.0892;}
	.st4{fill:none;stroke:#000000;stroke-width:0.4383;stroke-miterlimit:10;stroke-dasharray:1.9063,1.9063;}
	.st5{fill:none;stroke:#000000;stroke-width:0.4789;stroke-miterlimit:10;stroke-dasharray:2.8601,2.8601;}
	.st6{fill:none;stroke:#000000;stroke-width:0.4789;stroke-miterlimit:10;stroke-dasharray:2.8523,2.8523;}
	.st7{fill:none;stroke:#000000;stroke-width:0.4978;stroke-miterlimit:10;stroke-dasharray:2.9956,2.9956;}
	.st8{fill:#FFFFFF;}
	.st9{fill:none;stroke:#000000;stroke-width:0.4789;stroke-miterlimit:10;stroke-dasharray:2.8557,2.8557;}
	.st10{fill:none;stroke:#000000;stroke-width:0.4789;stroke-miterlimit:10;}
	.st11{fill:#0071BC;stroke:#000000;stroke-width:0.4201;stroke-miterlimit:10;}
	.st12{fill:none;stroke:#000000;stroke-width:0.7183;stroke-miterlimit:10;}
	.st13{fill:#FF9900;}
	.st14{fill:#C1272D;}
	.st15{fill:none;stroke:#000000;stroke-width:0.4816;stroke-miterlimit:10;stroke-dasharray:2.1013,2.1013;}
	.st16{fill:none;stroke:#000000;stroke-width:0.478;stroke-miterlimit:10;stroke-dasharray:2.8522,2.8522;}
	.st17{fill:none;stroke:#000000;stroke-width:0.5417;stroke-miterlimit:10;stroke-dasharray:4.3285,4.3285;}
	.st18{fill:none;stroke:#000000;stroke-width:0.4225;stroke-miterlimit:10;}
	.st19{fill:none;stroke:#000000;stroke-width:0.4816;stroke-miterlimit:10;}
	.st20{fill:none;stroke:#000000;stroke-width:0.5003;stroke-miterlimit:10;}
	.st21{fill:none;stroke:#000000;stroke-width:0.5587;stroke-miterlimit:10;}
	.st22{fill:none;stroke:#000000;stroke-width:0.5068;stroke-miterlimit:10;stroke-dasharray:3.0662,3.0662;}
	.st23{fill:none;stroke:#000000;stroke-width:0.7224;stroke-miterlimit:10;}
	.st24{fill:#B5D6A0;}
	.st25{fill:#06383F;}
	.st26{fill:#2B4042;}
	.st27{fill:#82B6A2;}
	.st28{fill:#4F6C7D;}
	.st29{fill:#4DB27F;}
	.st30{fill:#E4E3E6;}
	.st31{fill:#ABAAB4;}
	.st32{fill:#D3C9D3;}
	.st33{fill:#39B54A;}
	.st34{fill:none;stroke:#FFFFFF;stroke-width:0.9632;stroke-linecap:round;stroke-linejoin:round;stroke-miterlimit:10;}
	.st35{fill:#767678;}
	.st36{fill:#C2C1C3;}
	.st37{fill:#E3E2E6;}
	.st38{fill:#CECDD3;}
	.st39{fill:#ABABB4;}
	.st40{fill:#FF687D;}
	.st41{fill:#1A1A1A;}
	.st42{fill:#CCCCCC;}
	.st43{fill:#808080;}
	.st44{fill:#333333;}
	.st45{fill:#4D4D4D;}
	.st46{fill:#E6F0FC;}
	.st47{fill:#29ABE2;}
	.st48{fill:#0071BC;}
	.st49{fill:#FCEE21;}
	.st50{fill:#50749A;}
	.st51{fill:#50E4C2;}
	.st52{fill:#77067F;}
	.st53{fill:#9F69C9;}
	.st54{fill:none;stroke:#0071BC;stroke-width:2;stroke-miterlimit:10;}
	.st55{fill:none;stroke:#0071BC;stroke-width:2;stroke-miterlimit:10;stroke-dasharray:4.1304,4.1304;}
	.st56{fill:none;stroke:#0071BC;stroke-miterlimit:10;}
	.st57{fill:#D8D8D8;stroke:#808080;stroke-miterlimit:10;}
	.st58{fill:none;stroke:#808080;stroke-miterlimit:10;stroke-dasharray:4;}
	.st59{fill:none;stroke:#4D4D4D;stroke-width:1.2183;stroke-miterlimit:10;}
	.st60{fill:none;stroke:#4D4D4D;stroke-width:1.3887;stroke-miterlimit:10;}
	.st61{fill:none;stroke:#4D4D4D;stroke-width:1.4426;stroke-miterlimit:10;}
	.st62{fill:none;stroke:#4D4D4D;stroke-miterlimit:10;}
	.st63{fill:none;stroke:#0071BC;stroke-width:1.5;stroke-miterlimit:10;stroke-dasharray:4.4516,4.4516;}
	.st64{fill:none;stroke:#0071BC;stroke-width:1.5;stroke-miterlimit:10;stroke-dasharray:5.4187,5.4187;}
	.st65{fill:none;stroke:#0071BC;stroke-width:1.5;stroke-miterlimit:10;stroke-dasharray:4.7103,4.7103;}
	.st66{fill:none;stroke:#0071BC;stroke-width:1.5;stroke-miterlimit:10;stroke-dasharray:5.2521,5.2521;}
	.st67{fill:none;stroke:#0071BC;stroke-width:1.5;stroke-miterlimit:10;stroke-dasharray:5.8985,5.8985;}
	.st68{fill:#FCEE21;stroke:#0071BC;stroke-width:0.963;stroke-miterlimit:10;}
	.st69{fill:#50749A;stroke:#0071BC;stroke-width:0.963;stroke-miterlimit:10;}
	.st70{fill:#50E4C2;stroke:#0071BC;stroke-width:0.963;stroke-miterlimit:10;}
	.st71{fill:#77067F;stroke:#0071BC;stroke-width:0.963;stroke-miterlimit:10;}
	.st72{fill:#F6A521;}
	.st73{fill:none;stroke:#808080;stroke-width:1.0895;stroke-miterlimit:10;stroke-dasharray:3.7494;}
	.st74{fill:#D8D8D8;stroke:#808080;stroke-width:1.0895;stroke-miterlimit:10;}
	.st75{fill:#4861B1;stroke:#4D4D4D;stroke-width:1.0895;stroke-miterlimit:10;}
</style>
<g>
	<g>
		<g>
			<rect x="33.7" y="180.4" class="st13" width="131" height="73"/>
		</g>
		<g>
			<path class="st43" d="M165.2,253.9h-132v-74h132V253.9z M34.2,252.9h130v-72h-130V252.9z"/>
		</g>
	</g>
	<g>
		<g>
			<path class="st13" d="M641.7,86.9h-352c-16.8,0-30.5-13.7-30.5-30.5v0c0-16.8,13.7-30.5,30.5-30.5h352
				c16.8,0,30.5,13.7,30.5,30.5v0C672.2,73.2,658.6,86.9,641.7,86.9z"/>
		</g>
		<g>
			<path class="st43" d="M641.7,87.4h-352c-17.1,0-31-13.9-31-31s13.9-31,31-31h352c17.1,0,31,13.9,31,31S658.8,87.4,641.7,87.4z
				 M289.7,26.4c-16.5,0-30,13.5-30,30s13.5,30,30,30h352c16.5,0,30-13.5,30-30s-13.5-30-30-30H289.7z"/>
		</g>
	</g>
	<g>
		<path class="st8" d="M353.3,63.7l-1.7-5h-6.8l-1.7,5h-3.1l6.6-17.9h3.2l6.6,17.9H353.3z M350.8,56.2l-1.7-4.9
			c-0.1-0.2-0.2-0.5-0.3-0.9c-0.1-0.4-0.2-0.8-0.4-1.2c-0.1-0.4-0.2-0.7-0.3-1c-0.1,0.3-0.2,0.7-0.3,1.1c-0.1,0.4-0.2,0.8-0.3,1.2
			c-0.1,0.4-0.2,0.6-0.3,0.8l-1.7,4.9H350.8z"/>
		<path class="st8" d="M361.5,56.8l-4.5-6.6h3.3l3.1,4.7l3.1-4.7h3.3l-4.5,6.6l4.8,6.9h-3.3l-3.3-5.1l-3.3,5.1h-3.3L361.5,56.8z"/>
		<path class="st8" d="M377.7,63.9c-1.3,0-2.4-0.2-3.3-0.7s-1.7-1.3-2.2-2.3c-0.5-1-0.8-2.3-0.8-3.9c0-1.6,0.3-3,0.8-4
			c0.6-1,1.3-1.8,2.3-2.3c1-0.5,2.1-0.7,3.4-0.7c0.8,0,1.5,0.1,2.2,0.2c0.7,0.2,1.2,0.4,1.7,0.6L381,53c-0.5-0.2-1-0.4-1.5-0.5
			c-0.5-0.1-1-0.2-1.5-0.2c-0.8,0-1.4,0.2-2,0.5c-0.5,0.3-0.9,0.9-1.2,1.6c-0.3,0.7-0.4,1.5-0.4,2.6c0,1,0.1,1.8,0.4,2.5
			c0.3,0.7,0.6,1.2,1.2,1.5s1.1,0.5,1.9,0.5c0.7,0,1.4-0.1,2-0.3c0.6-0.2,1.1-0.4,1.7-0.7v2.5c-0.5,0.3-1.1,0.5-1.6,0.7
			C379.3,63.8,378.6,63.9,377.7,63.9z"/>
		<path class="st8" d="M390.1,49.9c1.2,0,2.2,0.2,3.1,0.7c0.9,0.5,1.5,1.2,2,2.1c0.5,0.9,0.7,2,0.7,3.3v1.5h-9c0,1.3,0.4,2.3,1.1,3
			c0.7,0.7,1.6,1.1,2.8,1.1c0.9,0,1.6-0.1,2.3-0.3c0.7-0.2,1.4-0.4,2.1-0.7V63c-0.7,0.3-1.4,0.5-2.1,0.7s-1.5,0.2-2.5,0.2
			c-1.3,0-2.5-0.3-3.5-0.8c-1-0.5-1.8-1.3-2.4-2.3s-0.8-2.3-0.8-3.8c0-1.5,0.3-2.8,0.8-3.9c0.5-1.1,1.2-1.9,2.2-2.4
			C387.8,50.2,388.9,49.9,390.1,49.9z M390.1,52.1c-0.9,0-1.6,0.3-2.2,0.9c-0.6,0.6-0.9,1.4-1,2.6h6.2c0-0.7-0.1-1.3-0.3-1.8
			c-0.2-0.5-0.5-0.9-1-1.2C391.3,52.2,390.8,52.1,390.1,52.1z"/>
		<path class="st8" d="M408.2,59.8c0,0.9-0.2,1.6-0.6,2.2c-0.4,0.6-1.1,1.1-1.9,1.4s-1.8,0.5-3,0.5c-0.9,0-1.8-0.1-2.4-0.2
			c-0.7-0.1-1.3-0.3-1.9-0.6v-2.5c0.6,0.3,1.4,0.6,2.2,0.8s1.6,0.3,2.3,0.3c0.9,0,1.6-0.1,2-0.4c0.4-0.3,0.6-0.7,0.6-1.2
			c0-0.3-0.1-0.6-0.3-0.8c-0.2-0.2-0.5-0.5-0.9-0.7c-0.5-0.2-1.1-0.5-2-0.9c-0.9-0.3-1.6-0.7-2.2-1s-1-0.8-1.3-1.2
			c-0.3-0.5-0.5-1.1-0.5-1.9c0-1.2,0.5-2.1,1.4-2.7c0.9-0.6,2.2-0.9,3.8-0.9c0.8,0,1.6,0.1,2.3,0.3c0.7,0.2,1.5,0.4,2.2,0.7
			l-0.9,2.2c-0.6-0.3-1.2-0.5-1.8-0.7c-0.6-0.2-1.2-0.3-1.9-0.3c-0.7,0-1.3,0.1-1.7,0.3c-0.4,0.2-0.6,0.6-0.6,1
			c0,0.3,0.1,0.6,0.3,0.8c0.2,0.2,0.5,0.4,1,0.7s1.1,0.5,1.9,0.8c0.8,0.3,1.5,0.6,2.1,1c0.6,0.3,1,0.8,1.4,1.2
			C408,58.4,408.2,59,408.2,59.8z"/>
		<path class="st8" d="M420.4,59.8c0,0.9-0.2,1.6-0.6,2.2c-0.4,0.6-1.1,1.1-1.9,1.4s-1.8,0.5-3,0.5c-0.9,0-1.8-0.1-2.4-0.2
			c-0.7-0.1-1.3-0.3-1.9-0.6v-2.5c0.6,0.3,1.4,0.6,2.2,0.8s1.6,0.3,2.3,0.3c0.9,0,1.6-0.1,2-0.4c0.4-0.3,0.6-0.7,0.6-1.2
			c0-0.3-0.1-0.6-0.3-0.8c-0.2-0.2-0.5-0.5-0.9-0.7c-0.5-0.2-1.1-0.5-2-0.9c-0.9-0.3-1.6-0.7-2.2-1s-1-0.8-1.3-1.2
			c-0.3-0.5-0.5-1.1-0.5-1.9c0-1.2,0.5-2.1,1.4-2.7c0.9-0.6,2.2-0.9,3.8-0.9c0.8,0,1.6,0.1,2.3,0.3c0.7,0.2,1.5,0.4,2.2,0.7
			l-0.9,2.2c-0.6-0.3-1.2-0.5-1.8-0.7c-0.6-0.2-1.2-0.3-1.9-0.3c-0.7,0-1.3,0.1-1.7,0.3c-0.4,0.2-0.6,0.6-0.6,1
			c0,0.3,0.1,0.6,0.3,0.8c0.2,0.2,0.5,0.4,1,0.7s1.1,0.5,1.9,0.8c0.8,0.3,1.5,0.6,2.1,1c0.6,0.3,1,0.8,1.4,1.2
			C420.2,58.4,420.4,59,420.4,59.8z"/>
		<path class="st8" d="M435.2,49.9c1.7,0,3,0.4,3.9,1.1c0.9,0.8,1.3,1.9,1.3,3.5v9.1h-2l-0.5-1.9h-0.1c-0.4,0.5-0.8,0.9-1.2,1.2
			s-0.9,0.6-1.4,0.7c-0.5,0.2-1.2,0.2-1.9,0.2c-0.8,0-1.5-0.1-2.2-0.4s-1.1-0.8-1.5-1.4c-0.4-0.6-0.5-1.4-0.5-2.3
			c0-1.4,0.5-2.4,1.6-3.1c1-0.7,2.6-1.1,4.7-1.2l2.3-0.1v-0.7c0-0.9-0.2-1.6-0.7-2c-0.4-0.4-1-0.6-1.8-0.6c-0.7,0-1.3,0.1-2,0.3
			s-1.3,0.4-1.9,0.7l-0.9-2c0.7-0.3,1.4-0.6,2.3-0.9C433.5,50,434.3,49.9,435.2,49.9z M437.6,57.2l-1.7,0.1c-1.4,0-2.4,0.3-3,0.7
			s-0.9,1-0.9,1.8c0,0.7,0.2,1.2,0.6,1.5c0.4,0.3,0.9,0.5,1.6,0.5c1,0,1.8-0.3,2.5-0.8c0.7-0.6,1-1.4,1-2.5V57.2z"/>
		<path class="st8" d="M449.5,61.6c0.4,0,0.7,0,1.1-0.1c0.4-0.1,0.7-0.2,1-0.3v2.2c-0.3,0.1-0.7,0.3-1.2,0.4s-1,0.1-1.6,0.1
			c-0.8,0-1.5-0.1-2.1-0.4c-0.6-0.3-1.1-0.7-1.5-1.3c-0.4-0.6-0.5-1.5-0.5-2.6v-7.3h-1.8v-1.3l2-1l0.9-2.9h1.8v3h3.9v2.2h-3.9v7.2
			c0,0.7,0.2,1.2,0.5,1.5S448.9,61.6,449.5,61.6z"/>
		<path class="st8" d="M461.1,63.7V45.8h2.9v17.8H461.1z"/>
		<path class="st8" d="M475.5,49.9c1.5,0,2.7,0.4,3.6,1.2c0.9,0.8,1.3,2,1.3,3.8v8.8h-2.9v-8.3c0-1-0.2-1.8-0.6-2.4
			c-0.4-0.5-1.1-0.8-2-0.8c-1.3,0-2.2,0.4-2.7,1.2c-0.5,0.8-0.8,2-0.8,3.5v6.7h-2.9V50.2h2.2l0.4,1.8h0.2c0.3-0.5,0.7-0.9,1.1-1.2
			c0.4-0.3,0.9-0.5,1.5-0.7S474.9,49.9,475.5,49.9z"/>
		<path class="st8" d="M491.1,52.3h-3.3v11.3h-2.9V52.3h-2.2V51l2.2-0.8v-0.9c0-1.1,0.2-2.1,0.5-2.7c0.4-0.7,0.9-1.2,1.6-1.5
			c0.7-0.3,1.5-0.4,2.4-0.4c0.6,0,1.2,0.1,1.7,0.2s0.9,0.2,1.3,0.3l-0.7,2.2c-0.3-0.1-0.6-0.2-0.9-0.3s-0.7-0.1-1.1-0.1
			c-0.7,0-1.1,0.2-1.4,0.6c-0.3,0.4-0.5,1-0.5,1.8v0.9h3.3V52.3z"/>
		<path class="st8" d="M500.2,49.9c0.2,0,0.5,0,0.7,0s0.5,0.1,0.7,0.1l-0.3,2.7c-0.2,0-0.4-0.1-0.6-0.1c-0.2,0-0.5,0-0.7,0
			c-0.5,0-1,0.1-1.5,0.3c-0.5,0.2-0.9,0.4-1.2,0.8s-0.6,0.8-0.8,1.3c-0.2,0.5-0.3,1.1-0.3,1.8v7.1h-2.9V50.2h2.2l0.4,2.4h0.1
			c0.3-0.5,0.6-0.9,1-1.3c0.4-0.4,0.9-0.7,1.4-1C499,50,499.6,49.9,500.2,49.9z"/>
		<path class="st8" d="M509.5,49.9c1.7,0,3,0.4,3.9,1.1c0.9,0.8,1.3,1.9,1.3,3.5v9.1h-2l-0.5-1.9H512c-0.4,0.5-0.8,0.9-1.2,1.2
			s-0.9,0.6-1.4,0.7c-0.5,0.2-1.2,0.2-1.9,0.2c-0.8,0-1.5-0.1-2.2-0.4s-1.1-0.8-1.5-1.4c-0.4-0.6-0.5-1.4-0.5-2.3
			c0-1.4,0.5-2.4,1.6-3.1c1-0.7,2.6-1.1,4.7-1.2l2.3-0.1v-0.7c0-0.9-0.2-1.6-0.7-2c-0.4-0.4-1-0.6-1.8-0.6c-0.7,0-1.3,0.1-2,0.3
			s-1.3,0.4-1.9,0.7l-0.9-2c0.7-0.3,1.4-0.6,2.3-0.9C507.7,50,508.6,49.9,509.5,49.9z M511.8,57.2l-1.7,0.1c-1.4,0-2.4,0.3-3,0.7
			s-0.9,1-0.9,1.8c0,0.7,0.2,1.2,0.6,1.5c0.4,0.3,0.9,0.5,1.6,0.5c1,0,1.8-0.3,2.5-0.8c0.7-0.6,1-1.4,1-2.5V57.2z"/>
		<path class="st8" d="M526.2,54h6.7v9c-0.9,0.3-1.9,0.5-2.9,0.7s-2.1,0.3-3.4,0.3c-1.8,0-3.4-0.4-4.6-1.1c-1.3-0.7-2.2-1.8-2.9-3.1
			c-0.7-1.4-1-3-1-5c0-1.9,0.4-3.5,1.1-4.9c0.7-1.4,1.8-2.4,3.2-3.2s3.1-1.1,5-1.1c1,0,1.9,0.1,2.8,0.3c0.9,0.2,1.7,0.5,2.5,0.8
			l-1,2.4c-0.6-0.3-1.3-0.5-2-0.7c-0.7-0.2-1.5-0.3-2.3-0.3c-1.3,0-2.4,0.3-3.3,0.8c-0.9,0.6-1.6,1.3-2.1,2.3
			c-0.5,1-0.7,2.2-0.7,3.6c0,1.3,0.2,2.5,0.6,3.5c0.4,1,1,1.8,1.9,2.3c0.9,0.6,2,0.8,3.3,0.8c0.7,0,1.2,0,1.7-0.1s0.9-0.2,1.3-0.2
			v-4.6h-3.8V54z"/>
		<path class="st8" d="M548.6,50.2v13.5h-2.3l-0.4-1.8h-0.2c-0.3,0.5-0.6,0.8-1.1,1.2c-0.4,0.3-0.9,0.5-1.5,0.7s-1.1,0.2-1.7,0.2
			c-1,0-1.9-0.2-2.6-0.5c-0.7-0.3-1.3-0.9-1.7-1.6c-0.4-0.7-0.6-1.7-0.6-2.8v-8.8h2.9v8.3c0,1,0.2,1.8,0.6,2.4
			c0.4,0.5,1.1,0.8,2,0.8c0.9,0,1.6-0.2,2.1-0.5c0.5-0.4,0.9-0.9,1.1-1.6s0.3-1.6,0.3-2.6v-6.7H548.6z"/>
		<path class="st8" d="M558,49.9c1.7,0,3,0.4,3.9,1.1s1.3,1.9,1.3,3.5v9.1h-2l-0.5-1.9h-0.1c-0.4,0.5-0.8,0.9-1.2,1.2
			s-0.9,0.6-1.4,0.7c-0.5,0.2-1.2,0.2-1.9,0.2c-0.8,0-1.5-0.1-2.2-0.4s-1.1-0.8-1.5-1.4c-0.4-0.6-0.5-1.4-0.5-2.3
			c0-1.4,0.5-2.4,1.6-3.1c1-0.7,2.6-1.1,4.7-1.2l2.3-0.1v-0.7c0-0.9-0.2-1.6-0.7-2c-0.4-0.4-1-0.6-1.8-0.6c-0.7,0-1.3,0.1-2,0.3
			s-1.3,0.4-1.9,0.7l-0.9-2c0.7-0.3,1.4-0.6,2.3-0.9C556.2,50,557.1,49.9,558,49.9z M560.3,57.2l-1.7,0.1c-1.4,0-2.4,0.3-3,0.7
			s-0.9,1-0.9,1.8c0,0.7,0.2,1.2,0.6,1.5c0.4,0.3,0.9,0.5,1.6,0.5c1,0,1.8-0.3,2.5-0.8c0.7-0.6,1-1.4,1-2.5V57.2z"/>
		<path class="st8" d="M574,49.9c0.2,0,0.5,0,0.7,0c0.3,0,0.5,0.1,0.7,0.1l-0.3,2.7c-0.2,0-0.4-0.1-0.6-0.1c-0.3,0-0.5,0-0.7,0
			c-0.5,0-1,0.1-1.5,0.3c-0.5,0.2-0.9,0.4-1.2,0.8c-0.4,0.3-0.6,0.8-0.8,1.3c-0.2,0.5-0.3,1.1-0.3,1.8v7.1h-2.9V50.2h2.2l0.4,2.4
			h0.1c0.3-0.5,0.6-0.9,1-1.3c0.4-0.4,0.9-0.7,1.4-1C572.9,50,573.4,49.9,574,49.9z"/>
		<path class="st8" d="M582.5,63.9c-1.6,0-2.9-0.6-3.9-1.8s-1.5-2.9-1.5-5.2c0-2.3,0.5-4.1,1.5-5.3c1-1.2,2.3-1.8,3.9-1.8
			c0.7,0,1.3,0.1,1.8,0.3c0.5,0.2,1,0.4,1.3,0.7c0.4,0.3,0.7,0.7,0.9,1h0.1c0-0.3-0.1-0.6-0.1-1.1c-0.1-0.5-0.1-0.9-0.1-1.3v-4.9
			h2.9v19h-2.2l-0.5-1.8h-0.1c-0.2,0.4-0.6,0.7-0.9,1.1s-0.8,0.6-1.3,0.8C583.8,63.8,583.2,63.9,582.5,63.9z M583.3,61.6
			c1.2,0,2.1-0.4,2.6-1.1s0.8-1.8,0.8-3.2V57c0-1.5-0.2-2.7-0.7-3.5c-0.5-0.8-1.4-1.2-2.7-1.2c-1,0-1.8,0.4-2.4,1.3s-0.8,2-0.8,3.5
			s0.3,2.6,0.8,3.4C581.5,61.2,582.3,61.6,583.3,61.6z"/>
	</g>
	<g>
		<path class="st8" d="M63.8,208.6c-0.9,0-1.6,0.2-2.3,0.5c-0.7,0.3-1.2,0.8-1.7,1.3c-0.5,0.6-0.8,1.3-1.1,2.1s-0.4,1.8-0.4,2.8
			c0,1.4,0.2,2.6,0.6,3.6c0.4,1,1,1.8,1.8,2.3c0.8,0.5,1.8,0.8,3,0.8c0.8,0,1.5-0.1,2.2-0.2s1.5-0.3,2.2-0.6v2.5
			c-0.7,0.3-1.5,0.5-2.2,0.6s-1.6,0.2-2.6,0.2c-1.8,0-3.3-0.4-4.5-1.1s-2.1-1.8-2.7-3.2s-0.9-3-0.9-4.8c0-1.4,0.2-2.6,0.6-3.7
			s0.9-2.1,1.6-2.9c0.7-0.8,1.6-1.4,2.7-1.9c1.1-0.4,2.3-0.7,3.6-0.7c0.9,0,1.8,0.1,2.6,0.3c0.9,0.2,1.7,0.5,2.4,0.8l-1,2.4
			c-0.6-0.3-1.3-0.5-1.9-0.8C65.2,208.7,64.5,208.6,63.8,208.6z"/>
		<path class="st8" d="M74.6,224.2h-2.9v-19h2.9V224.2z"/>
		<path class="st8" d="M80.2,205.5c0.4,0,0.8,0.1,1.1,0.4c0.3,0.2,0.5,0.6,0.5,1.2c0,0.6-0.2,1-0.5,1.2s-0.7,0.4-1.1,0.4
			c-0.5,0-0.8-0.1-1.2-0.4s-0.5-0.6-0.5-1.2c0-0.6,0.2-1,0.5-1.2C79.3,205.6,79.7,205.5,80.2,205.5z M81.6,210.7v13.5h-2.9v-13.5
			H81.6z"/>
		<path class="st8" d="M91.1,210.4c1.2,0,2.2,0.2,3.1,0.7c0.9,0.5,1.5,1.2,2,2.1c0.5,0.9,0.7,2,0.7,3.3v1.5h-9c0,1.3,0.4,2.3,1.1,3
			c0.7,0.7,1.6,1.1,2.8,1.1c0.9,0,1.6-0.1,2.3-0.3c0.7-0.2,1.4-0.4,2.1-0.7v2.3c-0.7,0.3-1.4,0.5-2.1,0.7s-1.5,0.2-2.5,0.2
			c-1.3,0-2.5-0.3-3.5-0.8c-1-0.5-1.8-1.3-2.4-2.3s-0.8-2.3-0.8-3.8c0-1.5,0.3-2.8,0.8-3.9c0.5-1.1,1.2-1.9,2.2-2.4
			C88.7,210.7,89.8,210.4,91.1,210.4z M91.1,212.6c-0.9,0-1.6,0.3-2.2,0.9c-0.6,0.6-0.9,1.4-1,2.6H94c0-0.7-0.1-1.3-0.3-1.8
			c-0.2-0.5-0.5-0.9-1-1.2C92.3,212.7,91.7,212.6,91.1,212.6z"/>
		<path class="st8" d="M107.1,210.4c1.5,0,2.7,0.4,3.6,1.2c0.9,0.8,1.3,2,1.3,3.8v8.8h-2.9v-8.3c0-1-0.2-1.8-0.6-2.4
			c-0.4-0.5-1.1-0.8-2-0.8c-1.3,0-2.2,0.4-2.7,1.2c-0.5,0.8-0.8,2-0.8,3.5v6.7h-2.9v-13.5h2.2l0.4,1.8h0.2c0.3-0.5,0.7-0.9,1.1-1.2
			c0.4-0.3,0.9-0.5,1.5-0.7S106.5,210.4,107.1,210.4z"/>
		<path class="st8" d="M121,222.1c0.4,0,0.7,0,1.1-0.1c0.4-0.1,0.7-0.2,1-0.3v2.2c-0.3,0.1-0.7,0.3-1.2,0.4s-1,0.1-1.6,0.1
			c-0.8,0-1.5-0.1-2.1-0.4c-0.6-0.3-1.1-0.7-1.5-1.3c-0.4-0.6-0.5-1.5-0.5-2.6v-7.3h-1.8v-1.3l2-1l0.9-2.9h1.8v3h3.9v2.2h-3.9v7.2
			c0,0.7,0.2,1.2,0.5,1.5S120.4,222.1,121,222.1z"/>
		<path class="st8" d="M139.9,224.2H137v-11.5c0-0.4,0-0.8,0-1.1s0-0.8,0-1.1c0-0.4,0-0.7,0.1-1c-0.2,0.2-0.4,0.4-0.6,0.6
			c-0.2,0.2-0.5,0.4-0.8,0.7l-2.1,1.6l-1.4-1.8l5.3-4.2h2.4V224.2z"/>
	</g>
	<g>
		<g>
			<rect x="294.2" y="180.9" class="st13" width="131" height="73"/>
		</g>
		<g>
			<path class="st43" d="M425.7,254.4h-132v-74h132V254.4z M294.7,253.4h130v-72h-130V253.4z"/>
		</g>
	</g>
	<g>
		<path class="st8" d="M324.3,209.1c-0.9,0-1.6,0.2-2.3,0.5c-0.7,0.3-1.2,0.8-1.7,1.3c-0.5,0.6-0.8,1.3-1.1,2.1s-0.4,1.8-0.4,2.8
			c0,1.4,0.2,2.6,0.6,3.6c0.4,1,1,1.8,1.8,2.3c0.8,0.5,1.8,0.8,3,0.8c0.8,0,1.5-0.1,2.2-0.2s1.5-0.3,2.2-0.6v2.5
			c-0.7,0.3-1.5,0.5-2.2,0.6s-1.6,0.2-2.6,0.2c-1.8,0-3.3-0.4-4.5-1.1s-2.1-1.8-2.7-3.2s-0.9-3-0.9-4.8c0-1.4,0.2-2.6,0.6-3.7
			s0.9-2.1,1.6-2.9c0.7-0.8,1.6-1.4,2.7-1.9c1.1-0.4,2.3-0.7,3.6-0.7c0.9,0,1.8,0.1,2.6,0.3c0.9,0.2,1.7,0.5,2.4,0.8l-1,2.4
			c-0.6-0.3-1.3-0.5-1.9-0.8C325.7,209.2,325,209.1,324.3,209.1z"/>
		<path class="st8" d="M335.1,224.7h-2.9v-19h2.9V224.7z"/>
		<path class="st8" d="M340.7,206c0.4,0,0.8,0.1,1.1,0.4c0.3,0.2,0.5,0.6,0.5,1.2c0,0.6-0.2,1-0.5,1.2s-0.7,0.4-1.1,0.4
			c-0.5,0-0.8-0.1-1.2-0.4s-0.5-0.6-0.5-1.2c0-0.6,0.2-1,0.5-1.2C339.8,206.1,340.2,206,340.7,206z M342.1,211.2v13.5h-2.9v-13.5
			H342.1z"/>
		<path class="st8" d="M351.6,210.9c1.2,0,2.2,0.2,3.1,0.7c0.9,0.5,1.5,1.2,2,2.1c0.5,0.9,0.7,2,0.7,3.3v1.5h-9c0,1.3,0.4,2.3,1.1,3
			c0.7,0.7,1.6,1.1,2.8,1.1c0.9,0,1.6-0.1,2.3-0.3c0.7-0.2,1.4-0.4,2.1-0.7v2.3c-0.7,0.3-1.4,0.5-2.1,0.7s-1.5,0.2-2.5,0.2
			c-1.3,0-2.5-0.3-3.5-0.8c-1-0.5-1.8-1.3-2.4-2.3s-0.8-2.3-0.8-3.8c0-1.5,0.3-2.8,0.8-3.9c0.5-1.1,1.2-1.9,2.2-2.4
			C349.2,211.2,350.3,210.9,351.6,210.9z M351.6,213.1c-0.9,0-1.6,0.3-2.2,0.9c-0.6,0.6-0.9,1.4-1,2.6h6.2c0-0.7-0.1-1.3-0.3-1.8
			c-0.2-0.5-0.5-0.9-1-1.2C352.8,213.2,352.2,213.1,351.6,213.1z"/>
		<path class="st8" d="M367.6,210.9c1.5,0,2.7,0.4,3.6,1.2c0.9,0.8,1.3,2,1.3,3.8v8.8h-2.9v-8.3c0-1-0.2-1.8-0.6-2.4
			c-0.4-0.5-1.1-0.8-2-0.8c-1.3,0-2.2,0.4-2.7,1.2c-0.5,0.8-0.8,2-0.8,3.5v6.7h-2.9v-13.5h2.2l0.4,1.8h0.2c0.3-0.5,0.7-0.9,1.1-1.2
			c0.4-0.3,0.9-0.5,1.5-0.7S367,210.9,367.6,210.9z"/>
		<path class="st8" d="M381.5,222.6c0.4,0,0.7,0,1.1-0.1c0.4-0.1,0.7-0.2,1-0.3v2.2c-0.3,0.1-0.7,0.3-1.2,0.4s-1,0.1-1.6,0.1
			c-0.8,0-1.5-0.1-2.1-0.4c-0.6-0.3-1.1-0.7-1.5-1.3c-0.4-0.6-0.5-1.5-0.5-2.6v-7.3h-1.8v-1.3l2-1l0.9-2.9h1.8v3h3.9v2.2h-3.9v7.2
			c0,0.7,0.2,1.2,0.5,1.5S380.9,222.6,381.5,222.6z"/>
		<path class="st8" d="M404,224.7h-12.1v-2.2l4.6-4.7c0.9-0.9,1.6-1.7,2.2-2.4s1-1.3,1.3-1.9c0.3-0.6,0.4-1.2,0.4-1.9
			c0-0.9-0.2-1.5-0.7-2c-0.5-0.4-1.2-0.7-2-0.7c-0.8,0-1.5,0.2-2.1,0.5c-0.7,0.3-1.3,0.7-2,1.3l-1.6-1.9c0.5-0.4,1-0.8,1.6-1.2
			c0.6-0.3,1.2-0.6,1.9-0.8c0.7-0.2,1.5-0.3,2.4-0.3c1.1,0,2.1,0.2,2.9,0.6c0.8,0.4,1.5,1,1.9,1.7c0.4,0.7,0.7,1.6,0.7,2.5
			c0,1-0.2,1.8-0.6,2.7c-0.4,0.8-0.9,1.6-1.6,2.4c-0.7,0.8-1.5,1.7-2.5,2.6l-3.1,3v0.1h8.4V224.7z"/>
	</g>
	<g>
		<path class="st44" d="M396.7,551.7c-0.9,0-1.6,0.2-2.3,0.5c-0.7,0.3-1.2,0.8-1.7,1.3s-0.8,1.3-1.1,2.1c-0.2,0.8-0.4,1.8-0.4,2.8
			c0,1.4,0.2,2.6,0.6,3.6s1,1.8,1.8,2.3c0.8,0.5,1.8,0.8,3,0.8c0.8,0,1.5-0.1,2.2-0.2s1.5-0.3,2.2-0.6v2.5c-0.7,0.3-1.5,0.5-2.2,0.6
			s-1.6,0.2-2.6,0.2c-1.8,0-3.3-0.4-4.5-1.1s-2.1-1.8-2.7-3.2c-0.6-1.4-0.9-3-0.9-4.8c0-1.4,0.2-2.6,0.6-3.7s0.9-2.1,1.6-2.9
			c0.7-0.8,1.6-1.4,2.7-1.9c1.1-0.4,2.3-0.7,3.6-0.7c0.9,0,1.8,0.1,2.6,0.3c0.9,0.2,1.7,0.5,2.4,0.8l-1,2.4
			c-0.6-0.3-1.3-0.5-1.9-0.8C398.1,551.8,397.4,551.7,396.7,551.7z"/>
		<path class="st44" d="M416.6,560.6c0,1.1-0.1,2.1-0.4,3c-0.3,0.9-0.7,1.6-1.3,2.2c-0.6,0.6-1.2,1.1-2,1.4
			c-0.8,0.3-1.7,0.5-2.7,0.5c-0.9,0-1.8-0.2-2.6-0.5c-0.8-0.3-1.4-0.8-2-1.4c-0.6-0.6-1-1.3-1.3-2.2c-0.3-0.9-0.5-1.9-0.5-3
			c0-1.5,0.3-2.8,0.8-3.8c0.5-1,1.3-1.8,2.2-2.4c1-0.5,2.1-0.8,3.4-0.8c1.2,0,2.3,0.3,3.3,0.8c1,0.5,1.7,1.3,2.2,2.4
			S416.6,559.1,416.6,560.6z M406.8,560.6c0,1,0.1,1.8,0.4,2.5c0.2,0.7,0.6,1.2,1.1,1.6s1.2,0.6,2,0.6s1.4-0.2,2-0.6
			s0.9-0.9,1.1-1.6c0.2-0.7,0.4-1.5,0.4-2.5s-0.1-1.8-0.4-2.5c-0.2-0.7-0.6-1.2-1.1-1.6c-0.5-0.4-1.2-0.5-2-0.5
			c-1.2,0-2.1,0.4-2.6,1.2C407.1,557.9,406.8,559.1,406.8,560.6z"/>
		<path class="st44" d="M435.2,553.6c1.5,0,2.7,0.4,3.4,1.2c0.8,0.8,1.2,2,1.2,3.8v8.8h-2.9V559c0-1-0.2-1.8-0.6-2.3s-1-0.8-1.8-0.8
			c-1.1,0-2,0.4-2.5,1.1c-0.5,0.7-0.8,1.8-0.8,3.2v7.2h-2.9V559c0-0.7-0.1-1.3-0.3-1.7c-0.2-0.5-0.4-0.8-0.8-1
			c-0.4-0.2-0.8-0.3-1.4-0.3c-0.8,0-1.4,0.2-1.9,0.5s-0.8,0.9-1,1.6c-0.2,0.7-0.3,1.5-0.3,2.6v6.8h-2.9v-13.5h2.2l0.4,1.8h0.2
			c0.3-0.5,0.6-0.9,1-1.2c0.4-0.3,0.9-0.5,1.4-0.7s1-0.2,1.6-0.2c1,0,1.9,0.2,2.6,0.5c0.7,0.4,1.2,0.9,1.6,1.6h0.2
			c0.4-0.7,1-1.3,1.8-1.6C433.5,553.7,434.3,553.6,435.2,553.6z"/>
		<path class="st44" d="M459,553.6c1.5,0,2.7,0.4,3.4,1.2c0.8,0.8,1.2,2,1.2,3.8v8.8h-2.9V559c0-1-0.2-1.8-0.6-2.3s-1-0.8-1.8-0.8
			c-1.1,0-2,0.4-2.5,1.1c-0.5,0.7-0.8,1.8-0.8,3.2v7.2h-2.9V559c0-0.7-0.1-1.3-0.3-1.7c-0.2-0.5-0.4-0.8-0.8-1
			c-0.4-0.2-0.8-0.3-1.4-0.3c-0.8,0-1.4,0.2-1.9,0.5s-0.8,0.9-1,1.6c-0.2,0.7-0.3,1.5-0.3,2.6v6.8h-2.9v-13.5h2.2l0.4,1.8h0.2
			c0.3-0.5,0.6-0.9,1-1.2c0.4-0.3,0.9-0.5,1.4-0.7s1-0.2,1.6-0.2c1,0,1.9,0.2,2.6,0.5c0.7,0.4,1.2,0.9,1.6,1.6h0.2
			c0.4-0.7,1-1.3,1.8-1.6C457.4,553.7,458.2,553.6,459,553.6z"/>
		<path class="st44" d="M479.5,560.6c0,1.1-0.1,2.1-0.4,3c-0.3,0.9-0.7,1.6-1.3,2.2c-0.6,0.6-1.2,1.1-2,1.4
			c-0.8,0.3-1.7,0.5-2.7,0.5c-0.9,0-1.8-0.2-2.6-0.5c-0.8-0.3-1.4-0.8-2-1.4c-0.6-0.6-1-1.3-1.3-2.2c-0.3-0.9-0.5-1.9-0.5-3
			c0-1.5,0.3-2.8,0.8-3.8c0.5-1,1.3-1.8,2.2-2.4c1-0.5,2.1-0.8,3.4-0.8c1.2,0,2.3,0.3,3.3,0.8c1,0.5,1.7,1.3,2.2,2.4
			S479.5,559.1,479.5,560.6z M469.7,560.6c0,1,0.1,1.8,0.4,2.5c0.2,0.7,0.6,1.2,1.1,1.6s1.2,0.6,2,0.6s1.4-0.2,2-0.6
			s0.9-0.9,1.1-1.6c0.2-0.7,0.4-1.5,0.4-2.5s-0.1-1.8-0.4-2.5c-0.2-0.7-0.6-1.2-1.1-1.6c-0.5-0.4-1.2-0.5-2-0.5
			c-1.2,0-2.1,0.4-2.6,1.2C470,557.9,469.7,559.1,469.7,560.6z"/>
		<path class="st44" d="M489.9,553.6c1.5,0,2.7,0.4,3.6,1.2s1.3,2,1.3,3.8v8.8h-2.9v-8.3c0-1-0.2-1.8-0.6-2.4
			c-0.4-0.5-1.1-0.8-2-0.8c-1.3,0-2.2,0.4-2.7,1.2c-0.5,0.8-0.8,2-0.8,3.5v6.7h-2.9v-13.5h2.2l0.4,1.8h0.2c0.3-0.5,0.7-0.9,1.1-1.2
			c0.4-0.3,0.9-0.5,1.5-0.7C488.7,553.6,489.3,553.6,489.9,553.6z"/>
		<path class="st44" d="M511.7,567.3h-2.9V552h-5.2v-2.5h13.4v2.5h-5.2V567.3z"/>
		<path class="st44" d="M524.7,553.6c1.2,0,2.2,0.2,3.1,0.7c0.9,0.5,1.5,1.2,2,2.1s0.7,2,0.7,3.3v1.5h-9c0,1.3,0.4,2.3,1.1,3
			c0.7,0.7,1.6,1.1,2.8,1.1c0.9,0,1.6-0.1,2.3-0.3s1.4-0.4,2.1-0.7v2.3c-0.7,0.3-1.4,0.5-2.1,0.7s-1.5,0.2-2.5,0.2
			c-1.3,0-2.5-0.3-3.5-0.8c-1-0.5-1.8-1.3-2.4-2.3s-0.8-2.3-0.8-3.8c0-1.5,0.3-2.8,0.8-3.9s1.2-1.9,2.2-2.4S523.5,553.6,524.7,553.6
			z M524.7,555.7c-0.9,0-1.6,0.3-2.2,0.9c-0.6,0.6-0.9,1.4-1,2.6h6.2c0-0.7-0.1-1.3-0.3-1.8c-0.2-0.5-0.5-0.9-1-1.2
			C526,555.9,525.4,555.7,524.7,555.7z"/>
		<path class="st44" d="M539,553.6c1.7,0,3,0.4,3.9,1.1c0.9,0.8,1.3,1.9,1.3,3.5v9.1h-2l-0.5-1.9h-0.1c-0.4,0.5-0.8,0.9-1.2,1.2
			s-0.9,0.6-1.4,0.7c-0.5,0.2-1.2,0.2-1.9,0.2c-0.8,0-1.5-0.1-2.2-0.4c-0.6-0.3-1.1-0.8-1.5-1.4c-0.4-0.6-0.5-1.4-0.5-2.3
			c0-1.4,0.5-2.4,1.6-3.1c1-0.7,2.6-1.1,4.7-1.2l2.3-0.1v-0.7c0-0.9-0.2-1.6-0.7-2c-0.4-0.4-1-0.6-1.8-0.6c-0.7,0-1.3,0.1-2,0.3
			s-1.3,0.4-1.9,0.7l-0.9-2c0.7-0.3,1.4-0.6,2.3-0.9C537.3,553.7,538.1,553.6,539,553.6z M541.4,560.9l-1.7,0.1
			c-1.4,0-2.4,0.3-3,0.7s-0.9,1-0.9,1.8c0,0.7,0.2,1.2,0.6,1.5c0.4,0.3,0.9,0.5,1.6,0.5c1,0,1.8-0.3,2.5-0.8c0.7-0.6,1-1.4,1-2.5
			V560.9z"/>
		<path class="st44" d="M563.5,553.6c1.5,0,2.7,0.4,3.4,1.2c0.8,0.8,1.2,2,1.2,3.8v8.8h-2.9V559c0-1-0.2-1.8-0.6-2.3s-1-0.8-1.8-0.8
			c-1.1,0-2,0.4-2.5,1.1c-0.5,0.7-0.8,1.8-0.8,3.2v7.2h-2.9V559c0-0.7-0.1-1.3-0.3-1.7c-0.2-0.5-0.4-0.8-0.8-1
			c-0.4-0.2-0.8-0.3-1.4-0.3c-0.8,0-1.4,0.2-1.9,0.5s-0.8,0.9-1,1.6c-0.2,0.7-0.3,1.5-0.3,2.6v6.8h-2.9v-13.5h2.2l0.4,1.8h0.2
			c0.3-0.5,0.6-0.9,1-1.2c0.4-0.3,0.9-0.5,1.4-0.7s1-0.2,1.6-0.2c1,0,1.9,0.2,2.6,0.5c0.7,0.4,1.2,0.9,1.6,1.6h0.2
			c0.4-0.7,1-1.3,1.8-1.6C561.9,553.7,562.7,553.6,563.5,553.6z"/>
	</g>
	<g>
		<g>
			<rect x="542.2" y="180.9" class="st13" width="131" height="73"/>
		</g>
		<g>
			<path class="st43" d="M673.7,254.4h-132v-74h132V254.4z M542.7,253.4h130v-72h-130V253.4z"/>
		</g>
	</g>
	<g>
		<path class="st8" d="M572.3,209.1c-0.9,0-1.6,0.2-2.3,0.5c-0.7,0.3-1.2,0.8-1.7,1.3c-0.5,0.6-0.8,1.3-1.1,2.1s-0.4,1.8-0.4,2.8
			c0,1.4,0.2,2.6,0.6,3.6c0.4,1,1,1.8,1.8,2.3c0.8,0.5,1.8,0.8,3,0.8c0.8,0,1.5-0.1,2.2-0.2c0.7-0.1,1.5-0.3,2.2-0.6v2.5
			c-0.7,0.3-1.5,0.5-2.2,0.6s-1.6,0.2-2.6,0.2c-1.8,0-3.3-0.4-4.5-1.1c-1.2-0.8-2.1-1.8-2.7-3.2s-0.9-3-0.9-4.8
			c0-1.4,0.2-2.6,0.6-3.7c0.4-1.1,0.9-2.1,1.6-2.9c0.7-0.8,1.6-1.4,2.7-1.9c1.1-0.4,2.3-0.7,3.6-0.7c0.9,0,1.8,0.1,2.6,0.3
			s1.7,0.5,2.4,0.8l-1,2.4c-0.6-0.3-1.3-0.5-1.9-0.8C573.7,209.2,573,209.1,572.3,209.1z"/>
		<path class="st8" d="M583.1,224.7h-2.9v-19h2.9V224.7z"/>
		<path class="st8" d="M588.7,206c0.4,0,0.8,0.1,1.1,0.4c0.3,0.2,0.5,0.6,0.5,1.2c0,0.6-0.2,1-0.5,1.2c-0.3,0.2-0.7,0.4-1.1,0.4
			c-0.5,0-0.8-0.1-1.2-0.4c-0.3-0.2-0.5-0.6-0.5-1.2c0-0.6,0.2-1,0.5-1.2C587.8,206.1,588.2,206,588.7,206z M590.1,211.2v13.5h-2.9
			v-13.5H590.1z"/>
		<path class="st8" d="M599.6,210.9c1.2,0,2.2,0.2,3.1,0.7c0.9,0.5,1.5,1.2,2,2.1c0.5,0.9,0.7,2,0.7,3.3v1.5h-9c0,1.3,0.4,2.3,1.1,3
			c0.7,0.7,1.6,1.1,2.8,1.1c0.9,0,1.6-0.1,2.3-0.3c0.7-0.2,1.4-0.4,2.1-0.7v2.3c-0.7,0.3-1.4,0.5-2.1,0.7c-0.7,0.1-1.5,0.2-2.5,0.2
			c-1.3,0-2.5-0.3-3.5-0.8c-1-0.5-1.8-1.3-2.4-2.3c-0.6-1-0.8-2.3-0.8-3.8c0-1.5,0.3-2.8,0.8-3.9c0.5-1.1,1.2-1.9,2.2-2.4
			C597.2,211.2,598.3,210.9,599.6,210.9z M599.6,213.1c-0.9,0-1.6,0.3-2.2,0.9s-0.9,1.4-1,2.6h6.2c0-0.7-0.1-1.3-0.3-1.8
			s-0.5-0.9-1-1.2S600.2,213.1,599.6,213.1z"/>
		<path class="st8" d="M615.6,210.9c1.5,0,2.7,0.4,3.6,1.2c0.8,0.8,1.3,2,1.3,3.8v8.8h-2.9v-8.3c0-1-0.2-1.8-0.6-2.4
			c-0.4-0.5-1.1-0.8-2-0.8c-1.3,0-2.2,0.4-2.7,1.2s-0.8,2-0.8,3.5v6.7h-2.9v-13.5h2.2l0.4,1.8h0.2c0.3-0.5,0.7-0.9,1.1-1.2
			c0.4-0.3,0.9-0.5,1.5-0.7S615,210.9,615.6,210.9z"/>
		<path class="st8" d="M629.5,222.6c0.4,0,0.7,0,1.1-0.1c0.4-0.1,0.7-0.2,1-0.3v2.2c-0.3,0.1-0.7,0.3-1.2,0.4
			c-0.5,0.1-1,0.1-1.6,0.1c-0.8,0-1.5-0.1-2.1-0.4c-0.6-0.3-1.1-0.7-1.5-1.3c-0.4-0.6-0.5-1.5-0.5-2.6v-7.3h-1.8v-1.3l2-1l0.9-2.9
			h1.8v3h3.9v2.2h-3.9v7.2c0,0.7,0.2,1.2,0.5,1.5S628.9,222.6,629.5,222.6z"/>
		<path class="st8" d="M651.3,210.9c0,0.8-0.2,1.5-0.5,2.1c-0.3,0.6-0.8,1.1-1.3,1.5c-0.6,0.4-1.2,0.6-2,0.8v0.1
			c1.4,0.2,2.5,0.6,3.2,1.3s1.1,1.7,1.1,2.8c0,1-0.2,2-0.7,2.8c-0.5,0.8-1.3,1.4-2.3,1.9s-2.3,0.7-4,0.7c-1,0-1.9-0.1-2.7-0.2
			s-1.6-0.4-2.3-0.7v-2.6c0.8,0.4,1.6,0.7,2.4,0.9c0.9,0.2,1.7,0.3,2.4,0.3c1.5,0,2.6-0.3,3.2-0.8c0.6-0.6,1-1.3,1-2.3
			c0-0.6-0.2-1.2-0.5-1.6s-0.8-0.7-1.5-0.9c-0.7-0.2-1.6-0.3-2.7-0.3h-1.6v-2.3h1.6c1,0,1.9-0.1,2.5-0.4c0.6-0.2,1.1-0.6,1.4-1
			c0.3-0.4,0.4-1,0.4-1.5c0-0.8-0.2-1.4-0.7-1.8c-0.5-0.4-1.2-0.6-2.2-0.6c-0.6,0-1.2,0.1-1.6,0.2s-0.9,0.3-1.4,0.5
			c-0.4,0.2-0.8,0.4-1.2,0.7l-1.4-2c0.7-0.5,1.5-0.9,2.4-1.3c0.9-0.3,2-0.5,3.3-0.5c1.8,0,3.2,0.4,4.2,1.2
			C650.8,208.5,651.3,209.6,651.3,210.9z"/>
	</g>
	<g>
		<g>
			<rect x="794.2" y="180.9" class="st13" width="131" height="73"/>
		</g>
		<g>
			<path class="st43" d="M925.7,254.4h-132v-74h132V254.4z M794.7,253.4h130v-72h-130V253.4z"/>
		</g>
	</g>
	<g>
		<path class="st8" d="M824.3,209.1c-0.9,0-1.6,0.2-2.3,0.5c-0.7,0.3-1.2,0.8-1.7,1.3c-0.5,0.6-0.8,1.3-1.1,2.1s-0.4,1.8-0.4,2.8
			c0,1.4,0.2,2.6,0.6,3.6c0.4,1,1,1.8,1.8,2.3c0.8,0.5,1.8,0.8,3,0.8c0.8,0,1.5-0.1,2.2-0.2c0.7-0.1,1.5-0.3,2.2-0.6v2.5
			c-0.7,0.3-1.5,0.5-2.2,0.6s-1.6,0.2-2.6,0.2c-1.8,0-3.3-0.4-4.5-1.1c-1.2-0.8-2.1-1.8-2.7-3.2s-0.9-3-0.9-4.8
			c0-1.4,0.2-2.6,0.6-3.7c0.4-1.1,0.9-2.1,1.6-2.9c0.7-0.8,1.6-1.4,2.7-1.9c1.1-0.4,2.3-0.7,3.6-0.7c0.9,0,1.8,0.1,2.6,0.3
			s1.7,0.5,2.4,0.8l-1,2.4c-0.6-0.3-1.3-0.5-1.9-0.8C825.7,209.2,825,209.1,824.3,209.1z"/>
		<path class="st8" d="M835.1,224.7h-2.9v-19h2.9V224.7z"/>
		<path class="st8" d="M840.7,206c0.4,0,0.8,0.1,1.1,0.4c0.3,0.2,0.5,0.6,0.5,1.2c0,0.6-0.2,1-0.5,1.2c-0.3,0.2-0.7,0.4-1.1,0.4
			c-0.5,0-0.8-0.1-1.2-0.4c-0.3-0.2-0.5-0.6-0.5-1.2c0-0.6,0.2-1,0.5-1.2C839.8,206.1,840.2,206,840.7,206z M842.1,211.2v13.5h-2.9
			v-13.5H842.1z"/>
		<path class="st8" d="M851.6,210.9c1.2,0,2.2,0.2,3.1,0.7c0.9,0.5,1.5,1.2,2,2.1c0.5,0.9,0.7,2,0.7,3.3v1.5h-9c0,1.3,0.4,2.3,1.1,3
			c0.7,0.7,1.6,1.1,2.8,1.1c0.9,0,1.6-0.1,2.3-0.3c0.7-0.2,1.4-0.4,2.1-0.7v2.3c-0.7,0.3-1.4,0.5-2.1,0.7c-0.7,0.1-1.5,0.2-2.5,0.2
			c-1.3,0-2.5-0.3-3.5-0.8c-1-0.5-1.8-1.3-2.4-2.3c-0.6-1-0.8-2.3-0.8-3.8c0-1.5,0.3-2.8,0.8-3.9c0.5-1.1,1.2-1.9,2.2-2.4
			C849.2,211.2,850.3,210.9,851.6,210.9z M851.6,213.1c-0.9,0-1.6,0.3-2.2,0.9s-0.9,1.4-1,2.6h6.2c0-0.7-0.1-1.3-0.3-1.8
			s-0.5-0.9-1-1.2S852.2,213.1,851.6,213.1z"/>
		<path class="st8" d="M867.6,210.9c1.5,0,2.7,0.4,3.6,1.2c0.8,0.8,1.3,2,1.3,3.8v8.8h-2.9v-8.3c0-1-0.2-1.8-0.6-2.4
			c-0.4-0.5-1.1-0.8-2-0.8c-1.3,0-2.2,0.4-2.7,1.2s-0.8,2-0.8,3.5v6.7h-2.9v-13.5h2.2l0.4,1.8h0.2c0.3-0.5,0.7-0.9,1.1-1.2
			c0.4-0.3,0.9-0.5,1.5-0.7S867,210.9,867.6,210.9z"/>
		<path class="st8" d="M881.5,222.6c0.4,0,0.7,0,1.1-0.1c0.4-0.1,0.7-0.2,1-0.3v2.2c-0.3,0.1-0.7,0.3-1.2,0.4
			c-0.5,0.1-1,0.1-1.6,0.1c-0.8,0-1.5-0.1-2.1-0.4c-0.6-0.3-1.1-0.7-1.5-1.3c-0.4-0.6-0.5-1.5-0.5-2.6v-7.3h-1.8v-1.3l2-1l0.9-2.9
			h1.8v3h3.9v2.2h-3.9v7.2c0,0.7,0.2,1.2,0.5,1.5S880.9,222.6,881.5,222.6z"/>
		<path class="st8" d="M904.7,220.8h-2.4v3.9h-2.8v-3.9h-8.1v-2.2l8.2-11.8h2.8v11.6h2.4V220.8z M899.4,218.4v-4.4
			c0-0.4,0-0.7,0-1.1c0-0.4,0-0.7,0-1.1c0-0.3,0-0.7,0-1c0-0.3,0-0.5,0-0.7h-0.1c-0.2,0.3-0.3,0.7-0.5,1c-0.2,0.3-0.4,0.7-0.6,1
			l-4.4,6.4H899.4z"/>
	</g>
	<g>
		<g>
			<path class="st44" d="M356.5,313.4c1.6,0,2.7,0.3,3.4,1s1.1,1.5,1.1,2.7c0,0.5-0.1,1-0.2,1.5c-0.2,0.5-0.4,0.9-0.8,1.3
				s-0.9,0.6-1.5,0.9c-0.6,0.2-1.4,0.3-2.2,0.3H355v4.5h-2v-12.1H356.5z M356.4,315.1H355v4.3h1.1c0.6,0,1.2-0.1,1.6-0.2
				c0.4-0.1,0.8-0.4,1-0.7c0.2-0.3,0.3-0.7,0.3-1.3c0-0.7-0.2-1.2-0.6-1.6C358,315.3,357.3,315.1,356.4,315.1z"/>
			<path class="st44" d="M367.9,316.2c0.2,0,0.3,0,0.5,0c0.2,0,0.3,0,0.5,0.1l-0.2,1.8c-0.1,0-0.3-0.1-0.4-0.1s-0.3,0-0.5,0
				c-0.3,0-0.7,0.1-1,0.2c-0.3,0.1-0.6,0.3-0.8,0.5s-0.4,0.5-0.6,0.9c-0.1,0.3-0.2,0.7-0.2,1.2v4.8h-2v-9.2h1.5l0.3,1.6h0.1
				c0.2-0.3,0.4-0.6,0.7-0.9c0.3-0.3,0.6-0.5,0.9-0.7S367.5,316.2,367.9,316.2z"/>
			<path class="st44" d="M378.7,321c0,0.8-0.1,1.4-0.3,2c-0.2,0.6-0.5,1.1-0.9,1.5c-0.4,0.4-0.8,0.7-1.4,0.9
				c-0.5,0.2-1.1,0.3-1.8,0.3c-0.6,0-1.2-0.1-1.7-0.3c-0.5-0.2-1-0.5-1.4-0.9c-0.4-0.4-0.7-0.9-0.9-1.5c-0.2-0.6-0.3-1.3-0.3-2
				c0-1,0.2-1.9,0.5-2.6c0.4-0.7,0.9-1.2,1.5-1.6c0.7-0.4,1.4-0.6,2.3-0.6c0.8,0,1.6,0.2,2.2,0.6c0.6,0.4,1.2,0.9,1.5,1.6
				S378.7,319.9,378.7,321z M372.1,321c0,0.7,0.1,1.2,0.2,1.7c0.2,0.5,0.4,0.8,0.8,1.1s0.8,0.4,1.3,0.4s1-0.1,1.3-0.4
				s0.6-0.6,0.8-1.1c0.2-0.5,0.2-1,0.2-1.7s-0.1-1.2-0.2-1.7c-0.2-0.5-0.4-0.8-0.8-1.1s-0.8-0.4-1.3-0.4c-0.8,0-1.4,0.3-1.8,0.8
				C372.3,319.2,372.1,319.9,372.1,321z"/>
			<path class="st44" d="M380.1,329.6c-0.3,0-0.6,0-0.8-0.1c-0.3,0-0.5-0.1-0.7-0.1v-1.6c0.2,0.1,0.4,0.1,0.5,0.1c0.2,0,0.4,0,0.6,0
				c0.4,0,0.7-0.1,0.9-0.3s0.4-0.6,0.4-1.1v-10.2h2v10.4c0,0.6-0.1,1.1-0.3,1.5s-0.5,0.8-0.9,1C381.3,329.5,380.7,329.6,380.1,329.6
				z M380.9,313.9c0-0.4,0.1-0.7,0.3-0.8s0.5-0.2,0.8-0.2c0.3,0,0.6,0.1,0.8,0.2s0.3,0.4,0.3,0.8c0,0.4-0.1,0.7-0.3,0.8
				s-0.5,0.2-0.8,0.2c-0.3,0-0.6-0.1-0.8-0.2S380.9,314.3,380.9,313.9z"/>
			<path class="st44" d="M389.4,316.2c0.8,0,1.5,0.2,2.1,0.5c0.6,0.3,1,0.8,1.4,1.4s0.5,1.4,0.5,2.2v1h-6.1c0,0.9,0.3,1.6,0.7,2.1
				c0.5,0.5,1.1,0.7,1.9,0.7c0.6,0,1.1-0.1,1.6-0.2s1-0.3,1.4-0.5v1.6c-0.5,0.2-0.9,0.4-1.4,0.5s-1,0.1-1.7,0.1
				c-0.9,0-1.7-0.2-2.4-0.5s-1.2-0.9-1.6-1.6s-0.6-1.6-0.6-2.6c0-1,0.2-1.9,0.5-2.6s0.8-1.3,1.5-1.6S388.5,316.2,389.4,316.2z
				 M389.4,317.7c-0.6,0-1.1,0.2-1.5,0.6s-0.6,1-0.7,1.8h4.2c0-0.5-0.1-0.9-0.2-1.2c-0.1-0.4-0.4-0.6-0.7-0.8
				S389.8,317.7,389.4,317.7z"/>
			<path class="st44" d="M399.2,325.7c-0.9,0-1.6-0.2-2.3-0.5c-0.6-0.3-1.1-0.9-1.5-1.6c-0.3-0.7-0.5-1.6-0.5-2.7
				c0-1.1,0.2-2,0.6-2.7c0.4-0.7,0.9-1.2,1.6-1.6c0.7-0.3,1.4-0.5,2.3-0.5c0.5,0,1,0.1,1.5,0.2c0.4,0.1,0.8,0.2,1.1,0.4l-0.6,1.6
				c-0.3-0.1-0.7-0.3-1-0.3c-0.4-0.1-0.7-0.1-1-0.1c-0.5,0-1,0.1-1.3,0.4c-0.4,0.2-0.6,0.6-0.8,1.1c-0.2,0.5-0.3,1.1-0.3,1.8
				c0,0.7,0.1,1.2,0.3,1.7c0.2,0.5,0.4,0.8,0.8,1s0.8,0.4,1.3,0.4c0.5,0,1-0.1,1.4-0.2s0.8-0.3,1.1-0.5v1.7
				c-0.3,0.2-0.7,0.3-1.1,0.4S399.8,325.7,399.2,325.7z"/>
			<path class="st44" d="M407.4,324.2c0.3,0,0.5,0,0.8-0.1c0.2,0,0.5-0.1,0.7-0.2v1.5c-0.2,0.1-0.5,0.2-0.8,0.2s-0.7,0.1-1.1,0.1
				c-0.5,0-1-0.1-1.4-0.3c-0.4-0.2-0.7-0.5-1-0.9c-0.2-0.4-0.4-1-0.4-1.8v-4.9h-1.3V317l1.3-0.7l0.6-2h1.2v2h2.6v1.5h-2.6v4.9
				c0,0.5,0.1,0.8,0.3,1C406.7,324,407,324.2,407.4,324.2z"/>
			<path class="st44" d="M420.2,325.6h-2v-7.8c0-0.3,0-0.5,0-0.8c0-0.3,0-0.5,0-0.8c0-0.2,0-0.5,0-0.7c-0.1,0.1-0.3,0.3-0.4,0.4
				c-0.2,0.2-0.3,0.3-0.5,0.5l-1.4,1.1l-1-1.2l3.6-2.8h1.6V325.6z"/>
		</g>
		<g>
			<path class="st44" d="M356.5,374.9c1.6,0,2.7,0.3,3.4,1s1.1,1.5,1.1,2.7c0,0.5-0.1,1-0.2,1.5c-0.2,0.5-0.4,0.9-0.8,1.3
				s-0.9,0.6-1.5,0.9c-0.6,0.2-1.4,0.3-2.2,0.3H355v4.5h-2v-12.1H356.5z M356.4,376.6H355v4.3h1.1c0.6,0,1.2-0.1,1.6-0.2
				c0.4-0.1,0.8-0.4,1-0.7c0.2-0.3,0.3-0.7,0.3-1.3c0-0.7-0.2-1.2-0.6-1.6C358,376.8,357.3,376.6,356.4,376.6z"/>
			<path class="st44" d="M367.9,377.7c0.2,0,0.3,0,0.5,0c0.2,0,0.3,0,0.5,0.1l-0.2,1.8c-0.1,0-0.3-0.1-0.4-0.1s-0.3,0-0.5,0
				c-0.3,0-0.7,0.1-1,0.2c-0.3,0.1-0.6,0.3-0.8,0.5s-0.4,0.5-0.6,0.9c-0.1,0.3-0.2,0.7-0.2,1.2v4.8h-2v-9.2h1.5l0.3,1.6h0.1
				c0.2-0.3,0.4-0.6,0.7-0.9c0.3-0.3,0.6-0.5,0.9-0.7S367.5,377.7,367.9,377.7z"/>
			<path class="st44" d="M378.7,382.5c0,0.8-0.1,1.4-0.3,2c-0.2,0.6-0.5,1.1-0.9,1.5c-0.4,0.4-0.8,0.7-1.4,0.9
				c-0.5,0.2-1.1,0.3-1.8,0.3c-0.6,0-1.2-0.1-1.7-0.3c-0.5-0.2-1-0.5-1.4-0.9c-0.4-0.4-0.7-0.9-0.9-1.5c-0.2-0.6-0.3-1.3-0.3-2
				c0-1,0.2-1.9,0.5-2.6c0.4-0.7,0.9-1.2,1.5-1.6c0.7-0.4,1.4-0.6,2.3-0.6c0.8,0,1.6,0.2,2.2,0.6c0.6,0.4,1.2,0.9,1.5,1.6
				S378.7,381.4,378.7,382.5z M372.1,382.5c0,0.7,0.1,1.2,0.2,1.7c0.2,0.5,0.4,0.8,0.8,1.1s0.8,0.4,1.3,0.4s1-0.1,1.3-0.4
				s0.6-0.6,0.8-1.1c0.2-0.5,0.2-1,0.2-1.7s-0.1-1.2-0.2-1.7c-0.2-0.5-0.4-0.8-0.8-1.1s-0.8-0.4-1.3-0.4c-0.8,0-1.4,0.3-1.8,0.8
				C372.3,380.7,372.1,381.4,372.1,382.5z"/>
			<path class="st44" d="M380.1,391.1c-0.3,0-0.6,0-0.8-0.1c-0.3,0-0.5-0.1-0.7-0.1v-1.6c0.2,0.1,0.4,0.1,0.5,0.1c0.2,0,0.4,0,0.6,0
				c0.4,0,0.7-0.1,0.9-0.3s0.4-0.6,0.4-1.1v-10.2h2v10.4c0,0.6-0.1,1.1-0.3,1.5s-0.5,0.8-0.9,1C381.3,391,380.7,391.1,380.1,391.1z
				 M380.9,375.4c0-0.4,0.1-0.7,0.3-0.8s0.5-0.2,0.8-0.2c0.3,0,0.6,0.1,0.8,0.2s0.3,0.4,0.3,0.8c0,0.4-0.1,0.7-0.3,0.8
				s-0.5,0.2-0.8,0.2c-0.3,0-0.6-0.1-0.8-0.2S380.9,375.8,380.9,375.4z"/>
			<path class="st44" d="M389.4,377.7c0.8,0,1.5,0.2,2.1,0.5c0.6,0.3,1,0.8,1.4,1.4s0.5,1.4,0.5,2.2v1h-6.1c0,0.9,0.3,1.6,0.7,2.1
				c0.5,0.5,1.1,0.7,1.9,0.7c0.6,0,1.1-0.1,1.6-0.2s1-0.3,1.4-0.5v1.6c-0.5,0.2-0.9,0.4-1.4,0.5s-1,0.1-1.7,0.1
				c-0.9,0-1.7-0.2-2.4-0.5s-1.2-0.9-1.6-1.6s-0.6-1.6-0.6-2.6c0-1,0.2-1.9,0.5-2.6s0.8-1.3,1.5-1.6S388.5,377.7,389.4,377.7z
				 M389.4,379.2c-0.6,0-1.1,0.2-1.5,0.6s-0.6,1-0.7,1.8h4.2c0-0.5-0.1-0.9-0.2-1.2c-0.1-0.4-0.4-0.6-0.7-0.8
				S389.8,379.2,389.4,379.2z"/>
			<path class="st44" d="M399.2,387.2c-0.9,0-1.6-0.2-2.3-0.5c-0.6-0.3-1.1-0.9-1.5-1.6c-0.3-0.7-0.5-1.6-0.5-2.7
				c0-1.1,0.2-2,0.6-2.7c0.4-0.7,0.9-1.2,1.6-1.6c0.7-0.3,1.4-0.5,2.3-0.5c0.5,0,1,0.1,1.5,0.2c0.4,0.1,0.8,0.2,1.1,0.4l-0.6,1.6
				c-0.3-0.1-0.7-0.3-1-0.3c-0.4-0.1-0.7-0.1-1-0.1c-0.5,0-1,0.1-1.3,0.4c-0.4,0.2-0.6,0.6-0.8,1.1c-0.2,0.5-0.3,1.1-0.3,1.8
				c0,0.7,0.1,1.2,0.3,1.7c0.2,0.5,0.4,0.8,0.8,1s0.8,0.4,1.3,0.4c0.5,0,1-0.1,1.4-0.2s0.8-0.3,1.1-0.5v1.7
				c-0.3,0.2-0.7,0.3-1.1,0.4S399.8,387.2,399.2,387.2z"/>
			<path class="st44" d="M407.4,385.7c0.3,0,0.5,0,0.8-0.1c0.2,0,0.5-0.1,0.7-0.2v1.5c-0.2,0.1-0.5,0.2-0.8,0.2s-0.7,0.1-1.1,0.1
				c-0.5,0-1-0.1-1.4-0.3c-0.4-0.2-0.7-0.5-1-0.9c-0.2-0.4-0.4-1-0.4-1.8v-4.9h-1.3v-0.9l1.3-0.7l0.6-2h1.2v2h2.6v1.5h-2.6v4.9
				c0,0.5,0.1,0.8,0.3,1C406.7,385.5,407,385.7,407.4,385.7z"/>
			<path class="st44" d="M422.7,387.1h-8.2v-1.5l3.1-3.2c0.6-0.6,1.1-1.2,1.5-1.6s0.7-0.9,0.9-1.3c0.2-0.4,0.3-0.8,0.3-1.3
				c0-0.6-0.2-1-0.5-1.3c-0.3-0.3-0.8-0.5-1.3-0.5c-0.5,0-1,0.1-1.5,0.3c-0.4,0.2-0.9,0.5-1.4,0.9l-1.1-1.3c0.3-0.3,0.7-0.6,1.1-0.8
				c0.4-0.2,0.8-0.4,1.3-0.6c0.5-0.1,1-0.2,1.6-0.2c0.8,0,1.4,0.1,2,0.4c0.6,0.3,1,0.7,1.3,1.1s0.5,1.1,0.5,1.7
				c0,0.7-0.1,1.3-0.4,1.8c-0.3,0.6-0.6,1.1-1.1,1.6c-0.5,0.5-1.1,1.1-1.7,1.8l-2.1,2.1v0.1h5.7V387.1z"/>
		</g>
		<g>
			<path class="st44" d="M356.5,435.7c1.6,0,2.7,0.3,3.4,1s1.1,1.5,1.1,2.7c0,0.5-0.1,1-0.2,1.5c-0.2,0.5-0.4,0.9-0.8,1.3
				s-0.9,0.6-1.5,0.9c-0.6,0.2-1.4,0.3-2.2,0.3H355v4.5h-2v-12.1H356.5z M356.4,437.3H355v4.3h1.1c0.6,0,1.2-0.1,1.6-0.2
				c0.4-0.1,0.8-0.4,1-0.7c0.2-0.3,0.3-0.7,0.3-1.3c0-0.7-0.2-1.2-0.6-1.6C358,437.5,357.3,437.3,356.4,437.3z"/>
			<path class="st44" d="M367.9,438.5c0.2,0,0.3,0,0.5,0c0.2,0,0.3,0,0.5,0.1l-0.2,1.8c-0.1,0-0.3-0.1-0.4-0.1s-0.3,0-0.5,0
				c-0.3,0-0.7,0.1-1,0.2c-0.3,0.1-0.6,0.3-0.8,0.5s-0.4,0.5-0.6,0.9c-0.1,0.3-0.2,0.7-0.2,1.2v4.8h-2v-9.2h1.5l0.3,1.6h0.1
				c0.2-0.3,0.4-0.6,0.7-0.9c0.3-0.3,0.6-0.5,0.9-0.7S367.5,438.5,367.9,438.5z"/>
			<path class="st44" d="M378.7,443.2c0,0.8-0.1,1.4-0.3,2c-0.2,0.6-0.5,1.1-0.9,1.5c-0.4,0.4-0.8,0.7-1.4,0.9
				c-0.5,0.2-1.1,0.3-1.8,0.3c-0.6,0-1.2-0.1-1.7-0.3c-0.5-0.2-1-0.5-1.4-0.9c-0.4-0.4-0.7-0.9-0.9-1.5c-0.2-0.6-0.3-1.3-0.3-2
				c0-1,0.2-1.9,0.5-2.6c0.4-0.7,0.9-1.2,1.5-1.6c0.7-0.4,1.4-0.6,2.3-0.6c0.8,0,1.6,0.2,2.2,0.6c0.6,0.4,1.2,0.9,1.5,1.6
				S378.7,442.2,378.7,443.2z M372.1,443.2c0,0.7,0.1,1.2,0.2,1.7c0.2,0.5,0.4,0.8,0.8,1.1s0.8,0.4,1.3,0.4s1-0.1,1.3-0.4
				s0.6-0.6,0.8-1.1c0.2-0.5,0.2-1,0.2-1.7s-0.1-1.2-0.2-1.7c-0.2-0.5-0.4-0.8-0.8-1.1s-0.8-0.4-1.3-0.4c-0.8,0-1.4,0.3-1.8,0.8
				C372.3,441.4,372.1,442.2,372.1,443.2z"/>
			<path class="st44" d="M380.1,451.9c-0.3,0-0.6,0-0.8-0.1c-0.3,0-0.5-0.1-0.7-0.1v-1.6c0.2,0.1,0.4,0.1,0.5,0.1c0.2,0,0.4,0,0.6,0
				c0.4,0,0.7-0.1,0.9-0.3s0.4-0.6,0.4-1.1v-10.2h2V449c0,0.6-0.1,1.1-0.3,1.5s-0.5,0.8-0.9,1C381.3,451.8,380.7,451.9,380.1,451.9z
				 M380.9,436.2c0-0.4,0.1-0.7,0.3-0.8s0.5-0.2,0.8-0.2c0.3,0,0.6,0.1,0.8,0.2s0.3,0.4,0.3,0.8c0,0.4-0.1,0.7-0.3,0.8
				s-0.5,0.2-0.8,0.2c-0.3,0-0.6-0.1-0.8-0.2S380.9,436.6,380.9,436.2z"/>
			<path class="st44" d="M389.4,438.5c0.8,0,1.5,0.2,2.1,0.5c0.6,0.3,1,0.8,1.4,1.4s0.5,1.4,0.5,2.2v1h-6.1c0,0.9,0.3,1.6,0.7,2.1
				c0.5,0.5,1.1,0.7,1.9,0.7c0.6,0,1.1-0.1,1.6-0.2s1-0.3,1.4-0.5v1.6c-0.5,0.2-0.9,0.4-1.4,0.5s-1,0.1-1.7,0.1
				c-0.9,0-1.7-0.2-2.4-0.5s-1.2-0.9-1.6-1.6s-0.6-1.6-0.6-2.6c0-1,0.2-1.9,0.5-2.6s0.8-1.3,1.5-1.6S388.5,438.5,389.4,438.5z
				 M389.4,439.9c-0.6,0-1.1,0.2-1.5,0.6s-0.6,1-0.7,1.8h4.2c0-0.5-0.1-0.9-0.2-1.2c-0.1-0.4-0.4-0.6-0.7-0.8
				S389.8,439.9,389.4,439.9z"/>
			<path class="st44" d="M399.2,448c-0.9,0-1.6-0.2-2.3-0.5c-0.6-0.3-1.1-0.9-1.5-1.6c-0.3-0.7-0.5-1.6-0.5-2.7c0-1.1,0.2-2,0.6-2.7
				c0.4-0.7,0.9-1.2,1.6-1.6c0.7-0.3,1.4-0.5,2.3-0.5c0.5,0,1,0.1,1.5,0.2c0.4,0.1,0.8,0.2,1.1,0.4l-0.6,1.6c-0.3-0.1-0.7-0.3-1-0.3
				c-0.4-0.1-0.7-0.1-1-0.1c-0.5,0-1,0.1-1.3,0.4c-0.4,0.2-0.6,0.6-0.8,1.1c-0.2,0.5-0.3,1.1-0.3,1.8c0,0.7,0.1,1.2,0.3,1.7
				c0.2,0.5,0.4,0.8,0.8,1s0.8,0.4,1.3,0.4c0.5,0,1-0.1,1.4-0.2s0.8-0.3,1.1-0.5v1.7c-0.3,0.2-0.7,0.3-1.1,0.4S399.8,448,399.2,448z
				"/>
			<path class="st44" d="M407.4,446.4c0.3,0,0.5,0,0.8-0.1c0.2,0,0.5-0.1,0.7-0.2v1.5c-0.2,0.1-0.5,0.2-0.8,0.2s-0.7,0.1-1.1,0.1
				c-0.5,0-1-0.1-1.4-0.3c-0.4-0.2-0.7-0.5-1-0.9c-0.2-0.4-0.4-1-0.4-1.8v-4.9h-1.3v-0.9l1.3-0.7l0.6-2h1.2v2h2.6v1.5h-2.6v4.9
				c0,0.5,0.1,0.8,0.3,1C406.7,446.3,407,446.4,407.4,446.4z"/>
			<path class="st44" d="M422.2,438.5c0,0.5-0.1,1-0.3,1.4s-0.5,0.7-0.9,1c-0.4,0.3-0.8,0.4-1.3,0.6v0.1c1,0.1,1.7,0.4,2.2,0.9
				c0.5,0.5,0.7,1.1,0.7,1.9c0,0.7-0.2,1.3-0.5,1.9c-0.3,0.6-0.9,1-1.6,1.3c-0.7,0.3-1.6,0.5-2.7,0.5c-0.7,0-1.3-0.1-1.8-0.2
				c-0.6-0.1-1.1-0.3-1.6-0.5v-1.7c0.5,0.3,1.1,0.5,1.6,0.6c0.6,0.1,1.1,0.2,1.7,0.2c1,0,1.7-0.2,2.2-0.6s0.6-0.9,0.6-1.6
				c0-0.4-0.1-0.8-0.3-1.1c-0.2-0.3-0.6-0.5-1-0.6s-1.1-0.2-1.8-0.2h-1.1v-1.6h1.1c0.7,0,1.3-0.1,1.7-0.3c0.4-0.2,0.7-0.4,0.9-0.7
				c0.2-0.3,0.3-0.6,0.3-1c0-0.5-0.2-0.9-0.5-1.2c-0.3-0.3-0.8-0.4-1.5-0.4c-0.4,0-0.8,0-1.1,0.1c-0.3,0.1-0.6,0.2-0.9,0.4
				c-0.3,0.1-0.5,0.3-0.8,0.5l-0.9-1.4c0.5-0.3,1-0.6,1.6-0.9c0.6-0.2,1.4-0.4,2.2-0.4c1.2,0,2.2,0.3,2.9,0.8
				S422.2,437.6,422.2,438.5z"/>
		</g>
		<g>
			<path class="st43" d="M359.7,502.9c-1.3,0-2.7,0-4-0.1l0-1c1.3,0,2.7,0.1,4,0.1V502.9z M360.5,502.9l0-1c1.3,0,2.7,0,4-0.1l0,1
				C363.2,502.8,361.9,502.8,360.5,502.9z M351.7,502.6c-1.3-0.1-2.7-0.2-4-0.4l0.1-1c1.3,0.2,2.6,0.3,4,0.4L351.7,502.6z
				 M368.6,502.5l-0.1-1c1.3-0.1,2.6-0.2,4-0.4l0.1,1C371.2,502.2,369.9,502.4,368.6,502.5z M343.7,501.6c-1.3-0.2-2.7-0.4-4-0.7
				l0.2-1c1.3,0.2,2.6,0.5,3.9,0.7L343.7,501.6z M376.5,501.5l-0.2-1c1.3-0.2,2.6-0.4,3.9-0.7l0.2,1
				C379.2,501.1,377.9,501.3,376.5,501.5z M335.8,500.1c-1.3-0.3-2.6-0.6-3.9-1l0.3-1c1.3,0.3,2.6,0.7,3.9,1L335.8,500.1z
				 M384.4,499.9l-0.2-1c1.3-0.3,2.6-0.6,3.8-1l0.3,1C387,499.3,385.7,499.6,384.4,499.9z M328.1,498c-1.3-0.4-2.6-0.8-3.8-1.3
				l0.3-0.9c1.2,0.4,2.5,0.9,3.8,1.3L328.1,498z M392.2,497.8l-0.3-1c1.3-0.4,2.5-0.8,3.8-1.3l0.3,0.9
				C394.7,496.9,393.4,497.3,392.2,497.8z M320.5,495.3c-1.2-0.5-2.5-1-3.7-1.6l0.4-0.9c1.2,0.5,2.4,1.1,3.7,1.6L320.5,495.3z
				 M399.7,495l-0.4-0.9c1.2-0.5,2.4-1,3.6-1.6l0.4,0.9C402.1,493.9,400.9,494.5,399.7,495z M313.1,492c-1.2-0.6-2.4-1.2-3.6-1.9
				l0.5-0.9c1.2,0.6,2.4,1.3,3.5,1.8L313.1,492z M407,491.6l-0.5-0.9c1.2-0.6,2.4-1.2,3.5-1.9l0.5,0.9
				C409.4,490.4,408.2,491,407,491.6z M306.1,488.1c-1.1-0.7-2.3-1.4-3.4-2.1l0.5-0.8c1.1,0.7,2.2,1.4,3.4,2.1L306.1,488.1z
				 M414,487.8l-0.5-0.9c1.1-0.7,2.3-1.4,3.4-2.1l0.5,0.8C416.3,486.4,415.1,487.1,414,487.8z M299.3,483.8
				c-1.1-0.8-2.2-1.6-3.2-2.4l0.6-0.8c1.1,0.8,2.1,1.6,3.2,2.4L299.3,483.8z M420.7,483.4l-0.6-0.8c1.1-0.8,2.1-1.6,3.2-2.4l0.6,0.8
				C422.9,481.8,421.8,482.6,420.7,483.4z M292.9,478.9c-1-0.8-2.1-1.7-3.1-2.6l0.7-0.7c1,0.9,2,1.8,3,2.6L292.9,478.9z M427,478.4
				l-0.6-0.8c1-0.9,2-1.7,3-2.6l0.7,0.7C429.1,476.7,428.1,477.6,427,478.4z M286.9,473.5c-1-0.9-1.9-1.9-2.8-2.8l0.7-0.7
				c0.9,1,1.9,1.9,2.8,2.8L286.9,473.5z M433,473.1l-0.7-0.7c1-0.9,1.9-1.9,2.8-2.8l0.7,0.7C434.9,471.2,434,472.1,433,473.1z
				 M281.4,467.8c-0.9-1-1.8-2-2.6-3l0.8-0.6c0.8,1,1.7,2,2.6,3L281.4,467.8z M438.5,467.2l-0.8-0.7c0.9-1,1.7-2,2.6-3l0.8,0.6
				C440.3,465.2,439.4,466.2,438.5,467.2z M276.2,461.6c-0.8-1.1-1.6-2.1-2.4-3.2l0.8-0.6c0.8,1.1,1.6,2.2,2.4,3.2L276.2,461.6z
				 M443.6,461l-0.8-0.6c0.8-1,1.6-2.1,2.3-3.2l0.8,0.6C445.2,458.8,444.4,459.9,443.6,461z M271.6,455c-0.7-1.1-1.4-2.3-2.1-3.4
				l0.9-0.5c0.7,1.1,1.4,2.3,2.1,3.4L271.6,455z M448.2,454.4l-0.8-0.5c0.7-1.1,1.4-2.3,2.1-3.4l0.9,0.5
				C449.6,452.1,448.9,453.3,448.2,454.4z M267.5,448.1c-0.6-1.2-1.3-2.4-1.9-3.6l0.9-0.4c0.6,1.2,1.2,2.4,1.8,3.5L267.5,448.1z
				 M452.3,447.5l-0.9-0.5c0.6-1.2,1.2-2.4,1.8-3.5l0.9,0.4C453.5,445.1,452.9,446.3,452.3,447.5z M263.9,440.9
				c-0.5-1.2-1.1-2.5-1.6-3.7l0.9-0.4c0.5,1.2,1,2.5,1.6,3.6L263.9,440.9z M455.8,440.2l-0.9-0.4c0.5-1.2,1.1-2.4,1.5-3.7l0.9,0.4
				C456.9,437.8,456.4,439,455.8,440.2z M260.9,433.5c-0.5-1.3-0.9-2.5-1.3-3.8l1-0.3c0.4,1.3,0.8,2.5,1.3,3.8L260.9,433.5z
				 M458.8,432.7l-0.9-0.3c0.4-1.2,0.9-2.5,1.3-3.8l1,0.3C459.7,430.2,459.2,431.5,458.8,432.7z M258.5,425.8
				c-0.4-1.3-0.7-2.6-1-3.9l1-0.2c0.3,1.3,0.6,2.6,1,3.9L258.5,425.8z M461.2,425.1l-1-0.3c0.3-1.3,0.7-2.6,1-3.9l1,0.2
				C461.8,422.5,461.5,423.8,461.2,425.1z M256.7,418c-0.3-1.3-0.5-2.6-0.7-4l1-0.2c0.2,1.3,0.4,2.6,0.7,3.9L256.7,418z
				 M462.9,417.2l-1-0.2c0.2-1.3,0.5-2.6,0.7-3.9l1,0.1C463.4,414.6,463.2,415.9,462.9,417.2z M255.4,410.1c-0.2-1.3-0.3-2.7-0.4-4
				l1-0.1c0.1,1.3,0.2,2.7,0.4,4L255.4,410.1z M464.1,409.3l-1-0.1c0.1-1.3,0.3-2.6,0.4-4l1,0.1
				C464.4,406.6,464.3,407.9,464.1,409.3z M254.8,402.1c-0.1-1.3-0.1-2.7-0.1-4l1,0c0,1.3,0,2.7,0.1,4L254.8,402.1z M464.7,401.3
				l-1,0c0-1.1,0.1-2.2,0.1-3.4v-0.6h1v0.6C464.7,399,464.7,400.1,464.7,401.3z M255.7,394.1h-1v-4h1V394.1z M464.7,393.2h-1v-4h1
				V393.2z M255.7,386.1h-1v-4h1V386.1z M464.7,385.2h-1v-4h1V385.2z M255.7,378.1h-1v-4h1V378.1z M464.7,377.2h-1v-4h1V377.2z
				 M255.7,370.1h-1v-4h1V370.1z M464.7,369.2h-1v-4h1V369.2z M255.7,362.1h-1v-4h1V362.1z M464.7,361.2h-1v-4h1V361.2z
				 M255.7,354.1h-1v-4h1V354.1z M464.7,353.2h-1v-4h1V353.2z M255.7,346.1h-1v-4h1V346.1z M464.7,345.2h-1v-4h1V345.2z
				 M255.7,338.1h-1v-4h1V338.1z M464.7,337.2h-1v-4h1V337.2z M255.7,330.1h-1v-4h1V330.1z M464.7,329.2h-1v-4h1V329.2z
				 M255.7,322.1h-1v-4h1V322.1z M464.7,321.2h-1v-4h1V321.2z M255.7,314.1h-1v-4h1V314.1z M464.7,313.2h-1v-4h1V313.2z
				 M255.7,306.1h-1v-4h1V306.1z M464.7,305.2h-1v-4h1V305.2z M255.7,298.1h-1v-4h1V298.1z M464.7,297.2h-1v-4h1V297.2z
				 M255.7,290.1h-1v-4h1V290.1z M464.7,289.2h-1v-4h1V289.2z M255.7,282.1h-1v-4h1V282.1z M464.7,281.2h-1v-4h1V281.2z
				 M255.7,274.1h-1v-4h1V274.1z M464.7,273.2h-1v-4h1V273.2z M255.7,266.1h-1v-4h1V266.1z M464.7,265.2h-1v-4h1V265.2z
				 M255.7,258.1h-1v-4h1V258.1z M464.7,257.2h-1v-4h1V257.2z M255.7,250.1h-1v-4h1V250.1z M464.7,249.2h-1v-4h1V249.2z
				 M255.7,242.1l-1,0c0-1.3,0.1-2.7,0.1-4l1,0.1C255.8,239.4,255.8,240.8,255.7,242.1z M463.7,241.3c0-1.3-0.1-2.7-0.2-4l1-0.1
				c0.1,1.3,0.1,2.7,0.2,4L463.7,241.3z M256.2,234.1l-1-0.1c0.1-1.3,0.3-2.7,0.4-4l1,0.1C256.4,231.5,256.3,232.8,256.2,234.1z
				 M463.2,233.3c-0.1-1.3-0.3-2.6-0.5-4l1-0.1c0.2,1.3,0.3,2.7,0.5,4L463.2,233.3z M257.2,226.2l-1-0.2c0.2-1.3,0.5-2.6,0.8-3.9
				l1,0.2C257.7,223.6,257.4,224.9,257.2,226.2z M462.1,225.4c-0.2-1.3-0.5-2.6-0.8-3.9l1-0.2c0.3,1.3,0.5,2.6,0.8,3.9L462.1,225.4z
				 M258.8,218.5l-1-0.2c0.3-1.3,0.7-2.6,1.1-3.9l1,0.3C259.5,215.9,259.2,217.2,258.8,218.5z M460.4,217.7
				c-0.3-1.3-0.7-2.6-1.1-3.8l1-0.3c0.4,1.3,0.7,2.6,1.1,3.9L460.4,217.7z M261.1,210.8l-0.9-0.3c0.4-1.3,0.9-2.5,1.4-3.8l0.9,0.4
				C262,208.3,261.5,209.6,261.1,210.8z M458.1,210c-0.4-1.3-0.9-2.5-1.4-3.7l0.9-0.4c0.5,1.2,0.9,2.5,1.4,3.8L458.1,210z
				 M263.9,203.3L263,203c0.5-1.2,1.1-2.5,1.6-3.7l0.9,0.4C265,200.9,264.4,202.1,263.9,203.3z M455.2,202.6
				c-0.5-1.2-1.1-2.4-1.6-3.6l0.9-0.4c0.6,1.2,1.1,2.4,1.7,3.6L455.2,202.6z M267.3,196.1l-0.9-0.5c0.6-1.2,1.3-2.4,1.9-3.5l0.9,0.5
				C268.5,193.8,267.9,195,267.3,196.1z M451.8,195.5c-0.6-1.2-1.3-2.3-1.9-3.5l0.9-0.5c0.7,1.2,1.3,2.3,1.9,3.5L451.8,195.5z
				 M271.2,189.2l-0.9-0.5c0.7-1.1,1.4-2.3,2.2-3.4l0.8,0.6C272.6,187,271.9,188.1,271.2,189.2z M447.8,188.6
				c-0.7-1.1-1.4-2.2-2.2-3.3l0.8-0.6c0.7,1.1,1.5,2.2,2.2,3.4L447.8,188.6z M275.7,182.6l-0.8-0.6c0.8-1.1,1.6-2.2,2.4-3.2l0.8,0.6
				C277.3,180.5,276.5,181.5,275.7,182.6z M443.3,182c-0.8-1.1-1.6-2.1-2.4-3.2l0.8-0.6c0.8,1,1.7,2.1,2.5,3.2L443.3,182z
				 M280.6,176.3l-0.8-0.7c0.9-1,1.8-2,2.7-3l0.7,0.7C282.4,174.3,281.5,175.3,280.6,176.3z M438.4,175.8c-0.9-1-1.8-2-2.7-3
				l0.7-0.7c0.9,1,1.8,2,2.7,3L438.4,175.8z M286,170.5l-0.7-0.7c0.9-0.9,1.9-1.9,2.9-2.8l0.7,0.7
				C287.9,168.6,286.9,169.6,286,170.5z M432.9,170c-0.9-0.9-1.9-1.9-2.9-2.7l0.7-0.7c1,0.9,2,1.8,2.9,2.8L432.9,170z M291.8,165.1
				l-0.7-0.8c1-0.9,2-1.7,3.1-2.6l0.6,0.8C293.9,163.4,292.8,164.2,291.8,165.1z M427.1,164.6c-1-0.9-2-1.7-3.1-2.5l0.6-0.8
				c1,0.8,2.1,1.7,3.1,2.5L427.1,164.6z M298,160.1l-0.6-0.8c1.1-0.8,2.2-1.6,3.3-2.3l0.6,0.8C300.2,158.5,299.1,159.3,298,160.1z
				 M420.8,159.7c-1.1-0.8-2.2-1.5-3.3-2.3l0.6-0.8c1.1,0.7,2.2,1.5,3.3,2.3L420.8,159.7z M304.6,155.6l-0.5-0.8
				c1.1-0.7,2.3-1.4,3.4-2.1l0.5,0.9C306.9,154.3,305.7,154.9,304.6,155.6z M414.2,155.3c-1.1-0.7-2.3-1.4-3.4-2l0.5-0.9
				c1.2,0.7,2.3,1.3,3.5,2L414.2,155.3z M311.5,151.7l-0.5-0.9c1.2-0.6,2.4-1.2,3.6-1.8l0.4,0.9
				C313.9,150.5,312.7,151.1,311.5,151.7z M407.3,151.3c-1.2-0.6-2.4-1.2-3.6-1.8l0.4-0.9c1.2,0.6,2.4,1.2,3.6,1.8L407.3,151.3z
				 M318.7,148.3l-0.4-0.9c1.2-0.5,2.5-1,3.7-1.5l0.4,0.9C321.1,147.2,319.9,147.7,318.7,148.3z M400,148c-1.2-0.5-2.5-1-3.7-1.5
				l0.4-0.9c1.2,0.5,2.5,1,3.7,1.5L400,148z M326.1,145.4l-0.3-0.9c1.3-0.4,2.5-0.8,3.8-1.2l0.3,1
				C328.6,144.6,327.3,145,326.1,145.4z M392.6,145.2c-1.3-0.4-2.5-0.8-3.8-1.2l0.3-1c1.3,0.4,2.6,0.8,3.8,1.2L392.6,145.2z
				 M333.7,143.1l-0.2-1c1.3-0.3,2.6-0.6,3.9-0.9l0.2,1C336.3,142.5,335,142.8,333.7,143.1z M384.9,142.9c-1.3-0.3-2.6-0.6-3.9-0.9
				l0.2-1c1.3,0.3,2.6,0.6,3.9,0.9L384.9,142.9z M341.5,141.5l-0.2-1c1.3-0.2,2.6-0.4,4-0.6l0.1,1
				C344.1,141,342.8,141.2,341.5,141.5z M377.1,141.3c-1.3-0.2-2.6-0.4-3.9-0.6l0.1-1c1.3,0.2,2.7,0.4,4,0.6L377.1,141.3z
				 M349.4,140.4l-0.1-1c1.3-0.1,2.7-0.2,4-0.3l0.1,1C352,140.1,350.7,140.2,349.4,140.4z M369.2,140.3c-1.3-0.1-2.7-0.2-4-0.3
				l0.1-1c1.3,0.1,2.7,0.2,4,0.3L369.2,140.3z M357.3,139.9l0-1c1.3,0,2.7,0,4,0l0,1C360,139.9,358.6,139.9,357.3,139.9z"/>
		</g>
		<g>
			<g>
				<path class="st45" d="M293.3,328.4c-4.4,0-8-3.6-8-8c0-4.4,3.6-8,8-8c4.4,0,8,3.6,8,8C301.2,324.9,297.6,328.4,293.3,328.4z
					 M293.3,313.7c-3.7,0-6.8,3-6.8,6.8c0,3.7,3,6.8,6.8,6.8c3.7,0,6.8-3,6.8-6.8C300,316.7,297,313.7,293.3,313.7z"/>
			</g>
			<g>
				<rect x="300.2" y="319.8" class="st45" width="38.4" height="1.4"/>
			</g>
			<g>
				<polygon class="st45" points="332.3,328.3 331.3,327.3 338.2,320.4 331.4,313.6 332.4,312.6 340.2,320.4 				"/>
			</g>
		</g>
		<g>
			<g>
				<path class="st45" d="M293.3,389.8c-4.4,0-8-3.6-8-8s3.6-8,8-8c4.4,0,8,3.6,8,8S297.6,389.8,293.3,389.8z M293.3,375
					c-3.7,0-6.8,3-6.8,6.8s3,6.8,6.8,6.8c3.7,0,6.8-3,6.8-6.8S297,375,293.3,375z"/>
			</g>
			<g>
				<rect x="300.2" y="381.1" class="st45" width="38.4" height="1.4"/>
			</g>
			<g>
				<polygon class="st45" points="332.3,389.7 331.3,388.7 338.2,381.7 331.4,374.9 332.4,373.9 340.2,381.7 				"/>
			</g>
		</g>
		<g>
			<g>
				<path class="st45" d="M293.3,450.1c-4.4,0-8-3.6-8-8s3.6-8,8-8c4.4,0,8,3.6,8,8S297.6,450.1,293.3,450.1z M293.3,435.4
					c-3.7,0-6.8,3-6.8,6.8s3,6.8,6.8,6.8c3.7,0,6.8-3,6.8-6.8S297,435.4,293.3,435.4z"/>
			</g>
			<g>
				<rect x="300.2" y="441.4" class="st45" width="38.4" height="1.4"/>
			</g>
			<g>
				<polygon class="st45" points="332.3,450 331.3,449 338.2,442.1 331.4,435.3 332.4,434.3 340.2,442.1 				"/>
			</g>
		</g>
	</g>
	<g>
		<g>
			<path class="st44" d="M604.5,313.4c1.6,0,2.7,0.3,3.4,1s1.1,1.5,1.1,2.7c0,0.5-0.1,1-0.2,1.5c-0.2,0.5-0.4,0.9-0.8,1.3
				s-0.9,0.6-1.5,0.9c-0.6,0.2-1.4,0.3-2.2,0.3H603v4.5h-2v-12.1H604.5z M604.4,315.1H603v4.3h1.1c0.6,0,1.2-0.1,1.6-0.2
				c0.4-0.1,0.8-0.4,1-0.7c0.2-0.3,0.3-0.7,0.3-1.3c0-0.7-0.2-1.2-0.6-1.6C606,315.3,605.3,315.1,604.4,315.1z"/>
			<path class="st44" d="M615.9,316.2c0.2,0,0.3,0,0.5,0c0.2,0,0.3,0,0.5,0.1l-0.2,1.8c-0.1,0-0.3-0.1-0.4-0.1s-0.3,0-0.5,0
				c-0.3,0-0.7,0.1-1,0.2c-0.3,0.1-0.6,0.3-0.8,0.5s-0.4,0.5-0.6,0.9c-0.1,0.3-0.2,0.7-0.2,1.2v4.8h-2v-9.2h1.5l0.3,1.6h0.1
				c0.2-0.3,0.4-0.6,0.7-0.9c0.3-0.3,0.6-0.5,0.9-0.7S615.5,316.2,615.9,316.2z"/>
			<path class="st44" d="M626.7,321c0,0.8-0.1,1.4-0.3,2c-0.2,0.6-0.5,1.1-0.9,1.5c-0.4,0.4-0.8,0.7-1.4,0.9
				c-0.5,0.2-1.1,0.3-1.8,0.3c-0.6,0-1.2-0.1-1.7-0.3c-0.5-0.2-1-0.5-1.4-0.9c-0.4-0.4-0.7-0.9-0.9-1.5c-0.2-0.6-0.3-1.3-0.3-2
				c0-1,0.2-1.9,0.5-2.6c0.4-0.7,0.9-1.2,1.5-1.6c0.7-0.4,1.4-0.6,2.3-0.6c0.8,0,1.6,0.2,2.2,0.6c0.6,0.4,1.2,0.9,1.5,1.6
				S626.7,319.9,626.7,321z M620.1,321c0,0.7,0.1,1.2,0.2,1.7c0.2,0.5,0.4,0.8,0.8,1.1s0.8,0.4,1.3,0.4s1-0.1,1.3-0.4
				s0.6-0.6,0.8-1.1c0.2-0.5,0.2-1,0.2-1.7s-0.1-1.2-0.2-1.7c-0.2-0.5-0.4-0.8-0.8-1.1s-0.8-0.4-1.3-0.4c-0.8,0-1.4,0.3-1.8,0.8
				C620.3,319.2,620.1,319.9,620.1,321z"/>
			<path class="st44" d="M628.1,329.6c-0.3,0-0.6,0-0.8-0.1c-0.3,0-0.5-0.1-0.7-0.1v-1.6c0.2,0.1,0.4,0.1,0.5,0.1c0.2,0,0.4,0,0.6,0
				c0.4,0,0.7-0.1,0.9-0.3s0.4-0.6,0.4-1.1v-10.2h2v10.4c0,0.6-0.1,1.1-0.3,1.5s-0.5,0.8-0.9,1C629.3,329.5,628.7,329.6,628.1,329.6
				z M628.9,313.9c0-0.4,0.1-0.7,0.3-0.8s0.5-0.2,0.8-0.2c0.3,0,0.6,0.1,0.8,0.2s0.3,0.4,0.3,0.8c0,0.4-0.1,0.7-0.3,0.8
				s-0.5,0.2-0.8,0.2c-0.3,0-0.6-0.1-0.8-0.2S628.9,314.3,628.9,313.9z"/>
			<path class="st44" d="M637.4,316.2c0.8,0,1.5,0.2,2.1,0.5c0.6,0.3,1,0.8,1.4,1.4s0.5,1.4,0.5,2.2v1h-6.1c0,0.9,0.3,1.6,0.7,2.1
				c0.5,0.5,1.1,0.7,1.9,0.7c0.6,0,1.1-0.1,1.6-0.2s1-0.3,1.4-0.5v1.6c-0.5,0.2-0.9,0.4-1.4,0.5s-1,0.1-1.7,0.1
				c-0.9,0-1.7-0.2-2.4-0.5s-1.2-0.9-1.6-1.6s-0.6-1.6-0.6-2.6c0-1,0.2-1.9,0.5-2.6s0.8-1.3,1.5-1.6S636.5,316.2,637.4,316.2z
				 M637.4,317.7c-0.6,0-1.1,0.2-1.5,0.6s-0.6,1-0.7,1.8h4.2c0-0.5-0.1-0.9-0.2-1.2c-0.1-0.4-0.4-0.6-0.7-0.8
				S637.8,317.7,637.4,317.7z"/>
			<path class="st44" d="M647.2,325.7c-0.9,0-1.6-0.2-2.3-0.5c-0.6-0.3-1.1-0.9-1.5-1.6c-0.3-0.7-0.5-1.6-0.5-2.7
				c0-1.1,0.2-2,0.6-2.7c0.4-0.7,0.9-1.2,1.6-1.6c0.7-0.3,1.4-0.5,2.3-0.5c0.5,0,1,0.1,1.5,0.2c0.4,0.1,0.8,0.2,1.1,0.4l-0.6,1.6
				c-0.3-0.1-0.7-0.3-1-0.3c-0.4-0.1-0.7-0.1-1-0.1c-0.5,0-1,0.1-1.3,0.4c-0.4,0.2-0.6,0.6-0.8,1.1c-0.2,0.5-0.3,1.1-0.3,1.8
				c0,0.7,0.1,1.2,0.3,1.7c0.2,0.5,0.4,0.8,0.8,1s0.8,0.4,1.3,0.4c0.5,0,1-0.1,1.4-0.2s0.8-0.3,1.1-0.5v1.7
				c-0.3,0.2-0.7,0.3-1.1,0.4S647.8,325.7,647.2,325.7z"/>
			<path class="st44" d="M655.4,324.2c0.3,0,0.5,0,0.8-0.1c0.2,0,0.5-0.1,0.7-0.2v1.5c-0.2,0.1-0.5,0.2-0.8,0.2s-0.7,0.1-1.1,0.1
				c-0.5,0-1-0.1-1.4-0.3c-0.4-0.2-0.7-0.5-1-0.9c-0.2-0.4-0.4-1-0.4-1.8v-4.9h-1.3V317l1.3-0.7l0.6-2h1.2v2h2.6v1.5h-2.6v4.9
				c0,0.5,0.1,0.8,0.3,1C654.7,324,655,324.2,655.4,324.2z"/>
			<path class="st44" d="M668.2,325.6h-2v-7.8c0-0.3,0-0.5,0-0.8c0-0.3,0-0.5,0-0.8c0-0.2,0-0.5,0-0.7c-0.1,0.1-0.3,0.3-0.4,0.4
				c-0.2,0.2-0.3,0.3-0.5,0.5l-1.4,1.1l-1-1.2l3.6-2.8h1.6V325.6z"/>
		</g>
		<g>
			<path class="st44" d="M604.5,374.9c1.6,0,2.7,0.3,3.4,1s1.1,1.5,1.1,2.7c0,0.5-0.1,1-0.2,1.5c-0.2,0.5-0.4,0.9-0.8,1.3
				s-0.9,0.6-1.5,0.9c-0.6,0.2-1.4,0.3-2.2,0.3H603v4.5h-2v-12.1H604.5z M604.4,376.6H603v4.3h1.1c0.6,0,1.2-0.1,1.6-0.2
				c0.4-0.1,0.8-0.4,1-0.7c0.2-0.3,0.3-0.7,0.3-1.3c0-0.7-0.2-1.2-0.6-1.6C606,376.8,605.3,376.6,604.4,376.6z"/>
			<path class="st44" d="M615.9,377.7c0.2,0,0.3,0,0.5,0c0.2,0,0.3,0,0.5,0.1l-0.2,1.8c-0.1,0-0.3-0.1-0.4-0.1s-0.3,0-0.5,0
				c-0.3,0-0.7,0.1-1,0.2c-0.3,0.1-0.6,0.3-0.8,0.5s-0.4,0.5-0.6,0.9c-0.1,0.3-0.2,0.7-0.2,1.2v4.8h-2v-9.2h1.5l0.3,1.6h0.1
				c0.2-0.3,0.4-0.6,0.7-0.9c0.3-0.3,0.6-0.5,0.9-0.7S615.5,377.7,615.9,377.7z"/>
			<path class="st44" d="M626.7,382.5c0,0.8-0.1,1.4-0.3,2c-0.2,0.6-0.5,1.1-0.9,1.5c-0.4,0.4-0.8,0.7-1.4,0.9
				c-0.5,0.2-1.1,0.3-1.8,0.3c-0.6,0-1.2-0.1-1.7-0.3c-0.5-0.2-1-0.5-1.4-0.9c-0.4-0.4-0.7-0.9-0.9-1.5c-0.2-0.6-0.3-1.3-0.3-2
				c0-1,0.2-1.9,0.5-2.6c0.4-0.7,0.9-1.2,1.5-1.6c0.7-0.4,1.4-0.6,2.3-0.6c0.8,0,1.6,0.2,2.2,0.6c0.6,0.4,1.2,0.9,1.5,1.6
				S626.7,381.4,626.7,382.5z M620.1,382.5c0,0.7,0.1,1.2,0.2,1.7c0.2,0.5,0.4,0.8,0.8,1.1s0.8,0.4,1.3,0.4s1-0.1,1.3-0.4
				s0.6-0.6,0.8-1.1c0.2-0.5,0.2-1,0.2-1.7s-0.1-1.2-0.2-1.7c-0.2-0.5-0.4-0.8-0.8-1.1s-0.8-0.4-1.3-0.4c-0.8,0-1.4,0.3-1.8,0.8
				C620.3,380.7,620.1,381.4,620.1,382.5z"/>
			<path class="st44" d="M628.1,391.1c-0.3,0-0.6,0-0.8-0.1c-0.3,0-0.5-0.1-0.7-0.1v-1.6c0.2,0.1,0.4,0.1,0.5,0.1c0.2,0,0.4,0,0.6,0
				c0.4,0,0.7-0.1,0.9-0.3s0.4-0.6,0.4-1.1v-10.2h2v10.4c0,0.6-0.1,1.1-0.3,1.5s-0.5,0.8-0.9,1C629.3,391,628.7,391.1,628.1,391.1z
				 M628.9,375.4c0-0.4,0.1-0.7,0.3-0.8s0.5-0.2,0.8-0.2c0.3,0,0.6,0.1,0.8,0.2s0.3,0.4,0.3,0.8c0,0.4-0.1,0.7-0.3,0.8
				s-0.5,0.2-0.8,0.2c-0.3,0-0.6-0.1-0.8-0.2S628.9,375.8,628.9,375.4z"/>
			<path class="st44" d="M637.4,377.7c0.8,0,1.5,0.2,2.1,0.5c0.6,0.3,1,0.8,1.4,1.4s0.5,1.4,0.5,2.2v1h-6.1c0,0.9,0.3,1.6,0.7,2.1
				c0.5,0.5,1.1,0.7,1.9,0.7c0.6,0,1.1-0.1,1.6-0.2s1-0.3,1.4-0.5v1.6c-0.5,0.2-0.9,0.4-1.4,0.5s-1,0.1-1.7,0.1
				c-0.9,0-1.7-0.2-2.4-0.5s-1.2-0.9-1.6-1.6s-0.6-1.6-0.6-2.6c0-1,0.2-1.9,0.5-2.6s0.8-1.3,1.5-1.6S636.5,377.7,637.4,377.7z
				 M637.4,379.2c-0.6,0-1.1,0.2-1.5,0.6s-0.6,1-0.7,1.8h4.2c0-0.5-0.1-0.9-0.2-1.2c-0.1-0.4-0.4-0.6-0.7-0.8
				S637.8,379.2,637.4,379.2z"/>
			<path class="st44" d="M647.2,387.2c-0.9,0-1.6-0.2-2.3-0.5c-0.6-0.3-1.1-0.9-1.5-1.6c-0.3-0.7-0.5-1.6-0.5-2.7
				c0-1.1,0.2-2,0.6-2.7c0.4-0.7,0.9-1.2,1.6-1.6c0.7-0.3,1.4-0.5,2.3-0.5c0.5,0,1,0.1,1.5,0.2c0.4,0.1,0.8,0.2,1.1,0.4l-0.6,1.6
				c-0.3-0.1-0.7-0.3-1-0.3c-0.4-0.1-0.7-0.1-1-0.1c-0.5,0-1,0.1-1.3,0.4c-0.4,0.2-0.6,0.6-0.8,1.1c-0.2,0.5-0.3,1.1-0.3,1.8
				c0,0.7,0.1,1.2,0.3,1.7c0.2,0.5,0.4,0.8,0.8,1s0.8,0.4,1.3,0.4c0.5,0,1-0.1,1.4-0.2s0.8-0.3,1.1-0.5v1.7
				c-0.3,0.2-0.7,0.3-1.1,0.4S647.8,387.2,647.2,387.2z"/>
			<path class="st44" d="M655.4,385.7c0.3,0,0.5,0,0.8-0.1c0.2,0,0.5-0.1,0.7-0.2v1.5c-0.2,0.1-0.5,0.2-0.8,0.2s-0.7,0.1-1.1,0.1
				c-0.5,0-1-0.1-1.4-0.3c-0.4-0.2-0.7-0.5-1-0.9c-0.2-0.4-0.4-1-0.4-1.8v-4.9h-1.3v-0.9l1.3-0.7l0.6-2h1.2v2h2.6v1.5h-2.6v4.9
				c0,0.5,0.1,0.8,0.3,1C654.7,385.5,655,385.7,655.4,385.7z"/>
			<path class="st44" d="M670.7,387.1h-8.2v-1.5l3.1-3.2c0.6-0.6,1.1-1.2,1.5-1.6s0.7-0.9,0.9-1.3c0.2-0.4,0.3-0.8,0.3-1.3
				c0-0.6-0.2-1-0.5-1.3c-0.3-0.3-0.8-0.5-1.3-0.5c-0.5,0-1,0.1-1.5,0.3c-0.4,0.2-0.9,0.5-1.4,0.9l-1.1-1.3c0.3-0.3,0.7-0.6,1.1-0.8
				c0.4-0.2,0.8-0.4,1.3-0.6c0.5-0.1,1-0.2,1.6-0.2c0.8,0,1.4,0.1,2,0.4c0.6,0.3,1,0.7,1.3,1.1s0.5,1.1,0.5,1.7
				c0,0.7-0.1,1.3-0.4,1.8c-0.3,0.6-0.6,1.1-1.1,1.6c-0.5,0.5-1.1,1.1-1.7,1.8l-2.1,2.1v0.1h5.7V387.1z"/>
		</g>
		<g>
			<path class="st44" d="M604.5,435.7c1.6,0,2.7,0.3,3.4,1s1.1,1.5,1.1,2.7c0,0.5-0.1,1-0.2,1.5c-0.2,0.5-0.4,0.9-0.8,1.3
				s-0.9,0.6-1.5,0.9c-0.6,0.2-1.4,0.3-2.2,0.3H603v4.5h-2v-12.1H604.5z M604.4,437.3H603v4.3h1.1c0.6,0,1.2-0.1,1.6-0.2
				c0.4-0.1,0.8-0.4,1-0.7c0.2-0.3,0.3-0.7,0.3-1.3c0-0.7-0.2-1.2-0.6-1.6C606,437.5,605.3,437.3,604.4,437.3z"/>
			<path class="st44" d="M615.9,438.5c0.2,0,0.3,0,0.5,0c0.2,0,0.3,0,0.5,0.1l-0.2,1.8c-0.1,0-0.3-0.1-0.4-0.1s-0.3,0-0.5,0
				c-0.3,0-0.7,0.1-1,0.2c-0.3,0.1-0.6,0.3-0.8,0.5s-0.4,0.5-0.6,0.9c-0.1,0.3-0.2,0.7-0.2,1.2v4.8h-2v-9.2h1.5l0.3,1.6h0.1
				c0.2-0.3,0.4-0.6,0.7-0.9c0.3-0.3,0.6-0.5,0.9-0.7S615.5,438.5,615.9,438.5z"/>
			<path class="st44" d="M626.7,443.2c0,0.8-0.1,1.4-0.3,2c-0.2,0.6-0.5,1.1-0.9,1.5c-0.4,0.4-0.8,0.7-1.4,0.9
				c-0.5,0.2-1.1,0.3-1.8,0.3c-0.6,0-1.2-0.1-1.7-0.3c-0.5-0.2-1-0.5-1.4-0.9c-0.4-0.4-0.7-0.9-0.9-1.5c-0.2-0.6-0.3-1.3-0.3-2
				c0-1,0.2-1.9,0.5-2.6c0.4-0.7,0.9-1.2,1.5-1.6c0.7-0.4,1.4-0.6,2.3-0.6c0.8,0,1.6,0.2,2.2,0.6c0.6,0.4,1.2,0.9,1.5,1.6
				S626.7,442.2,626.7,443.2z M620.1,443.2c0,0.7,0.1,1.2,0.2,1.7c0.2,0.5,0.4,0.8,0.8,1.1s0.8,0.4,1.3,0.4s1-0.1,1.3-0.4
				s0.6-0.6,0.8-1.1c0.2-0.5,0.2-1,0.2-1.7s-0.1-1.2-0.2-1.7c-0.2-0.5-0.4-0.8-0.8-1.1s-0.8-0.4-1.3-0.4c-0.8,0-1.4,0.3-1.8,0.8
				C620.3,441.4,620.1,442.2,620.1,443.2z"/>
			<path class="st44" d="M628.1,451.9c-0.3,0-0.6,0-0.8-0.1c-0.3,0-0.5-0.1-0.7-0.1v-1.6c0.2,0.1,0.4,0.1,0.5,0.1c0.2,0,0.4,0,0.6,0
				c0.4,0,0.7-0.1,0.9-0.3s0.4-0.6,0.4-1.1v-10.2h2V449c0,0.6-0.1,1.1-0.3,1.5s-0.5,0.8-0.9,1C629.3,451.8,628.7,451.9,628.1,451.9z
				 M628.9,436.2c0-0.4,0.1-0.7,0.3-0.8s0.5-0.2,0.8-0.2c0.3,0,0.6,0.1,0.8,0.2s0.3,0.4,0.3,0.8c0,0.4-0.1,0.7-0.3,0.8
				s-0.5,0.2-0.8,0.2c-0.3,0-0.6-0.1-0.8-0.2S628.9,436.6,628.9,436.2z"/>
			<path class="st44" d="M637.4,438.5c0.8,0,1.5,0.2,2.1,0.5c0.6,0.3,1,0.8,1.4,1.4s0.5,1.4,0.5,2.2v1h-6.1c0,0.9,0.3,1.6,0.7,2.1
				c0.5,0.5,1.1,0.7,1.9,0.7c0.6,0,1.1-0.1,1.6-0.2s1-0.3,1.4-0.5v1.6c-0.5,0.2-0.9,0.4-1.4,0.5s-1,0.1-1.7,0.1
				c-0.9,0-1.7-0.2-2.4-0.5s-1.2-0.9-1.6-1.6s-0.6-1.6-0.6-2.6c0-1,0.2-1.9,0.5-2.6s0.8-1.3,1.5-1.6S636.5,438.5,637.4,438.5z
				 M637.4,439.9c-0.6,0-1.1,0.2-1.5,0.6s-0.6,1-0.7,1.8h4.2c0-0.5-0.1-0.9-0.2-1.2c-0.1-0.4-0.4-0.6-0.7-0.8
				S637.8,439.9,637.4,439.9z"/>
			<path class="st44" d="M647.2,448c-0.9,0-1.6-0.2-2.3-0.5c-0.6-0.3-1.1-0.9-1.5-1.6c-0.3-0.7-0.5-1.6-0.5-2.7c0-1.1,0.2-2,0.6-2.7
				c0.4-0.7,0.9-1.2,1.6-1.6c0.7-0.3,1.4-0.5,2.3-0.5c0.5,0,1,0.1,1.5,0.2c0.4,0.1,0.8,0.2,1.1,0.4l-0.6,1.6c-0.3-0.1-0.7-0.3-1-0.3
				c-0.4-0.1-0.7-0.1-1-0.1c-0.5,0-1,0.1-1.3,0.4c-0.4,0.2-0.6,0.6-0.8,1.1c-0.2,0.5-0.3,1.1-0.3,1.8c0,0.7,0.1,1.2,0.3,1.7
				c0.2,0.5,0.4,0.8,0.8,1s0.8,0.4,1.3,0.4c0.5,0,1-0.1,1.4-0.2s0.8-0.3,1.1-0.5v1.7c-0.3,0.2-0.7,0.3-1.1,0.4S647.8,448,647.2,448z
				"/>
			<path class="st44" d="M655.4,446.4c0.3,0,0.5,0,0.8-0.1c0.2,0,0.5-0.1,0.7-0.2v1.5c-0.2,0.1-0.5,0.2-0.8,0.2s-0.7,0.1-1.1,0.1
				c-0.5,0-1-0.1-1.4-0.3c-0.4-0.2-0.7-0.5-1-0.9c-0.2-0.4-0.4-1-0.4-1.8v-4.9h-1.3v-0.9l1.3-0.7l0.6-2h1.2v2h2.6v1.5h-2.6v4.9
				c0,0.5,0.1,0.8,0.3,1C654.7,446.3,655,446.4,655.4,446.4z"/>
			<path class="st44" d="M670.2,438.5c0,0.5-0.1,1-0.3,1.4s-0.5,0.7-0.9,1c-0.4,0.3-0.8,0.4-1.3,0.6v0.1c1,0.1,1.7,0.4,2.2,0.9
				c0.5,0.5,0.7,1.1,0.7,1.9c0,0.7-0.2,1.3-0.5,1.9c-0.3,0.6-0.9,1-1.6,1.3c-0.7,0.3-1.6,0.5-2.7,0.5c-0.7,0-1.3-0.1-1.8-0.2
				c-0.6-0.1-1.1-0.3-1.6-0.5v-1.7c0.5,0.3,1.1,0.5,1.6,0.6c0.6,0.1,1.1,0.2,1.7,0.2c1,0,1.7-0.2,2.2-0.6s0.6-0.9,0.6-1.6
				c0-0.4-0.1-0.8-0.3-1.1c-0.2-0.3-0.6-0.5-1-0.6s-1.1-0.2-1.8-0.2h-1.1v-1.6h1.1c0.7,0,1.3-0.1,1.7-0.3c0.4-0.2,0.7-0.4,0.9-0.7
				c0.2-0.3,0.3-0.6,0.3-1c0-0.5-0.2-0.9-0.5-1.2c-0.3-0.3-0.8-0.4-1.5-0.4c-0.4,0-0.8,0-1.1,0.1c-0.3,0.1-0.6,0.2-0.9,0.4
				c-0.3,0.1-0.5,0.3-0.8,0.5l-0.9-1.4c0.5-0.3,1-0.6,1.6-0.9c0.6-0.2,1.4-0.4,2.2-0.4c1.2,0,2.2,0.3,2.9,0.8
				S670.2,437.6,670.2,438.5z"/>
		</g>
		<g>
			<path class="st43" d="M607.7,502.9c-1.3,0-2.7,0-4-0.1l0-1c1.3,0,2.7,0.1,4,0.1V502.9z M608.5,502.9l0-1c1.3,0,2.7,0,4-0.1l0,1
				C611.2,502.8,609.9,502.8,608.5,502.9z M599.7,502.6c-1.3-0.1-2.7-0.2-4-0.4l0.1-1c1.3,0.2,2.6,0.3,4,0.4L599.7,502.6z
				 M616.6,502.5l-0.1-1c1.3-0.1,2.6-0.2,4-0.4l0.1,1C619.2,502.2,617.9,502.4,616.6,502.5z M591.7,501.6c-1.3-0.2-2.7-0.4-4-0.7
				l0.2-1c1.3,0.2,2.6,0.5,3.9,0.7L591.7,501.6z M624.5,501.5l-0.2-1c1.3-0.2,2.6-0.4,3.9-0.7l0.2,1
				C627.2,501.1,625.9,501.3,624.5,501.5z M583.8,500.1c-1.3-0.3-2.6-0.6-3.9-1l0.3-1c1.3,0.3,2.6,0.7,3.9,1L583.8,500.1z
				 M632.4,499.9l-0.2-1c1.3-0.3,2.6-0.6,3.8-1l0.3,1C635,499.3,633.7,499.6,632.4,499.9z M576.1,498c-1.3-0.4-2.6-0.8-3.8-1.3
				l0.3-0.9c1.2,0.4,2.5,0.9,3.8,1.3L576.1,498z M640.2,497.8l-0.3-1c1.3-0.4,2.5-0.8,3.8-1.3l0.3,0.9
				C642.7,496.9,641.4,497.3,640.2,497.8z M568.5,495.3c-1.2-0.5-2.5-1-3.7-1.6l0.4-0.9c1.2,0.5,2.4,1.1,3.7,1.6L568.5,495.3z
				 M647.7,495l-0.4-0.9c1.2-0.5,2.4-1,3.6-1.6l0.4,0.9C650.2,493.9,648.9,494.5,647.7,495z M561.1,492c-1.2-0.6-2.4-1.2-3.6-1.9
				l0.5-0.9c1.2,0.6,2.4,1.3,3.5,1.8L561.1,492z M655,491.6l-0.5-0.9c1.2-0.6,2.4-1.2,3.5-1.9l0.5,0.9
				C657.4,490.4,656.2,491,655,491.6z M554.1,488.1c-1.1-0.7-2.3-1.4-3.4-2.1l0.5-0.8c1.1,0.7,2.2,1.4,3.4,2.1L554.1,488.1z
				 M662,487.8l-0.5-0.9c1.1-0.7,2.3-1.4,3.4-2.1l0.5,0.8C664.3,486.4,663.1,487.1,662,487.8z M547.3,483.8
				c-1.1-0.8-2.2-1.6-3.2-2.4l0.6-0.8c1.1,0.8,2.1,1.6,3.2,2.4L547.3,483.8z M668.7,483.4l-0.6-0.8c1.1-0.8,2.1-1.6,3.2-2.4l0.6,0.8
				C670.9,481.8,669.8,482.6,668.7,483.4z M540.9,478.9c-1-0.8-2.1-1.7-3.1-2.6l0.7-0.7c1,0.9,2,1.8,3,2.6L540.9,478.9z M675,478.4
				l-0.6-0.8c1-0.9,2-1.7,3-2.6l0.7,0.7C677.1,476.7,676.1,477.6,675,478.4z M534.9,473.5c-1-0.9-1.9-1.9-2.8-2.8l0.7-0.7
				c0.9,1,1.9,1.9,2.8,2.8L534.9,473.5z M681,473.1l-0.7-0.7c0.9-0.9,1.9-1.9,2.8-2.8l0.7,0.7C682.9,471.2,682,472.1,681,473.1z
				 M529.4,467.8c-0.9-1-1.8-2-2.6-3l0.8-0.6c0.8,1,1.7,2,2.6,3L529.4,467.8z M686.5,467.2l-0.8-0.7c0.9-1,1.7-2,2.6-3l0.8,0.6
				C688.3,465.2,687.4,466.2,686.5,467.2z M524.2,461.6c-0.8-1.1-1.6-2.1-2.4-3.2l0.8-0.6c0.8,1.1,1.6,2.2,2.4,3.2L524.2,461.6z
				 M691.6,461l-0.8-0.6c0.8-1,1.6-2.1,2.3-3.2l0.8,0.6C693.2,458.9,692.4,460,691.6,461z M519.6,455c-0.7-1.1-1.4-2.3-2.1-3.4
				l0.9-0.5c0.7,1.1,1.4,2.3,2.1,3.4L519.6,455z M696.2,454.4l-0.8-0.5c0.7-1.1,1.4-2.3,2.1-3.4l0.9,0.5
				C697.6,452.1,696.9,453.3,696.2,454.4z M515.5,448.1c-0.6-1.2-1.3-2.4-1.9-3.6l0.9-0.4c0.6,1.2,1.2,2.4,1.8,3.5L515.5,448.1z
				 M700.3,447.5l-0.9-0.5c0.6-1.2,1.2-2.4,1.8-3.5l0.9,0.4C701.5,445.1,700.9,446.3,700.3,447.5z M511.9,440.9
				c-0.5-1.2-1.1-2.5-1.6-3.7l0.9-0.4c0.5,1.2,1,2.5,1.6,3.6L511.9,440.9z M703.8,440.2l-0.9-0.4c0.5-1.2,1-2.4,1.5-3.7l0.9,0.4
				C704.9,437.8,704.4,439,703.8,440.2z M508.9,433.5c-0.5-1.3-0.9-2.5-1.3-3.8l1-0.3c0.4,1.3,0.8,2.5,1.3,3.8L508.9,433.5z
				 M706.8,432.7l-0.9-0.3c0.4-1.3,0.9-2.5,1.3-3.8l1,0.3C707.7,430.2,707.2,431.5,706.8,432.7z M506.5,425.8
				c-0.4-1.3-0.7-2.6-1-3.9l1-0.2c0.3,1.3,0.6,2.6,1,3.9L506.5,425.8z M709.2,425.1l-1-0.3c0.3-1.3,0.7-2.6,1-3.9l1,0.2
				C709.8,422.5,709.5,423.8,709.2,425.1z M504.7,418c-0.3-1.3-0.5-2.6-0.7-4l1-0.2c0.2,1.3,0.4,2.6,0.7,3.9L504.7,418z
				 M710.9,417.2l-1-0.2c0.2-1.3,0.5-2.6,0.7-3.9l1,0.1C711.4,414.6,711.2,415.9,710.9,417.2z M503.4,410.1c-0.2-1.3-0.3-2.7-0.4-4
				l1-0.1c0.1,1.3,0.2,2.7,0.4,4L503.4,410.1z M712.1,409.3l-1-0.1c0.1-1.3,0.3-2.6,0.4-4l1,0.1
				C712.4,406.6,712.3,407.9,712.1,409.3z M502.8,402.1c-0.1-1.3-0.1-2.7-0.1-4l1,0c0,1.3,0,2.7,0.1,4L502.8,402.1z M712.7,401.3
				l-1,0c0-1.1,0.1-2.2,0.1-3.4v-0.6h1v0.6C712.7,399,712.7,400.1,712.7,401.3z M503.7,394.1h-1v-4h1V394.1z M712.7,393.2h-1v-4h1
				V393.2z M503.7,386.1h-1v-4h1V386.1z M712.7,385.2h-1v-4h1V385.2z M503.7,378.1h-1v-4h1V378.1z M712.7,377.2h-1v-4h1V377.2z
				 M503.7,370.1h-1v-4h1V370.1z M712.7,369.2h-1v-4h1V369.2z M503.7,362.1h-1v-4h1V362.1z M712.7,361.2h-1v-4h1V361.2z
				 M503.7,354.1h-1v-4h1V354.1z M712.7,353.2h-1v-4h1V353.2z M503.7,346.1h-1v-4h1V346.1z M712.7,345.2h-1v-4h1V345.2z
				 M503.7,338.1h-1v-4h1V338.1z M712.7,337.2h-1v-4h1V337.2z M503.7,330.1h-1v-4h1V330.1z M712.7,329.2h-1v-4h1V329.2z
				 M503.7,322.1h-1v-4h1V322.1z M712.7,321.2h-1v-4h1V321.2z M503.7,314.1h-1v-4h1V314.1z M712.7,313.2h-1v-4h1V313.2z
				 M503.7,306.1h-1v-4h1V306.1z M712.7,305.2h-1v-4h1V305.2z M503.7,298.1h-1v-4h1V298.1z M712.7,297.2h-1v-4h1V297.2z
				 M503.7,290.1h-1v-4h1V290.1z M712.7,289.2h-1v-4h1V289.2z M503.7,282.1h-1v-4h1V282.1z M712.7,281.2h-1v-4h1V281.2z
				 M503.7,274.1h-1v-4h1V274.1z M712.7,273.2h-1v-4h1V273.2z M503.7,266.1h-1v-4h1V266.1z M712.7,265.2h-1v-4h1V265.2z
				 M503.7,258.1h-1v-4h1V258.1z M712.7,257.2h-1v-4h1V257.2z M503.7,250.1h-1v-4h1V250.1z M712.7,249.2h-1v-4h1V249.2z
				 M503.7,242.1l-1,0c0-1.3,0.1-2.7,0.1-4l1,0.1C503.8,239.4,503.8,240.8,503.7,242.1z M711.7,241.3c0-1.3-0.1-2.7-0.2-4l1-0.1
				c0.1,1.3,0.1,2.7,0.2,4L711.7,241.3z M504.2,234.1l-1-0.1c0.1-1.3,0.3-2.7,0.4-4l1,0.1C504.4,231.5,504.3,232.8,504.2,234.1z
				 M711.2,233.3c-0.1-1.3-0.3-2.6-0.5-4l1-0.1c0.2,1.3,0.3,2.7,0.5,4L711.2,233.3z M505.2,226.2l-1-0.2c0.2-1.3,0.5-2.6,0.8-3.9
				l1,0.2C505.7,223.6,505.4,224.9,505.2,226.2z M710.1,225.4c-0.2-1.3-0.5-2.6-0.8-3.9l1-0.2c0.3,1.3,0.5,2.6,0.8,3.9L710.1,225.4z
				 M506.8,218.5l-1-0.2c0.3-1.3,0.7-2.6,1.1-3.9l1,0.3C507.5,215.9,507.2,217.2,506.8,218.5z M708.4,217.7
				c-0.3-1.3-0.7-2.6-1.1-3.8l1-0.3c0.4,1.3,0.7,2.6,1.1,3.9L708.4,217.7z M509.1,210.8l-0.9-0.3c0.4-1.3,0.9-2.5,1.4-3.8l0.9,0.4
				C510,208.3,509.5,209.6,509.1,210.8z M706.1,210c-0.4-1.2-0.9-2.5-1.4-3.7l0.9-0.4c0.5,1.3,0.9,2.5,1.4,3.8L706.1,210z
				 M511.9,203.3L511,203c0.5-1.2,1.1-2.5,1.6-3.7l0.9,0.4C513,200.9,512.4,202.1,511.9,203.3z M703.2,202.6
				c-0.5-1.2-1.1-2.4-1.6-3.6l0.9-0.4c0.6,1.2,1.1,2.4,1.7,3.6L703.2,202.6z M515.3,196.1l-0.9-0.5c0.6-1.2,1.3-2.4,1.9-3.5l0.9,0.5
				C516.5,193.8,515.9,195,515.3,196.1z M699.8,195.5c-0.6-1.2-1.3-2.3-1.9-3.5l0.9-0.5c0.7,1.2,1.3,2.3,1.9,3.5L699.8,195.5z
				 M519.2,189.2l-0.9-0.5c0.7-1.1,1.4-2.3,2.2-3.4l0.8,0.6C520.6,187,519.9,188.1,519.2,189.2z M695.8,188.6
				c-0.7-1.1-1.4-2.2-2.2-3.3l0.8-0.6c0.8,1.1,1.5,2.2,2.2,3.4L695.8,188.6z M523.7,182.6l-0.8-0.6c0.8-1.1,1.6-2.2,2.4-3.2l0.8,0.6
				C525.3,180.5,524.5,181.5,523.7,182.6z M691.3,182c-0.8-1-1.6-2.1-2.4-3.1l0.8-0.6c0.8,1.1,1.7,2.1,2.5,3.2L691.3,182z
				 M528.6,176.3l-0.8-0.7c0.9-1,1.8-2,2.7-3l0.7,0.7C530.4,174.3,529.5,175.3,528.6,176.3z M686.4,175.8c-0.9-1-1.8-2-2.7-3
				l0.7-0.7c0.9,1,1.8,2,2.7,3L686.4,175.8z M534,170.5l-0.7-0.7c0.9-0.9,1.9-1.9,2.9-2.8l0.7,0.7
				C535.9,168.6,534.9,169.6,534,170.5z M680.9,170c-0.9-0.9-1.9-1.9-2.9-2.7l0.7-0.7c1,0.9,2,1.8,2.9,2.8L680.9,170z M539.8,165.1
				l-0.7-0.8c1-0.9,2-1.7,3.1-2.6l0.6,0.8C541.9,163.4,540.8,164.2,539.8,165.1z M675.1,164.6c-1-0.9-2-1.7-3.1-2.5l0.6-0.8
				c1.1,0.8,2.1,1.7,3.1,2.5L675.1,164.6z M546,160.1l-0.6-0.8c1.1-0.8,2.2-1.6,3.3-2.3l0.6,0.8C548.2,158.5,547.1,159.3,546,160.1z
				 M668.8,159.7c-1.1-0.8-2.2-1.5-3.3-2.3l0.6-0.8c1.1,0.7,2.2,1.5,3.3,2.3L668.8,159.7z M552.6,155.6l-0.5-0.8
				c1.1-0.7,2.3-1.4,3.4-2.1l0.5,0.9C554.9,154.3,553.7,154.9,552.6,155.6z M662.2,155.3c-1.1-0.7-2.3-1.4-3.4-2l0.5-0.9
				c1.2,0.7,2.3,1.3,3.5,2L662.2,155.3z M559.5,151.7l-0.5-0.9c1.2-0.6,2.4-1.2,3.6-1.8l0.4,0.9
				C561.9,150.5,560.7,151.1,559.5,151.7z M655.3,151.3c-1.2-0.6-2.4-1.2-3.6-1.8l0.4-0.9c1.2,0.6,2.4,1.2,3.6,1.8L655.3,151.3z
				 M566.7,148.3l-0.4-0.9c1.2-0.5,2.5-1,3.7-1.5l0.4,0.9C569.1,147.2,567.9,147.8,566.7,148.3z M648,148c-1.2-0.5-2.5-1-3.7-1.5
				l0.4-0.9c1.2,0.5,2.5,1,3.7,1.5L648,148z M574.1,145.4l-0.3-0.9c1.3-0.4,2.5-0.8,3.8-1.2l0.3,1
				C576.6,144.6,575.3,145,574.1,145.4z M640.6,145.2c-1.3-0.4-2.5-0.8-3.8-1.2l0.3-1c1.3,0.4,2.6,0.8,3.8,1.2L640.6,145.2z
				 M581.7,143.1l-0.3-1c1.3-0.3,2.6-0.6,3.9-0.9l0.2,1C584.3,142.5,583,142.8,581.7,143.1z M632.9,142.9c-1.3-0.3-2.6-0.6-3.9-0.9
				l0.2-1c1.3,0.3,2.6,0.6,3.9,0.9L632.9,142.9z M589.5,141.5l-0.2-1c1.3-0.2,2.6-0.4,4-0.6l0.1,1
				C592.1,141,590.8,141.2,589.5,141.5z M625.1,141.3c-1.3-0.2-2.6-0.4-3.9-0.6l0.1-1c1.3,0.2,2.7,0.4,4,0.6L625.1,141.3z
				 M597.4,140.4l-0.1-1c1.3-0.1,2.7-0.2,4-0.3l0.1,1C600,140.1,598.7,140.2,597.4,140.4z M617.3,140.3c-1.3-0.1-2.7-0.2-4-0.3
				l0.1-1c1.3,0.1,2.7,0.2,4,0.3L617.3,140.3z M605.3,139.9l0-1c1.3,0,2.7,0,4,0l0,1C608,139.9,606.6,139.9,605.3,139.9z"/>
		</g>
		<g>
			<g>
				<path class="st45" d="M541.3,328.4c-4.4,0-8-3.6-8-8c0-4.4,3.6-8,8-8c4.4,0,8,3.6,8,8C549.2,324.9,545.6,328.4,541.3,328.4z
					 M541.3,313.7c-3.7,0-6.8,3-6.8,6.8c0,3.7,3,6.8,6.8,6.8c3.7,0,6.8-3,6.8-6.8C548,316.7,545,313.7,541.3,313.7z"/>
			</g>
			<g>
				<rect x="548.2" y="319.8" class="st45" width="38.4" height="1.4"/>
			</g>
			<g>
				<polygon class="st45" points="580.3,328.3 579.3,327.3 586.2,320.4 579.4,313.6 580.4,312.6 588.2,320.4 				"/>
			</g>
		</g>
		<g>
			<g>
				<path class="st45" d="M541.3,389.8c-4.4,0-8-3.6-8-8s3.6-8,8-8c4.4,0,8,3.6,8,8S545.6,389.8,541.3,389.8z M541.3,375
					c-3.7,0-6.8,3-6.8,6.8s3,6.8,6.8,6.8c3.7,0,6.8-3,6.8-6.8S545,375,541.3,375z"/>
			</g>
			<g>
				<rect x="548.2" y="381.1" class="st45" width="38.4" height="1.4"/>
			</g>
			<g>
				<polygon class="st45" points="580.3,389.7 579.3,388.7 586.2,381.7 579.4,374.9 580.4,373.9 588.2,381.7 				"/>
			</g>
		</g>
		<g>
			<g>
				<path class="st45" d="M541.3,450.1c-4.4,0-8-3.6-8-8s3.6-8,8-8c4.4,0,8,3.6,8,8S545.6,450.1,541.3,450.1z M541.3,435.4
					c-3.7,0-6.8,3-6.8,6.8s3,6.8,6.8,6.8c3.7,0,6.8-3,6.8-6.8S545,435.4,541.3,435.4z"/>
			</g>
			<g>
				<rect x="548.2" y="441.4" class="st45" width="38.4" height="1.4"/>
			</g>
			<g>
				<polygon class="st45" points="580.3,450 579.3,449 586.2,442.1 579.4,435.3 580.4,434.3 588.2,442.1 				"/>
			</g>
		</g>
	</g>
	<g>
		<g>
			<path class="st44" d="M856.5,313.4c1.6,0,2.7,0.3,3.4,1s1.1,1.5,1.1,2.7c0,0.5-0.1,1-0.2,1.5c-0.2,0.5-0.4,0.9-0.8,1.3
				s-0.9,0.6-1.5,0.9c-0.6,0.2-1.4,0.3-2.2,0.3H855v4.5h-2v-12.1H856.5z M856.4,315.1H855v4.3h1.1c0.6,0,1.2-0.1,1.6-0.2
				c0.4-0.1,0.8-0.4,1-0.7c0.2-0.3,0.3-0.7,0.3-1.3c0-0.7-0.2-1.2-0.6-1.6C858,315.3,857.3,315.1,856.4,315.1z"/>
			<path class="st44" d="M867.9,316.2c0.2,0,0.3,0,0.5,0c0.2,0,0.3,0,0.5,0.1l-0.2,1.8c-0.1,0-0.3-0.1-0.4-0.1s-0.3,0-0.5,0
				c-0.3,0-0.7,0.1-1,0.2c-0.3,0.1-0.6,0.3-0.8,0.5s-0.4,0.5-0.6,0.9c-0.1,0.3-0.2,0.7-0.2,1.2v4.8h-2v-9.2h1.5l0.3,1.6h0.1
				c0.2-0.3,0.4-0.6,0.7-0.9c0.3-0.3,0.6-0.5,0.9-0.7S867.5,316.2,867.9,316.2z"/>
			<path class="st44" d="M878.7,321c0,0.8-0.1,1.4-0.3,2c-0.2,0.6-0.5,1.1-0.9,1.5c-0.4,0.4-0.8,0.7-1.4,0.9
				c-0.5,0.2-1.1,0.3-1.8,0.3c-0.6,0-1.2-0.1-1.7-0.3c-0.5-0.2-1-0.5-1.4-0.9c-0.4-0.4-0.7-0.9-0.9-1.5c-0.2-0.6-0.3-1.3-0.3-2
				c0-1,0.2-1.9,0.5-2.6c0.4-0.7,0.9-1.2,1.5-1.6c0.7-0.4,1.4-0.6,2.3-0.6c0.8,0,1.6,0.2,2.2,0.6c0.6,0.4,1.2,0.9,1.5,1.6
				S878.7,319.9,878.7,321z M872.1,321c0,0.7,0.1,1.2,0.2,1.7c0.2,0.5,0.4,0.8,0.8,1.1s0.8,0.4,1.3,0.4s1-0.1,1.3-0.4
				s0.6-0.6,0.8-1.1c0.2-0.5,0.2-1,0.2-1.7s-0.1-1.2-0.2-1.7c-0.2-0.5-0.4-0.8-0.8-1.1s-0.8-0.4-1.3-0.4c-0.8,0-1.4,0.3-1.8,0.8
				C872.3,319.2,872.1,319.9,872.1,321z"/>
			<path class="st44" d="M880.1,329.6c-0.3,0-0.6,0-0.8-0.1c-0.3,0-0.5-0.1-0.7-0.1v-1.6c0.2,0.1,0.4,0.1,0.5,0.1c0.2,0,0.4,0,0.6,0
				c0.4,0,0.7-0.1,0.9-0.3s0.4-0.6,0.4-1.1v-10.2h2v10.4c0,0.6-0.1,1.1-0.3,1.5s-0.5,0.8-0.9,1C881.3,329.5,880.7,329.6,880.1,329.6
				z M880.9,313.9c0-0.4,0.1-0.7,0.3-0.8s0.5-0.2,0.8-0.2c0.3,0,0.6,0.1,0.8,0.2s0.3,0.4,0.3,0.8c0,0.4-0.1,0.7-0.3,0.8
				s-0.5,0.2-0.8,0.2c-0.3,0-0.6-0.1-0.8-0.2S880.9,314.3,880.9,313.9z"/>
			<path class="st44" d="M889.4,316.2c0.8,0,1.5,0.2,2.1,0.5c0.6,0.3,1,0.8,1.4,1.4s0.5,1.4,0.5,2.2v1h-6.1c0,0.9,0.3,1.6,0.7,2.1
				c0.5,0.5,1.1,0.7,1.9,0.7c0.6,0,1.1-0.1,1.6-0.2s1-0.3,1.4-0.5v1.6c-0.5,0.2-0.9,0.4-1.4,0.5s-1,0.1-1.7,0.1
				c-0.9,0-1.7-0.2-2.4-0.5s-1.2-0.9-1.6-1.6s-0.6-1.6-0.6-2.6c0-1,0.2-1.9,0.5-2.6s0.8-1.3,1.5-1.6S888.5,316.2,889.4,316.2z
				 M889.4,317.7c-0.6,0-1.1,0.2-1.5,0.6s-0.6,1-0.7,1.8h4.2c0-0.5-0.1-0.9-0.2-1.2c-0.1-0.4-0.4-0.6-0.7-0.8
				S889.8,317.7,889.4,317.7z"/>
			<path class="st44" d="M899.2,325.7c-0.9,0-1.6-0.2-2.3-0.5c-0.6-0.3-1.1-0.9-1.5-1.6c-0.3-0.7-0.5-1.6-0.5-2.7
				c0-1.1,0.2-2,0.6-2.7c0.4-0.7,0.9-1.2,1.6-1.6c0.7-0.3,1.4-0.5,2.3-0.5c0.5,0,1,0.1,1.5,0.2c0.4,0.1,0.8,0.2,1.1,0.4l-0.6,1.6
				c-0.3-0.1-0.7-0.3-1-0.3c-0.4-0.1-0.7-0.1-1-0.1c-0.5,0-1,0.1-1.3,0.4c-0.4,0.2-0.6,0.6-0.8,1.1c-0.2,0.5-0.3,1.1-0.3,1.8
				c0,0.7,0.1,1.2,0.3,1.7c0.2,0.5,0.4,0.8,0.8,1s0.8,0.4,1.3,0.4c0.5,0,1-0.1,1.4-0.2s0.8-0.3,1.1-0.5v1.7
				c-0.3,0.2-0.7,0.3-1.1,0.4S899.8,325.7,899.2,325.7z"/>
			<path class="st44" d="M907.4,324.2c0.3,0,0.5,0,0.8-0.1c0.2,0,0.5-0.1,0.7-0.2v1.5c-0.2,0.1-0.5,0.2-0.8,0.2s-0.7,0.1-1.1,0.1
				c-0.5,0-1-0.1-1.4-0.3c-0.4-0.2-0.7-0.5-1-0.9c-0.2-0.4-0.4-1-0.4-1.8v-4.9h-1.3V317l1.3-0.7l0.6-2h1.2v2h2.6v1.5h-2.6v4.9
				c0,0.5,0.1,0.8,0.3,1C906.7,324,907,324.2,907.4,324.2z"/>
			<path class="st44" d="M920.2,325.6h-2v-7.8c0-0.3,0-0.5,0-0.8c0-0.3,0-0.5,0-0.8c0-0.2,0-0.5,0-0.7c-0.1,0.1-0.3,0.3-0.4,0.4
				c-0.2,0.2-0.3,0.3-0.5,0.5l-1.4,1.1l-1-1.2l3.6-2.8h1.6V325.6z"/>
		</g>
		<g>
			<path class="st44" d="M856.5,374.9c1.6,0,2.7,0.3,3.4,1s1.1,1.5,1.1,2.7c0,0.5-0.1,1-0.2,1.5c-0.2,0.5-0.4,0.9-0.8,1.3
				s-0.9,0.6-1.5,0.9c-0.6,0.2-1.4,0.3-2.2,0.3H855v4.5h-2v-12.1H856.5z M856.4,376.6H855v4.3h1.1c0.6,0,1.2-0.1,1.6-0.2
				c0.4-0.1,0.8-0.4,1-0.7c0.2-0.3,0.3-0.7,0.3-1.3c0-0.7-0.2-1.2-0.6-1.6C858,376.8,857.3,376.6,856.4,376.6z"/>
			<path class="st44" d="M867.9,377.7c0.2,0,0.3,0,0.5,0c0.2,0,0.3,0,0.5,0.1l-0.2,1.8c-0.1,0-0.3-0.1-0.4-0.1s-0.3,0-0.5,0
				c-0.3,0-0.7,0.1-1,0.2c-0.3,0.1-0.6,0.3-0.8,0.5s-0.4,0.5-0.6,0.9c-0.1,0.3-0.2,0.7-0.2,1.2v4.8h-2v-9.2h1.5l0.3,1.6h0.1
				c0.2-0.3,0.4-0.6,0.7-0.9c0.3-0.3,0.6-0.5,0.9-0.7S867.5,377.7,867.9,377.7z"/>
			<path class="st44" d="M878.7,382.5c0,0.8-0.1,1.4-0.3,2c-0.2,0.6-0.5,1.1-0.9,1.5c-0.4,0.4-0.8,0.7-1.4,0.9
				c-0.5,0.2-1.1,0.3-1.8,0.3c-0.6,0-1.2-0.1-1.7-0.3c-0.5-0.2-1-0.5-1.4-0.9c-0.4-0.4-0.7-0.9-0.9-1.5c-0.2-0.6-0.3-1.3-0.3-2
				c0-1,0.2-1.9,0.5-2.6c0.4-0.7,0.9-1.2,1.5-1.6c0.7-0.4,1.4-0.6,2.3-0.6c0.8,0,1.6,0.2,2.2,0.6c0.6,0.4,1.2,0.9,1.5,1.6
				S878.7,381.4,878.7,382.5z M872.1,382.5c0,0.7,0.1,1.2,0.2,1.7c0.2,0.5,0.4,0.8,0.8,1.1s0.8,0.4,1.3,0.4s1-0.1,1.3-0.4
				s0.6-0.6,0.8-1.1c0.2-0.5,0.2-1,0.2-1.7s-0.1-1.2-0.2-1.7c-0.2-0.5-0.4-0.8-0.8-1.1s-0.8-0.4-1.3-0.4c-0.8,0-1.4,0.3-1.8,0.8
				C872.3,380.7,872.1,381.4,872.1,382.5z"/>
			<path class="st44" d="M880.1,391.1c-0.3,0-0.6,0-0.8-0.1c-0.3,0-0.5-0.1-0.7-0.1v-1.6c0.2,0.1,0.4,0.1,0.5,0.1c0.2,0,0.4,0,0.6,0
				c0.4,0,0.7-0.1,0.9-0.3s0.4-0.6,0.4-1.1v-10.2h2v10.4c0,0.6-0.1,1.1-0.3,1.5s-0.5,0.8-0.9,1C881.3,391,880.7,391.1,880.1,391.1z
				 M880.9,375.4c0-0.4,0.1-0.7,0.3-0.8s0.5-0.2,0.8-0.2c0.3,0,0.6,0.1,0.8,0.2s0.3,0.4,0.3,0.8c0,0.4-0.1,0.7-0.3,0.8
				s-0.5,0.2-0.8,0.2c-0.3,0-0.6-0.1-0.8-0.2S880.9,375.8,880.9,375.4z"/>
			<path class="st44" d="M889.4,377.7c0.8,0,1.5,0.2,2.1,0.5c0.6,0.3,1,0.8,1.4,1.4s0.5,1.4,0.5,2.2v1h-6.1c0,0.9,0.3,1.6,0.7,2.1
				c0.5,0.5,1.1,0.7,1.9,0.7c0.6,0,1.1-0.1,1.6-0.2s1-0.3,1.4-0.5v1.6c-0.5,0.2-0.9,0.4-1.4,0.5s-1,0.1-1.7,0.1
				c-0.9,0-1.7-0.2-2.4-0.5s-1.2-0.9-1.6-1.6s-0.6-1.6-0.6-2.6c0-1,0.2-1.9,0.5-2.6s0.8-1.3,1.5-1.6S888.5,377.7,889.4,377.7z
				 M889.4,379.2c-0.6,0-1.1,0.2-1.5,0.6s-0.6,1-0.7,1.8h4.2c0-0.5-0.1-0.9-0.2-1.2c-0.1-0.4-0.4-0.6-0.7-0.8
				S889.8,379.2,889.4,379.2z"/>
			<path class="st44" d="M899.2,387.2c-0.9,0-1.6-0.2-2.3-0.5c-0.6-0.3-1.1-0.9-1.5-1.6c-0.3-0.7-0.5-1.6-0.5-2.7
				c0-1.1,0.2-2,0.6-2.7c0.4-0.7,0.9-1.2,1.6-1.6c0.7-0.3,1.4-0.5,2.3-0.5c0.5,0,1,0.1,1.5,0.2c0.4,0.1,0.8,0.2,1.1,0.4l-0.6,1.6
				c-0.3-0.1-0.7-0.3-1-0.3c-0.4-0.1-0.7-0.1-1-0.1c-0.5,0-1,0.1-1.3,0.4c-0.4,0.2-0.6,0.6-0.8,1.1c-0.2,0.5-0.3,1.1-0.3,1.8
				c0,0.7,0.1,1.2,0.3,1.7c0.2,0.5,0.4,0.8,0.8,1s0.8,0.4,1.3,0.4c0.5,0,1-0.1,1.4-0.2s0.8-0.3,1.1-0.5v1.7
				c-0.3,0.2-0.7,0.3-1.1,0.4S899.8,387.2,899.2,387.2z"/>
			<path class="st44" d="M907.4,385.7c0.3,0,0.5,0,0.8-0.1c0.2,0,0.5-0.1,0.7-0.2v1.5c-0.2,0.1-0.5,0.2-0.8,0.2s-0.7,0.1-1.1,0.1
				c-0.5,0-1-0.1-1.4-0.3c-0.4-0.2-0.7-0.5-1-0.9c-0.2-0.4-0.4-1-0.4-1.8v-4.9h-1.3v-0.9l1.3-0.7l0.6-2h1.2v2h2.6v1.5h-2.6v4.9
				c0,0.5,0.1,0.8,0.3,1C906.7,385.5,907,385.7,907.4,385.7z"/>
			<path class="st44" d="M922.7,387.1h-8.2v-1.5l3.1-3.2c0.6-0.6,1.1-1.2,1.5-1.6s0.7-0.9,0.9-1.3c0.2-0.4,0.3-0.8,0.3-1.3
				c0-0.6-0.2-1-0.5-1.3c-0.3-0.3-0.8-0.5-1.3-0.5c-0.5,0-1,0.1-1.5,0.3c-0.4,0.2-0.9,0.5-1.4,0.9l-1.1-1.3c0.3-0.3,0.7-0.6,1.1-0.8
				c0.4-0.2,0.8-0.4,1.3-0.6c0.5-0.1,1-0.2,1.6-0.2c0.8,0,1.4,0.1,2,0.4c0.6,0.3,1,0.7,1.3,1.1s0.5,1.1,0.5,1.7
				c0,0.7-0.1,1.3-0.4,1.8c-0.3,0.6-0.6,1.1-1.1,1.6c-0.5,0.5-1.1,1.1-1.7,1.8l-2.1,2.1v0.1h5.7V387.1z"/>
		</g>
		<g>
			<path class="st44" d="M856.5,435.7c1.6,0,2.7,0.3,3.4,1s1.1,1.5,1.1,2.7c0,0.5-0.1,1-0.2,1.5c-0.2,0.5-0.4,0.9-0.8,1.3
				s-0.9,0.6-1.5,0.9c-0.6,0.2-1.4,0.3-2.2,0.3H855v4.5h-2v-12.1H856.5z M856.4,437.3H855v4.3h1.1c0.6,0,1.2-0.1,1.6-0.2
				c0.4-0.1,0.8-0.4,1-0.7c0.2-0.3,0.3-0.7,0.3-1.3c0-0.7-0.2-1.2-0.6-1.6C858,437.5,857.3,437.3,856.4,437.3z"/>
			<path class="st44" d="M867.9,438.5c0.2,0,0.3,0,0.5,0c0.2,0,0.3,0,0.5,0.1l-0.2,1.8c-0.1,0-0.3-0.1-0.4-0.1s-0.3,0-0.5,0
				c-0.3,0-0.7,0.1-1,0.2c-0.3,0.1-0.6,0.3-0.8,0.5s-0.4,0.5-0.6,0.9c-0.1,0.3-0.2,0.7-0.2,1.2v4.8h-2v-9.2h1.5l0.3,1.6h0.1
				c0.2-0.3,0.4-0.6,0.7-0.9c0.3-0.3,0.6-0.5,0.9-0.7S867.5,438.5,867.9,438.5z"/>
			<path class="st44" d="M878.7,443.2c0,0.8-0.1,1.4-0.3,2c-0.2,0.6-0.5,1.1-0.9,1.5c-0.4,0.4-0.8,0.7-1.4,0.9
				c-0.5,0.2-1.1,0.3-1.8,0.3c-0.6,0-1.2-0.1-1.7-0.3c-0.5-0.2-1-0.5-1.4-0.9c-0.4-0.4-0.7-0.9-0.9-1.5c-0.2-0.6-0.3-1.3-0.3-2
				c0-1,0.2-1.9,0.5-2.6c0.4-0.7,0.9-1.2,1.5-1.6c0.7-0.4,1.4-0.6,2.3-0.6c0.8,0,1.6,0.2,2.2,0.6c0.6,0.4,1.2,0.9,1.5,1.6
				S878.7,442.2,878.7,443.2z M872.1,443.2c0,0.7,0.1,1.2,0.2,1.7c0.2,0.5,0.4,0.8,0.8,1.1s0.8,0.4,1.3,0.4s1-0.1,1.3-0.4
				s0.6-0.6,0.8-1.1c0.2-0.5,0.2-1,0.2-1.7s-0.1-1.2-0.2-1.7c-0.2-0.5-0.4-0.8-0.8-1.1s-0.8-0.4-1.3-0.4c-0.8,0-1.4,0.3-1.8,0.8
				C872.3,441.4,872.1,442.2,872.1,443.2z"/>
			<path class="st44" d="M880.1,451.9c-0.3,0-0.6,0-0.8-0.1c-0.3,0-0.5-0.1-0.7-0.1v-1.6c0.2,0.1,0.4,0.1,0.5,0.1c0.2,0,0.4,0,0.6,0
				c0.4,0,0.7-0.1,0.9-0.3s0.4-0.6,0.4-1.1v-10.2h2V449c0,0.6-0.1,1.1-0.3,1.5s-0.5,0.8-0.9,1C881.3,451.8,880.7,451.9,880.1,451.9z
				 M880.9,436.2c0-0.4,0.1-0.7,0.3-0.8s0.5-0.2,0.8-0.2c0.3,0,0.6,0.1,0.8,0.2s0.3,0.4,0.3,0.8c0,0.4-0.1,0.7-0.3,0.8
				s-0.5,0.2-0.8,0.2c-0.3,0-0.6-0.1-0.8-0.2S880.9,436.6,880.9,436.2z"/>
			<path class="st44" d="M889.4,438.5c0.8,0,1.5,0.2,2.1,0.5c0.6,0.3,1,0.8,1.4,1.4s0.5,1.4,0.5,2.2v1h-6.1c0,0.9,0.3,1.6,0.7,2.1
				c0.5,0.5,1.1,0.7,1.9,0.7c0.6,0,1.1-0.1,1.6-0.2s1-0.3,1.4-0.5v1.6c-0.5,0.2-0.9,0.4-1.4,0.5s-1,0.1-1.7,0.1
				c-0.9,0-1.7-0.2-2.4-0.5s-1.2-0.9-1.6-1.6s-0.6-1.6-0.6-2.6c0-1,0.2-1.9,0.5-2.6s0.8-1.3,1.5-1.6S888.5,438.5,889.4,438.5z
				 M889.4,439.9c-0.6,0-1.1,0.2-1.5,0.6s-0.6,1-0.7,1.8h4.2c0-0.5-0.1-0.9-0.2-1.2c-0.1-0.4-0.4-0.6-0.7-0.8
				S889.8,439.9,889.4,439.9z"/>
			<path class="st44" d="M899.2,448c-0.9,0-1.6-0.2-2.3-0.5c-0.6-0.3-1.1-0.9-1.5-1.6c-0.3-0.7-0.5-1.6-0.5-2.7c0-1.1,0.2-2,0.6-2.7
				c0.4-0.7,0.9-1.2,1.6-1.6c0.7-0.3,1.4-0.5,2.3-0.5c0.5,0,1,0.1,1.5,0.2c0.4,0.1,0.8,0.2,1.1,0.4l-0.6,1.6c-0.3-0.1-0.7-0.3-1-0.3
				c-0.4-0.1-0.7-0.1-1-0.1c-0.5,0-1,0.1-1.3,0.4c-0.4,0.2-0.6,0.6-0.8,1.1c-0.2,0.5-0.3,1.1-0.3,1.8c0,0.7,0.1,1.2,0.3,1.7
				c0.2,0.5,0.4,0.8,0.8,1s0.8,0.4,1.3,0.4c0.5,0,1-0.1,1.4-0.2s0.8-0.3,1.1-0.5v1.7c-0.3,0.2-0.7,0.3-1.1,0.4S899.8,448,899.2,448z
				"/>
			<path class="st44" d="M907.4,446.4c0.3,0,0.5,0,0.8-0.1c0.2,0,0.5-0.1,0.7-0.2v1.5c-0.2,0.1-0.5,0.2-0.8,0.2s-0.7,0.1-1.1,0.1
				c-0.5,0-1-0.1-1.4-0.3c-0.4-0.2-0.7-0.5-1-0.9c-0.2-0.4-0.4-1-0.4-1.8v-4.9h-1.3v-0.9l1.3-0.7l0.6-2h1.2v2h2.6v1.5h-2.6v4.9
				c0,0.5,0.1,0.8,0.3,1C906.7,446.3,907,446.4,907.4,446.4z"/>
			<path class="st44" d="M922.2,438.5c0,0.5-0.1,1-0.3,1.4s-0.5,0.7-0.9,1c-0.4,0.3-0.8,0.4-1.3,0.6v0.1c1,0.1,1.7,0.4,2.2,0.9
				c0.5,0.5,0.7,1.1,0.7,1.9c0,0.7-0.2,1.3-0.5,1.9c-0.3,0.6-0.9,1-1.6,1.3c-0.7,0.3-1.6,0.5-2.7,0.5c-0.7,0-1.3-0.1-1.8-0.2
				c-0.6-0.1-1.1-0.3-1.6-0.5v-1.7c0.5,0.3,1.1,0.5,1.6,0.6c0.6,0.1,1.1,0.2,1.7,0.2c1,0,1.7-0.2,2.2-0.6s0.6-0.9,0.6-1.6
				c0-0.4-0.1-0.8-0.3-1.1c-0.2-0.3-0.6-0.5-1-0.6s-1.1-0.2-1.8-0.2h-1.1v-1.6h1.1c0.7,0,1.3-0.1,1.7-0.3c0.4-0.2,0.7-0.4,0.9-0.7
				c0.2-0.3,0.3-0.6,0.3-1c0-0.5-0.2-0.9-0.5-1.2c-0.3-0.3-0.8-0.4-1.5-0.4c-0.4,0-0.8,0-1.1,0.1c-0.3,0.1-0.6,0.2-0.9,0.4
				c-0.3,0.1-0.5,0.3-0.8,0.5l-0.9-1.4c0.5-0.3,1-0.6,1.6-0.9c0.6-0.2,1.4-0.4,2.2-0.4c1.2,0,2.2,0.3,2.9,0.8
				S922.2,437.6,922.2,438.5z"/>
		</g>
		<g>
			<path class="st43" d="M859.7,502.9c-1.3,0-2.7,0-4-0.1l0-1c1.3,0,2.7,0.1,4,0.1V502.9z M860.5,502.9l0-1c1.3,0,2.7,0,4-0.1l0,1
				C863.2,502.8,861.9,502.8,860.5,502.9z M851.7,502.6c-1.3-0.1-2.7-0.2-4-0.4l0.1-1c1.3,0.2,2.6,0.3,4,0.4L851.7,502.6z
				 M868.6,502.5l-0.1-1c1.3-0.1,2.6-0.2,4-0.4l0.1,1C871.2,502.2,869.9,502.4,868.6,502.5z M843.7,501.6c-1.3-0.2-2.7-0.4-4-0.7
				l0.2-1c1.3,0.2,2.6,0.5,3.9,0.7L843.7,501.6z M876.5,501.5l-0.2-1c1.3-0.2,2.6-0.4,3.9-0.7l0.2,1
				C879.2,501.1,877.9,501.3,876.5,501.5z M835.8,500.1c-1.3-0.3-2.6-0.6-3.9-1l0.3-1c1.3,0.3,2.6,0.7,3.9,1L835.8,500.1z
				 M884.4,499.9l-0.2-1c1.3-0.3,2.6-0.6,3.8-1l0.3,1C887,499.3,885.7,499.6,884.4,499.9z M828.1,498c-1.3-0.4-2.6-0.8-3.8-1.3
				l0.3-0.9c1.2,0.4,2.5,0.9,3.8,1.3L828.1,498z M892.2,497.8l-0.3-1c1.3-0.4,2.5-0.8,3.8-1.3l0.3,0.9
				C894.7,496.9,893.4,497.3,892.2,497.8z M820.5,495.3c-1.2-0.5-2.5-1-3.7-1.6l0.4-0.9c1.2,0.5,2.4,1.1,3.7,1.6L820.5,495.3z
				 M899.7,495l-0.4-0.9c1.2-0.5,2.4-1,3.6-1.6l0.4,0.9C902.2,493.9,900.9,494.5,899.7,495z M813.1,492c-1.2-0.6-2.4-1.2-3.6-1.9
				l0.5-0.9c1.2,0.6,2.4,1.3,3.5,1.8L813.1,492z M907,491.6l-0.5-0.9c1.2-0.6,2.4-1.2,3.5-1.9l0.5,0.9
				C909.4,490.4,908.2,491,907,491.6z M806.1,488.1c-1.1-0.7-2.3-1.4-3.4-2.1l0.5-0.8c1.1,0.7,2.2,1.4,3.4,2.1L806.1,488.1z
				 M914,487.8l-0.5-0.9c1.1-0.7,2.3-1.4,3.4-2.1l0.5,0.8C916.3,486.4,915.1,487.1,914,487.8z M799.3,483.8
				c-1.1-0.8-2.2-1.6-3.2-2.4l0.6-0.8c1.1,0.8,2.1,1.6,3.2,2.4L799.3,483.8z M920.7,483.4l-0.6-0.8c1.1-0.8,2.1-1.6,3.2-2.4l0.6,0.8
				C922.9,481.8,921.8,482.6,920.7,483.4z M792.9,478.9c-1-0.9-2.1-1.7-3.1-2.6l0.7-0.7c1,0.9,2,1.7,3,2.6L792.9,478.9z M927,478.4
				l-0.6-0.8c1-0.9,2-1.7,3-2.6l0.7,0.7C929.1,476.7,928.1,477.6,927,478.4z M786.9,473.5c-1-0.9-1.9-1.9-2.8-2.8l0.7-0.7
				c0.9,0.9,1.9,1.9,2.8,2.8L786.9,473.5z M933,473.1l-0.7-0.7c0.9-0.9,1.9-1.9,2.8-2.8l0.7,0.7C934.9,471.2,934,472.1,933,473.1z
				 M781.4,467.8c-0.9-1-1.8-2-2.6-3l0.8-0.6c0.8,1,1.7,2,2.6,3L781.4,467.8z M938.5,467.2l-0.8-0.7c0.9-1,1.7-2,2.6-3l0.8,0.6
				C940.3,465.2,939.4,466.2,938.5,467.2z M776.2,461.6c-0.8-1.1-1.6-2.2-2.4-3.2l0.8-0.6c0.7,1.1,1.5,2.1,2.4,3.2L776.2,461.6z
				 M943.6,461l-0.8-0.6c0.8-1,1.6-2.1,2.3-3.2l0.8,0.6C945.2,458.9,944.4,460,943.6,461z M771.6,455c-0.7-1.1-1.4-2.3-2.1-3.4
				l0.9-0.5c0.7,1.1,1.4,2.3,2.1,3.4L771.6,455z M948.2,454.4l-0.8-0.5c0.7-1.1,1.4-2.3,2.1-3.4l0.9,0.5
				C949.6,452.1,948.9,453.3,948.2,454.4z M767.5,448.1c-0.6-1.2-1.3-2.4-1.9-3.6l0.9-0.4c0.6,1.2,1.2,2.4,1.8,3.5L767.5,448.1z
				 M952.3,447.5l-0.9-0.5c0.6-1.2,1.2-2.4,1.8-3.5l0.9,0.4C953.5,445.1,952.9,446.3,952.3,447.5z M763.9,440.9
				c-0.5-1.2-1.1-2.4-1.6-3.7l0.9-0.4c0.5,1.2,1,2.5,1.6,3.6L763.9,440.9z M955.8,440.2l-0.9-0.4c0.5-1.2,1-2.4,1.5-3.7l0.9,0.4
				C956.9,437.8,956.4,439,955.8,440.2z M760.9,433.5c-0.5-1.3-0.9-2.5-1.3-3.8l1-0.3c0.4,1.3,0.8,2.5,1.3,3.8L760.9,433.5z
				 M958.8,432.7l-0.9-0.3c0.4-1.3,0.9-2.5,1.3-3.8l1,0.3C959.7,430.2,959.2,431.5,958.8,432.7z M758.5,425.8
				c-0.4-1.3-0.7-2.6-1-3.9l1-0.2c0.3,1.3,0.6,2.6,1,3.9L758.5,425.8z M961.2,425.1l-1-0.3c0.3-1.3,0.7-2.6,1-3.9l1,0.2
				C961.8,422.5,961.5,423.8,961.2,425.1z M756.7,418c-0.3-1.3-0.5-2.6-0.7-4l1-0.2c0.2,1.3,0.4,2.6,0.7,3.9L756.7,418z
				 M962.9,417.2l-1-0.2c0.2-1.3,0.5-2.6,0.7-3.9l1,0.1C963.4,414.6,963.2,415.9,962.9,417.2z M755.4,410.1c-0.2-1.3-0.3-2.7-0.4-4
				l1-0.1c0.1,1.3,0.2,2.6,0.4,4L755.4,410.1z M964.1,409.3l-1-0.1c0.1-1.3,0.3-2.6,0.4-4l1,0.1
				C964.4,406.6,964.3,407.9,964.1,409.3z M754.8,402.1c-0.1-1.3-0.1-2.7-0.1-4l1,0c0,1.3,0,2.7,0.1,4L754.8,402.1z M964.7,401.3
				l-1,0c0-1.1,0.1-2.2,0.1-3.4v-0.6h1v0.6C964.7,399,964.7,400.1,964.7,401.3z M755.7,394.1h-1v-4h1V394.1z M964.7,393.2h-1v-4h1
				V393.2z M755.7,386.1h-1v-4h1V386.1z M964.7,385.2h-1v-4h1V385.2z M755.7,378.1h-1v-4h1V378.1z M964.7,377.2h-1v-4h1V377.2z
				 M755.7,370.1h-1v-4h1V370.1z M964.7,369.2h-1v-4h1V369.2z M755.7,362.1h-1v-4h1V362.1z M964.7,361.2h-1v-4h1V361.2z
				 M755.7,354.1h-1v-4h1V354.1z M964.7,353.2h-1v-4h1V353.2z M755.7,346.1h-1v-4h1V346.1z M964.7,345.2h-1v-4h1V345.2z
				 M755.7,338.1h-1v-4h1V338.1z M964.7,337.2h-1v-4h1V337.2z M755.7,330.1h-1v-4h1V330.1z M964.7,329.2h-1v-4h1V329.2z
				 M755.7,322.1h-1v-4h1V322.1z M964.7,321.2h-1v-4h1V321.2z M755.7,314.1h-1v-4h1V314.1z M964.7,313.2h-1v-4h1V313.2z
				 M755.7,306.1h-1v-4h1V306.1z M964.7,305.2h-1v-4h1V305.2z M755.7,298.1h-1v-4h1V298.1z M964.7,297.2h-1v-4h1V297.2z
				 M755.7,290.1h-1v-4h1V290.1z M964.7,289.2h-1v-4h1V289.2z M755.7,282.1h-1v-4h1V282.1z M964.7,281.2h-1v-4h1V281.2z
				 M755.7,274.1h-1v-4h1V274.1z M964.7,273.2h-1v-4h1V273.2z M755.7,266.1h-1v-4h1V266.1z M964.7,265.2h-1v-4h1V265.2z
				 M755.7,258.1h-1v-4h1V258.1z M964.7,257.2h-1v-4h1V257.2z M755.7,250.1h-1v-4h1V250.1z M964.7,249.2h-1v-4h1V249.2z
				 M755.7,242.1l-1,0c0-1.3,0.1-2.7,0.1-4l1,0.1C755.8,239.4,755.8,240.8,755.7,242.1z M963.7,241.3c0-1.3-0.1-2.7-0.2-4l1-0.1
				c0.1,1.3,0.1,2.7,0.2,4L963.7,241.3z M756.2,234.1l-1-0.1c0.1-1.3,0.3-2.7,0.4-4l1,0.1C756.4,231.5,756.3,232.8,756.2,234.1z
				 M963.2,233.3c-0.1-1.3-0.3-2.6-0.5-4l1-0.1c0.2,1.3,0.3,2.7,0.5,4L963.2,233.3z M757.2,226.2l-1-0.2c0.2-1.3,0.5-2.6,0.8-3.9
				l1,0.2C757.7,223.6,757.4,224.9,757.2,226.2z M962.1,225.4c-0.2-1.3-0.5-2.6-0.8-3.9l1-0.2c0.3,1.3,0.5,2.6,0.8,3.9L962.1,225.4z
				 M758.8,218.5l-1-0.2c0.3-1.3,0.7-2.6,1.1-3.9l1,0.3C759.5,215.9,759.2,217.2,758.8,218.5z M960.4,217.7
				c-0.3-1.3-0.7-2.6-1.1-3.8l1-0.3c0.4,1.3,0.7,2.6,1.1,3.9L960.4,217.7z M761.1,210.8l-0.9-0.3c0.4-1.3,0.9-2.5,1.4-3.8l0.9,0.4
				C762,208.3,761.5,209.6,761.1,210.8z M958.1,210c-0.4-1.2-0.9-2.5-1.4-3.7l0.9-0.4c0.5,1.3,0.9,2.5,1.4,3.8L958.1,210z
				 M763.9,203.3L763,203c0.5-1.2,1.1-2.5,1.6-3.7l0.9,0.4C765,200.9,764.4,202.1,763.9,203.3z M955.2,202.6
				c-0.5-1.2-1.1-2.4-1.6-3.6l0.9-0.4c0.6,1.2,1.1,2.4,1.7,3.6L955.2,202.6z M767.3,196.1l-0.9-0.5c0.6-1.2,1.3-2.4,1.9-3.5l0.9,0.5
				C768.5,193.8,767.9,195,767.3,196.1z M951.8,195.5c-0.6-1.2-1.3-2.3-1.9-3.5l0.9-0.5c0.7,1.2,1.3,2.3,1.9,3.5L951.8,195.5z
				 M771.2,189.2l-0.8-0.5c0.7-1.1,1.4-2.3,2.2-3.4l0.8,0.6C772.7,186.9,771.9,188.1,771.2,189.2z M947.8,188.6
				c-0.7-1.1-1.4-2.2-2.2-3.3l0.8-0.6c0.8,1.1,1.5,2.2,2.2,3.4L947.8,188.6z M775.7,182.6l-0.8-0.6c0.8-1.1,1.6-2.2,2.4-3.2l0.8,0.6
				C777.3,180.5,776.5,181.5,775.7,182.6z M943.3,182c-0.8-1-1.6-2.1-2.4-3.1l0.8-0.6c0.8,1.1,1.7,2.1,2.5,3.2L943.3,182z
				 M780.6,176.3l-0.8-0.7c0.9-1,1.8-2,2.7-3l0.7,0.7C782.4,174.3,781.5,175.3,780.6,176.3z M938.4,175.8c-0.9-1-1.8-2-2.7-3
				l0.7-0.7c0.9,1,1.8,2,2.7,3L938.4,175.8z M786,170.5l-0.7-0.7c0.9-0.9,1.9-1.9,2.9-2.8l0.7,0.7
				C787.9,168.6,786.9,169.6,786,170.5z M932.9,170c-0.9-0.9-1.9-1.9-2.9-2.7l0.7-0.7c1,0.9,2,1.8,2.9,2.8L932.9,170z M791.8,165.1
				l-0.7-0.8c1-0.9,2-1.7,3.1-2.6l0.6,0.8C793.9,163.4,792.8,164.2,791.8,165.1z M927.1,164.6c-1-0.9-2-1.7-3.1-2.5l0.6-0.8
				c1.1,0.8,2.1,1.7,3.1,2.5L927.1,164.6z M798,160.1l-0.6-0.8c1.1-0.8,2.2-1.6,3.3-2.3l0.6,0.8C800.2,158.6,799.1,159.3,798,160.1z
				 M920.8,159.7c-1.1-0.8-2.2-1.5-3.3-2.3l0.6-0.8c1.1,0.7,2.2,1.5,3.3,2.3L920.8,159.7z M804.6,155.6l-0.5-0.8
				c1.1-0.7,2.3-1.4,3.4-2.1l0.5,0.9C806.9,154.3,805.7,154.9,804.6,155.6z M914.2,155.3c-1.1-0.7-2.3-1.4-3.4-2l0.5-0.9
				c1.2,0.7,2.3,1.3,3.5,2L914.2,155.3z M811.5,151.7l-0.5-0.9c1.2-0.6,2.4-1.2,3.6-1.8l0.4,0.9
				C813.9,150.5,812.7,151.1,811.5,151.7z M907.3,151.3c-1.2-0.6-2.4-1.2-3.6-1.8l0.4-0.9c1.2,0.6,2.4,1.2,3.6,1.8L907.3,151.3z
				 M818.7,148.3l-0.4-0.9c1.2-0.5,2.5-1,3.7-1.5l0.4,0.9C821.1,147.2,819.9,147.8,818.7,148.3z M900,148c-1.2-0.5-2.5-1-3.7-1.5
				l0.4-0.9c1.2,0.5,2.5,1,3.7,1.5L900,148z M826.1,145.4l-0.3-0.9c1.3-0.4,2.5-0.8,3.8-1.2l0.3,1
				C828.6,144.6,827.3,145,826.1,145.4z M892.6,145.2c-1.3-0.4-2.5-0.8-3.8-1.2l0.3-1c1.3,0.4,2.6,0.8,3.8,1.2L892.6,145.2z
				 M833.7,143.1l-0.3-1c1.3-0.3,2.6-0.6,3.9-0.9l0.2,1C836.3,142.5,835,142.8,833.7,143.1z M884.9,142.9c-1.3-0.3-2.6-0.6-3.9-0.9
				l0.2-1c1.3,0.3,2.6,0.6,3.9,0.9L884.9,142.9z M841.5,141.5l-0.2-1c1.3-0.2,2.6-0.4,4-0.6l0.1,1
				C844.1,141,842.8,141.2,841.5,141.5z M877.1,141.3c-1.3-0.2-2.6-0.4-3.9-0.6l0.1-1c1.3,0.2,2.7,0.4,4,0.6L877.1,141.3z
				 M849.4,140.4l-0.1-1c1.3-0.1,2.7-0.2,4-0.3l0.1,1C852,140.1,850.7,140.2,849.4,140.4z M869.3,140.3c-1.3-0.1-2.7-0.2-4-0.3
				l0.1-1c1.3,0.1,2.7,0.2,4,0.3L869.3,140.3z M857.3,139.9l0-1c1.3,0,2.7,0,4,0l0,1C860,139.9,858.6,139.9,857.3,139.9z"/>
		</g>
		<g>
			<g>
				<path class="st45" d="M793.3,328.4c-4.4,0-8-3.6-8-8c0-4.4,3.6-8,8-8s8,3.6,8,8C801.2,324.9,797.6,328.4,793.3,328.4z
					 M793.3,313.7c-3.7,0-6.8,3-6.8,6.8c0,3.7,3,6.8,6.8,6.8s6.8-3,6.8-6.8C800,316.7,797,313.7,793.3,313.7z"/>
			</g>
			<g>
				<rect x="800.2" y="319.8" class="st45" width="38.4" height="1.4"/>
			</g>
			<g>
				<polygon class="st45" points="832.3,328.3 831.3,327.3 838.2,320.4 831.4,313.6 832.4,312.6 840.2,320.4 				"/>
			</g>
		</g>
		<g>
			<g>
				<path class="st45" d="M793.3,389.8c-4.4,0-8-3.6-8-8s3.6-8,8-8s8,3.6,8,8S797.6,389.8,793.3,389.8z M793.3,375
					c-3.7,0-6.8,3-6.8,6.8s3,6.8,6.8,6.8s6.8-3,6.8-6.8S797,375,793.3,375z"/>
			</g>
			<g>
				<rect x="800.2" y="381.1" class="st45" width="38.4" height="1.4"/>
			</g>
			<g>
				<polygon class="st45" points="832.3,389.7 831.3,388.7 838.2,381.7 831.4,374.9 832.4,373.9 840.2,381.7 				"/>
			</g>
		</g>
		<g>
			<g>
				<path class="st45" d="M793.3,450.1c-4.4,0-8-3.6-8-8s3.6-8,8-8s8,3.6,8,8S797.6,450.1,793.3,450.1z M793.3,435.4
					c-3.7,0-6.8,3-6.8,6.8s3,6.8,6.8,6.8s6.8-3,6.8-6.8S797,435.4,793.3,435.4z"/>
			</g>
			<g>
				<rect x="800.2" y="441.4" class="st45" width="38.4" height="1.4"/>
			</g>
			<g>
				<polygon class="st45" points="832.3,450 831.3,449 838.2,442.1 831.4,435.3 832.4,434.3 840.2,442.1 				"/>
			</g>
		</g>
	</g>
	<g>
		<g>
			<polygon class="st45" points="358.5,562 4,562 4,503.6 5.4,503.6 5.4,560.6 358.5,560.6 			"/>
		</g>
		<g>
			<polygon class="st45" points="352.5,568.8 351.5,567.7 358,561.2 351.6,554.8 352.7,553.8 360.1,561.2 			"/>
		</g>
	</g>
	<g>
		<g>
			<polygon class="st45" points="959.4,562 604.9,562 604.9,560.6 958,560.6 958,503.6 959.4,503.6 			"/>
		</g>
		<g>
			<polygon class="st45" points="610.9,568.8 603.4,561.2 610.8,553.8 611.8,554.8 605.4,561.2 611.9,567.7 			"/>
		</g>
	</g>
</g>
</svg>
