<?xml version="1.0" encoding="utf-8"?>
<!-- Generator: Adobe Illustrator 22.1.0, SVG Export Plug-In . SVG Version: 6.00 Build 0)  -->
<svg version="1.1" id="Layer_1" xmlns="http://www.w3.org/2000/svg" xmlns:xlink="http://www.w3.org/1999/xlink" x="0px" y="0px"
	 viewBox="0 0 1000 600" style="enable-background:new 0 0 1000 600;" xml:space="preserve">
<style type="text/css">
	.st0{fill:none;stroke:#000000;stroke-width:0.4201;stroke-miterlimit:10;}
	.st1{fill:none;stroke:#000000;stroke-width:0.4975;stroke-miterlimit:10;}
	.st2{fill:none;stroke:#000000;stroke-width:0.4789;stroke-miterlimit:10;stroke-dasharray:1.9399,1.9399;}
	.st3{fill:none;stroke:#000000;stroke-width:0.4789;stroke-miterlimit:10;stroke-dasharray:2.0892,2.0892;}
	.st4{fill:none;stroke:#000000;stroke-width:0.4383;stroke-miterlimit:10;stroke-dasharray:1.9063,1.9063;}
	.st5{fill:none;stroke:#000000;stroke-width:0.4789;stroke-miterlimit:10;stroke-dasharray:2.8601,2.8601;}
	.st6{fill:none;stroke:#000000;stroke-width:0.4789;stroke-miterlimit:10;stroke-dasharray:2.8523,2.8523;}
	.st7{fill:none;stroke:#000000;stroke-width:0.4978;stroke-miterlimit:10;stroke-dasharray:2.9956,2.9956;}
	.st8{fill:#FFFFFF;}
	.st9{fill:none;stroke:#000000;stroke-width:0.4789;stroke-miterlimit:10;stroke-dasharray:2.8557,2.8557;}
	.st10{fill:none;stroke:#000000;stroke-width:0.4789;stroke-miterlimit:10;}
	.st11{fill:#0071BC;stroke:#000000;stroke-width:0.4201;stroke-miterlimit:10;}
	.st12{fill:none;stroke:#000000;stroke-width:0.7183;stroke-miterlimit:10;}
	.st13{fill:#FF9900;}
	.st14{fill:#C1272D;}
	.st15{fill:none;stroke:#000000;stroke-width:0.4816;stroke-miterlimit:10;stroke-dasharray:2.1013,2.1013;}
	.st16{fill:none;stroke:#000000;stroke-width:0.478;stroke-miterlimit:10;stroke-dasharray:2.8522,2.8522;}
	.st17{fill:none;stroke:#000000;stroke-width:0.5417;stroke-miterlimit:10;stroke-dasharray:4.3285,4.3285;}
	.st18{fill:none;stroke:#000000;stroke-width:0.4225;stroke-miterlimit:10;}
	.st19{fill:none;stroke:#000000;stroke-width:0.4816;stroke-miterlimit:10;}
	.st20{fill:none;stroke:#000000;stroke-width:0.5003;stroke-miterlimit:10;}
	.st21{fill:none;stroke:#000000;stroke-width:0.5587;stroke-miterlimit:10;}
	.st22{fill:none;stroke:#000000;stroke-width:0.5068;stroke-miterlimit:10;stroke-dasharray:3.0662,3.0662;}
	.st23{fill:none;stroke:#000000;stroke-width:0.7224;stroke-miterlimit:10;}
	.st24{fill:#B5D6A0;}
	.st25{fill:#06383F;}
	.st26{fill:#2B4042;}
	.st27{fill:#82B6A2;}
	.st28{fill:#4F6C7D;}
	.st29{fill:#4DB27F;}
	.st30{fill:#E4E3E6;}
	.st31{fill:#ABAAB4;}
	.st32{fill:#D3C9D3;}
	.st33{fill:#39B54A;}
	.st34{fill:none;stroke:#FFFFFF;stroke-width:0.9632;stroke-linecap:round;stroke-linejoin:round;stroke-miterlimit:10;}
	.st35{fill:#767678;}
	.st36{fill:#C2C1C3;}
	.st37{fill:#E3E2E6;}
	.st38{fill:#CECDD3;}
	.st39{fill:#ABABB4;}
	.st40{fill:#FF687D;}
	.st41{fill:#1A1A1A;}
	.st42{fill:#CCCCCC;}
	.st43{fill:#D8D8D8;}
	.st44{fill:#808080;}
	.st45{fill:#333333;}
	.st46{fill:#4D4D4D;}
	.st47{fill:#E6F0FC;}
	.st48{fill:#29ABE2;}
	.st49{fill:#0071BC;}
	.st50{fill:#FCEE21;}
	.st51{fill:#50749A;}
	.st52{fill:#50E4C2;}
	.st53{fill:#77067F;}
	.st54{fill:#9F69C9;}
	.st55{fill:none;stroke:#0071BC;stroke-width:2;stroke-miterlimit:10;}
	.st56{fill:none;stroke:#0071BC;stroke-width:2;stroke-miterlimit:10;stroke-dasharray:4.1304,4.1304;}
	.st57{fill:none;stroke:#0071BC;stroke-miterlimit:10;}
	.st58{fill:#D8D8D8;stroke:#808080;stroke-miterlimit:10;}
	.st59{fill:none;stroke:#808080;stroke-miterlimit:10;stroke-dasharray:4;}
	.st60{fill:none;stroke:#4D4D4D;stroke-width:1.2183;stroke-miterlimit:10;}
	.st61{fill:none;stroke:#4D4D4D;stroke-width:1.3887;stroke-miterlimit:10;}
	.st62{fill:none;stroke:#4D4D4D;stroke-width:1.4426;stroke-miterlimit:10;}
	.st63{fill:none;stroke:#4D4D4D;stroke-miterlimit:10;}
	.st64{fill:none;stroke:#0071BC;stroke-width:1.5;stroke-miterlimit:10;stroke-dasharray:4.4516,4.4516;}
	.st65{fill:none;stroke:#0071BC;stroke-width:1.5;stroke-miterlimit:10;stroke-dasharray:5.4187,5.4187;}
	.st66{fill:none;stroke:#0071BC;stroke-width:1.5;stroke-miterlimit:10;stroke-dasharray:4.7103,4.7103;}
	.st67{fill:none;stroke:#0071BC;stroke-width:1.5;stroke-miterlimit:10;stroke-dasharray:5.2521,5.2521;}
	.st68{fill:none;stroke:#0071BC;stroke-width:1.5;stroke-miterlimit:10;stroke-dasharray:5.8985,5.8985;}
	.st69{fill:#FCEE21;stroke:#0071BC;stroke-width:0.963;stroke-miterlimit:10;}
	.st70{fill:#50749A;stroke:#0071BC;stroke-width:0.963;stroke-miterlimit:10;}
	.st71{fill:#50E4C2;stroke:#0071BC;stroke-width:0.963;stroke-miterlimit:10;}
	.st72{fill:#77067F;stroke:#0071BC;stroke-width:0.963;stroke-miterlimit:10;}
	.st73{fill:#F6A521;}
	.st74{fill:none;stroke:#808080;stroke-width:1.0895;stroke-miterlimit:10;stroke-dasharray:3.7494;}
	.st75{fill:#D8D8D8;stroke:#808080;stroke-width:1.0895;stroke-miterlimit:10;}
	.st76{fill:#4861B1;stroke:#4D4D4D;stroke-width:1.0895;stroke-miterlimit:10;}
</style>
<g>
	<path class="st13" d="M655.5,199.8H331c-5.8,0-10.5-4.7-10.5-10.5V98.2c0-5.8,4.7-10.5,10.5-10.5h324.5c5.8,0,10.5,4.7,10.5,10.5
		v91.1C666,195.1,661.3,199.8,655.5,199.8z M331,88.7c-5.2,0-9.5,4.3-9.5,9.5v91.1c0,5.2,4.3,9.5,9.5,9.5h324.5
		c5.2,0,9.5-4.3,9.5-9.5V98.2c0-5.2-4.3-9.5-9.5-9.5H331z"/>
</g>
<g>
	<path class="st13" d="M972,527.3H14.5c-5.8,0-10.5-4.7-10.5-10.5V83.2c0-5.8,4.7-10.5,10.5-10.5H972c5.8,0,10.5,4.7,10.5,10.5
		v433.6C982.5,522.6,977.7,527.3,972,527.3z M14.5,73.7c-5.2,0-9.5,4.3-9.5,9.5v433.6c0,5.2,4.3,9.5,9.5,9.5H972
		c5.2,0,9.5-4.3,9.5-9.5V83.2c0-5.2-4.3-9.5-9.5-9.5H14.5z"/>
</g>
<g>
	<path class="st45" d="M471.6,123.8V101h4.8v22.8H471.6z"/>
	<path class="st45" d="M495.7,117.5c0,1.4-0.3,2.5-1,3.5s-1.6,1.8-2.9,2.3c-1.3,0.5-2.8,0.8-4.6,0.8c-0.8,0-1.6-0.1-2.3-0.2
		c-0.8-0.1-1.5-0.3-2.2-0.5c-0.7-0.2-1.4-0.5-2-0.8v-4.5c1.1,0.5,2.2,0.9,3.4,1.3c1.2,0.4,2.3,0.6,3.5,0.6c0.8,0,1.4-0.1,1.9-0.3
		c0.5-0.2,0.8-0.5,1.1-0.9c0.2-0.4,0.3-0.8,0.3-1.3c0-0.6-0.2-1.1-0.6-1.5c-0.4-0.4-0.9-0.8-1.6-1.1c-0.7-0.4-1.4-0.7-2.3-1.1
		c-0.5-0.3-1.1-0.6-1.7-0.9s-1.2-0.8-1.8-1.3c-0.6-0.5-1-1.2-1.4-1.9c-0.4-0.7-0.5-1.6-0.5-2.7c0-1.4,0.3-2.5,0.9-3.5
		s1.5-1.7,2.7-2.2c1.2-0.5,2.5-0.8,4.1-0.8c1.2,0,2.3,0.1,3.4,0.4c1.1,0.3,2.2,0.7,3.4,1.2L494,106c-1.1-0.4-2-0.8-2.8-1
		c-0.8-0.2-1.7-0.4-2.5-0.4c-0.6,0-1.1,0.1-1.5,0.3c-0.4,0.2-0.8,0.5-1,0.8c-0.2,0.3-0.3,0.8-0.3,1.2c0,0.5,0.2,1,0.5,1.4
		c0.3,0.4,0.8,0.7,1.4,1.1s1.4,0.7,2.4,1.2c1.2,0.6,2.2,1.1,3,1.7c0.8,0.6,1.5,1.3,1.9,2.1C495.4,115.3,495.7,116.3,495.7,117.5z"/>
	<path class="st45" d="M517.7,101l-7.8,22.8h-5.3l-7.8-22.8h4.9l4.3,13.6c0.1,0.2,0.2,0.7,0.4,1.3c0.2,0.6,0.3,1.3,0.5,2
		s0.3,1.3,0.4,1.7c0.1-0.5,0.2-1,0.3-1.7c0.2-0.7,0.3-1.4,0.5-2c0.2-0.6,0.3-1.1,0.4-1.3l4.3-13.6H517.7z"/>
</g>
<g>
	<path class="st45" d="M409.5,171.4c-0.6,0-1.1,0.1-1.5,0.3s-0.8,0.5-1.1,1s-0.5,0.9-0.7,1.5s-0.2,1.3-0.2,2c0,1,0.1,1.9,0.4,2.6
		s0.6,1.3,1.2,1.6s1.2,0.6,2,0.6c0.6,0,1.2-0.1,1.7-0.2s1.2-0.3,1.9-0.6v2.5c-0.6,0.3-1.3,0.4-1.9,0.6s-1.3,0.2-2.1,0.2
		c-1.5,0-2.7-0.3-3.6-0.9s-1.6-1.5-2.1-2.6s-0.7-2.4-0.7-3.8c0-1.1,0.1-2.1,0.4-3s0.7-1.7,1.3-2.3s1.3-1.2,2.1-1.5s1.8-0.5,2.9-0.5
		c0.7,0,1.4,0.1,2.1,0.3s1.4,0.4,2,0.7l-1,2.5c-0.5-0.3-1.1-0.5-1.6-0.7S410,171.4,409.5,171.4z"/>
	<path class="st45" d="M424.4,183.3h-8.2v-14.3h8.2v2.5h-5.2v3.1h4.8v2.5h-4.8v3.7h5.2V183.3z"/>
	<path class="st45" d="M440,183.3h-3.8l-6.2-10.8h-0.1c0,0.4,0,0.9,0.1,1.4s0,0.9,0.1,1.4s0,0.9,0.1,1.4v6.7h-2.7v-14.3h3.8
		l6.2,10.7h0.1c0-0.4,0-0.9,0-1.3s0-0.9-0.1-1.3s0-0.9,0-1.3v-6.8h2.7V183.3z"/>
	<path class="st45" d="M449.1,183.3h-3v-11.8h-3.9v-2.5H453v2.5h-3.9V183.3z"/>
	<path class="st45" d="M459.4,169.1c1.3,0,2.4,0.2,3.2,0.5s1.5,0.8,1.9,1.4s0.6,1.4,0.6,2.4c0,0.7-0.1,1.2-0.4,1.7s-0.6,0.9-1,1.2
		s-0.8,0.6-1.3,0.8l4.2,6.2h-3.4l-3.4-5.5h-1.6v5.5h-3v-14.3H459.4z M459.1,171.5h-0.9v3.9h1c1,0,1.7-0.2,2.2-0.5s0.6-0.8,0.6-1.5
		c0-0.7-0.2-1.2-0.7-1.4S460.1,171.5,459.1,171.5z"/>
	<path class="st45" d="M477.1,183.3l-1-3.4h-5.2l-1,3.4h-3.3l5-14.3h3.7l5.1,14.3H477.1z M475.4,177.4l-1-3.3
		c-0.1-0.2-0.2-0.5-0.3-0.9s-0.2-0.7-0.3-1.1s-0.2-0.7-0.3-0.9c-0.1,0.3-0.2,0.6-0.3,1s-0.2,0.8-0.3,1.1s-0.2,0.6-0.2,0.8l-1,3.3
		H475.4z"/>
	<path class="st45" d="M482.2,183.3v-14.3h3v11.8h5.8v2.5H482.2z"/>
	<path class="st45" d="M507.4,183.3l-1-3.4h-5.2l-1,3.4h-3.3l5-14.3h3.7l5.1,14.3H507.4z M505.7,177.4l-1-3.3
		c-0.1-0.2-0.2-0.5-0.3-0.9s-0.2-0.7-0.3-1.1s-0.2-0.7-0.3-0.9c-0.1,0.3-0.2,0.6-0.3,1s-0.2,0.8-0.3,1.1s-0.2,0.6-0.2,0.8l-1,3.3
		H505.7z"/>
	<path class="st45" d="M518.6,171.4c-0.6,0-1.1,0.1-1.5,0.3s-0.8,0.5-1.1,1s-0.5,0.9-0.7,1.5s-0.2,1.3-0.2,2c0,1,0.1,1.9,0.4,2.6
		s0.6,1.3,1.2,1.6s1.2,0.6,2,0.6c0.6,0,1.2-0.1,1.7-0.2s1.2-0.3,1.9-0.6v2.5c-0.6,0.3-1.3,0.4-1.9,0.6s-1.3,0.2-2.1,0.2
		c-1.5,0-2.7-0.3-3.6-0.9s-1.6-1.5-2.1-2.6s-0.7-2.4-0.7-3.8c0-1.1,0.1-2.1,0.4-3s0.7-1.7,1.3-2.3s1.3-1.2,2.1-1.5s1.8-0.5,2.9-0.5
		c0.7,0,1.4,0.1,2.1,0.3s1.4,0.4,2,0.7l-1,2.5c-0.5-0.3-1.1-0.5-1.6-0.7S519.1,171.4,518.6,171.4z"/>
	<path class="st45" d="M530.7,183.3h-3v-11.8h-3.9v-2.5h10.8v2.5h-3.9V183.3z"/>
	<path class="st45" d="M536.8,183.3v-14.3h3v14.3H536.8z"/>
	<path class="st45" d="M556.4,176.2c0,1.1-0.1,2.1-0.4,3s-0.7,1.7-1.2,2.3s-1.3,1.2-2.1,1.5s-1.9,0.5-3,0.5s-2.2-0.2-3-0.5
		s-1.6-0.8-2.1-1.5s-1-1.4-1.2-2.3s-0.4-1.9-0.4-3c0-1.5,0.2-2.8,0.7-3.9s1.2-1.9,2.2-2.6s2.3-0.9,3.8-0.9c1.5,0,2.8,0.3,3.8,0.9
		s1.7,1.5,2.2,2.6S556.4,174.7,556.4,176.2z M546,176.2c0,1,0.1,1.9,0.4,2.6s0.6,1.3,1.2,1.7s1.2,0.6,2.1,0.6c0.9,0,1.6-0.2,2.1-0.6
		s0.9-0.9,1.2-1.7s0.4-1.6,0.4-2.6c0-1.5-0.3-2.7-0.8-3.5s-1.5-1.3-2.8-1.3c-0.9,0-1.5,0.2-2.1,0.6s-0.9,0.9-1.2,1.7
		S546,175.2,546,176.2z"/>
	<path class="st45" d="M572,183.3h-3.8l-6.2-10.8h-0.1c0,0.4,0,0.9,0.1,1.4s0,0.9,0.1,1.4s0,0.9,0.1,1.4v6.7h-2.7v-14.3h3.8
		l6.2,10.7h0.1c0-0.4,0-0.9,0-1.3s0-0.9-0.1-1.3c0-0.4,0-0.9,0-1.3v-6.8h2.7V183.3z"/>
	<path class="st45" d="M584,179.4c0,0.8-0.2,1.6-0.6,2.2s-1,1.1-1.8,1.4c-0.8,0.3-1.7,0.5-2.9,0.5c-0.5,0-1,0-1.5-0.1
		c-0.5-0.1-0.9-0.2-1.4-0.3c-0.4-0.1-0.8-0.3-1.2-0.5v-2.8c0.7,0.3,1.4,0.6,2.1,0.8c0.7,0.2,1.5,0.4,2.2,0.4c0.5,0,0.9-0.1,1.2-0.2
		s0.5-0.3,0.7-0.5s0.2-0.5,0.2-0.8c0-0.4-0.1-0.7-0.4-0.9c-0.2-0.3-0.6-0.5-1-0.7s-0.9-0.5-1.4-0.7c-0.3-0.2-0.7-0.3-1.1-0.6
		s-0.8-0.5-1.1-0.8s-0.6-0.7-0.9-1.2s-0.3-1-0.3-1.7c0-0.9,0.2-1.6,0.6-2.2s0.9-1.1,1.7-1.4c0.7-0.3,1.6-0.5,2.6-0.5
		c0.7,0,1.4,0.1,2.1,0.3s1.4,0.4,2.1,0.7l-1,2.4c-0.7-0.3-1.2-0.5-1.8-0.6c-0.5-0.1-1.1-0.2-1.6-0.2c-0.4,0-0.7,0.1-1,0.2
		c-0.3,0.1-0.5,0.3-0.6,0.5s-0.2,0.5-0.2,0.8c0,0.3,0.1,0.6,0.3,0.9c0.2,0.2,0.5,0.5,0.9,0.7s0.9,0.5,1.5,0.8
		c0.7,0.3,1.4,0.7,1.9,1.1s0.9,0.8,1.2,1.3C583.9,178,584,178.6,584,179.4z"/>
</g>
<g>
	<g>
		<path class="st46" d="M355.2,217.2c-2.9,0-5.2-2.3-5.2-5.2s2.3-5.2,5.2-5.2s5.2,2.3,5.2,5.2S358,217.2,355.2,217.2z M355.2,207.8
			c-2.3,0-4.2,1.9-4.2,4.2s1.9,4.2,4.2,4.2s4.2-1.9,4.2-4.2S357.5,207.8,355.2,207.8z"/>
	</g>
	<g>
		<polygon class="st46" points="113.5,242.7 112.5,242.7 112.5,211.2 350.5,211.2 350.5,212.2 113.5,212.2 		"/>
	</g>
	<g>
		<polygon class="st46" points="113,243.8 107.9,238.7 108.6,238 113,242.4 117.3,238.1 118,238.8 		"/>
	</g>
</g>
<g>
	<g>
		<path class="st46" d="M627,217.2c-2.9,0-5.2-2.3-5.2-5.2s2.3-5.2,5.2-5.2s5.2,2.3,5.2,5.2S629.8,217.2,627,217.2z M627,207.8
			c-2.3,0-4.2,1.9-4.2,4.2s1.9,4.2,4.2,4.2s4.2-1.9,4.2-4.2S629.3,207.8,627,207.8z"/>
	</g>
	<g>
		<polygon class="st46" points="869.6,242.7 868.6,242.7 868.6,212.2 631.7,212.2 631.7,211.2 869.6,211.2 		"/>
	</g>
	<g>
		<polygon class="st46" points="869.1,243.8 864.1,238.8 864.8,238.1 869.1,242.4 873.5,238 874.2,238.7 		"/>
	</g>
</g>
<g>
	<g>
		<path class="st46" d="M355.2,371.9c-2.9,0-5.2-2.3-5.2-5.2s2.3-5.2,5.2-5.2s5.2,2.3,5.2,5.2S358,371.9,355.2,371.9z M355.2,362.5
			c-2.3,0-4.2,1.9-4.2,4.2s1.9,4.2,4.2,4.2s4.2-1.9,4.2-4.2S357.5,362.5,355.2,362.5z"/>
	</g>
	<g>
		<polygon class="st46" points="350.5,367.6 112.5,367.6 112.5,336 113.5,336 113.5,366.6 350.5,366.6 		"/>
	</g>
	<g>
		<polygon class="st46" points="108.6,340.8 107.9,340.1 113,335 118,340 117.3,340.7 113,336.4 		"/>
	</g>
</g>
<g>
	<g>
		<path class="st46" d="M627,371.9c-2.9,0-5.2-2.3-5.2-5.2s2.3-5.2,5.2-5.2s5.2,2.3,5.2,5.2S629.8,371.9,627,371.9z M627,362.5
			c-2.3,0-4.2,1.9-4.2,4.2s1.9,4.2,4.2,4.2s4.2-1.9,4.2-4.2S629.3,362.5,627,362.5z"/>
	</g>
	<g>
		<polygon class="st46" points="869.6,367.6 631.7,367.6 631.7,366.6 868.6,366.6 868.6,336 869.6,336 		"/>
	</g>
	<g>
		<polygon class="st46" points="873.5,340.8 869.1,336.4 864.8,340.7 864.1,340 869.1,335 874.2,340.1 		"/>
	</g>
</g>
<g>
	<g>
		<path class="st46" d="M493.2,216.5c-3.1,0-5.6-2.5-5.6-5.6s2.5-5.6,5.6-5.6s5.6,2.5,5.6,5.6S496.3,216.5,493.2,216.5z
			 M493.2,206.3c-2.6,0-4.6,2.1-4.6,4.6s2.1,4.6,4.6,4.6s4.6-2.1,4.6-4.6S495.8,206.3,493.2,206.3z"/>
	</g>
	<g>
		<rect x="492.7" y="215.8" class="st46" width="1" height="26.8"/>
	</g>
	<g>
		<polygon class="st46" points="493.3,243.7 487.7,238.1 488.4,237.4 493.3,242.3 498,237.5 498.7,238.2 		"/>
	</g>
</g>
<g>
	<g>
		<path class="st46" d="M493.2,415.9c-3.1,0-5.6-2.5-5.6-5.6s2.5-5.6,5.6-5.6s5.6,2.5,5.6,5.6S496.3,415.9,493.2,415.9z
			 M493.2,405.6c-2.6,0-4.6,2.1-4.6,4.6c0,2.6,2.1,4.6,4.6,4.6s4.6-2.1,4.6-4.6C497.9,407.7,495.8,405.6,493.2,405.6z"/>
	</g>
	<g>
		<rect x="492.7" y="415.1" class="st46" width="1" height="26.8"/>
	</g>
	<g>
		<polygon class="st46" points="493.3,443 487.7,437.5 488.4,436.8 493.3,441.6 498,436.9 498.7,437.6 		"/>
	</g>
</g>
<g>
	<g>
		<path class="st46" d="M112.5,390.5c-3.1,0-5.6-2.5-5.6-5.6s2.5-5.6,5.6-5.6s5.6,2.5,5.6,5.6S115.6,390.5,112.5,390.5z
			 M112.5,380.3c-2.6,0-4.6,2.1-4.6,4.6s2.1,4.6,4.6,4.6s4.6-2.1,4.6-4.6S115.1,380.3,112.5,380.3z"/>
	</g>
	<g>
		<rect x="112" y="389.8" class="st46" width="1" height="48.8"/>
	</g>
	<g>
		<polygon class="st46" points="112.6,439.7 107,434.1 107.7,433.4 112.6,438.3 117.3,433.5 118,434.2 		"/>
	</g>
</g>
<g>
	<g>
		<path class="st46" d="M289.2,390.5c-3.1,0-5.6-2.5-5.6-5.6s2.5-5.6,5.6-5.6s5.6,2.5,5.6,5.6S292.3,390.5,289.2,390.5z
			 M289.2,380.3c-2.6,0-4.6,2.1-4.6,4.6s2.1,4.6,4.6,4.6c2.6,0,4.6-2.1,4.6-4.6S291.7,380.3,289.2,380.3z"/>
	</g>
	<g>
		<rect x="288.7" y="389.8" class="st46" width="1" height="48.8"/>
	</g>
	<g>
		<polygon class="st46" points="289.2,439.7 283.7,434.1 284.4,433.4 289.2,438.3 294,433.5 294.7,434.2 		"/>
	</g>
</g>
<g>
	<g>
		<path class="st46" d="M690.5,390.5c-3.1,0-5.6-2.5-5.6-5.6s2.5-5.6,5.6-5.6s5.6,2.5,5.6,5.6S693.6,390.5,690.5,390.5z
			 M690.5,380.3c-2.6,0-4.6,2.1-4.6,4.6s2.1,4.6,4.6,4.6c2.6,0,4.6-2.1,4.6-4.6S693.1,380.3,690.5,380.3z"/>
	</g>
	<g>
		<rect x="690" y="389.8" class="st46" width="1" height="48.8"/>
	</g>
	<g>
		<polygon class="st46" points="690.6,439.7 685,434.1 685.7,433.4 690.6,438.3 695.3,433.5 696,434.2 		"/>
	</g>
</g>
<g>
	<g>
		<path class="st46" d="M867.2,390.5c-3.1,0-5.6-2.5-5.6-5.6s2.5-5.6,5.6-5.6s5.6,2.5,5.6,5.6S870.3,390.5,867.2,390.5z
			 M867.2,380.3c-2.6,0-4.6,2.1-4.6,4.6s2.1,4.6,4.6,4.6c2.6,0,4.6-2.1,4.6-4.6S869.7,380.3,867.2,380.3z"/>
	</g>
	<g>
		<rect x="866.7" y="389.8" class="st46" width="1" height="48.8"/>
	</g>
	<g>
		<polygon class="st46" points="867.2,439.7 861.7,434.1 862.4,433.4 867.2,438.3 872,433.5 872.7,434.2 		"/>
	</g>
</g>
<g>
	<g>
		<path class="st46" d="M303.8,227.5c-3.1,0-5.6-2.5-5.6-5.6s2.5-5.6,5.6-5.6s5.6,2.5,5.6,5.6S306.9,227.5,303.8,227.5z
			 M303.8,217.3c-2.6,0-4.6,2.1-4.6,4.6s2.1,4.6,4.6,4.6s4.6-2.1,4.6-4.6S306.4,217.3,303.8,217.3z"/>
	</g>
	<g>
		<rect x="303.3" y="226.8" class="st46" width="1" height="15.8"/>
	</g>
	<g>
		<polygon class="st46" points="303.9,243.7 298.3,238.1 299.1,237.4 303.9,242.3 308.6,237.5 309.3,238.2 		"/>
	</g>
</g>
<g>
	<g>
		<path class="st46" d="M677.8,227.5c-3.1,0-5.6-2.5-5.6-5.6s2.5-5.6,5.6-5.6s5.6,2.5,5.6,5.6S680.9,227.5,677.8,227.5z
			 M677.8,217.3c-2.6,0-4.6,2.1-4.6,4.6s2.1,4.6,4.6,4.6s4.6-2.1,4.6-4.6S680.4,217.3,677.8,217.3z"/>
	</g>
	<g>
		<rect x="677.3" y="226.8" class="st46" width="1" height="15.8"/>
	</g>
	<g>
		<polygon class="st46" points="677.9,243.7 672.3,238.1 673.1,237.4 677.9,242.3 682.6,237.5 683.3,238.2 		"/>
	</g>
</g>
<g>
	<path class="st13" d="M172.7,294.5h-4.5V293h4.5L172.7,294.5z M163.8,294.5h-4.5V293h4.5V294.5z M154.9,294.5h-4.5V293h4.5V294.5z
		 M146,294.5h-4.5V293h4.5V294.5z M137.1,294.5h-4.5V293h4.5V294.5z M128.2,294.5h-4.5V293h4.5V294.5z M119.3,294.5h-4.5V293h4.5
		V294.5z M110.4,294.5h-4.5V293h4.5V294.5z M101.5,294.5H97V293h4.5V294.5z M92.6,294.5h-4.5V293h4.5V294.5z M83.7,294.5h-4.5V293
		h4.5V294.5z M74.8,294.5h-4.5V293h4.5V294.5z M65.9,294.5h-4.5V293h4.5V294.5z M56.9,294.5h-4.4l0-1.5h4.5V294.5z M47.9,293.4
		c-1.4-0.7-2.7-1.7-3.7-3l1.2-0.9c0.9,1.1,2,1.9,3.2,2.5L47.9,293.4z M177.4,293.4l-0.7-1.4c1.2-0.6,2.3-1.5,3.2-2.5l1.2,0.9
		C180.1,291.7,178.8,292.7,177.4,293.4z M42.1,286.2c-0.2-0.8-0.3-1.6-0.3-2.5v-2.1h1.5v2.1c0,0.7,0.1,1.4,0.2,2.1L42.1,286.2z
		 M183.2,286.2l-1.5-0.3c0.2-0.7,0.2-1.4,0.2-2.1v-2.1h1.5v2.1C183.4,284.6,183.3,285.4,183.2,286.2z M43.3,277.1h-1.5v-4.5h1.5
		V277.1z M183.4,277.1h-1.5v-4.5h1.5V277.1z M43.3,268.2h-1.5v-4.5h1.5V268.2z M183.4,268.2h-1.5v-4.5h1.5V268.2z M43.5,259.5
		l-1.5-0.3c0.4-1.5,1.1-3,2.1-4.3l1.2,0.9C44.5,256.9,43.8,258.2,43.5,259.5z M181.7,259.5c-0.3-1.3-0.9-2.6-1.8-3.7l1.2-0.9
		c1,1.2,1.7,2.7,2.1,4.3L181.7,259.5z M48.5,253.3l-0.6-1.4c1.4-0.7,3-1.1,4.6-1.1l0,1.5C51.1,252.4,49.8,252.7,48.5,253.3z
		 M176.7,253.3c-1.2-0.6-2.6-0.9-4-0.9l0-1.5c1.6,0,3.2,0.4,4.6,1.1L176.7,253.3z M168.3,252.4h-4.5v-1.5h4.5V252.4z M159.3,252.4
		h-4.5v-1.5h4.5V252.4z M150.4,252.4H146v-1.5h4.5V252.4z M141.5,252.4h-4.5v-1.5h4.5V252.4z M132.6,252.4h-4.5v-1.5h4.5V252.4z
		 M123.7,252.4h-4.5v-1.5h4.5V252.4z M114.8,252.4h-4.5v-1.5h4.5V252.4z M105.9,252.4h-4.5v-1.5h4.5V252.4z M97,252.4h-4.5v-1.5H97
		V252.4z M88.1,252.4h-4.5v-1.5h4.5V252.4z M79.2,252.4h-4.5v-1.5h4.5V252.4z M70.3,252.4h-4.5v-1.5h4.5V252.4z M61.4,252.4H57v-1.5
		h4.5V252.4z"/>
</g>
<g>
	<path class="st46" d="M98.8,261.8c0.6,0.5,0.9,1.3,0.9,2.3s-0.3,1.8-0.9,2.3c-0.6,0.5-1.5,0.7-2.8,0.7h-1.1v2.3H93v-8.4h3
		C97.3,261.1,98.2,261.3,98.8,261.8z M97.5,265.1c0.2-0.3,0.3-0.6,0.3-1.1c0-0.5-0.1-0.8-0.4-1s-0.7-0.3-1.4-0.3h-1.1v2.8h1.3
		C96.8,265.5,97.2,265.4,97.5,265.1z"/>
	<path class="st46" d="M106.7,269.5l-0.8-1.8h-3.5l-0.8,1.8h-2l3.6-8.4h1.8l3.6,8.4H106.7z M104.1,263.6l-1.1,2.4h2.1L104.1,263.6z"
		/>
	<path class="st46" d="M112.6,262.7v6.8h-1.9v-6.8h-2.4v-1.6h6.6v1.6H112.6z"/>
	<path class="st46" d="M120.2,267.8c0.9,0,1.7-0.4,2.3-1.1l1.2,1.2c-1,1.1-2.1,1.6-3.4,1.6s-2.4-0.4-3.2-1.2s-1.3-1.8-1.3-3.1
		s0.4-2.3,1.3-3.1c0.9-0.8,1.9-1.2,3.1-1.2c1.4,0,2.5,0.5,3.5,1.6l-1.2,1.3c-0.6-0.7-1.3-1.1-2.2-1.1c-0.7,0-1.3,0.2-1.8,0.7
		s-0.8,1.1-0.8,1.9s0.2,1.4,0.7,1.9C118.9,267.6,119.5,267.8,120.2,267.8z"/>
	<path class="st46" d="M130.3,261.1h1.9v8.4h-1.9v-3.3H127v3.3h-1.9v-8.4h1.9v3.5h3.3V261.1z"/>
	<path class="st46" d="M75,279.9l-2.3,4.6h-1.1l-2.3-4.6v5.3h-1.9v-8.4H70l2.2,4.6l2.2-4.6h2.5v8.4H75V279.9z"/>
	<path class="st46" d="M84.9,285.2l-0.8-1.8h-3.5l-0.8,1.8h-2l3.6-8.4h1.8l3.6,8.4H84.9z M82.3,279.3l-1.1,2.4h2.1L82.3,279.3z"/>
	<path class="st46" d="M93.7,276.8h1.9v8.4h-1.9l-4-5.3v5.3h-1.9v-8.4h1.8l4.1,5.4V276.8z"/>
	<path class="st46" d="M103.6,285.2l-0.8-1.8h-3.5l-0.8,1.8h-2l3.6-8.4h1.8l3.6,8.4H103.6z M101.1,279.3l-1.1,2.4h2.1L101.1,279.3z"
		/>
	<path class="st46" d="M112,280.9h1.9v3c-0.8,0.9-2,1.4-3.5,1.4c-1.2,0-2.3-0.4-3.1-1.2s-1.3-1.8-1.3-3.1s0.4-2.3,1.3-3.1
		c0.9-0.8,1.9-1.2,3.1-1.2s2.3,0.4,3.1,1.2l-1,1.4c-0.4-0.3-0.7-0.6-1-0.7s-0.7-0.2-1-0.2c-0.7,0-1.3,0.2-1.8,0.7s-0.7,1.1-0.7,1.9
		s0.2,1.4,0.7,1.9c0.5,0.5,1,0.7,1.7,0.7c0.6,0,1.2-0.1,1.6-0.4V280.9z"/>
	<path class="st46" d="M121.6,276.8v1.7h-4.2v1.7h3.8v1.6h-3.8v1.7h4.3v1.7h-6.2v-8.4H121.6z"/>
	<path class="st46" d="M130.9,279.9l-2.3,4.6h-1.1l-2.3-4.6v5.3h-1.9v-8.4h2.5l2.2,4.6l2.2-4.6h2.5v8.4h-1.9V279.9z"/>
	<path class="st46" d="M140.9,276.8v1.7h-4.2v1.7h3.8v1.6h-3.8v1.7h4.3v1.7h-6.2v-8.4H140.9z"/>
	<path class="st46" d="M148.6,276.8h1.9v8.4h-1.9l-4-5.3v5.3h-1.9v-8.4h1.8l4.1,5.4V276.8z"/>
	<path class="st46" d="M156.1,278.4v6.8h-1.9v-6.8h-2.4v-1.6h6.6v1.6H156.1z"/>
</g>
<g>
	<path class="st13" d="M172.6,491.5h-4.5V490h4.5L172.6,491.5z M163.7,491.5h-4.5V490h4.5V491.5z M154.8,491.5h-4.5V490h4.5V491.5z
		 M145.9,491.5h-4.5V490h4.5V491.5z M137,491.5h-4.5V490h4.5V491.5z M128.1,491.5h-4.5V490h4.5V491.5z M119.2,491.5h-4.5V490h4.5
		V491.5z M110.3,491.5h-4.5V490h4.5V491.5z M101.4,491.5h-4.5V490h4.5V491.5z M92.5,491.5H88V490h4.5V491.5z M83.6,491.5h-4.5V490
		h4.5V491.5z M74.7,491.5h-4.5V490h4.5V491.5z M65.8,491.5h-4.5V490h4.5V491.5z M56.8,491.5h-4.4l0-1.5h4.5V491.5z M47.8,490.4
		c-1.4-0.7-2.7-1.7-3.7-3l1.2-0.9c0.9,1.1,2,1.9,3.2,2.5L47.8,490.4z M177.3,490.4l-0.7-1.4c1.2-0.6,2.3-1.5,3.2-2.5l1.2,0.9
		C180,488.7,178.7,489.7,177.3,490.4z M42,483.2c-0.2-0.8-0.3-1.6-0.3-2.5v-2.1h1.5v2.1c0,0.7,0.1,1.4,0.2,2.1L42,483.2z
		 M183.1,483.2l-1.5-0.3c0.2-0.7,0.2-1.4,0.2-2.1v-2.1h1.5v2.1C183.3,481.6,183.2,482.4,183.1,483.2z M43.2,474.1h-1.5v-4.5h1.5
		V474.1z M183.3,474.1h-1.5v-4.5h1.5V474.1z M43.2,465.2h-1.5v-4.5h1.5V465.2z M183.3,465.2h-1.5v-4.5h1.5V465.2z M43.4,456.5
		l-1.5-0.3c0.4-1.5,1.1-3,2.1-4.3l1.2,0.9C44.4,453.9,43.7,455.2,43.4,456.5z M181.6,456.5c-0.3-1.3-0.9-2.6-1.8-3.7l1.2-0.9
		c1,1.2,1.7,2.7,2.1,4.3L181.6,456.5z M48.4,450.3l-0.6-1.4c1.4-0.7,3-1.1,4.6-1.1l0,1.5C51,449.4,49.7,449.7,48.4,450.3z
		 M176.6,450.3c-1.2-0.6-2.6-0.9-4-0.9l0-1.5c1.6,0,3.2,0.4,4.6,1.1L176.6,450.3z M168.1,449.4h-4.5v-1.5h4.5V449.4z M159.2,449.4
		h-4.5v-1.5h4.5V449.4z M150.3,449.4h-4.5v-1.5h4.5V449.4z M141.4,449.4H137v-1.5h4.5V449.4z M132.5,449.4h-4.5v-1.5h4.5V449.4z
		 M123.6,449.4h-4.5v-1.5h4.5V449.4z M114.7,449.4h-4.5v-1.5h4.5V449.4z M105.8,449.4h-4.5v-1.5h4.5V449.4z M96.9,449.4h-4.5v-1.5
		h4.5V449.4z M88,449.4h-4.5v-1.5H88V449.4z M79.1,449.4h-4.5v-1.5h4.5V449.4z M70.2,449.4h-4.5v-1.5h4.5V449.4z M61.3,449.4h-4.5
		v-1.5h4.5V449.4z"/>
</g>
<g>
	<path class="st46" d="M95.2,464.8c0.9,0,1.7-0.4,2.3-1.1l1.2,1.2c-1,1.1-2.1,1.6-3.4,1.6s-2.4-0.4-3.2-1.2s-1.3-1.8-1.3-3.1
		s0.4-2.3,1.3-3.1c0.9-0.8,1.9-1.2,3.1-1.2c1.4,0,2.5,0.5,3.5,1.6l-1.2,1.3c-0.6-0.7-1.3-1.1-2.2-1.1c-0.7,0-1.3,0.2-1.8,0.7
		s-0.8,1.1-0.8,1.9s0.2,1.4,0.7,1.9C93.9,464.6,94.5,464.8,95.2,464.8z"/>
	<path class="st46" d="M100.1,466.5v-8.4h1.9v6.7h3.6v1.7H100.1z"/>
	<path class="st46" d="M106.9,458.1h1.9v8.4h-1.9V458.1z"/>
	<path class="st46" d="M116.9,458.1v1.7h-4.2v1.7h3.8v1.6h-3.8v1.7h4.3v1.7h-6.2v-8.4H116.9z"/>
	<path class="st46" d="M124.6,458.1h1.9v8.4h-1.9l-4-5.3v5.3h-1.9v-8.4h1.8l4.1,5.4V458.1z"/>
	<path class="st46" d="M132,459.7v6.8h-1.9v-6.8h-2.4v-1.6h6.6v1.6H132z"/>
</g>
<g>
	<path class="st13" d="M364.2,294.5h-4.5V293h4.5L364.2,294.5z M355.3,294.5h-4.5V293h4.5V294.5z M346.4,294.5h-4.5V293h4.5V294.5z
		 M337.5,294.5H333V293h4.5V294.5z M328.6,294.5h-4.5V293h4.5V294.5z M319.7,294.5h-4.5V293h4.5V294.5z M310.8,294.5h-4.5V293h4.5
		V294.5z M301.9,294.5h-4.5V293h4.5V294.5z M293,294.5h-4.5V293h4.5V294.5z M284.1,294.5h-4.5V293h4.5V294.5z M275.2,294.5h-4.5V293
		h4.5V294.5z M266.3,294.5h-4.5V293h4.5V294.5z M257.4,294.5h-4.5V293h4.5V294.5z M248.4,294.5H244l0-1.5h4.5V294.5z M239.4,293.4
		c-1.4-0.7-2.7-1.7-3.7-3l1.2-0.9c0.9,1.1,2,1.9,3.2,2.5L239.4,293.4z M368.9,293.4l-0.7-1.4c1.2-0.6,2.3-1.5,3.2-2.5l1.2,0.9
		C371.6,291.7,370.3,292.7,368.9,293.4z M233.6,286.2c-0.2-0.8-0.3-1.6-0.3-2.5v-2.1h1.5v2.1c0,0.7,0.1,1.4,0.2,2.1L233.6,286.2z
		 M374.7,286.2l-1.5-0.3c0.2-0.7,0.2-1.4,0.2-2.1v-2.1h1.5v2.1C374.9,284.6,374.8,285.4,374.7,286.2z M234.8,277.1h-1.5v-4.5h1.5
		V277.1z M374.9,277.1h-1.5v-4.5h1.5V277.1z M234.8,268.2h-1.5v-4.5h1.5V268.2z M374.9,268.2h-1.5v-4.5h1.5V268.2z M235,259.5
		l-1.5-0.3c0.4-1.5,1.1-3,2.1-4.3l1.2,0.9C236,256.9,235.3,258.2,235,259.5z M373.2,259.5c-0.3-1.3-0.9-2.6-1.8-3.7l1.2-0.9
		c1,1.2,1.7,2.7,2.1,4.3L373.2,259.5z M240,253.3l-0.6-1.4c1.4-0.7,3-1.1,4.6-1.1l0,1.5C242.6,252.4,241.3,252.7,240,253.3z
		 M368.2,253.3c-1.2-0.6-2.6-0.9-4-0.9l0-1.5c1.6,0,3.2,0.4,4.6,1.1L368.2,253.3z M359.8,252.4h-4.5v-1.5h4.5V252.4z M350.8,252.4
		h-4.5v-1.5h4.5V252.4z M341.9,252.4h-4.5v-1.5h4.5V252.4z M333,252.4h-4.5v-1.5h4.5V252.4z M324.1,252.4h-4.5v-1.5h4.5V252.4z
		 M315.2,252.4h-4.5v-1.5h4.5V252.4z M306.3,252.4h-4.5v-1.5h4.5V252.4z M297.4,252.4H293v-1.5h4.5V252.4z M288.5,252.4h-4.5v-1.5
		h4.5V252.4z M279.6,252.4h-4.5v-1.5h4.5V252.4z M270.7,252.4h-4.5v-1.5h4.5V252.4z M261.8,252.4h-4.5v-1.5h4.5V252.4z M252.9,252.4
		h-4.5v-1.5h4.5V252.4z"/>
</g>
<g>
	<path class="st46" d="M281.6,261.8c0.6,0.5,0.9,1.3,0.9,2.3s-0.3,1.8-0.9,2.3c-0.6,0.5-1.5,0.7-2.8,0.7h-1.1v2.3h-1.9v-8.4h3
		C280.1,261.1,281,261.3,281.6,261.8z M280.2,265.1c0.2-0.3,0.3-0.6,0.3-1.1c0-0.5-0.1-0.8-0.4-1s-0.7-0.3-1.4-0.3h-1.1v2.8h1.3
		C279.6,265.5,280,265.4,280.2,265.1z"/>
	<path class="st46" d="M290.8,263.9c0,1.3-0.5,2.2-1.6,2.6l2.1,3H289l-1.9-2.7h-1.3v2.7H284v-8.4h3.2c1.3,0,2.2,0.2,2.8,0.7
		C290.5,262.2,290.8,262.9,290.8,263.9z M288.5,264.9c0.2-0.2,0.3-0.5,0.3-1s-0.1-0.8-0.4-0.9c-0.2-0.2-0.7-0.3-1.3-0.3h-1.4v2.5
		h1.4C287.8,265.2,288.3,265.1,288.5,264.9z"/>
	<path class="st46" d="M299.7,268.3c-0.8,0.8-1.9,1.2-3.1,1.2s-2.3-0.4-3.1-1.2c-0.8-0.8-1.3-1.9-1.3-3.1c0-1.2,0.4-2.3,1.3-3.1
		c0.8-0.8,1.9-1.2,3.1-1.2s2.3,0.4,3.1,1.2s1.3,1.9,1.3,3.1C300.9,266.5,300.5,267.5,299.7,268.3z M299,265.2c0-0.7-0.2-1.4-0.7-1.9
		c-0.5-0.5-1.1-0.8-1.8-0.8s-1.3,0.3-1.8,0.8c-0.5,0.5-0.7,1.2-0.7,1.9s0.2,1.4,0.7,1.9c0.5,0.5,1.1,0.8,1.8,0.8s1.3-0.3,1.8-0.8
		C298.8,266.6,299,266,299,265.2z"/>
	<path class="st46" d="M306.4,267.8c0.9,0,1.7-0.4,2.3-1.1l1.2,1.2c-1,1.1-2.1,1.6-3.4,1.6s-2.4-0.4-3.2-1.2s-1.3-1.8-1.3-3.1
		s0.4-2.3,1.3-3.1c0.9-0.8,1.9-1.2,3.1-1.2c1.4,0,2.5,0.5,3.5,1.6l-1.2,1.3c-0.6-0.7-1.3-1.1-2.2-1.1c-0.7,0-1.3,0.2-1.8,0.7
		s-0.8,1.1-0.8,1.9s0.2,1.4,0.7,1.9C305.1,267.6,305.7,267.8,306.4,267.8z"/>
	<path class="st46" d="M317.3,261.1v1.7h-4.2v1.7h3.8v1.6h-3.8v1.7h4.3v1.7h-6.2v-8.4H317.3z"/>
	<path class="st46" d="M321.1,262.8c-0.2,0.1-0.3,0.3-0.3,0.6s0.1,0.4,0.3,0.6c0.2,0.1,0.7,0.3,1.5,0.5c0.8,0.2,1.4,0.5,1.9,0.9
		c0.4,0.4,0.7,1,0.7,1.7s-0.3,1.4-0.8,1.8c-0.6,0.5-1.3,0.7-2.2,0.7c-1.3,0-2.5-0.5-3.6-1.5l1.1-1.4c0.9,0.8,1.7,1.2,2.5,1.2
		c0.3,0,0.6-0.1,0.8-0.2c0.2-0.1,0.3-0.3,0.3-0.6s-0.1-0.5-0.3-0.6c-0.2-0.1-0.6-0.3-1.2-0.4c-1-0.2-1.7-0.5-2.1-0.9s-0.7-1-0.7-1.8
		s0.3-1.4,0.9-1.8c0.6-0.4,1.3-0.6,2.1-0.6c0.6,0,1.1,0.1,1.7,0.3c0.6,0.2,1,0.5,1.5,0.8l-0.9,1.4c-0.7-0.6-1.5-0.8-2.3-0.8
		C321.5,262.5,321.3,262.6,321.1,262.8z"/>
	<path class="st46" d="M328.8,262.8c-0.2,0.1-0.3,0.3-0.3,0.6s0.1,0.4,0.3,0.6c0.2,0.1,0.7,0.3,1.5,0.5c0.8,0.2,1.4,0.5,1.9,0.9
		c0.4,0.4,0.7,1,0.7,1.7s-0.3,1.4-0.8,1.8c-0.6,0.5-1.3,0.7-2.2,0.7c-1.3,0-2.5-0.5-3.6-1.5l1.1-1.4c0.9,0.8,1.7,1.2,2.5,1.2
		c0.3,0,0.6-0.1,0.8-0.2c0.2-0.1,0.3-0.3,0.3-0.6s-0.1-0.5-0.3-0.6c-0.2-0.1-0.6-0.3-1.2-0.4c-1-0.2-1.7-0.5-2.1-0.9s-0.7-1-0.7-1.8
		s0.3-1.4,0.9-1.8c0.6-0.4,1.3-0.6,2.1-0.6c0.6,0,1.1,0.1,1.7,0.3c0.6,0.2,1,0.5,1.5,0.8l-0.9,1.4c-0.7-0.6-1.5-0.8-2.3-0.8
		C329.2,262.5,328.9,262.6,328.8,262.8z"/>
	<path class="st46" d="M280.3,279.6c0,1.3-0.5,2.2-1.6,2.6l2.1,3h-2.3l-1.9-2.7h-1.3v2.7h-1.9v-8.4h3.2c1.3,0,2.2,0.2,2.8,0.7
		C280.1,277.9,280.3,278.6,280.3,279.6z M278.1,280.6c0.2-0.2,0.3-0.5,0.3-1s-0.1-0.8-0.4-0.9c-0.2-0.2-0.7-0.3-1.3-0.3h-1.4v2.5
		h1.4C277.4,280.9,277.8,280.8,278.1,280.6z"/>
	<path class="st46" d="M288.3,276.8v1.7h-4.2v1.7h3.8v1.6h-3.8v1.7h4.3v1.7h-6.2v-8.4H288.3z"/>
	<path class="st46" d="M292.1,278.5c-0.2,0.1-0.3,0.3-0.3,0.6s0.1,0.4,0.3,0.6c0.2,0.1,0.7,0.3,1.5,0.5c0.8,0.2,1.4,0.5,1.9,0.9
		c0.4,0.4,0.7,1,0.7,1.7s-0.3,1.4-0.8,1.8c-0.6,0.5-1.3,0.7-2.2,0.7c-1.3,0-2.5-0.5-3.6-1.5l1.1-1.4c0.9,0.8,1.7,1.2,2.5,1.2
		c0.3,0,0.6-0.1,0.8-0.2c0.2-0.1,0.3-0.3,0.3-0.6s-0.1-0.5-0.3-0.6c-0.2-0.1-0.6-0.3-1.2-0.4c-1-0.2-1.7-0.5-2.1-0.9s-0.7-1-0.7-1.8
		s0.3-1.4,0.9-1.8c0.6-0.4,1.3-0.6,2.1-0.6c0.6,0,1.1,0.1,1.7,0.3c0.6,0.2,1,0.5,1.5,0.8l-0.9,1.4c-0.7-0.6-1.5-0.8-2.3-0.8
		C292.5,278.3,292.2,278.3,292.1,278.5z"/>
	<path class="st46" d="M301.2,278.4v6.8h-1.9v-6.8H297v-1.6h6.6v1.6H301.2z"/>
	<path class="st46" d="M310.3,285.2l-0.8-1.8h-3.5l-0.8,1.8h-2l3.6-8.4h1.8l3.6,8.4H310.3z M307.8,279.3l-1.1,2.4h2.1L307.8,279.3z"
		/>
	<path class="st46" d="M320.1,279.6c0,1.3-0.5,2.2-1.6,2.6l2.1,3h-2.3l-1.9-2.7h-1.3v2.7h-1.9v-8.4h3.2c1.3,0,2.2,0.2,2.8,0.7
		C319.8,277.9,320.1,278.6,320.1,279.6z M317.9,280.6c0.2-0.2,0.3-0.5,0.3-1s-0.1-0.8-0.4-0.9c-0.2-0.2-0.7-0.3-1.3-0.3h-1.4v2.5
		h1.4C317.2,280.9,317.6,280.8,317.9,280.6z"/>
	<path class="st46" d="M325.4,278.4v6.8h-1.9v-6.8h-2.4v-1.6h6.6v1.6H325.4z"/>
	<path class="st46" d="M331.1,278.5c-0.2,0.1-0.3,0.3-0.3,0.6s0.1,0.4,0.3,0.6c0.2,0.1,0.7,0.3,1.5,0.5c0.8,0.2,1.4,0.5,1.9,0.9
		c0.4,0.4,0.7,1,0.7,1.7s-0.3,1.4-0.8,1.8c-0.6,0.5-1.3,0.7-2.2,0.7c-1.3,0-2.5-0.5-3.6-1.5l1.1-1.4c0.9,0.8,1.7,1.2,2.5,1.2
		c0.3,0,0.6-0.1,0.8-0.2c0.2-0.1,0.3-0.3,0.3-0.6s-0.1-0.5-0.3-0.6c-0.2-0.1-0.6-0.3-1.2-0.4c-1-0.2-1.7-0.5-2.1-0.9s-0.7-1-0.7-1.8
		s0.3-1.4,0.9-1.8c0.6-0.4,1.3-0.6,2.1-0.6c0.6,0,1.1,0.1,1.7,0.3c0.6,0.2,1,0.5,1.5,0.8l-0.9,1.4c-0.7-0.6-1.5-0.8-2.3-0.8
		C331.5,278.3,331.2,278.3,331.1,278.5z"/>
</g>
<g>
	<path class="st13" d="M548.9,294.5V293h4.5l0,1.3l0,0.2L548.9,294.5z M544.4,294.5H540V293h4.5V294.5z M535.5,294.5H531V293h4.5
		V294.5z M526.6,294.5h-4.5V293h4.5V294.5z M517.7,294.5h-4.5V293h4.5V294.5z M508.8,294.5h-4.5V293h4.5V294.5z M499.9,294.5h-4.5
		V293h4.5V294.5z M491,294.5h-4.5V293h4.5V294.5z M482.1,294.5h-4.5V293h4.5V294.5z M473.2,294.5h-4.5V293h4.5V294.5z M464.3,294.5
		h-4.5V293h4.5V294.5z M455.4,294.5h-4.5V293h4.5V294.5z M446.5,294.5H442V293h4.5V294.5z M437.6,294.5h-4.4l0-1.5h4.5V294.5z
		 M428.5,293.4c-1.4-0.7-2.7-1.7-3.7-3l1.2-0.9c0.9,1.1,2,1.9,3.2,2.5L428.5,293.4z M558,293.4l-0.7-1.4c1.2-0.6,2.3-1.5,3.2-2.5
		l1.2,0.9C560.7,291.7,559.4,292.7,558,293.4z M422.7,286.2c-0.2-0.8-0.3-1.6-0.3-2.5v-2.1h1.5v2.1c0,0.7,0.1,1.4,0.2,2.1
		L422.7,286.2z M563.8,286.2l-1.5-0.3c0.2-0.7,0.2-1.4,0.2-2.1v-2.1h1.5v2.1C564.1,284.6,564,285.4,563.8,286.2z M423.9,277.1h-1.5
		v-4.5h1.5V277.1z M564.1,277.1h-1.5v-4.5h1.5V277.1z M423.9,268.2h-1.5v-4.5h1.5V268.2z M564.1,268.2h-1.5v-4.5h1.5V268.2z
		 M424.1,259.5l-1.5-0.3c0.4-1.5,1.1-3,2.1-4.3l1.2,0.9C425.1,256.9,424.5,258.2,424.1,259.5z M562.3,259.5
		c-0.3-1.3-0.9-2.6-1.8-3.7l1.2-0.9c1,1.2,1.7,2.7,2.1,4.3L562.3,259.5z M429.1,253.3l-0.6-1.4c1.4-0.7,3-1.1,4.6-1.1l0,1.5
		C431.7,252.4,430.4,252.7,429.1,253.3z M557.3,253.3c-1.2-0.6-2.6-0.9-4-0.9l0-1.5c1.6,0,3.2,0.4,4.6,1.1L557.3,253.3z
		 M548.9,252.4h-4.5v-1.5h4.5V252.4z M540,252.4h-4.5v-1.5h4.5V252.4z M531.1,252.4h-4.5v-1.5h4.5V252.4z M522.2,252.4h-4.5v-1.5
		h4.5V252.4z M513.3,252.4h-4.5v-1.5h4.5V252.4z M504.4,252.4h-4.5v-1.5h4.5V252.4z M495.4,252.4H491v-1.5h4.5V252.4z M486.5,252.4
		h-4.5v-1.5h4.5V252.4z M477.6,252.4h-4.5v-1.5h4.5V252.4z M468.7,252.4h-4.5v-1.5h4.5V252.4z M459.8,252.4h-4.5v-1.5h4.5V252.4z
		 M450.9,252.4h-4.5v-1.5h4.5V252.4z M442,252.4h-4.5v-1.5h4.5V252.4z"/>
</g>
<g>
	<path class="st46" d="M472.2,269.5h-3.7v-8.4h3.3c0.6,0,1.1,0.1,1.5,0.2c0.4,0.1,0.7,0.3,0.9,0.6c0.4,0.4,0.6,0.9,0.6,1.5
		c0,0.7-0.2,1.1-0.6,1.5c-0.1,0.1-0.2,0.2-0.3,0.2c-0.1,0-0.2,0.1-0.3,0.1c0.5,0.1,0.9,0.3,1.2,0.7c0.3,0.4,0.5,0.8,0.5,1.3
		c0,0.6-0.2,1.1-0.6,1.5C474.1,269.2,473.3,269.5,472.2,269.5z M470.4,264.5h0.9c0.5,0,0.9-0.1,1.2-0.2c0.3-0.1,0.4-0.4,0.4-0.7
		s-0.1-0.6-0.3-0.7c-0.2-0.1-0.6-0.2-1.2-0.2h-0.9V264.5z M470.4,267.9h1.3c0.5,0,0.9-0.1,1.2-0.2c0.3-0.1,0.4-0.4,0.4-0.8
		c0-0.4-0.1-0.6-0.4-0.8s-0.7-0.2-1.4-0.2h-1.1V267.9z"/>
	<path class="st46" d="M482.6,269.5l-0.8-1.8h-3.5l-0.8,1.8h-2l3.6-8.4h1.8l3.6,8.4H482.6z M480.1,263.6L479,266h2.1L480.1,263.6z"
		/>
	<path class="st46" d="M489.4,267.8c0.9,0,1.7-0.4,2.3-1.1l1.2,1.2c-1,1.1-2.1,1.6-3.4,1.6s-2.4-0.4-3.2-1.2s-1.3-1.8-1.3-3.1
		s0.4-2.3,1.3-3.1c0.9-0.8,1.9-1.2,3.1-1.2c1.4,0,2.5,0.5,3.5,1.6l-1.2,1.3c-0.6-0.7-1.3-1.1-2.2-1.1c-0.7,0-1.3,0.2-1.8,0.7
		s-0.8,1.1-0.8,1.9s0.2,1.4,0.7,1.9C488.2,267.6,488.8,267.8,489.4,267.8z"/>
	<path class="st46" d="M494.4,261.1h1.9v3.4l3.2-3.4h2.3l-3.3,3.7c0.3,0.4,0.8,1.1,1.6,2.2c0.8,1.1,1.4,1.9,1.7,2.4h-2.2l-2.5-3.3
		l-0.8,0.9v2.4h-1.9V261.1z"/>
	<path class="st46" d="M505.1,267.3c0.3,0.4,0.7,0.6,1.3,0.6c0.5,0,0.9-0.2,1.3-0.6c0.3-0.4,0.5-0.9,0.5-1.6v-4.6h1.9v4.7
		c0,1.2-0.3,2.2-1,2.8c-0.7,0.7-1.5,1-2.6,1s-1.9-0.3-2.6-1c-0.7-0.7-1-1.6-1-2.8v-4.7h1.9v4.6C504.7,266.4,504.8,266.9,505.1,267.3
		z"/>
	<path class="st46" d="M517.7,261.8c0.6,0.5,0.9,1.3,0.9,2.3s-0.3,1.8-0.9,2.3c-0.6,0.5-1.5,0.7-2.8,0.7h-1.1v2.3h-1.9v-8.4h3
		C516.2,261.1,517.1,261.3,517.7,261.8z M516.3,265.1c0.2-0.3,0.3-0.6,0.3-1.1c0-0.5-0.1-0.8-0.4-1s-0.7-0.3-1.4-0.3h-1.1v2.8h1.3
		C515.7,265.5,516.1,265.4,516.3,265.1z"/>
	<path class="st46" d="M455.6,279.9l-2.3,4.6h-1.1l-2.3-4.6v5.3h-1.9v-8.4h2.5l2.2,4.6l2.2-4.6h2.5v8.4h-1.9V279.9z"/>
	<path class="st46" d="M465.5,285.2l-0.8-1.8h-3.5l-0.8,1.8h-2l3.6-8.4h1.8l3.6,8.4H465.5z M463,279.3l-1.1,2.4h2.1L463,279.3z"/>
	<path class="st46" d="M474.3,276.8h1.9v8.4h-1.9l-4-5.3v5.3h-1.9v-8.4h1.8l4.1,5.4V276.8z"/>
	<path class="st46" d="M484.2,285.2l-0.8-1.8h-3.5l-0.8,1.8h-2l3.6-8.4h1.8l3.6,8.4H484.2z M481.7,279.3l-1.1,2.4h2.1L481.7,279.3z"
		/>
	<path class="st46" d="M492.7,280.9h1.9v3c-0.8,0.9-2,1.4-3.5,1.4c-1.2,0-2.3-0.4-3.1-1.2s-1.3-1.8-1.3-3.1s0.4-2.3,1.3-3.1
		c0.9-0.8,1.9-1.2,3.1-1.2s2.3,0.4,3.1,1.2l-1,1.4c-0.4-0.3-0.7-0.6-1-0.7s-0.7-0.2-1-0.2c-0.7,0-1.3,0.2-1.8,0.7s-0.7,1.1-0.7,1.9
		s0.2,1.4,0.7,1.9c0.5,0.5,1,0.7,1.7,0.7c0.6,0,1.2-0.1,1.6-0.4V280.9z"/>
	<path class="st46" d="M502.3,276.8v1.7h-4.2v1.7h3.8v1.6h-3.8v1.7h4.3v1.7h-6.2v-8.4H502.3z"/>
	<path class="st46" d="M511.6,279.9l-2.3,4.6h-1.1l-2.3-4.6v5.3h-1.9v-8.4h2.5l2.2,4.6l2.2-4.6h2.5v8.4h-1.9V279.9z"/>
	<path class="st46" d="M521.5,276.8v1.7h-4.2v1.7h3.8v1.6h-3.8v1.7h4.3v1.7h-6.2v-8.4H521.5z"/>
	<path class="st46" d="M529.2,276.8h1.9v8.4h-1.9l-4-5.3v5.3h-1.9v-8.4h1.8l4.1,5.4V276.8z"/>
	<path class="st46" d="M536.7,278.4v6.8h-1.9v-6.8h-2.4v-1.6h6.6v1.6H536.7z"/>
</g>
<g>
	<path class="st13" d="M548.9,391.1v-1.5h4.5l0,1.3l0,0.2L548.9,391.1z M544.4,391.1H540v-1.5h4.5V391.1z M535.5,391.1H531v-1.5h4.5
		V391.1z M526.6,391.1h-4.5v-1.5h4.5V391.1z M517.7,391.1h-4.5v-1.5h4.5V391.1z M508.8,391.1h-4.5v-1.5h4.5V391.1z M499.9,391.1
		h-4.5v-1.5h4.5V391.1z M491,391.1h-4.5v-1.5h4.5V391.1z M482.1,391.1h-4.5v-1.5h4.5V391.1z M473.2,391.1h-4.5v-1.5h4.5V391.1z
		 M464.3,391.1h-4.5v-1.5h4.5V391.1z M455.4,391.1h-4.5v-1.5h4.5V391.1z M446.5,391.1H442v-1.5h4.5V391.1z M437.6,391.1h-4.4l0-1.5
		h4.5V391.1z M428.5,390.1c-1.4-0.7-2.7-1.7-3.7-3l1.2-0.9c0.9,1.1,2,1.9,3.2,2.5L428.5,390.1z M558,390.1l-0.7-1.4
		c1.2-0.6,2.3-1.5,3.2-2.5l1.2,0.9C560.7,388.4,559.4,389.4,558,390.1z M422.7,382.9c-0.2-0.8-0.3-1.6-0.3-2.5v-2.1h1.5v2.1
		c0,0.7,0.1,1.4,0.2,2.1L422.7,382.9z M563.8,382.9l-1.5-0.3c0.2-0.7,0.2-1.4,0.2-2.1v-2.1h1.5v2.1
		C564.1,381.2,564,382.1,563.8,382.9z M423.9,373.8h-1.5v-4.5h1.5V373.8z M564.1,373.8h-1.5v-4.5h1.5V373.8z M423.9,364.9h-1.5v-4.5
		h1.5V364.9z M564.1,364.9h-1.5v-4.5h1.5V364.9z M424.1,356.2l-1.5-0.3c0.4-1.5,1.1-3,2.1-4.3l1.2,0.9
		C425.1,353.6,424.5,354.9,424.1,356.2z M562.3,356.2c-0.3-1.3-0.9-2.6-1.8-3.7l1.2-0.9c1,1.2,1.7,2.7,2.1,4.3L562.3,356.2z
		 M429.1,350l-0.6-1.4c1.4-0.7,3-1.1,4.6-1.1l0,1.5C431.7,349.1,430.4,349.4,429.1,350z M557.3,350c-1.2-0.6-2.6-0.9-4-0.9l0-1.5
		c1.6,0,3.2,0.4,4.6,1.1L557.3,350z M548.9,349.1h-4.5v-1.5h4.5V349.1z M540,349.1h-4.5v-1.5h4.5V349.1z M531.1,349.1h-4.5v-1.5h4.5
		V349.1z M522.2,349.1h-4.5v-1.5h4.5V349.1z M513.3,349.1h-4.5v-1.5h4.5V349.1z M504.4,349.1h-4.5v-1.5h4.5V349.1z M495.4,349.1H491
		v-1.5h4.5V349.1z M486.5,349.1h-4.5v-1.5h4.5V349.1z M477.6,349.1h-4.5v-1.5h4.5V349.1z M468.7,349.1h-4.5v-1.5h4.5V349.1z
		 M459.8,349.1h-4.5v-1.5h4.5V349.1z M450.9,349.1h-4.5v-1.5h4.5V349.1z M442,349.1h-4.5v-1.5h4.5V349.1z"/>
</g>
<g>
	<path class="st46" d="M475.9,364.5c0.9,0,1.7-0.4,2.3-1.1l1.2,1.2c-1,1.1-2.1,1.6-3.4,1.6s-2.4-0.4-3.2-1.2s-1.3-1.8-1.3-3.1
		s0.4-2.3,1.3-3.1c0.9-0.8,1.9-1.2,3.1-1.2c1.4,0,2.5,0.5,3.5,1.6l-1.2,1.3c-0.6-0.7-1.3-1.1-2.2-1.1c-0.7,0-1.3,0.2-1.8,0.7
		c-0.5,0.5-0.8,1.1-0.8,1.9c0,0.8,0.2,1.4,0.7,1.9S475.2,364.5,475.9,364.5z"/>
	<path class="st46" d="M480.8,366.1v-8.4h1.9v6.7h3.6v1.7H480.8z"/>
	<path class="st46" d="M487.6,357.8h1.9v8.4h-1.9V357.8z"/>
	<path class="st46" d="M497.6,357.8v1.7h-4.2v1.7h3.8v1.6h-3.8v1.7h4.3v1.7h-6.2v-8.4H497.6z"/>
	<path class="st46" d="M505.3,357.8h1.9v8.4h-1.9l-4-5.3v5.3h-1.9v-8.4h1.8l4.1,5.4V357.8z"/>
	<path class="st46" d="M512.8,359.4v6.8h-1.9v-6.8h-2.4v-1.6h6.6v1.6H512.8z"/>
	<path class="st46" d="M445.5,373.5h1.9v8.4h-1.9V373.5z"/>
	<path class="st46" d="M455.3,373.5h1.9v8.4h-1.9l-4-5.3v5.3h-1.9v-8.4h1.8l4.1,5.4V373.5z"/>
	<path class="st46" d="M461.2,375.1c-0.2,0.1-0.3,0.3-0.3,0.6s0.1,0.4,0.3,0.6c0.2,0.1,0.7,0.3,1.5,0.5c0.8,0.2,1.4,0.5,1.9,0.9
		c0.4,0.4,0.7,1,0.7,1.7s-0.3,1.4-0.8,1.8c-0.6,0.5-1.3,0.7-2.2,0.7c-1.3,0-2.5-0.5-3.6-1.5l1.1-1.4c0.9,0.8,1.7,1.2,2.5,1.2
		c0.3,0,0.6-0.1,0.8-0.2c0.2-0.1,0.3-0.3,0.3-0.6s-0.1-0.5-0.3-0.6s-0.6-0.3-1.2-0.4c-1-0.2-1.7-0.5-2.1-0.9c-0.5-0.4-0.7-1-0.7-1.8
		c0-0.8,0.3-1.4,0.9-1.8c0.6-0.4,1.3-0.6,2.1-0.6c0.6,0,1.1,0.1,1.7,0.3c0.6,0.2,1,0.5,1.5,0.8l-0.9,1.4c-0.7-0.6-1.5-0.8-2.3-0.8
		C461.6,374.9,461.4,375,461.2,375.1z"/>
	<path class="st46" d="M470.4,375.1v6.8h-1.9v-6.8h-2.4v-1.6h6.6v1.6H470.4z"/>
	<path class="st46" d="M479.5,381.9l-0.8-1.8h-3.5l-0.8,1.8h-2l3.6-8.4h1.8l3.6,8.4H479.5z M477,376l-1.1,2.4h2.1L477,376z"/>
	<path class="st46" d="M482.4,381.9v-8.4h1.9v6.7h3.6v1.7H482.4z"/>
	<path class="st46" d="M489.3,381.9v-8.4h1.9v6.7h3.6v1.7H489.3z"/>
	<path class="st46" d="M502.1,381.9l-0.8-1.8h-3.5l-0.8,1.8h-2l3.6-8.4h1.8l3.6,8.4H502.1z M499.5,376l-1.1,2.4h2.1L499.5,376z"/>
	<path class="st46" d="M508,375.1v6.8h-1.9v-6.8h-2.4v-1.6h6.6v1.6H508z"/>
	<path class="st46" d="M511.7,373.5h1.9v8.4h-1.9V373.5z"/>
	<path class="st46" d="M522.7,380.7c-0.8,0.8-1.9,1.2-3.1,1.2s-2.3-0.4-3.1-1.2c-0.8-0.8-1.3-1.9-1.3-3.1s0.4-2.3,1.3-3.1
		c0.8-0.8,1.9-1.2,3.1-1.2s2.3,0.4,3.1,1.2s1.3,1.9,1.3,3.1S523.5,379.9,522.7,380.7z M522.1,377.6c0-0.7-0.2-1.4-0.7-1.9
		c-0.5-0.5-1.1-0.8-1.8-0.8s-1.3,0.3-1.8,0.8c-0.5,0.5-0.7,1.2-0.7,1.9s0.2,1.4,0.7,1.9c0.5,0.5,1.1,0.8,1.8,0.8s1.3-0.3,1.8-0.8
		C521.8,379,522.1,378.4,522.1,377.6z"/>
	<path class="st46" d="M531.4,373.5h1.9v8.4h-1.9l-4-5.3v5.3h-1.9v-8.4h1.8l4.1,5.4V373.5z"/>
	<path class="st46" d="M537.3,375.1c-0.2,0.1-0.3,0.3-0.3,0.6s0.1,0.4,0.3,0.6c0.2,0.1,0.7,0.3,1.5,0.5c0.8,0.2,1.4,0.5,1.9,0.9
		c0.4,0.4,0.7,1,0.7,1.7s-0.3,1.4-0.8,1.8c-0.6,0.5-1.3,0.7-2.2,0.7c-1.3,0-2.5-0.5-3.6-1.5l1.1-1.4c0.9,0.8,1.7,1.2,2.5,1.2
		c0.3,0,0.6-0.1,0.8-0.2c0.2-0.1,0.3-0.3,0.3-0.6s-0.1-0.5-0.3-0.6s-0.6-0.3-1.2-0.4c-1-0.2-1.7-0.5-2.1-0.9c-0.5-0.4-0.7-1-0.7-1.8
		c0-0.8,0.3-1.4,0.9-1.8c0.6-0.4,1.3-0.6,2.1-0.6c0.6,0,1.1,0.1,1.7,0.3c0.6,0.2,1,0.5,1.5,0.8l-0.9,1.4c-0.7-0.6-1.5-0.8-2.3-0.8
		C537.7,374.9,537.5,375,537.3,375.1z"/>
</g>
<g>
	<path class="st13" d="M737.6,294.5h-4.5V293h4.5L737.6,294.5z M728.6,294.5h-4.5V293h4.5V294.5z M719.7,294.5h-4.5V293h4.5V294.5z
		 M710.8,294.5h-4.5V293h4.5V294.5z M701.9,294.5h-4.5V293h4.5V294.5z M693,294.5h-4.5V293h4.5V294.5z M684.1,294.5h-4.5V293h4.5
		V294.5z M675.2,294.5h-4.5V293h4.5V294.5z M666.3,294.5h-4.5V293h4.5V294.5z M657.4,294.5h-4.5V293h4.5V294.5z M648.5,294.5H644
		V293h4.5V294.5z M639.6,294.5h-4.5V293h4.5V294.5z M630.7,294.5h-4.5V293h4.5V294.5z M621.8,294.5h-4.4l0-1.5h4.5V294.5z
		 M612.7,293.4c-1.4-0.7-2.7-1.7-3.7-3l1.2-0.9c0.9,1.1,2,1.9,3.2,2.5L612.7,293.4z M742.2,293.4l-0.7-1.4c1.2-0.6,2.3-1.5,3.2-2.5
		l1.2,0.9C744.9,291.7,743.6,292.7,742.2,293.4z M606.9,286.2c-0.2-0.8-0.3-1.6-0.3-2.5v-2.1h1.5v2.1c0,0.7,0.1,1.4,0.2,2.1
		L606.9,286.2z M748,286.2l-1.5-0.3c0.2-0.7,0.2-1.4,0.2-2.1v-2.1h1.5v2.1C748.3,284.6,748.2,285.4,748,286.2z M608.1,277.1h-1.5
		v-4.5h1.5V277.1z M748.3,277.1h-1.5v-4.5h1.5V277.1z M608.1,268.2h-1.5v-4.5h1.5V268.2z M748.3,268.2h-1.5v-4.5h1.5V268.2z
		 M608.4,259.5l-1.5-0.3c0.4-1.5,1.1-3,2.1-4.3l1.2,0.9C609.3,256.9,608.7,258.2,608.4,259.5z M746.5,259.5
		c-0.3-1.3-0.9-2.6-1.8-3.7l1.2-0.9c1,1.2,1.7,2.7,2.1,4.3L746.5,259.5z M613.4,253.3l-0.7-1.4c1.5-0.7,3-1.1,4.6-1.1l0,1.5
		C615.9,252.4,614.6,252.7,613.4,253.3z M741.5,253.3c-1.2-0.6-2.6-0.9-4-0.9l0-1.5c1.6,0,3.2,0.4,4.6,1.1L741.5,253.3z
		 M733.1,252.4h-4.5v-1.5h4.5V252.4z M724.2,252.4h-4.5v-1.5h4.5V252.4z M715.3,252.4h-4.5v-1.5h4.5V252.4z M706.4,252.4h-4.5v-1.5
		h4.5V252.4z M697.5,252.4H693v-1.5h4.5V252.4z M688.6,252.4h-4.5v-1.5h4.5V252.4z M679.7,252.4h-4.5v-1.5h4.5V252.4z M670.8,252.4
		h-4.5v-1.5h4.5V252.4z M661.9,252.4h-4.5v-1.5h4.5V252.4z M653,252.4h-4.5v-1.5h4.5V252.4z M644.1,252.4h-4.5v-1.5h4.5V252.4z
		 M635.1,252.4h-4.5v-1.5h4.5V252.4z M626.2,252.4h-4.5v-1.5h4.5V252.4z"/>
</g>
<g>
	<path class="st46" d="M648.9,262.7v6.8H647v-6.8h-2.4v-1.6h6.6v1.6H648.9z"/>
	<path class="st46" d="M659.4,263.9c0,1.3-0.5,2.2-1.6,2.6l2.1,3h-2.3l-1.9-2.7h-1.3v2.7h-1.9v-8.4h3.2c1.3,0,2.2,0.2,2.8,0.7
		C659.1,262.2,659.4,262.9,659.4,263.9z M657.2,264.9c0.2-0.2,0.3-0.5,0.3-1s-0.1-0.8-0.4-0.9c-0.2-0.2-0.7-0.3-1.3-0.3h-1.4v2.5
		h1.4C656.5,265.2,656.9,265.1,657.2,264.9z"/>
	<path class="st46" d="M667.3,269.5l-0.8-1.8H663l-0.8,1.8h-2l3.6-8.4h1.8l3.6,8.4H667.3z M664.8,263.6l-1.1,2.4h2.1L664.8,263.6z"
		/>
	<path class="st46" d="M676.1,261.1h1.9v8.4h-1.9l-4-5.3v5.3h-1.9v-8.4h1.8l4.1,5.4V261.1z"/>
	<path class="st46" d="M682,262.8c-0.2,0.1-0.3,0.3-0.3,0.6s0.1,0.4,0.3,0.6c0.2,0.1,0.7,0.3,1.5,0.5c0.8,0.2,1.4,0.5,1.9,0.9
		c0.4,0.4,0.7,1,0.7,1.7s-0.3,1.4-0.8,1.8c-0.6,0.5-1.3,0.7-2.2,0.7c-1.3,0-2.5-0.5-3.6-1.5l1.1-1.4c0.9,0.8,1.7,1.2,2.5,1.2
		c0.3,0,0.6-0.1,0.8-0.2c0.2-0.1,0.3-0.3,0.3-0.6s-0.1-0.5-0.3-0.6c-0.2-0.1-0.6-0.3-1.2-0.4c-1-0.2-1.7-0.5-2.1-0.9s-0.7-1-0.7-1.8
		s0.3-1.4,0.9-1.8c0.6-0.4,1.3-0.6,2.1-0.6c0.6,0,1.1,0.1,1.7,0.3c0.6,0.2,1,0.5,1.5,0.8l-0.9,1.4c-0.7-0.6-1.5-0.8-2.3-0.8
		C682.5,262.5,682.2,262.6,682,262.8z"/>
	<path class="st46" d="M693.5,261.1v1.6h-3.9v1.8h3.7v1.6h-3.7v3.3h-1.9v-8.4H693.5z"/>
	<path class="st46" d="M701.1,261.1v1.7h-4.2v1.7h3.8v1.6h-3.8v1.7h4.3v1.7h-6.2v-8.4H701.1z"/>
	<path class="st46" d="M709.7,263.9c0,1.3-0.5,2.2-1.6,2.6l2.1,3h-2.3l-1.9-2.7h-1.3v2.7h-1.9v-8.4h3.2c1.3,0,2.2,0.2,2.8,0.7
		C709.4,262.2,709.7,262.9,709.7,263.9z M707.5,264.9c0.2-0.2,0.3-0.5,0.3-1s-0.1-0.8-0.4-0.9c-0.2-0.2-0.7-0.3-1.3-0.3h-1.4v2.5
		h1.4C706.8,265.2,707.2,265.1,707.5,264.9z"/>
	<path class="st46" d="M661.9,285.2v-8.4h1.9v6.7h3.6v1.7H661.9z"/>
	<path class="st46" d="M675.5,284c-0.8,0.8-1.9,1.2-3.1,1.2s-2.3-0.4-3.1-1.2c-0.8-0.8-1.3-1.9-1.3-3.1c0-1.2,0.4-2.3,1.3-3.1
		c0.8-0.8,1.9-1.2,3.1-1.2s2.3,0.4,3.1,1.2s1.3,1.9,1.3,3.1C676.8,282.2,676.4,283.2,675.5,284z M674.9,281c0-0.7-0.2-1.4-0.7-1.9
		c-0.5-0.5-1.1-0.8-1.8-0.8s-1.3,0.3-1.8,0.8c-0.5,0.5-0.7,1.2-0.7,1.9s0.2,1.4,0.7,1.9c0.5,0.5,1.1,0.8,1.8,0.8s1.3-0.3,1.8-0.8
		C674.7,282.3,674.9,281.7,674.9,281z"/>
	<path class="st46" d="M683.8,280.9h1.9v3c-0.8,0.9-2,1.4-3.5,1.4c-1.2,0-2.3-0.4-3.1-1.2s-1.3-1.8-1.3-3.1s0.4-2.3,1.3-3.1
		c0.9-0.8,1.9-1.2,3.1-1.2s2.3,0.4,3.1,1.2l-1,1.4c-0.4-0.3-0.7-0.6-1-0.7s-0.7-0.2-1-0.2c-0.7,0-1.3,0.2-1.8,0.7s-0.7,1.1-0.7,1.9
		s0.2,1.4,0.7,1.9c0.5,0.5,1,0.7,1.7,0.7c0.6,0,1.2-0.1,1.6-0.4V280.9z"/>
	<path class="st46" d="M689.4,278.5c-0.2,0.1-0.3,0.3-0.3,0.6s0.1,0.4,0.3,0.6c0.2,0.1,0.7,0.3,1.5,0.5c0.8,0.2,1.4,0.5,1.9,0.9
		c0.4,0.4,0.7,1,0.7,1.7s-0.3,1.4-0.8,1.8c-0.6,0.5-1.3,0.7-2.2,0.7c-1.3,0-2.5-0.5-3.6-1.5l1.1-1.4c0.9,0.8,1.7,1.2,2.5,1.2
		c0.3,0,0.6-0.1,0.8-0.2c0.2-0.1,0.3-0.3,0.3-0.6s-0.1-0.5-0.3-0.6c-0.2-0.1-0.6-0.3-1.2-0.4c-1-0.2-1.7-0.5-2.1-0.9s-0.7-1-0.7-1.8
		s0.3-1.4,0.9-1.8c0.6-0.4,1.3-0.6,2.1-0.6c0.6,0,1.1,0.1,1.7,0.3c0.6,0.2,1,0.5,1.5,0.8l-0.9,1.4c-0.7-0.6-1.5-0.8-2.3-0.8
		C689.8,278.3,689.5,278.3,689.4,278.5z"/>
</g>
<g>
	<path class="st13" d="M925.6,294.5h-4.5V293h4.5L925.6,294.5z M916.6,294.5h-4.5V293h4.5V294.5z M907.7,294.5h-4.5V293h4.5V294.5z
		 M898.8,294.5h-4.5V293h4.5V294.5z M889.9,294.5h-4.5V293h4.5V294.5z M881,294.5h-4.5V293h4.5V294.5z M872.1,294.5h-4.5V293h4.5
		V294.5z M863.2,294.5h-4.5V293h4.5V294.5z M854.3,294.5h-4.5V293h4.5V294.5z M845.4,294.5h-4.5V293h4.5V294.5z M836.5,294.5H832
		V293h4.5V294.5z M827.6,294.5h-4.5V293h4.5V294.5z M818.7,294.5h-4.5V293h4.5V294.5z M809.8,294.5h-4.4l0-1.5h4.5V294.5z
		 M800.7,293.4c-1.4-0.7-2.7-1.7-3.7-3l1.2-0.9c0.9,1.1,2,1.9,3.2,2.5L800.7,293.4z M930.2,293.4l-0.7-1.4c1.2-0.6,2.3-1.5,3.2-2.5
		l1.2,0.9C932.9,291.7,931.6,292.7,930.2,293.4z M794.9,286.2c-0.2-0.8-0.3-1.6-0.3-2.5v-2.1h1.5v2.1c0,0.7,0.1,1.4,0.2,2.1
		L794.9,286.2z M936,286.2l-1.5-0.3c0.2-0.7,0.2-1.4,0.2-2.1v-2.1h1.5v2.1C936.3,284.6,936.2,285.4,936,286.2z M796.1,277.1h-1.5
		v-4.5h1.5V277.1z M936.3,277.1h-1.5v-4.5h1.5V277.1z M796.1,268.2h-1.5v-4.5h1.5V268.2z M936.3,268.2h-1.5v-4.5h1.5V268.2z
		 M796.4,259.5l-1.5-0.3c0.4-1.5,1.1-3,2.1-4.3l1.2,0.9C797.3,256.9,796.7,258.2,796.4,259.5z M934.5,259.5
		c-0.3-1.3-0.9-2.6-1.8-3.7l1.2-0.9c1,1.2,1.7,2.7,2.1,4.3L934.5,259.5z M801.4,253.3l-0.7-1.4c1.5-0.7,3-1.1,4.6-1.1l0,1.5
		C803.9,252.4,802.6,252.7,801.4,253.3z M929.5,253.3c-1.2-0.6-2.6-0.9-4-0.9l0-1.5c1.6,0,3.2,0.4,4.6,1.1L929.5,253.3z
		 M921.1,252.4h-4.5v-1.5h4.5V252.4z M912.2,252.4h-4.5v-1.5h4.5V252.4z M903.3,252.4h-4.5v-1.5h4.5V252.4z M894.4,252.4h-4.5v-1.5
		h4.5V252.4z M885.5,252.4H881v-1.5h4.5V252.4z M876.6,252.4h-4.5v-1.5h4.5V252.4z M867.7,252.4h-4.5v-1.5h4.5V252.4z M858.8,252.4
		h-4.5v-1.5h4.5V252.4z M849.9,252.4h-4.5v-1.5h4.5V252.4z M841,252.4h-4.5v-1.5h4.5V252.4z M832.1,252.4h-4.5v-1.5h4.5V252.4z
		 M823.1,252.4h-4.5v-1.5h4.5V252.4z M814.2,252.4h-4.5v-1.5h4.5V252.4z"/>
</g>
<g>
	<path class="st46" d="M826.8,264.2l-2.3,4.6h-1.1l-2.3-4.6v5.3h-1.9v-8.4h2.5l2.2,4.6l2.2-4.6h2.5v8.4h-1.9V264.2z"/>
	<path class="st46" d="M836.7,269.5l-0.8-1.8h-3.5l-0.8,1.8h-2l3.6-8.4h1.8l3.6,8.4H836.7z M834.1,263.6l-1.1,2.4h2.1L834.1,263.6z"
		/>
	<path class="st46" d="M839.6,261.1h1.9v8.4h-1.9V261.1z"/>
	<path class="st46" d="M849.4,261.1h1.9v8.4h-1.9l-4-5.3v5.3h-1.9v-8.4h1.8l4.1,5.4V261.1z"/>
	<path class="st46" d="M856.9,262.7v6.8h-1.9v-6.8h-2.4v-1.6h6.6v1.6H856.9z"/>
	<path class="st46" d="M866.7,261.1v1.7h-4.2v1.7h3.8v1.6h-3.8v1.7h4.3v1.7h-6.2v-8.4H866.7z"/>
	<path class="st46" d="M874.4,261.1h1.9v8.4h-1.9l-4-5.3v5.3h-1.9v-8.4h1.8l4.1,5.4V261.1z"/>
	<path class="st46" d="M884.3,269.5l-0.8-1.8H880l-0.8,1.8h-2l3.6-8.4h1.8l3.6,8.4H884.3z M881.8,263.6l-1.1,2.4h2.1L881.8,263.6z"
		/>
	<path class="st46" d="M893.1,261.1h1.9v8.4h-1.9l-4-5.3v5.3h-1.9v-8.4h1.8l4.1,5.4V261.1z"/>
	<path class="st46" d="M900.9,267.8c0.9,0,1.7-0.4,2.3-1.1l1.2,1.2c-1,1.1-2.1,1.6-3.4,1.6s-2.4-0.4-3.2-1.2s-1.3-1.8-1.3-3.1
		s0.4-2.3,1.3-3.1c0.9-0.8,1.9-1.2,3.1-1.2c1.4,0,2.5,0.5,3.5,1.6l-1.2,1.3c-0.6-0.7-1.3-1.1-2.2-1.1c-0.7,0-1.3,0.2-1.8,0.7
		s-0.8,1.1-0.8,1.9s0.2,1.4,0.7,1.9C899.7,267.6,900.2,267.8,900.9,267.8z"/>
	<path class="st46" d="M911.9,261.1v1.7h-4.2v1.7h3.8v1.6h-3.8v1.7h4.3v1.7h-6.2v-8.4H911.9z"/>
	<path class="st46" d="M842.4,278.5c-0.2,0.1-0.3,0.3-0.3,0.6s0.1,0.4,0.3,0.6c0.2,0.1,0.7,0.3,1.5,0.5c0.8,0.2,1.4,0.5,1.9,0.9
		c0.4,0.4,0.7,1,0.7,1.7s-0.3,1.4-0.8,1.8c-0.6,0.5-1.3,0.7-2.2,0.7c-1.3,0-2.5-0.5-3.6-1.5l1.1-1.4c0.9,0.8,1.7,1.2,2.5,1.2
		c0.3,0,0.6-0.1,0.8-0.2c0.2-0.1,0.3-0.3,0.3-0.6s-0.1-0.5-0.3-0.6c-0.2-0.1-0.6-0.3-1.2-0.4c-1-0.2-1.7-0.5-2.1-0.9s-0.7-1-0.7-1.8
		s0.3-1.4,0.9-1.8c0.6-0.4,1.3-0.6,2.1-0.6c0.6,0,1.1,0.1,1.7,0.3c0.6,0.2,1,0.5,1.5,0.8l-0.9,1.4c-0.7-0.6-1.5-0.8-2.3-0.8
		C842.8,278.3,842.6,278.3,842.4,278.5z"/>
	<path class="st46" d="M851.9,283.5c0.9,0,1.7-0.4,2.3-1.1l1.2,1.2c-1,1.1-2.1,1.6-3.4,1.6s-2.4-0.4-3.2-1.2s-1.3-1.8-1.3-3.1
		s0.4-2.3,1.3-3.1c0.9-0.8,1.9-1.2,3.1-1.2c1.4,0,2.5,0.5,3.5,1.6l-1.2,1.3c-0.6-0.7-1.3-1.1-2.2-1.1c-0.7,0-1.3,0.2-1.8,0.7
		s-0.8,1.1-0.8,1.9s0.2,1.4,0.7,1.9C850.7,283.3,851.3,283.5,851.9,283.5z"/>
	<path class="st46" d="M863.7,279.6c0,1.3-0.5,2.2-1.6,2.6l2.1,3h-2.3l-1.9-2.7h-1.3v2.7h-1.9v-8.4h3.2c1.3,0,2.2,0.2,2.8,0.7
		C863.4,277.9,863.7,278.6,863.7,279.6z M861.4,280.6c0.2-0.2,0.3-0.5,0.3-1s-0.1-0.8-0.4-0.9c-0.2-0.2-0.7-0.3-1.3-0.3h-1.4v2.5
		h1.4C860.7,280.9,861.2,280.8,861.4,280.6z"/>
	<path class="st46" d="M865.6,276.8h1.9v8.4h-1.9V276.8z"/>
	<path class="st46" d="M875.3,277.6c0.6,0.5,0.9,1.3,0.9,2.3s-0.3,1.8-0.9,2.3c-0.6,0.5-1.5,0.7-2.8,0.7h-1.1v2.3h-1.9v-8.4h3
		C873.8,276.8,874.7,277.1,875.3,277.6z M873.9,280.9c0.2-0.3,0.3-0.6,0.3-1.1c0-0.5-0.1-0.8-0.4-1s-0.7-0.3-1.4-0.3h-1.1v2.8h1.3
		C873.3,281.2,873.7,281.1,873.9,280.9z"/>
	<path class="st46" d="M881.2,278.4v6.8h-1.9v-6.8H877v-1.6h6.6v1.6H881.2z"/>
	<path class="st46" d="M886.8,278.5c-0.2,0.1-0.3,0.3-0.3,0.6s0.1,0.4,0.3,0.6c0.2,0.1,0.7,0.3,1.5,0.5c0.8,0.2,1.4,0.5,1.9,0.9
		c0.4,0.4,0.7,1,0.7,1.7s-0.3,1.4-0.8,1.8c-0.6,0.5-1.3,0.7-2.2,0.7c-1.3,0-2.5-0.5-3.6-1.5l1.1-1.4c0.9,0.8,1.7,1.2,2.5,1.2
		c0.3,0,0.6-0.1,0.8-0.2c0.2-0.1,0.3-0.3,0.3-0.6s-0.1-0.5-0.3-0.6c-0.2-0.1-0.6-0.3-1.2-0.4c-1-0.2-1.7-0.5-2.1-0.9s-0.7-1-0.7-1.8
		s0.3-1.4,0.9-1.8c0.6-0.4,1.3-0.6,2.1-0.6c0.6,0,1.1,0.1,1.7,0.3c0.6,0.2,1,0.5,1.5,0.8l-0.9,1.4c-0.7-0.6-1.5-0.8-2.3-0.8
		C887.3,278.3,887,278.3,886.8,278.5z"/>
</g>
<g>
	<circle class="st40" cx="112.5" cy="485" r="14.4"/>
</g>
<g>
	<path class="st8" d="M110.5,481.1h3.4v8.4h-1.8v-6.8h-1.6V481.1z"/>
</g>
<g>
	<path class="st13" d="M349.3,491.5h-4.5V490h4.5L349.3,491.5z M340.4,491.5h-4.5V490h4.5V491.5z M331.4,491.5H327V490h4.5V491.5z
		 M322.5,491.5h-4.5V490h4.5V491.5z M313.6,491.5h-4.5V490h4.5V491.5z M304.7,491.5h-4.5V490h4.5V491.5z M295.8,491.5h-4.5V490h4.5
		V491.5z M286.9,491.5h-4.5V490h4.5V491.5z M278,491.5h-4.5V490h4.5V491.5z M269.1,491.5h-4.5V490h4.5V491.5z M260.2,491.5h-4.5V490
		h4.5V491.5z M251.3,491.5h-4.5V490h4.5V491.5z M242.4,491.5H238V490h4.5V491.5z M233.5,491.5h-4.4l0-1.5h4.5V491.5z M224.4,490.4
		c-1.4-0.7-2.7-1.7-3.7-3l1.2-0.9c0.9,1.1,2,1.9,3.2,2.5L224.4,490.4z M353.9,490.4l-0.7-1.4c1.2-0.6,2.3-1.5,3.2-2.5l1.2,0.9
		C356.6,488.7,355.4,489.7,353.9,490.4z M218.6,483.2c-0.2-0.8-0.3-1.6-0.3-2.5v-2.1h1.5v2.1c0,0.7,0.1,1.4,0.2,2.1L218.6,483.2z
		 M359.7,483.2l-1.5-0.3c0.2-0.7,0.2-1.4,0.2-2.1v-2.1h1.5v2.1C360,481.6,359.9,482.4,359.7,483.2z M219.8,474.1h-1.5v-4.5h1.5
		V474.1z M360,474.1h-1.5v-4.5h1.5V474.1z M219.8,465.2h-1.5v-4.5h1.5V465.2z M360,465.2h-1.5v-4.5h1.5V465.2z M220.1,456.5
		l-1.5-0.3c0.4-1.5,1.1-3,2.1-4.3l1.2,0.9C221,453.9,220.4,455.2,220.1,456.5z M358.3,456.5c-0.3-1.3-0.9-2.6-1.8-3.7l1.2-0.9
		c1,1.2,1.7,2.7,2.1,4.3L358.3,456.5z M225.1,450.3l-0.6-1.4c1.4-0.7,3-1.1,4.6-1.1l0,1.5C227.7,449.4,226.3,449.7,225.1,450.3z
		 M353.2,450.3c-1.2-0.6-2.6-0.9-4-0.9l0-1.5c1.6,0,3.2,0.4,4.6,1.1L353.2,450.3z M344.8,449.4h-4.5v-1.5h4.5V449.4z M335.9,449.4
		h-4.5v-1.5h4.5V449.4z M327,449.4h-4.5v-1.5h4.5V449.4z M318.1,449.4h-4.5v-1.5h4.5V449.4z M309.2,449.4h-4.5v-1.5h4.5V449.4z
		 M300.3,449.4h-4.5v-1.5h4.5V449.4z M291.4,449.4h-4.5v-1.5h4.5V449.4z M282.5,449.4H278v-1.5h4.5V449.4z M273.6,449.4h-4.5v-1.5
		h4.5V449.4z M264.7,449.4h-4.5v-1.5h4.5V449.4z M255.8,449.4h-4.5v-1.5h4.5V449.4z M246.9,449.4h-4.5v-1.5h4.5V449.4z M238,449.4
		h-4.5v-1.5h4.5V449.4z"/>
</g>
<g>
	<path class="st46" d="M271.8,464.8c0.9,0,1.7-0.4,2.3-1.1l1.2,1.2c-1,1.1-2.1,1.6-3.4,1.6s-2.4-0.4-3.2-1.2s-1.3-1.8-1.3-3.1
		s0.4-2.3,1.3-3.1c0.9-0.8,1.9-1.2,3.1-1.2c1.4,0,2.5,0.5,3.5,1.6l-1.2,1.3c-0.6-0.7-1.3-1.1-2.2-1.1c-0.7,0-1.3,0.2-1.8,0.7
		s-0.8,1.1-0.8,1.9s0.2,1.4,0.7,1.9C270.6,464.6,271.1,464.8,271.8,464.8z"/>
	<path class="st46" d="M276.7,466.5v-8.4h1.9v6.7h3.6v1.7H276.7z"/>
	<path class="st46" d="M283.6,458.1h1.9v8.4h-1.9V458.1z"/>
	<path class="st46" d="M293.5,458.1v1.7h-4.2v1.7h3.8v1.6h-3.8v1.7h4.3v1.7h-6.2v-8.4H293.5z"/>
	<path class="st46" d="M301.2,458.1h1.9v8.4h-1.9l-4-5.3v5.3h-1.9v-8.4h1.8l4.1,5.4V458.1z"/>
	<path class="st46" d="M308.7,459.7v6.8h-1.9v-6.8h-2.4v-1.6h6.6v1.6H308.7z"/>
</g>
<g>
	<circle class="st40" cx="289.2" cy="485" r="14.4"/>
</g>
<g>
	<path class="st8" d="M289.8,484.4c0.2-0.3,0.3-0.6,0.3-0.9c0-0.3-0.1-0.5-0.3-0.7c-0.2-0.2-0.4-0.3-0.7-0.3c-0.5,0-1,0.4-1.5,1.1
		l-1.5-0.9c0.4-0.6,0.8-1.1,1.3-1.4c0.5-0.3,1.1-0.5,1.8-0.5s1.4,0.2,1.9,0.7s0.8,1.1,0.8,1.9c0,0.4-0.1,0.8-0.3,1.2
		c-0.2,0.4-0.6,0.9-1.2,1.5l-1.5,1.6h3.3v1.7h-5.9v-1.4l2.5-2.5C289.2,485.1,289.6,484.7,289.8,484.4z"/>
</g>
<g>
	<path class="st13" d="M548.9,491.5V490h4.5l0,1.3l0,0.2L548.9,491.5z M544.4,491.5H540V490h4.5V491.5z M535.5,491.5H531V490h4.5
		V491.5z M526.6,491.5h-4.5V490h4.5V491.5z M517.7,491.5h-4.5V490h4.5V491.5z M508.8,491.5h-4.5V490h4.5V491.5z M499.9,491.5h-4.5
		V490h4.5V491.5z M491,491.5h-4.5V490h4.5V491.5z M482.1,491.5h-4.5V490h4.5V491.5z M473.2,491.5h-4.5V490h4.5V491.5z M464.3,491.5
		h-4.5V490h4.5V491.5z M455.4,491.5h-4.5V490h4.5V491.5z M446.5,491.5H442V490h4.5V491.5z M437.6,491.5h-4.4l0-1.5h4.5V491.5z
		 M428.5,490.4c-1.4-0.7-2.7-1.7-3.7-3l1.2-0.9c0.9,1.1,2,1.9,3.2,2.5L428.5,490.4z M558,490.4l-0.7-1.4c1.2-0.6,2.3-1.5,3.2-2.5
		l1.2,0.9C560.7,488.7,559.4,489.7,558,490.4z M422.7,483.2c-0.2-0.8-0.3-1.6-0.3-2.5v-2.1h1.5v2.1c0,0.7,0.1,1.4,0.2,2.1
		L422.7,483.2z M563.8,483.2l-1.5-0.3c0.2-0.7,0.2-1.4,0.2-2.1v-2.1h1.5v2.1C564.1,481.6,564,482.4,563.8,483.2z M423.9,474.1h-1.5
		v-4.5h1.5V474.1z M564.1,474.1h-1.5v-4.5h1.5V474.1z M423.9,465.2h-1.5v-4.5h1.5V465.2z M564.1,465.2h-1.5v-4.5h1.5V465.2z
		 M424.1,456.5l-1.5-0.3c0.4-1.5,1.1-3,2.1-4.3l1.2,0.9C425.1,453.9,424.5,455.2,424.1,456.5z M562.3,456.5
		c-0.3-1.3-0.9-2.6-1.8-3.7l1.2-0.9c1,1.2,1.7,2.7,2.1,4.3L562.3,456.5z M429.1,450.3l-0.6-1.4c1.4-0.7,3-1.1,4.6-1.1l0,1.5
		C431.7,449.4,430.4,449.7,429.1,450.3z M557.3,450.3c-1.2-0.6-2.6-0.9-4-0.9l0-1.5c1.6,0,3.2,0.4,4.6,1.1L557.3,450.3z
		 M548.9,449.4h-4.5v-1.5h4.5V449.4z M540,449.4h-4.5v-1.5h4.5V449.4z M531.1,449.4h-4.5v-1.5h4.5V449.4z M522.2,449.4h-4.5v-1.5
		h4.5V449.4z M513.3,449.4h-4.5v-1.5h4.5V449.4z M504.4,449.4h-4.5v-1.5h4.5V449.4z M495.4,449.4H491v-1.5h4.5V449.4z M486.5,449.4
		h-4.5v-1.5h4.5V449.4z M477.6,449.4h-4.5v-1.5h4.5V449.4z M468.7,449.4h-4.5v-1.5h4.5V449.4z M459.8,449.4h-4.5v-1.5h4.5V449.4z
		 M450.9,449.4h-4.5v-1.5h4.5V449.4z M442,449.4h-4.5v-1.5h4.5V449.4z"/>
</g>
<g>
	<path class="st46" d="M475.9,464.8c0.9,0,1.7-0.4,2.3-1.1l1.2,1.2c-1,1.1-2.1,1.6-3.4,1.6s-2.4-0.4-3.2-1.2s-1.3-1.8-1.3-3.1
		s0.4-2.3,1.3-3.1c0.9-0.8,1.9-1.2,3.1-1.2c1.4,0,2.5,0.5,3.5,1.6l-1.2,1.3c-0.6-0.7-1.3-1.1-2.2-1.1c-0.7,0-1.3,0.2-1.8,0.7
		s-0.8,1.1-0.8,1.9s0.2,1.4,0.7,1.9C474.6,464.6,475.2,464.8,475.9,464.8z"/>
	<path class="st46" d="M480.8,466.5v-8.4h1.9v6.7h3.6v1.7H480.8z"/>
	<path class="st46" d="M487.6,458.1h1.9v8.4h-1.9V458.1z"/>
	<path class="st46" d="M497.6,458.1v1.7h-4.2v1.7h3.8v1.6h-3.8v1.7h4.3v1.7h-6.2v-8.4H497.6z"/>
	<path class="st46" d="M505.3,458.1h1.9v8.4h-1.9l-4-5.3v5.3h-1.9v-8.4h1.8l4.1,5.4V458.1z"/>
	<path class="st46" d="M512.8,459.7v6.8h-1.9v-6.8h-2.4v-1.6h6.6v1.6H512.8z"/>
</g>
<g>
	<circle class="st40" cx="493.2" cy="485" r="14.4"/>
</g>
<g>
	<path class="st8" d="M490.6,482.7v-1.6h5.1v1.3l-1.7,2c0.7,0.1,1.2,0.4,1.6,0.8s0.6,1,0.6,1.6c0,0.9-0.3,1.6-0.9,2.1
		s-1.4,0.8-2.3,0.8s-1.9-0.3-2.8-1l0.8-1.5c0.8,0.6,1.5,0.8,2.1,0.8c0.4,0,0.7-0.1,0.9-0.3c0.2-0.2,0.4-0.5,0.4-0.8
		c0-0.3-0.1-0.6-0.4-0.8c-0.3-0.2-0.7-0.3-1.2-0.3c-0.3,0-0.6,0.1-1.1,0.2v-1.4l1.6-1.9H490.6z"/>
</g>
<g>
	<path class="st13" d="M750.6,491.5h-4.5V490h4.5L750.6,491.5z M741.7,491.5h-4.5V490h4.5V491.5z M732.8,491.5h-4.5V490h4.5V491.5z
		 M723.9,491.5h-4.5V490h4.5V491.5z M715,491.5h-4.5V490h4.5V491.5z M706.1,491.5h-4.5V490h4.5V491.5z M697.2,491.5h-4.5V490h4.5
		V491.5z M688.3,491.5h-4.5V490h4.5V491.5z M679.4,491.5h-4.5V490h4.5V491.5z M670.5,491.5H666V490h4.5V491.5z M661.6,491.5h-4.5
		V490h4.5V491.5z M652.7,491.5h-4.5V490h4.5V491.5z M643.8,491.5h-4.5V490h4.5V491.5z M634.8,491.5h-4.4l0-1.5h4.5V491.5z
		 M625.8,490.4c-1.4-0.7-2.7-1.7-3.7-3l1.2-0.9c0.9,1.1,2,1.9,3.2,2.5L625.8,490.4z M755.3,490.4l-0.7-1.4c1.2-0.6,2.3-1.5,3.2-2.5
		l1.2,0.9C758,488.7,756.7,489.7,755.3,490.4z M620,483.2c-0.2-0.8-0.3-1.6-0.3-2.5v-2.1h1.5v2.1c0,0.7,0.1,1.4,0.2,2.1L620,483.2z
		 M761.1,483.2l-1.5-0.3c0.2-0.7,0.2-1.4,0.2-2.1v-2.1h1.5v2.1C761.3,481.6,761.2,482.4,761.1,483.2z M621.2,474.1h-1.5v-4.5h1.5
		V474.1z M761.3,474.1h-1.5v-4.5h1.5V474.1z M621.2,465.2h-1.5v-4.5h1.5V465.2z M761.3,465.2h-1.5v-4.5h1.5V465.2z M621.4,456.5
		l-1.5-0.3c0.4-1.5,1.1-3,2.1-4.3l1.2,0.9C622.4,453.9,621.7,455.2,621.4,456.5z M759.6,456.5c-0.3-1.3-0.9-2.6-1.8-3.7l1.2-0.9
		c1,1.2,1.7,2.7,2.1,4.3L759.6,456.5z M626.4,450.3l-0.7-1.4c1.5-0.7,3-1.1,4.6-1.1l0,1.5C629,449.4,627.7,449.7,626.4,450.3z
		 M754.6,450.3c-1.2-0.6-2.6-0.9-4-0.9l0-1.5c1.6,0,3.2,0.4,4.6,1.1L754.6,450.3z M746.1,449.4h-4.5v-1.5h4.5V449.4z M737.2,449.4
		h-4.5v-1.5h4.5V449.4z M728.3,449.4h-4.5v-1.5h4.5V449.4z M719.4,449.4H715v-1.5h4.5V449.4z M710.5,449.4h-4.5v-1.5h4.5V449.4z
		 M701.6,449.4h-4.5v-1.5h4.5V449.4z M692.7,449.4h-4.5v-1.5h4.5V449.4z M683.8,449.4h-4.5v-1.5h4.5V449.4z M674.9,449.4h-4.5v-1.5
		h4.5V449.4z M666,449.4h-4.5v-1.5h4.5V449.4z M657.1,449.4h-4.5v-1.5h4.5V449.4z M648.2,449.4h-4.5v-1.5h4.5V449.4z M639.3,449.4
		h-4.5v-1.5h4.5V449.4z"/>
</g>
<g>
	<path class="st46" d="M673.2,464.8c0.9,0,1.7-0.4,2.3-1.1l1.2,1.2c-1,1.1-2.1,1.6-3.4,1.6s-2.4-0.4-3.2-1.2s-1.3-1.8-1.3-3.1
		s0.4-2.3,1.3-3.1c0.9-0.8,1.9-1.2,3.1-1.2c1.4,0,2.5,0.5,3.5,1.6l-1.2,1.3c-0.6-0.7-1.3-1.1-2.2-1.1c-0.7,0-1.3,0.2-1.8,0.7
		s-0.8,1.1-0.8,1.9s0.2,1.4,0.7,1.9C671.9,464.6,672.5,464.8,673.2,464.8z"/>
	<path class="st46" d="M678.1,466.5v-8.4h1.9v6.7h3.6v1.7H678.1z"/>
	<path class="st46" d="M684.9,458.1h1.9v8.4h-1.9V458.1z"/>
	<path class="st46" d="M694.9,458.1v1.7h-4.2v1.7h3.8v1.6h-3.8v1.7h4.3v1.7h-6.2v-8.4H694.9z"/>
	<path class="st46" d="M702.6,458.1h1.9v8.4h-1.9l-4-5.3v5.3h-1.9v-8.4h1.8l4.1,5.4V458.1z"/>
	<path class="st46" d="M710,459.7v6.8h-1.9v-6.8h-2.4v-1.6h6.6v1.6H710z"/>
</g>
<g>
	<circle class="st40" cx="690.5" cy="485" r="14.4"/>
</g>
<g>
	<path class="st8" d="M690.8,485.8v-1.5h1.8v1.5h0.9v1.6h-0.9v2h-1.8v-2h-3.4V486l3-5h2l-2.8,4.8H690.8z"/>
</g>
<g>
	<path class="st13" d="M927.3,491.5h-4.5V490h4.5L927.3,491.5z M918.4,491.5h-4.5V490h4.5V491.5z M909.4,491.5H905V490h4.5V491.5z
		 M900.5,491.5h-4.5V490h4.5V491.5z M891.6,491.5h-4.5V490h4.5V491.5z M882.7,491.5h-4.5V490h4.5V491.5z M873.8,491.5h-4.5V490h4.5
		V491.5z M864.9,491.5h-4.5V490h4.5V491.5z M856,491.5h-4.5V490h4.5V491.5z M847.1,491.5h-4.5V490h4.5V491.5z M838.2,491.5h-4.5V490
		h4.5V491.5z M829.3,491.5h-4.5V490h4.5V491.5z M820.4,491.5H816V490h4.5V491.5z M811.5,491.5h-4.4l0-1.5h4.5V491.5z M802.4,490.4
		c-1.4-0.7-2.7-1.7-3.7-3l1.2-0.9c0.9,1.1,2,1.9,3.2,2.5L802.4,490.4z M931.9,490.4l-0.7-1.4c1.2-0.6,2.3-1.5,3.2-2.5l1.2,0.9
		C934.6,488.7,933.4,489.7,931.9,490.4z M796.6,483.2c-0.2-0.8-0.3-1.6-0.3-2.5v-2.1h1.5v2.1c0,0.7,0.1,1.4,0.2,2.1L796.6,483.2z
		 M937.7,483.2l-1.5-0.3c0.2-0.7,0.2-1.4,0.2-2.1v-2.1h1.5v2.1C938,481.6,937.9,482.4,937.7,483.2z M797.8,474.1h-1.5v-4.5h1.5
		V474.1z M938,474.1h-1.5v-4.5h1.5V474.1z M797.8,465.2h-1.5v-4.5h1.5V465.2z M938,465.2h-1.5v-4.5h1.5V465.2z M798.1,456.5
		l-1.5-0.3c0.4-1.5,1.1-3,2.1-4.3l1.2,0.9C799,453.9,798.4,455.2,798.1,456.5z M936.3,456.5c-0.3-1.3-0.9-2.6-1.8-3.7l1.2-0.9
		c1,1.2,1.7,2.7,2.1,4.3L936.3,456.5z M803.1,450.3l-0.7-1.4c1.5-0.7,3-1.1,4.6-1.1l0,1.5C805.7,449.4,804.3,449.7,803.1,450.3z
		 M931.2,450.3c-1.2-0.6-2.6-0.9-4-0.9l0-1.5c1.6,0,3.2,0.4,4.6,1.1L931.2,450.3z M922.8,449.4h-4.5v-1.5h4.5V449.4z M913.9,449.4
		h-4.5v-1.5h4.5V449.4z M905,449.4h-4.5v-1.5h4.5V449.4z M896.1,449.4h-4.5v-1.5h4.5V449.4z M887.2,449.4h-4.5v-1.5h4.5V449.4z
		 M878.3,449.4h-4.5v-1.5h4.5V449.4z M869.4,449.4h-4.5v-1.5h4.5V449.4z M860.5,449.4H856v-1.5h4.5V449.4z M851.6,449.4h-4.5v-1.5
		h4.5V449.4z M842.7,449.4h-4.5v-1.5h4.5V449.4z M833.8,449.4h-4.5v-1.5h4.5V449.4z M824.9,449.4h-4.5v-1.5h4.5V449.4z M816,449.4
		h-4.5v-1.5h4.5V449.4z"/>
</g>
<g>
	<path class="st46" d="M849.8,464.8c0.9,0,1.7-0.4,2.3-1.1l1.2,1.2c-1,1.1-2.1,1.6-3.4,1.6s-2.4-0.4-3.2-1.2s-1.3-1.8-1.3-3.1
		s0.4-2.3,1.3-3.1c0.9-0.8,1.9-1.2,3.1-1.2c1.4,0,2.5,0.5,3.5,1.6l-1.2,1.3c-0.6-0.7-1.3-1.1-2.2-1.1c-0.7,0-1.3,0.2-1.8,0.7
		s-0.8,1.1-0.8,1.9s0.2,1.4,0.7,1.9C848.6,464.6,849.1,464.8,849.8,464.8z"/>
	<path class="st46" d="M854.7,466.5v-8.4h1.9v6.7h3.6v1.7H854.7z"/>
	<path class="st46" d="M861.6,458.1h1.9v8.4h-1.9V458.1z"/>
	<path class="st46" d="M871.5,458.1v1.7h-4.2v1.7h3.8v1.6h-3.8v1.7h4.3v1.7h-6.2v-8.4H871.5z"/>
	<path class="st46" d="M879.2,458.1h1.9v8.4h-1.9l-4-5.3v5.3h-1.9v-8.4h1.8l4.1,5.4V458.1z"/>
	<path class="st46" d="M886.7,459.7v6.8h-1.9v-6.8h-2.4v-1.6h6.6v1.6H886.7z"/>
</g>
<g>
	<circle class="st40" cx="867.2" cy="485" r="14.4"/>
</g>
<g>
	<path class="st8" d="M869.7,481.1v1.6h-3.3v1.4c0.2-0.1,0.5-0.1,0.9-0.1c0.8,0,1.5,0.2,2.1,0.7c0.6,0.5,0.9,1.1,0.9,2
		c0,0.8-0.3,1.5-0.9,2.1s-1.3,0.8-2.2,0.8c-1.1,0-2.1-0.4-2.8-1.3l1-1.4c0.1,0.1,0.2,0.2,0.3,0.3c0.1,0.1,0.3,0.2,0.7,0.4
		c0.3,0.2,0.6,0.3,1,0.3c0.3,0,0.6-0.1,0.9-0.3c0.2-0.2,0.4-0.5,0.4-0.9s-0.1-0.7-0.4-0.9c-0.3-0.2-0.6-0.3-1-0.3s-0.9,0.2-1.5,0.5
		l-0.8-0.8v-4.1H869.7z"/>
</g>
</svg>
