<svg xmlns="http://www.w3.org/2000/svg" xmlns:xlink="http://www.w3.org/1999/xlink" id="Layer_1" x="0px" y="0px" viewBox="0 0 270 270" style="enable-background:new 0 0 270 270;" xml:space="preserve"><style type="text/css">	.st0{fill:#FFFFFF;stroke:#FFFFFF;stroke-width:5;stroke-miterlimit:10;}	.st1{fill:#0091DA;}	.st2{fill:#1D428A;}	.st3{fill:#FF687D;}	.st4{fill-rule:evenodd;clip-rule:evenodd;}	.st5{fill:#B2B2B2;}	.st6{fill-rule:evenodd;clip-rule:evenodd;fill:#B2B2B2;}	.st7{fill:#111010;}	.st8{fill-rule:evenodd;clip-rule:evenodd;fill:#FF687D;}	.st9{fill:none;}	.st10{fill:#FFFFFF;}	.st11{fill:#3A4348;}	.st12{fill:#F29200;}	.st13{fill:#2E2C27;}	.st14{fill:#8F8F8D;}	.st15{fill:#E7282A;}	.st16{fill:#F5B01C;}	.st17{fill:#239BD6;}	.st18{fill:#243F82;}	.st19{fill:#C4282A;}	.st20{fill:#2C2D3A;}	.st21{fill:url(#SVGID_1_);}	.st22{fill:#1680C3;}	.st23{fill:#22B6DE;}	.st24{fill:#32609C;}	.st25{fill:#AEB7C7;}	.st26{fill:none;stroke:#000000;stroke-width:4;stroke-miterlimit:10;}</style><g>	<g>		<path d="M85.5,106.2l-18,18L35,91.7v21.6L56.6,135L35,156.6v21.6l32.4-32.5l18,18v-21.6l-7.2-7.2l7.2-7.2V106.2z M37,173.5v-16   L59.4,135L37,112.5v-16L75.5,135L37,173.5z"></path>	</g>	<path d="M208.5,126.5c0-1.5,1.2-2.5,2.7-2.5c1.6,0,2.7,1,2.7,2.5c0,1.5-1.2,2.5-2.7,2.5C209.6,129,208.5,128,208.5,126.5z"></path>	<g>		<path d="M106.3,131.2c-3,0-5.7,1.2-7.7,2.5l1.6,3c1.7-1,3.4-1.8,5.3-1.8c2.5,0,3.4,1.7,3.4,3.7c-7.7,0.8-11.1,3-11.1,7   c0,3.3,2.3,5.5,5.6,5.5c2.2,0,4.2-1.1,5.8-2.5h0.1l0.3,2.1h3.6v-11.2C113.4,134.1,111.1,131.2,106.3,131.2z M108.9,145.5   c-1.4,1.3-2.6,2.1-4.1,2.1c-1.6,0-2.7-0.7-2.7-2.4c0-1.9,1.7-3.2,6.8-3.9V145.5z"></path>	</g>	<path d="M120.3,141.2l-5.6-9h4.8l2.1,3.6c0.5,1,1.2,2.2,1.7,3.2h0.2c0.2-0.5,0.5-1.1,0.7-1.6c0.3-0.5,0.5-1.1,0.7-1.6l1.8-3.6h4.6  l-5.6,9.5l6,9.3h-4.8l-2.3-3.7c-0.6-1.1-1.3-2.3-1.9-3.3h-0.2c-0.1,0.3-0.3,0.6-0.4,0.9c-0.4,0.8-0.8,1.6-1.2,2.5l-2,3.7h-4.6  L120.3,141.2z"></path>	<path d="M147.6,133.4c-1.3-1.2-3.1-2.2-5.5-2.2c-5,0-9.5,3.6-9.5,9.9c0,6.3,4,9.9,9.1,9.9c2.2,0,4.4-0.8,6.2-2.4l-1.8-2.8  c-1,0.8-2.3,1.6-3.9,1.6c-3,0-5-2.5-5-6.3c0-3.8,2.1-6.3,5.2-6.3c1.2,0,2.2,0.5,3.2,1.4L147.6,133.4z"></path>	<g>		<path d="M165.3,140.2c0-5.3-2.7-9-7.8-9c-4.4,0-8.7,3.8-8.7,9.9c0,6.2,4.1,9.9,9.3,9.9c2.4,0,4.7-0.8,6.5-2l-1.5-2.8   c-1.4,0.9-2.8,1.4-4.4,1.4c-3,0-5.2-1.9-5.6-5.3h12C165.2,141.8,165.3,141,165.3,140.2z M153.1,139.4c0.4-3.2,2.3-4.8,4.5-4.8   c2.6,0,3.8,1.8,3.8,4.8H153.1z"></path>	</g>	<path d="M173.5,147.7c-1.9,0-3.5-0.8-5.2-2.1l-2.1,2.8c1.8,1.5,4.6,2.6,7.2,2.6c4.8,0,7.3-2.6,7.3-5.8c0-3.5-2.8-4.8-5.4-5.7  l-0.2-0.1c-1.9-0.7-3.7-1.3-3.7-2.7c0-1.2,0.9-2.1,2.8-2.1c1.5,0,2.8,0.7,4.2,1.6l2-2.7c-1.5-1.2-3.7-2.3-6.3-2.3  c-4.2,0-6.9,2.3-6.9,5.7c0,3.2,2.8,4.6,5.3,5.5l0.3,0.1c1.9,0.7,3.7,1.4,3.7,2.9C176.5,146.7,175.5,147.7,173.5,147.7z"></path>	<path d="M183.7,145.5c1.7,1.3,3.3,2.1,5.2,2.1c2,0,3-1,3-2.3c0-1.5-1.8-2.2-3.7-2.9l-0.3-0.1c-2.5-0.9-5.3-2.3-5.3-5.5  c0-3.3,2.7-5.7,6.9-5.7c2.6,0,4.7,1.1,6.3,2.3l-2,2.7c-1.3-1-2.7-1.6-4.2-1.6c-1.9,0-2.8,0.9-2.8,2.1c0,1.4,1.7,2,3.7,2.7l0.2,0.1  c2.6,1,5.4,2.2,5.4,5.7c0,3.2-2.6,5.8-7.3,5.8c-2.6,0-5.3-1.1-7.2-2.6L183.7,145.5z"></path>	<path d="M205,148c0-1.7-1.2-3-2.8-3c-1.6,0-2.9,1.3-2.9,3c0,1.7,1.3,3,2.9,3C203.8,151,205,149.7,205,148z"></path>	<rect x="209" y="132.1" width="4.4" height="18.9"></rect>	<g>		<path d="M226,131.2c-4.7,0-9,3.6-9,9.9c0,6.3,4.3,9.9,9,9.9c4.7,0,9-3.6,9-9.9C235,134.8,230.7,131.2,226,131.2z M226,147.4   c-2.8,0-4.4-2.5-4.4-6.3c0-3.8,1.7-6.3,4.4-6.3s4.5,2.5,4.5,6.3C230.5,144.9,228.8,147.4,226,147.4z"></path>	</g></g><circle class="st26" cx="135" cy="135" r="132.2"></circle></svg>