<svg xmlns="http://www.w3.org/2000/svg" xmlns:xlink="http://www.w3.org/1999/xlink" id="Layer_1" x="0px" y="0px" viewBox="0 0 270 270" style="enable-background:new 0 0 270 270;" xml:space="preserve"><style type="text/css">	.st0{fill:#FFFFFF;stroke:#FFFFFF;stroke-width:5;stroke-miterlimit:10;}	.st1{fill:#0091DA;}	.st2{fill:#1D428A;}	.st3{fill:#FF687D;}	.st4{fill-rule:evenodd;clip-rule:evenodd;}	.st5{fill:#B2B2B2;}	.st6{fill-rule:evenodd;clip-rule:evenodd;fill:#B2B2B2;}	.st7{fill:#111010;}	.st8{fill-rule:evenodd;clip-rule:evenodd;fill:#FF687D;}	.st9{fill:none;}	.st10{fill:#FFFFFF;}	.st11{fill:#3A4348;}	.st12{fill:#F29200;}	.st13{fill:#2E2C27;}	.st14{fill:#8F8F8D;}	.st15{fill:#E7282A;}	.st16{fill:#F5B01C;}	.st17{fill:#239BD6;}	.st18{fill:#243F82;}	.st19{fill:#C4282A;}	.st20{fill:#2C2D3A;}	.st21{fill:url(#SVGID_1_);}	.st22{fill:#1680C3;}	.st23{fill:#22B6DE;}	.st24{fill:#32609C;}	.st25{fill:#AEB7C7;}	.st26{fill:none;stroke:#000000;stroke-width:4;stroke-miterlimit:10;}</style><g>	<g>		<path d="M83,188.4c-18.1,0.2-31-11-32.8-28.3c-1.8-17.8,9.4-34,26.5-37c4.5-0.8,6.6-1.9,8.1-6.7c6.7-21.9,26.8-36.2,49.7-36.1   c23.2,0,43.5,14.8,50.6,37c0.7,2.1,1.5,3,3.8,3.1c16.1,1.1,30.1,16.1,31,32.2c1,18.7-11.2,32.4-24.6,36.5c-4.3,1.3-8.4,0-10.8-3.5   c-2.3-3.3-2.4-8,0.3-11.1c1.3-1.5,3.2-2.7,5.1-3.4c8.8-3.2,13.5-10.9,12-20.2c-1.3-8.2-9.1-14.6-17.8-14.7c-0.4,0-0.8,0-1.2,0   c-9.2-0.1-10.8-1.5-12.1-10.6c-2.2-15.3-16.2-29.2-31.6-31.3c-22.4-3-41.5,10.9-45.5,33.2c-0.9,4.9-2.4,6.3-7.3,6.2   c-6.5-0.2-12.5,1.1-17.4,5.6c-7.7,7-9.5,15.6-6.5,25.3c2.9,9.2,9.8,13.6,19.1,14.7c1.9,0.2,3.8,0.2,5.6,0.1   c2.8-0.1,4.9,1.4,5.2,3.8c0.3,2.6-1.5,4.7-4.4,4.9C86.4,188.5,84.7,188.4,83,188.4z"></path>		<g>			<path d="M135.8,189.5c-14.5-0.5-26.6-5-36.3-15.1c-0.3-0.4-0.7-0.7-1-1.1c-1.7-1.8-2.3-3.9-0.5-5.9c1.8-2,3.9-1.6,5.8,0    c4.8,3.9,10.1,6.8,16.2,7.9c13.6,2.6,25.7-0.5,35.4-10.9c2.1-2.3,4.3-4.1,7.6-4.1c4,0,7,1.8,8.6,5.3c1.6,3.6,1,7.4-2,10.1    c-7.7,7.1-16.7,11.3-27,12.9C140,189.2,137.5,189.3,135.8,189.5z"></path>		</g>	</g></g><circle class="st26" cx="135" cy="135" r="132.2"></circle></svg>