<?xml version="1.0" encoding="utf-8"?>
<!-- Generator: Adobe Illustrator 22.1.0, SVG Export Plug-In . SVG Version: 6.00 Build 0)  -->
<svg version="1.1" id="Layer_1" xmlns="http://www.w3.org/2000/svg" xmlns:xlink="http://www.w3.org/1999/xlink" x="0px" y="0px"
	 viewBox="0 0 350 210" style="enable-background:new 0 0 350 210;" xml:space="preserve">
<style type="text/css">
	.st0{fill:#FFFFFF;}
	.st1{fill:#FFFFFF;stroke:#FFFFFF;stroke-width:5;stroke-miterlimit:10;}
	.st2{fill:#008FD8;}
	.st3{fill:#1D4288;}
	.st4{fill:#FF687D;}
	.st5{fill-rule:evenodd;clip-rule:evenodd;}
	.st6{fill:#B2B2B2;}
	.st7{fill-rule:evenodd;clip-rule:evenodd;fill:#B2B2B2;}
	.st8{fill:#111010;}
	.st9{fill-rule:evenodd;clip-rule:evenodd;fill:#FF687D;}
	.st10{fill:none;}
	.st11{fill:#3A4348;}
	.st12{fill:#F09000;}
	.st13{fill:#2E2C27;}
	.st14{fill:#8D8D8B;}
	.st15{fill:#E5282A;}
	.st16{fill:#F3AE1C;}
	.st17{fill:#2399D4;}
	.st18{fill:#243F80;}
	.st19{fill:#C2282A;}
	.st20{fill:#2C2D3A;}
	.st21{fill:url(#SVGID_3_);}
	.st22{fill:#1680C1;}
	.st23{fill:#22B4DC;}
	.st24{fill:#32609A;}
	.st25{fill:#ACB5C5;}
	.st26{fill:#FF7400;}
	.st27{fill:#F7F7F7;}
	.st28{clip-path:url(#SVGID_5_);}
	.st29{fill-rule:evenodd;clip-rule:evenodd;fill:#FFFFFF;}
	.st30{clip-path:url(#SVGID_7_);}
	.st31{clip-path:url(#SVGID_9_);}
	.st32{clip-path:url(#SVGID_11_);fill:#FFFFFF;}
	.st33{clip-path:url(#SVGID_13_);}
	.st34{clip-path:url(#SVGID_15_);fill:#FFFFFF;}
	.st35{clip-path:url(#SVGID_17_);}
	.st36{clip-path:url(#SVGID_19_);fill:#161A42;}
	.st37{clip-path:url(#SVGID_21_);}
	.st38{clip-path:url(#SVGID_23_);}
	.st39{clip-path:url(#SVGID_27_);}
	.st40{clip-path:url(#SVGID_29_);}
	.st41{clip-path:url(#SVGID_31_);}
	.st42{clip-path:url(#SVGID_33_);}
	.st43{clip-path:url(#SVGID_35_);fill:#161A42;}
	.st44{clip-path:url(#SVGID_37_);}
	.st45{clip-path:url(#SVGID_39_);fill:#040404;}
	.st46{clip-path:url(#SVGID_41_);}
	.st47{clip-path:url(#SVGID_43_);}
	.st48{clip-path:url(#SVGID_45_);}
	.st49{clip-path:url(#SVGID_47_);}
	.st50{clip-path:url(#SVGID_49_);}
	.st51{clip-path:url(#SVGID_51_);}
	.st52{clip-path:url(#SVGID_55_);}
	.st53{clip-path:url(#SVGID_57_);}
	.st54{clip-path:url(#SVGID_59_);}
	.st55{clip-path:url(#SVGID_61_);}
	.st56{clip-path:url(#SVGID_63_);fill:#F2BD21;}
	.st57{clip-path:url(#SVGID_65_);}
	.st58{clip-path:url(#SVGID_67_);fill:#FFFFFF;}
	.st59{clip-path:url(#SVGID_69_);}
	.st60{clip-path:url(#SVGID_71_);}
	.st61{clip-path:url(#SVGID_73_);}
	.st62{clip-path:url(#SVGID_75_);}
	.st63{clip-path:url(#SVGID_77_);fill:#446AAF;}
	.st64{clip-path:url(#SVGID_79_);}
	.st65{clip-path:url(#SVGID_81_);fill:#456BB0;}
	.st66{clip-path:url(#SVGID_83_);}
	.st67{clip-path:url(#SVGID_85_);fill:#456BB0;}
	.st68{clip-path:url(#SVGID_87_);}
	.st69{clip-path:url(#SVGID_89_);fill:#456BB0;}
	.st70{clip-path:url(#SVGID_91_);}
	.st71{clip-path:url(#SVGID_93_);fill:#161A42;}
	.st72{clip-path:url(#SVGID_95_);}
	.st73{clip-path:url(#SVGID_97_);fill:#FFC634;}
	.st74{clip-path:url(#SVGID_97_);fill:#161A42;}
	.st75{clip-path:url(#SVGID_99_);}
	.st76{clip-path:url(#SVGID_101_);fill:#FFC634;}
	.st77{clip-path:url(#SVGID_101_);fill:#161A42;}
	.st78{clip-path:url(#SVGID_103_);}
	.st79{clip-path:url(#SVGID_105_);fill:#FFC634;}
	.st80{clip-path:url(#SVGID_105_);fill:#161A42;}
	.st81{clip-path:url(#SVGID_107_);}
	.st82{clip-path:url(#SVGID_109_);fill:#FFC634;}
	.st83{clip-path:url(#SVGID_109_);fill:#161A42;}
	.st84{clip-path:url(#SVGID_111_);}
	.st85{clip-path:url(#SVGID_113_);fill:#FFC634;}
	.st86{clip-path:url(#SVGID_115_);}
	.st87{clip-path:url(#SVGID_117_);fill:#FFC634;}
	.st88{clip-path:url(#SVGID_119_);}
	.st89{clip-path:url(#SVGID_121_);fill:#FFC634;}
	.st90{clip-path:url(#SVGID_123_);}
	.st91{clip-path:url(#SVGID_125_);fill:none;stroke:#ABABAB;stroke-width:0.4517;stroke-linecap:round;}
	.st92{clip-path:url(#SVGID_125_);fill:none;stroke:#161A42;stroke-width:0.4513;stroke-linecap:round;}
	.st93{clip-path:url(#SVGID_127_);}
	.st94{clip-path:url(#SVGID_131_);}
	.st95{clip-path:url(#SVGID_133_);fill:#FFFFFF;}
	.st96{clip-path:url(#SVGID_135_);fill:#FFFFFF;}
	.st97{clip-path:url(#SVGID_131_);fill:none;}
	.st98{clip-path:url(#SVGID_193_);}
	.st99{clip-path:url(#SVGID_195_);fill:#FFFFFF;}
	.st100{clip-path:url(#SVGID_197_);fill:#FFFFFF;}
	.st101{clip-path:url(#SVGID_199_);fill:#161A42;}
	.st102{clip-path:url(#SVGID_201_);}
	.st103{clip-path:url(#SVGID_205_);}
	.st104{clip-path:url(#SVGID_207_);}
	.st105{clip-path:url(#SVGID_209_);}
	.st106{clip-path:url(#SVGID_211_);fill:#071631;}
	.st107{clip-path:url(#SVGID_213_);fill:#040404;}
	.st108{clip-path:url(#SVGID_215_);}
	.st109{clip-path:url(#SVGID_217_);}
	.st110{clip-path:url(#SVGID_219_);}
	.st111{clip-path:url(#SVGID_221_);}
	.st112{clip-path:url(#SVGID_223_);}
	.st113{clip-path:url(#SVGID_227_);}
	.st114{clip-path:url(#SVGID_229_);}
	.st115{clip-path:url(#SVGID_231_);}
	.st116{clip-path:url(#SVGID_233_);fill:#F2BD21;}
	.st117{clip-path:url(#SVGID_235_);fill:#FFFFFF;}
	.st118{clip-path:url(#SVGID_237_);}
	.st119{clip-path:url(#SVGID_239_);}
	.st120{clip-path:url(#SVGID_241_);}
	.st121{clip-path:url(#SVGID_243_);fill:#F2BD21;}
	.st122{clip-path:url(#SVGID_245_);fill:#1C4222;}
	.st123{clip-path:url(#SVGID_247_);fill:#1C4222;}
	.st124{clip-path:url(#SVGID_249_);fill:#1C4222;}
	.st125{clip-path:url(#SVGID_251_);fill:#071631;}
	.st126{clip-path:url(#SVGID_253_);fill:#FFC634;}
	.st127{clip-path:url(#SVGID_253_);fill:#161A42;}
	.st128{clip-path:url(#SVGID_255_);fill:#FFC634;}
	.st129{clip-path:url(#SVGID_255_);fill:#161A42;}
	.st130{clip-path:url(#SVGID_257_);fill:#FFC634;}
	.st131{clip-path:url(#SVGID_257_);fill:#161A42;}
	.st132{clip-path:url(#SVGID_259_);fill:#FFC634;}
	.st133{clip-path:url(#SVGID_259_);fill:#161A42;}
	.st134{clip-path:url(#SVGID_261_);fill:#FFC634;}
	.st135{clip-path:url(#SVGID_263_);fill:#FFC634;}
	.st136{clip-path:url(#SVGID_265_);fill:#FFC634;}
	.st137{clip-path:url(#SVGID_267_);fill:none;stroke:#ABABAB;stroke-width:0.4475;stroke-linecap:round;}
	.st138{clip-path:url(#SVGID_267_);fill:none;stroke:#161A42;stroke-width:0.4472;stroke-linecap:round;}
	.st139{clip-path:url(#SVGID_269_);}
	.st140{clip-path:url(#SVGID_275_);}
	.st141{clip-path:url(#SVGID_277_);fill:#FFFFFF;}
	.st142{clip-path:url(#SVGID_279_);fill:#FFFFFF;}
	.st143{clip-path:url(#SVGID_281_);fill:#171B43;}
	.st144{clip-path:url(#SVGID_283_);}
	.st145{clip-path:url(#SVGID_287_);}
	.st146{clip-path:url(#SVGID_289_);}
	.st147{clip-path:url(#SVGID_291_);}
	.st148{clip-path:url(#SVGID_293_);fill:#082735;}
	.st149{clip-path:url(#SVGID_295_);fill:#030302;}
	.st150{clip-path:url(#SVGID_297_);}
	.st151{clip-path:url(#SVGID_299_);}
	.st152{clip-path:url(#SVGID_301_);}
	.st153{clip-path:url(#SVGID_303_);}
	.st154{clip-path:url(#SVGID_305_);}
	.st155{clip-path:url(#SVGID_309_);}
	.st156{clip-path:url(#SVGID_311_);}
	.st157{clip-path:url(#SVGID_313_);}
	.st158{clip-path:url(#SVGID_315_);fill:#F4BE22;}
	.st159{clip-path:url(#SVGID_317_);fill:#FFFFFF;}
	.st160{clip-path:url(#SVGID_319_);}
	.st161{clip-path:url(#SVGID_321_);}
	.st162{clip-path:url(#SVGID_323_);}
	.st163{clip-path:url(#SVGID_325_);fill:#F4BE22;}
	.st164{clip-path:url(#SVGID_327_);fill:#1B4221;}
	.st165{clip-path:url(#SVGID_329_);fill:#1B4221;}
	.st166{clip-path:url(#SVGID_331_);fill:#1B4221;}
	.st167{clip-path:url(#SVGID_333_);fill:#082735;}
	.st168{clip-path:url(#SVGID_335_);fill:#FFC733;}
	.st169{clip-path:url(#SVGID_335_);fill:#171B43;}
	.st170{clip-path:url(#SVGID_337_);fill:#FFC733;}
	.st171{clip-path:url(#SVGID_337_);fill:#171B43;}
	.st172{clip-path:url(#SVGID_339_);fill:#FFC733;}
	.st173{clip-path:url(#SVGID_339_);fill:#171B43;}
	.st174{clip-path:url(#SVGID_341_);fill:#FFC733;}
	.st175{clip-path:url(#SVGID_341_);fill:#171B43;}
	.st176{clip-path:url(#SVGID_343_);fill:#FFC733;}
	.st177{clip-path:url(#SVGID_345_);fill:#FFC733;}
	.st178{clip-path:url(#SVGID_347_);fill:#FFC733;}
	.st179{clip-path:url(#SVGID_349_);fill:none;stroke:#ABABAB;stroke-width:0.4474;stroke-linecap:round;}
	.st180{clip-path:url(#SVGID_349_);fill:none;stroke:#171B43;stroke-width:0.447;stroke-linecap:round;}
	.st181{clip-path:url(#SVGID_351_);}
	.st182{opacity:0.25;fill:url(#SVGID_356_);}
	.st183{fill:#78909C;}
	.st184{fill:#0E6C72;}
	.st185{fill:url(#SVGID_357_);}
	.st186{fill:url(#SVGID_358_);}
	.st187{fill:url(#SVGID_359_);}
	.st188{fill:url(#SVGID_360_);}
	.st189{fill:url(#SVGID_361_);}
	.st190{fill:url(#SVGID_362_);}
	.st191{fill:url(#SVGID_363_);}
	.st192{fill:url(#SVGID_364_);}
	.st193{fill:url(#SVGID_365_);}
	.st194{fill:url(#SVGID_366_);}
	.st195{fill:url(#SVGID_367_);}
	.st196{fill:url(#SVGID_368_);}
	.st197{fill:url(#SVGID_369_);}
	.st198{fill:url(#SVGID_370_);}
	.st199{fill:url(#SVGID_371_);}
	.st200{fill:url(#SVGID_372_);}
	.st201{fill:url(#SVGID_373_);}
	.st202{fill:url(#SVGID_374_);}
	.st203{fill:url(#SVGID_377_);}
	.st204{fill:url(#SVGID_380_);}
	.st205{clip-path:url(#SVGID_384_);fill:url(#SVGID_385_);}
	.st206{clip-path:url(#SVGID_384_);fill:url(#SVGID_386_);}
	.st207{fill:none;stroke:#FFFFFF;stroke-miterlimit:10;}
	.st208{clip-path:url(#SVGID_390_);fill:url(#SVGID_391_);}
	.st209{clip-path:url(#SVGID_390_);fill:url(#SVGID_392_);}
	.st210{fill:none;stroke:#000000;stroke-width:6;stroke-miterlimit:10;}
	.st211{fill:none;stroke:#000000;stroke-miterlimit:10;}
	.st212{fill:#EDEDED;}
	.st213{fill:#FF9900;}
	.st214{stroke:#FFFFFF;stroke-width:0.45;stroke-miterlimit:10;}
</style>
<rect x="2.8" y="4" class="st211" width="343.5" height="202"/>
<g>
	<g>
		<path class="st214" d="M202.8,68c1.6,2.7,3.2,5.4,4.7,8.2c1.9,3.2,3.7,6.5,5.6,9.7c1.1,2,1.2,3.9,0,5.9
			c-5.5,9.6-11,19.2-16.5,28.8c-1.1,1.9-2.6,2.9-4.8,2.9c-4.3,0-8.5,0-12.8,0c0.3-1.1,1-1.9,1.5-2.8c1.1-2,2.2-3.9,3.4-5.9
			c1-1.7,2-3.4,2.9-5.2c0.2,0,0.3-0.2,0.4-0.4c3.8-6.7,7.7-13.3,11.5-20c0.2-0.3,0.2-0.6,0-0.9c-1.9-3.2-3.7-6.4-5.5-9.6
			c-2-3.6-4.1-7.1-6.1-10.7c0.3,0,0.6,0,0.9,0C192.9,68,197.9,68,202.8,68z"/>
		<path class="st214" d="M186.8,109.6c-0.9,1.8-1.9,3.4-2.9,5.2c-1.1,2-2.3,3.9-3.4,5.9c-0.5,0.9-1.3,1.7-1.5,2.8
			c-0.3,0-0.6,0.1-0.9,0.1c-6.4,0-12.9,0-19.3,0c-2.6,0-4.5-1-5.8-3.4c-5.3-9.3-10.6-18.6-16-27.9c-1.3-2.3-1.5-4.4-0.1-6.7
			c2-3.3,3.9-6.7,5.8-10.1c0.1-0.2,0.2-0.3,0.3-0.5c0.8,1.4,1.6,2.8,2.4,4.1c1.8,3.2,3.7,6.4,5.5,9.5c0,0.1,0,0.2,0.1,0.3
			c3.8,6.7,7.7,13.3,11.5,20c0.3,0.5,0.6,0.6,1.1,0.6c7,0,14,0,21,0C185.4,109.6,186.1,109.6,186.8,109.6z"/>
		<path class="st214" d="M151,88.7c-1.8-3.2-3.7-6.4-5.5-9.5c-0.8-1.4-1.6-2.7-2.4-4.1c0.9-1.9,2.1-3.7,3.1-5.5
			c2.4-4.2,4.8-8.4,7.3-12.6c1-1.8,2.6-2.7,4.7-2.7c11.2,0,22.4,0,33.7,0c2.1,0,3.6,0.9,4.7,2.7c2,3.5,4,7,6,10.5
			c0.1,0.2,0.2,0.4,0.3,0.6c-5,0-9.9,0-14.9,0c-0.3,0-0.6,0-0.9,0c-0.1,0-0.3-0.1-0.4-0.1c-7.7,0-15.4,0-23.1,0
			c-0.5,0-0.7,0.2-0.9,0.6c-3,5.1-5.9,10.3-8.9,15.4C152.8,85.5,151.9,87.1,151,88.7z"/>
		<path d="M96.3,143.2c0.9,0,1.9,0,2.8,0c0.5,0,0.7,0.2,0.7,0.7c0.1,3.3-1.2,5.7-3.8,6.9c-2.7,1.3-6.3,0.7-8.5-1.3
			c-3.1-2.8-3.4-7.3-0.7-10.5c2.6-3.1,7.3-3.6,10.5-1.2c0.5,0.4,0.6,0.6,0.1,1.1c-0.9,0.8-0.9,0.8-1.9,0.2c-1.9-1.1-4.5-1-6.2,0.4
			c-1.8,1.5-2.5,3.9-1.7,6.2c0.8,2.2,2.7,3.6,5.1,3.6c2.5,0,4.3-1.3,4.8-3.5c0.1-0.5,0-0.6-0.5-0.6c-1.3,0-2.6,0-3.8,0
			c-0.4,0-0.6-0.1-0.6-0.6c0-1.5,0-1.5,1.5-1.5C94.9,143.2,95.6,143.2,96.3,143.2z"/>
		<path d="M129.2,142.7c-0.1-0.7,0.3-0.7,0.8-0.7c1.3,0,1.3,0,1.3,1.3c0,2.6,0,5.2,0,7.8c0,2.4-1.2,4.1-3.3,4.6
			c-2.2,0.6-4.3-0.3-5.4-2.1c-0.3-0.4-0.3-0.7,0.3-0.9c0.1,0,0.1,0,0.2-0.1c0.7-0.4,1.2-0.5,1.7,0.4c0.6,0.9,1.6,1.1,2.7,0.8
			c1-0.3,1.5-1,1.7-2c0.1-0.4,0.2-0.8,0-1.3c-1,0.9-2.2,1.2-3.5,0.9c-1.1-0.2-2.1-0.9-2.8-1.8c-1.4-1.9-1.3-4.6,0.3-6.3
			C124.8,141.5,126.9,141.2,129.2,142.7z M124.1,146.6c0,0.1,0,0.2,0,0.4c0.2,1.2,0.8,2.1,2.1,2.5c1,0.3,1.8-0.1,2.4-0.8
			c0.8-0.9,0.9-2,0.6-3.2c-0.4-1.3-1.6-2-2.8-1.9C125.1,143.9,124.1,145.2,124.1,146.6z"/>
		<path d="M252.9,143.2c1.9-2,4.4-1.8,5.7,0.2c0.6-0.8,1.4-1.4,2.4-1.6c1.9-0.4,3.5,0.7,3.8,2.6c0.3,2.1,0.1,4.3,0.1,6.4
			c0,0.2-0.1,0.3-0.3,0.4c-1.3,0.2-1.5,0.1-1.5-1.3c0-1.3,0-2.6,0-4c0-1.8-0.5-2.5-1.8-2.6c-1.3,0-2.4,1.2-2.4,2.7c0,1.5,0,3,0,4.5
			c0,0.5-0.1,0.8-0.7,0.7c-0.1,0-0.3,0-0.4,0c-0.5,0.1-0.7-0.1-0.7-0.6c0-1.4,0-2.9,0-4.3c0-0.4,0-0.8-0.1-1.2
			c-0.1-0.7-0.4-1.3-1.2-1.5c-0.8-0.2-1.5,0-2.1,0.6c-0.6,0.6-0.9,1.4-0.9,2.2c0,1.4,0,2.8,0,4.2c0,0.6-0.2,0.8-0.8,0.7
			c-0.1,0-0.3,0-0.4,0c-0.5,0.1-0.6-0.1-0.6-0.6c0-2.6,0-5.1,0-7.7c0-0.7,0.2-0.9,0.9-0.9c0.6,0,1,0.1,0.8,0.8
			C252.8,143,252.8,143,252.9,143.2z"/>
		<path d="M193,150.1c-1.4,1.4-2.9,1.8-4.6,1c-1.8-0.8-2.6-2.3-2.7-4.2c-0.1-1.7,0.4-3.1,1.7-4.2c1.7-1.4,3.9-1.3,5.7,0.4
			c0-1.5,0-2.9,0-4.3c0-0.3-0.2-0.8,0.1-0.9c0.4-0.2,0.9-0.1,1.4,0c0.3,0,0.2,0.4,0.2,0.6c0,2.9,0,5.7,0,8.6c0,1.2,0,2.3,0,3.5
			c0,0.5-0.1,0.6-0.6,0.6C193.1,151.2,193.1,151.2,193,150.1z M187.4,146.6c0,1.5,0.7,2.7,2,3.1c1.5,0.5,3-0.3,3.6-1.8
			c0.6-1.8-0.2-3.8-1.8-4.4C189.2,142.9,187.4,144.4,187.4,146.6z"/>
		<path d="M105.5,151.5c-2.8,0-4.9-2.1-4.9-4.8c0-2.8,2.1-5,4.9-5c2.8,0,4.9,2.1,4.9,4.9C110.4,149.4,108.3,151.5,105.5,151.5z
			 M105.5,143.7c-1.6,0-2.8,1.2-2.8,2.9c0,1.6,1.2,3,2.7,3c1.5,0,2.8-1.3,2.8-2.9C108.2,145,107,143.7,105.5,143.7z"/>
		<path d="M116.1,151.5c-2.8,0-4.9-2.1-4.9-5c0-2.7,2.2-4.9,4.9-4.9c2.8,0,4.9,2.2,4.9,5C121,149.4,118.9,151.5,116.1,151.5z
			 M118.9,146.6c0-1.6-1.2-2.9-2.7-2.9c-1.5,0-2.7,1.3-2.8,2.9c0,1.6,1.2,2.9,2.7,3C117.6,149.6,118.9,148.2,118.9,146.6z"/>
		<path d="M140.8,151.5c-2.6,0-4.7-2-4.8-4.6c-0.2-2.8,1.6-5,4.2-5.2c2.4-0.2,4,1.4,4.7,3.4c0.1,0.4-0.2,0.4-0.4,0.5
			c-1.8,0.7-3.6,1.5-5.4,2.2c-0.6,0.2-0.6,0.4-0.2,0.8c0.9,1.1,2.8,1.2,3.8,0.1c0.5-0.5,0.8-0.4,1.2-0.1c1.1,0.8,1.1,0.8,0,1.7
			C143.1,151.1,142,151.5,140.8,151.5z M138.1,146.4c1.3-0.5,2.5-1,3.6-1.5c0.2-0.1,0.5-0.1,0.6-0.4c0-0.3-0.3-0.5-0.5-0.6
			c-0.8-0.4-1.5-0.4-2.3,0C138.6,144.5,138.1,145.3,138.1,146.4z"/>
		<path d="M156,151.5c-3,0-5.5-1.7-6.5-4.4c-1-2.9-0.2-6.1,2.1-7.9c2.2-1.8,5.5-2,7.8-0.6c0.2,0.1,0.5,0.3,0.7,0.5
			c0.9,0.7,0.9,0.8,0,1.6c-0.2,0.2-0.4,0.4-0.7,0c-1.5-1.5-3.3-1.7-5.2-1c-1.9,0.7-3,2.2-3.2,4.1c-0.4,3.5,1.8,5.9,4.8,6
			c1.5,0.1,2.8-0.4,3.9-1.5c0.4-0.4,0.6-0.3,0.9,0c0.8,0.8,0.8,0.8,0,1.6C159.3,151,157.7,151.5,156,151.5z"/>
		<path d="M199.4,144.6c0-2,0-4,0-6.1c0-0.5,0.1-0.6,0.6-0.6c1.3,0,2.7,0,4,0c2.3,0,4,1.8,4,4c0,2.2-1.8,3.9-4.1,3.9
			c-0.7,0-1.4,0-2.2,0c-0.5,0-0.7,0.1-0.7,0.7c0,1.3,0,2.7,0,4c0,0.6-0.2,0.7-0.7,0.7c-0.2,0-0.3,0-0.5,0c-0.4,0.1-0.6-0.1-0.6-0.6
			C199.4,148.6,199.4,146.6,199.4,144.6z M201.2,141.9C201.1,141.9,201.1,141.9,201.2,141.9c-0.1,0.6,0,1.3-0.1,1.9
			c0,0.3,0.1,0.4,0.4,0.4c0.9,0,1.8,0,2.7,0c1.6-0.1,2.5-1.9,1.7-3.4c-0.6-1-1.5-1.2-2.6-1.2c-0.7,0.1-1.7-0.3-2.1,0.2
			C200.9,140.2,201.2,141.1,201.2,141.9z"/>
		<path d="M218.7,150.1c-0.9,1.1-2.1,1.5-3.4,1.4c-1.5-0.1-2.7-1.2-2.9-2.5c-0.2-1.5,0.6-2.8,2.1-3.4c1.2-0.4,2.5-0.4,3.7,0
			c0.5,0.2,0.6,0,0.5-0.4c-0.2-0.9-0.8-1.4-1.6-1.6c-1-0.3-1.9,0-2.6,0.8c-0.1,0.1-0.2,0.5-0.5,0.3c-0.4-0.2-0.9-0.3-1.3-0.6
			c-0.1-0.1,0.1-0.3,0.2-0.5c0.8-1.4,2.8-2.1,4.7-1.6c1.6,0.4,2.7,1.7,2.7,3.4c0,1.8,0,3.6,0,5.3c0,0.4-0.1,0.6-0.5,0.5
			c-0.2,0-0.3,0-0.5,0c-0.6,0.1-0.8-0.1-0.7-0.7C218.8,150.4,218.8,150.3,218.7,150.1z M216.7,146.7c-0.8,0-1.4,0.2-1.8,0.5
			c-0.5,0.4-0.8,0.8-0.7,1.4c0.1,0.6,0.5,1,1,1.2c1.2,0.4,2.6-0.2,3.3-1.3c0.5-0.9,0.4-1.3-0.7-1.6
			C217.5,146.8,217.1,146.7,216.7,146.7z"/>
		<path d="M238.6,151.5c-2.7,0-4.7-2-4.7-4.8c0-2.9,1.9-4.9,4.7-4.9c2.7,0,4.7,2.1,4.7,4.8C243.3,149.4,241.3,151.5,238.6,151.5z
			 M238.6,149.9c1.7,0,3-1.4,3-3.2c0-1.8-1.3-3.3-3-3.3c-1.6,0-2.9,1.4-2.9,3.2C235.6,148.5,236.9,149.9,238.6,149.9z"/>
		<path d="M170.3,151.5c-2.7,0-4.7-2-4.7-4.8c0-2.8,2-4.9,4.7-4.9c2.7,0,4.7,2,4.7,4.8C175,149.5,173,151.5,170.3,151.5z
			 M173.2,146.7c0-1.9-1.3-3.3-2.9-3.3c-1.6,0-3,1.5-3,3.3c0,1.8,1.3,3.3,3,3.2C171.9,149.9,173.2,148.5,173.2,146.7z"/>
		<path d="M182.6,150c-1.1,1.3-2.4,1.7-3.9,1.4c-1.4-0.3-2.4-1.4-2.4-2.9c-0.1-2,0-3.9-0.1-5.9c0-0.3,0.1-0.4,0.4-0.4
			c1.3-0.1,1.3-0.1,1.3,1.2c0,1.4,0,2.7,0,4.1c0,1.6,0.7,2.5,2.1,2.5c1.3,0,2.4-0.9,2.5-2.4c0.1-1.5,0.1-3.1,0-4.6
			c0-0.8,0.4-0.8,1-0.8c0.6,0,0.9,0.1,0.9,0.8c0,2.5,0,5,0,7.5c0,0.6-0.1,0.9-0.7,0.8c-0.5-0.1-1.1,0.2-1-0.7
			C182.6,150.4,182.6,150.3,182.6,150z"/>
		<path d="M229.4,147.4c0-0.9,0-1.9,0-2.8c0-0.9,0-1-0.9-0.9c-0.7,0-0.8-0.2-0.8-0.8c0-0.6,0.2-0.8,0.8-0.8c1.1,0,1,0.1,0.9-0.9
			c-0.2-2.2,1.5-3.6,4.1-3.2c0.4,0.1,0.5,0.2,0.3,0.7c-0.2,0.6-0.4,1-1.3,0.9c-0.9-0.1-1.4,0.5-1.4,1.3c0,0.2,0,0.5,0,0.7
			c-0.1,0.5,0.2,0.6,0.6,0.5c0.3,0,0.5,0,0.8,0c0.9,0,1.2,0.5,1,1.4c-0.1,0.2-0.2,0.2-0.4,0.2c-0.5,0-0.9,0-1.4,0
			c-0.4,0-0.6,0.1-0.6,0.6c0,2.1,0,4.1,0,6.2c0,0.8-0.4,0.7-0.9,0.7c-0.5,0-0.9,0-0.9-0.7C229.5,149.5,229.4,148.5,229.4,147.4z"/>
		<path d="M134.9,144.1c0,2.2,0,4.3,0,6.5c0,0.5-0.1,0.6-0.6,0.6c-1.5,0-1.5,0-1.5-1.5c0-4,0-8.1,0-12.1c0-0.6,0.1-0.7,0.7-0.7
			c1.5,0,1.5,0,1.5,1.5C134.9,140.2,134.9,142.1,134.9,144.1z"/>
		<path d="M222.9,146.5c0-0.7,0-1.5,0-2.2c0-0.5-0.2-0.6-0.6-0.6c-1,0-1.2-0.3-1-1.3c0.1-0.4,0.4-0.3,0.6-0.3c1,0,1,0,1-1
			c0-0.2,0-0.4,0-0.6c0-1.1,0.3-1.3,1.5-1.1c0.3,0.1,0.3,0.3,0.3,0.5c0,0.6,0,1.2,0,1.8c0,0.4,0.1,0.5,0.5,0.5c0.3,0,0.6,0,0.9,0
			c0.7-0.1,0.9,0.2,0.9,0.9c0,0.8-0.4,0.8-0.9,0.8c-1.3,0-1.3,0-1.3,1.3c0,1.1,0,2.2,0,3.2c0,1.2,0.5,1.6,1.7,1.4
			c0.6-0.1,0.5,0.4,0.6,0.6c0.4,0.9,0.4,1-0.6,1c-2.3,0.1-3.4-0.8-3.4-3.1C222.9,147.6,222.9,147.1,222.9,146.5z"/>
		<path d="M209.2,144.5c0-2,0-4,0-6c0-0.5,0.1-0.7,0.6-0.7c0.2,0,0.3,0,0.5,0c0.5-0.1,0.7,0.1,0.6,0.6c0,4,0,8,0,12
			c0,0.5-0.1,0.7-0.6,0.6c-0.2,0-0.4,0-0.6,0c-0.5,0.1-0.6-0.1-0.6-0.6C209.2,148.6,209.2,146.6,209.2,144.5z"/>
		<path d="M164.4,144.6c0,2,0,3.9,0,5.9c0,0.5-0.1,0.8-0.7,0.7c-0.1,0-0.3,0-0.4,0c-0.5,0.1-0.7-0.1-0.6-0.6c0-2.2,0-4.5,0-6.7
			c0-1.8,0-3.5,0-5.3c0-0.5,0.1-0.8,0.7-0.7c0.1,0,0.3,0,0.4,0c0.5-0.1,0.7,0.1,0.6,0.6C164.4,140.6,164.4,142.6,164.4,144.6z"/>
		<path d="M246.4,143.3c0.8-1,1.9-1.5,3.2-1.3c0.5,0.1,0.7,0.2,0.5,0.8c-0.3,0.7-0.5,1.1-1.4,1c-1.3-0.1-2.3,1-2.3,2.5
			c0,1.5,0,2.9,0,4.4c0,0.5-0.2,0.6-0.6,0.6c-1.1,0-1.1,0-1.1-1.1c0-2,0-4,0-6c0-0.3,0-0.6,0-0.9c0-1.2-0.2-1,1.1-1.1
			C246.7,142,246.1,142.8,246.4,143.3z"/>
		<path class="st214" d="M151,88.7c0.9-1.6,1.8-3.2,2.7-4.7c3-5.1,5.9-10.3,8.9-15.4c0.2-0.3,0.4-0.6,0.9-0.6c7.7,0,15.4,0,23.1,0
			c0.1,0,0.3,0,0.4,0.1c2,3.6,4.1,7.1,6.1,10.7c1.8,3.2,3.7,6.4,5.5,9.6c0.2,0.3,0.2,0.6,0,0.9c-3.8,6.7-7.7,13.3-11.5,20
			c-0.1,0.2-0.2,0.4-0.4,0.4c-0.7,0-1.3,0-2,0c-7,0-14,0-21,0c-0.6,0-0.9-0.2-1.1-0.6c-3.8-6.7-7.7-13.4-11.5-20
			C151,88.8,151,88.7,151,88.7z M185.1,89.1c0.2-6-4.7-10.6-10.3-10.6c-5.6,0-10.4,4.4-10.4,10.6c0,5.1,4.7,9.9,9.9,10.1
			C180.4,99.5,185.3,94.1,185.1,89.1z"/>
	</g>
	<circle class="st0" cx="159" cy="61.3" r="1.8"/>
	<circle class="st0" cx="143.7" cy="89" r="1.8"/>
	<circle class="st0" cx="206.3" cy="89" r="1.8"/>
	<circle class="st0" cx="191" cy="61.3" r="1.8"/>
	<circle class="st0" cx="159" cy="116" r="1.8"/>
	<circle class="st0" cx="191" cy="116" r="1.8"/>
</g>
</svg>
