<svg xmlns="http://www.w3.org/2000/svg" xmlns:xlink="http://www.w3.org/1999/xlink" id="Layer_1" x="0px" y="0px" viewBox="0 0 270 270" style="enable-background:new 0 0 270 270;" xml:space="preserve"><style type="text/css">	.st0{fill:#FFFFFF;stroke:#FFFFFF;stroke-width:5;stroke-miterlimit:10;}	.st1{fill:#0091DA;}	.st2{fill:#1D428A;}	.st3{fill:#FF687D;}	.st4{fill-rule:evenodd;clip-rule:evenodd;}	.st5{fill:#B2B2B2;}	.st6{fill-rule:evenodd;clip-rule:evenodd;fill:#B2B2B2;}	.st7{fill:#111010;}	.st8{fill-rule:evenodd;clip-rule:evenodd;fill:#FF687D;}	.st9{fill:none;}	.st10{fill:#FFFFFF;}	.st11{fill:#3A4348;}	.st12{fill:#F29200;}	.st13{fill:#2E2C27;}	.st14{fill:#8F8F8D;}	.st15{fill:#E7282A;}	.st16{fill:#F5B01C;}	.st17{fill:#239BD6;}	.st18{fill:#243F82;}	.st19{fill:#C4282A;}	.st20{fill:#2C2D3A;}	.st21{fill:url(#SVGID_1_);}	.st22{fill:#1680C3;}	.st23{fill:#22B6DE;}	.st24{fill:#32609C;}	.st25{fill:#AEB7C7;}	.st26{fill:none;stroke:#000000;stroke-width:4;stroke-miterlimit:10;}</style><g>	<path d="M66,98.6c-0.8-0.5-1.5-1.2-2.3-1.7c-2-1.2-4.1-2-6.4-2.2c-3.2-0.3-6.3,0.3-9.1,1.9c-2.8,1.7-4.9,4-6.2,7  c-1.6,3.6-1.7,7.3-0.4,10.9c1.3,3.7,3.7,6.5,7.3,8.3c0.1,0.1,0.2,0.2,0.4,0.3c0,0-0.1,0.1-0.1,0.1c-2.6-1.1-4.7-2.9-6.4-5.2  c-1.3-1.8-2.1-3.8-2.5-6c0-0.1-0.1-0.1-0.1-0.2c0-1.8,0-3.7,0-5.5c0.4-1.1,0.6-2.3,1.1-3.4c1.9-4.1,4.9-6.9,9.1-8.3  c3.2-1.1,6.4-1.1,9.6-0.1c2.3,0.7,4.3,2,6.1,3.6c0.1,0.1,0.1,0.2,0.1,0.2C66.1,98.5,66,98.5,66,98.6z"></path>	<path d="M204.5,124.6c0-6.5,0-13,0-19.6c0-0.5,0.1-0.6,0.6-0.6c7.3,0,14.7,0,22,0c0.6,0,1.2,0,1.8,0c0.4,0,0.7,0.1,0.7,0.7  c-0.1,0.9-0.1,1.8,0,2.7c0,0.4-0.1,0.5-0.5,0.5c-6.5,0-12.9,0-19.4,0c-0.6,0-0.8,0.1-0.8,0.8c0,4.3,0,8.5,0,12.8  c0,0.5,0.1,0.6,0.6,0.6c5.5,0,10.9,0,16.4,0c0.6,0,0.8,0.1,0.7,0.7c-0.1,0.9,0,1.8,0,2.7c0,0.4-0.1,0.5-0.5,0.5c-5.5,0-11,0-16.5,0  c-0.5,0-0.7,0.1-0.7,0.7c0,4.4,0,8.8,0,13.2c0,0.5,0.2,0.6,0.7,0.6c6.5,0,13,0,19.5,0c0.5,0,0.7,0.1,0.7,0.6  c-0.1,0.8-0.1,1.7,0,2.5c0,0.6-0.1,0.8-0.7,0.8c-6.5,0-13,0-19.6,0c-1.4,0-2.8,0-4.3,0c-0.5,0-0.5-0.2-0.5-0.6  C204.5,137.6,204.5,131.1,204.5,124.6C204.5,124.6,204.5,124.6,204.5,124.6z"></path>	<path d="M132.3,144.7c0.5-1.4,1-2.7,1.5-4c1-2.8,2.1-5.6,3.1-8.4c0.9-2.3,1.7-4.7,2.6-7c0.9-2.3,1.7-4.7,2.6-7  c0.9-2.4,1.8-4.9,2.7-7.3c0.8-2.1,1.5-4.1,2.3-6.2c0.1-0.2,0.2-0.4,0.4-0.4c1,0,2,0,3.1,0c0.3,0,0.4,0.1,0.5,0.4  c1,2.9,2.1,5.7,3.1,8.6c1.3,3.4,2.5,6.9,3.8,10.3c1.2,3.1,2.3,6.3,3.5,9.4c1.4,3.7,2.7,7.5,4.1,11.2c0.1,0.3,0.1,0.4-0.3,0.4  c-1.3,0-2.6,0-3.9,0c-0.3,0-0.3-0.1-0.4-0.3c-1-2.7-1.9-5.5-2.8-8.2c-0.1-0.4-0.3-0.7-0.9-0.7c-5.4,0-10.9,0-16.3,0  c-0.5,0-0.7,0.2-0.9,0.6c-0.9,2.8-1.9,5.5-2.9,8.2c-0.1,0.2-0.2,0.3-0.4,0.3C135.2,144.7,133.8,144.7,132.3,144.7z M149,110.6  c-2.5,7.1-5,14.2-7.6,21.2c5,0,10,0,15,0C154,124.8,151.5,117.7,149,110.6z"></path>	<path d="M91.2,108.5c-0.9,0.8-1.7,1.7-2.5,2.5c-0.3,0.3-0.4,0.2-0.7,0c-1.5-1.3-3.1-2.3-5-2.7c-2.8-0.6-5.6-0.8-8.3,0.4  c-3.1,1.3-4.4,4.4-4.2,7.4c0.2,3,2.2,4.6,4.8,5.5c2,0.7,4.1,0.8,6.2,1.2c2,0.3,4,0.6,5.8,1.5c3,1.5,4.8,3.9,5.3,7.1  c0.5,2.8,0.2,5.5-1.3,8c-1.1,1.8-2.7,3.1-4.6,4.1c-2.9,1.4-5.9,1.7-9.1,1.6c-2.3-0.1-4.5-0.4-6.6-1.2c-2.2-0.9-4.2-2.2-5.8-3.9  c-0.2-0.2-0.2-0.3,0-0.5c0.8-0.8,1.6-1.6,2.4-2.4c0.3-0.3,0.4-0.2,0.6,0c1.1,1.1,2.3,2.1,3.8,2.7c4,1.8,8.1,2,12.2,0.4  c2.8-1.1,4.4-3.8,4.2-6.8c-0.1-2.4-0.9-4.4-3.1-5.6c-1.2-0.7-2.6-0.8-4-1.1c-2.4-0.4-4.8-0.6-7.1-1.2c-2.6-0.7-4.9-1.8-6.5-4.1  c-0.9-1.3-1.4-2.9-1.6-4.5c-0.2-2.5,0-4.8,1.2-7c1.4-2.6,3.6-4.3,6.4-5.1c4.2-1.2,8.4-1.1,12.6,0.5  C88.3,106.1,89.8,107.2,91.2,108.5z"></path>	<path d="M104.7,124.5c0,2.6,0,5.2,0.3,7.8c0.3,2.8,1.3,5.3,3.7,7c2.1,1.5,4.5,2.1,7.1,1.8c3.2-0.4,5.7-2,7.3-4.9  c0.4-0.8,0.8-1.6,1-2.5c0.1-0.4,0.2-0.6,0.7-0.6c1.1,0,2.2,0,3.3,0c0.3,0,0.5,0,0.4,0.5c-0.7,3.6-2.4,6.7-5.4,8.9  c-2.2,1.6-4.7,2.4-7.5,2.6c-3.3,0.2-6.4-0.5-9.1-2.3c-3.5-2.3-5.5-5.5-5.8-9.7c-0.4-4.2-0.2-8.3-0.2-12.5c0-1.9,0.1-3.7,0.4-5.6  c0.6-4.2,3.1-7.2,6.7-9.2c2.5-1.4,5.1-1.8,7.9-1.7c4.7,0.3,8.5,2.2,11,6.3c1,1.6,1.7,3.4,2,5.3c0.1,0.4,0,0.4-0.3,0.4  c-1.2,0-2.5,0-3.7,0c-0.3,0-0.4-0.1-0.5-0.4c-0.4-1.7-1.1-3.3-2.3-4.6c-1.5-1.7-3.4-2.7-5.6-3c-2.7-0.4-5.2,0.2-7.4,1.8  c-2,1.5-3.2,3.5-3.5,6C104.7,118.7,104.7,121.6,104.7,124.5z"></path>	<path d="M172.1,124.5c0-6.5,0-13,0-19.5c0-0.5,0.1-0.6,0.6-0.6c1.1,0,2.2,0,3.3,0c0.5,0,0.5,0.3,0.5,0.7c0,7.2,0,14.3,0,21.5  c0,4.6,0,9.1,0,13.7c0,0.4,0,0.6,0.6,0.6c6.5,0,13,0,19.5,0c0.5,0,0.6,0.1,0.6,0.6c-0.1,0.9,0,1.8,0,2.7c0,0.4-0.1,0.6-0.6,0.6  c-7.4,0-14.7,0-22.1,0c-0.6,0-1.1,0-1.7,0c-0.5,0-0.6-0.1-0.6-0.6c0-6.3,0-12.5,0-18.8C172.1,125.1,172.1,124.8,172.1,124.5  C172.1,124.5,172.1,124.5,172.1,124.5z"></path>	<path d="M205.4,171.1c0-6.3,0-12.3,0-18.4c0-1.2,0-1.2,1.2-1.2c1.5,0,1.5,0,1.5,1.5c0,7.4,0,14.9,0,22.3c0,0.6-0.2,0.7-0.8,0.8  c-1.3,0.2-2.1-0.3-2.8-1.5c-2.3-3.7-4.7-7.2-7.1-10.8c-1.6-2.4-3.2-4.8-4.9-7.4c0,1.7,0,3.2,0,4.7c0,4.7,0,9.5,0,14.2  c0,0.5-0.1,0.7-0.7,0.7c-0.6-0.1-1.5,0.3-1.9-0.2c-0.4-0.4-0.1-1.2-0.1-1.8c0-7.3,0-14.5,0-21.8c0-0.6,0.2-0.7,0.8-0.8  c1.3-0.1,2,0.3,2.7,1.4c1.9,3.1,4,6.2,6.1,9.2c1.9,2.9,3.9,5.8,5.8,8.7C205.2,170.9,205.2,171,205.4,171.1z"></path>	<path d="M89,163.4c0,2.2,0,4.2-0.2,6.1c-0.3,2.5-1.6,4.3-3.7,5.6c-1.1,0.7-2.3,1.1-3.6,1c-0.8-0.1-1.6-0.1-2.4,0  c-1.7,0.1-3.1-0.7-4.4-1.7c-2-1.6-2.8-3.7-2.9-6.2c-0.1-2.9-0.1-5.9,0-8.8c0.1-2.2,0.7-4.2,2.4-5.7c2.1-1.9,4.5-2.7,7.3-2.3  c3,0.4,5.2,1.8,6.6,4.4c0.5,1,0.7,2,0.8,3.1C89,160.5,89,162.1,89,163.4z M74.3,165.4c0.1,1,0,2.1,0.2,3.2c0.2,1.7,0.8,3.1,2.1,4.2  c2.4,2,6.5,1.6,8.4-0.9c0.9-1.1,1.2-2.4,1.2-3.7c0.2-3.1,0.2-6.2-0.1-9.3c-0.3-3.4-3.7-5.5-6.5-5.1c-2.7,0.4-4.8,2.4-5,5.2  C74.3,161.1,74.3,163.2,74.3,165.4z"></path>	<path d="M183.3,163.6c0,2.2,0.1,4.3-0.3,6.3c-0.4,2.9-3,5.7-5.9,6.2c-1.2,0.2-2.4-0.1-3.6,0.1c-3.1,0.4-6.9-3-7.3-6.1  c-0.3-2.2-0.3-4.5-0.3-6.7c0-1.6,0-3.2,0.2-4.8c0.3-3.3,2.2-5.4,5.2-6.6c2.4-1,4.8-0.9,7.1,0.2c2.5,1.2,4.2,3.1,4.6,6  C183.4,160,183.3,161.9,183.3,163.6z M168.7,163.7c0.1,1.6,0,3.2,0.2,4.7c0.2,2.1,1,3.6,2.8,4.7c3.4,2.1,8.3,0.1,8.8-4.1  c0.3-2.7,0.3-5.5,0.2-8.3c-0.1-1.3-0.1-2.6-0.6-3.8c-0.9-1.9-2.5-3-4.6-3.3c-2.8-0.5-5.9,1.6-6.4,4.4  C168.7,160.1,168.8,162,168.7,163.7z"></path>	<path d="M131.2,160.5c0,2.5,0,5,0,7.5c0,2.2-0.6,4.2-2.2,5.8c-1.3,1.4-2.9,2.4-4.9,2.3c-0.9,0-1.9-0.1-2.8,0  c-1.6,0.1-3-0.5-4.2-1.5c-2.1-1.6-3-3.7-3.1-6.3c0-5.3,0-10.7,0-16c0-0.8,0-0.8,0.9-0.8c0.4,0,0.7,0,1.1,0c0.5,0,0.7,0.1,0.7,0.7  c0,1.6,0,3.3,0,4.9c0,3.7,0,7.3,0,11c0,2.5,1.3,4.7,3.6,5.5c3.9,1.4,8.3-0.5,8.4-5.5c0.1-5.2,0-10.5,0-15.7c0-0.7,0.2-0.9,0.8-0.8  c0.4,0,0.8,0,1.2,0c0.5,0,0.6,0.2,0.6,0.6C131.2,154.9,131.2,157.7,131.2,160.5z"></path>	<path d="M58,176.1c-1.2-0.1-2.7,0.2-4.1-0.3c-1.4-0.5-2.6-1.3-3.7-2.3c-0.2-0.2-0.3-0.4,0-0.6c0.4-0.4,0.9-0.9,1.3-1.3  c0.2-0.2,0.4-0.2,0.5,0c2.1,2.1,4.8,2.7,7.6,2.4c1.7-0.2,3.2-0.7,4.1-2.4c1.1-2.2,0.7-5.8-3.2-6.3c-1.7-0.2-3.5-0.4-5.2-0.9  c-2.1-0.6-3.8-1.7-4.5-3.9c-0.7-2.5-0.4-4.9,1.4-6.9c1.1-1.3,2.7-1.9,4.3-2.1c2-0.3,4-0.2,5.9,0.5c1.1,0.4,2.1,1,3,1.7  c0.3,0.3,0.3,0.5,0,0.7c-0.4,0.4-0.8,1-1.3,1.2c-0.5,0.2-0.9-0.6-1.4-0.8c-2.5-1.4-5-1.7-7.6-0.3c-2.3,1.2-2.8,4.9-0.9,6.6  c0.9,0.8,2,1.1,3.1,1.3c1.7,0.3,3.5,0.4,5.2,1c2.2,0.7,3.6,2.2,4.1,4.5c0.5,2.5,0.1,4.7-1.8,6.5c-1.3,1.2-2.8,1.9-4.6,1.9  C59.6,176.1,58.9,176.1,58,176.1z"></path>	<path d="M221.1,176.1c-1.3-0.1-2.7,0.2-4.2-0.4c-1.4-0.5-2.5-1.3-3.6-2.3c-0.2-0.2-0.3-0.4,0-0.6c0.5-0.4,0.9-1.2,1.4-1.3  c0.6-0.2,1,0.7,1.5,1c2.8,1.8,5.7,2,8.7,0.8c2.8-1.2,3.1-4.7,1.6-6.6c-0.7-0.9-1.7-1.2-2.8-1.4c-1.7-0.3-3.3-0.5-5-0.9  c-4.1-1-5.6-4.2-4.8-7.9c0.7-3.2,3.2-4.7,6-5.1c2-0.3,4.1-0.1,6,0.6c1,0.4,1.8,1,2.7,1.6c0.3,0.2,0.4,0.4,0,0.7  c-0.4,0.4-0.8,1-1.3,1.2c-0.5,0.2-0.9-0.5-1.4-0.8c-2.3-1.4-6.2-1.6-8.1-0.1c-1.3,1.1-1.7,2.5-1.5,4.1c0.2,1.5,1,2.4,2.4,3  c1.6,0.7,3.4,0.7,5.1,1c1.4,0.3,2.8,0.6,4,1.5c1.6,1.4,2.2,3.1,2.2,5.2c0,1.5-0.4,3-1.5,4.2c-1.3,1.4-2.8,2.3-4.7,2.4  C223,176.1,222.1,176.1,221.1,176.1z"></path>	<path d="M57.6,130.9c0,4.4,0,8.8,0,13.2c0,0.5-0.1,0.7-0.7,0.6c-0.9,0-1.9,0-2.8,0c-0.5,0-0.7-0.1-0.7-0.6c0-5.4,0-10.7,0-16.1  c0-3.6,0-7.1,0-10.7c0-0.4,0-0.6,0.5-0.5c1,0.1,2,0,3,0c0.5,0,0.5,0.2,0.5,0.5C57.6,121.9,57.6,126.4,57.6,130.9z"></path>	<path d="M145.3,165c0,3.5,0,6.9,0,10.4c0,0.6-0.2,0.8-0.7,0.7c-0.5,0-0.9,0-1.4,0c-0.5,0-0.5-0.2-0.5-0.6c0-3.3,0-6.6,0-9.8  c0-3.7,0-7.4,0-11.1c0-0.6-0.2-0.6-0.7-0.6c-2,0-3.9,0-5.9,0c-0.5,0-0.6-0.2-0.6-0.6c0-1.8,0-1.8,1.8-1.8c4.8,0,9.6,0,14.4,0  c0.6,0,0.8,0.2,0.8,0.8c-0.1,1.6,0,1.6-1.6,1.6c-1.6,0-3.3,0-4.9,0c-0.5,0-0.6,0.1-0.6,0.6C145.3,158,145.3,161.5,145.3,165z"></path>	<path d="M95.4,163.8c0-3.8,0-7.6,0-11.3c0-0.9,0-0.9,0.9-0.9c0.3,0,0.7,0,1,0c0.7-0.1,0.8,0.2,0.8,0.8c0,6.9,0,13.9,0,20.8  c0,0.5,0,0.7,0.6,0.7c2.6,0,5.2,0,7.8,0c1.2,0,2.4,0,3.7,0c0.4,0,0.5,0.1,0.5,0.5c0.1,1.8,0.1,1.8-1.6,1.8c-4.2,0-8.5,0-12.7,0  c-0.9,0-0.9,0-0.9-0.9C95.4,171.4,95.4,167.6,95.4,163.8z"></path>	<path d="M55.6,113.7c-2.6,0.1-4.7-2.2-4.7-4.6c0-2.5,1.9-4.6,4.5-4.7c2.9-0.1,4.8,2.1,4.8,4.6C60.2,111.6,58.2,113.7,55.6,113.7z"></path>	<path d="M159.9,163.8c0,3.9,0,7.7,0,11.6c0,0.6-0.1,0.8-0.7,0.7c-0.2,0-0.4,0-0.6,0c-1.4,0-1.4,0-1.4-1.4c0-7.6,0-15.2,0-22.8  c0-0.4,0.1-0.5,0.4-0.4c0.4,0,0.8,0,1.2,0c1.1,0,1.1,0,1.1,1.1C159.9,156.3,159.9,160.1,159.9,163.8  C159.9,163.8,159.9,163.8,159.9,163.8z"></path>	<path d="M50.6,123.6c0.8,0.4,1.8,0.4,2.8,0.7c-1.1,0.1-2-0.2-2.9-0.5C50.5,123.8,50.6,123.7,50.6,123.6z"></path>	<path d="M68.6,101.8c0.7,0.7,0.8,1.6,1.2,2.5c0,0-0.1,0-0.1,0.1c-0.4-0.8-0.7-1.6-1.1-2.3C68.6,101.9,68.6,101.9,68.6,101.8z"></path>	<path d="M68.6,101.8c0,0.1,0,0.1,0,0.2c-0.3-0.5-0.7-1.1-1-1.6c0.4,0.3,0.7,0.7,0.9,1.1c0,0.1,0,0.1,0.1,0.2  C68.6,101.7,68.6,101.8,68.6,101.8z"></path>	<path d="M50.6,123.6c0,0.1-0.1,0.1-0.1,0.2c-0.5-0.2-1-0.4-1.5-0.6c0,0,0.1-0.1,0.1-0.1C49.6,123.3,50.1,123.4,50.6,123.6z"></path>	<path d="M66.9,99.2c0.1,0.1,0.3,0.2,0.2,0.4c-0.2,0.1-0.2-0.1-0.3-0.2C66.8,99.3,66.8,99.3,66.9,99.2z"></path>	<path d="M66.6,98.9c0.1,0.1,0.2,0.2,0.3,0.3c0,0-0.1,0.1-0.1,0.1c-0.2,0-0.3-0.1-0.3-0.3C66.5,99,66.6,99,66.6,98.9z"></path>	<path d="M66.5,99.1c-0.2,0-0.3-0.1-0.3-0.3c0-0.1,0.1-0.1,0.1-0.2c0.1,0.1,0.2,0.2,0.3,0.3C66.6,99,66.5,99,66.5,99.1z"></path>	<path d="M66.2,98.8c-0.2,0-0.3-0.1-0.3-0.3c0.1,0,0.1-0.1,0.2-0.1c0.1,0.1,0.2,0.2,0.2,0.2C66.3,98.7,66.3,98.8,66.2,98.8z"></path>	<path d="M70,105.1c0,0,0,0.1,0,0.1c-0.1,0-0.1-0.1-0.1-0.1C69.9,105.1,70,105.1,70,105.1C70,105.1,70,105.1,70,105.1z"></path>	<path d="M67.6,100.2c0,0.1-0.1,0.1-0.1,0.1c-0.1-0.1-0.1-0.1-0.1-0.2c0-0.1,0-0.1,0.1-0.1C67.6,100,67.6,100.1,67.6,100.2z"></path>	<path d="M69.9,104.6c0,0,0,0.1,0,0.1c0,0,0,0,0,0C69.8,104.7,69.8,104.7,69.9,104.6C69.8,104.6,69.9,104.6,69.9,104.6z"></path>	<path d="M68.6,101.7c-0.1,0-0.1-0.1-0.1-0.2C68.5,101.6,68.6,101.6,68.6,101.7z"></path></g><circle class="st26" cx="135" cy="135" r="132.2"></circle></svg>