<svg xmlns="http://www.w3.org/2000/svg" xmlns:xlink="http://www.w3.org/1999/xlink" id="Layer_1" x="0px" y="0px" viewBox="0 0 270 270" style="enable-background:new 0 0 270 270;" xml:space="preserve"><style type="text/css">	.st0{fill:#FFFFFF;stroke:#FFFFFF;stroke-width:5;stroke-miterlimit:10;}	.st1{fill:#0091DA;}	.st2{fill:#1D428A;}	.st3{fill:#FF687D;}	.st4{fill-rule:evenodd;clip-rule:evenodd;}	.st5{fill:#B2B2B2;}	.st6{fill-rule:evenodd;clip-rule:evenodd;fill:#B2B2B2;}	.st7{fill:#111010;}	.st8{fill-rule:evenodd;clip-rule:evenodd;fill:#FF687D;}	.st9{fill:none;}	.st10{fill:#FFFFFF;}	.st11{fill:#3A4348;}	.st12{fill:#F29200;}	.st13{fill:#2E2C27;}	.st14{fill:#8F8F8D;}	.st15{fill:#E7282A;}	.st16{fill:#F5B01C;}	.st17{fill:#239BD6;}	.st18{fill:#243F82;}	.st19{fill:#C4282A;}	.st20{fill:#2C2D3A;}	.st21{fill:url(#SVGID_1_);}	.st22{fill:#1680C3;}	.st23{fill:#22B6DE;}	.st24{fill:#32609C;}	.st25{fill:#AEB7C7;}	.st26{fill:none;stroke:#000000;stroke-width:4;stroke-miterlimit:10;}</style><g>	<path d="M141.6,132.4c0.7-0.6,1.3-1.1,2.1-1.5c2-1,4.1-1.2,6.2-0.6c1.2,0.4,2.1,1.1,2.7,2.3c0.1,0.2,0.2,0.4,0.3,0.6  c0.6-0.7,1.3-1.4,2.1-1.9c2.1-1.3,4.3-1.6,6.7-0.9c1.9,0.6,2.9,2,3.2,3.9c0.1,0.6,0.1,1.3,0.1,2c0,3.9,0,7.9,0,11.8  c0,0.7,0,0.7-0.7,0.7c-1.8,0-3.6,0-5.4,0c-0.7,0-0.7,0-0.7-0.7c0-3.2,0-6.4,0-9.6c0-0.2,0-0.3,0-0.5c-0.1-1.2-0.8-1.9-2-2  c-1.2-0.1-2.1,0.4-2.8,1.3c-0.2,0.2-0.2,0.5-0.2,0.8c0,3.3,0,6.7,0,10c0,0.7,0,0.7-0.7,0.7c-1.8,0-3.6,0-5.3,0  c-0.7,0-0.7,0-0.7-0.7c0-3.3,0-6.6,0-9.9c0-1.6-1-2.4-2.5-2.2c-0.9,0.1-1.6,0.6-2.2,1.2c-0.2,0.2-0.2,0.5-0.2,0.8c0,3.3,0,6.7,0,10  c0,0.7,0,0.7-0.7,0.7c-1.8,0-3.6,0-5.4,0c-0.4,0-0.6-0.1-0.6-0.6c0-5.7,0-11.4,0-17.1c0-0.6,0-0.6,0.6-0.6c1.8,0,3.7,0,5.5,0  c0.6,0,0.6,0,0.6,0.6C141.5,131.5,141.5,131.9,141.6,132.4z"></path>	<path d="M98.9,133c1-1.2,1.8-2.5,2.7-3.7c1.2-1.7,2.4-3.5,3.6-5.2c0.2-0.3,0.4-0.4,0.8-0.4c2.7,0,5.4,0,8,0c0.2,0,0.4-0.1,0.5,0.1  c0.1,0.2-0.1,0.3-0.2,0.4c-2.9,3.5-5.7,7-8.6,10.6c-0.5,0.7-0.5,0.7,0,1.4c1.9,2.6,3.8,5.1,5.7,7.7c1.1,1.5,2.2,3,3.4,4.6  c0.1,0.1,0.3,0.3,0.2,0.4c-0.1,0.2-0.3,0.1-0.5,0.1c-2.7,0-5.3,0-8,0c-0.4,0-0.6-0.2-0.8-0.5c-1.7-2.6-3.4-5.3-5-7.9  c-0.4-0.6-0.4-0.5-0.8-0.1c-0.8,0.9-1.1,1.8-1.1,3c0.1,1.6,0,3.2,0,4.8c0,0.4-0.1,0.6-0.6,0.6c-2.2,0-4.3,0-6.5,0  c-0.4,0-0.6-0.1-0.6-0.6c0-8,0-16.1,0-24.1c0-0.6,0-0.6,0.6-0.6c2.1,0,4.3,0,6.4,0c0.6,0,0.6,0,0.6,0.6c0,2.6,0,5.1,0,7.7  C98.8,132.3,98.9,132.6,98.9,133z"></path>	<path d="M176.5,130c1.8,0,3.9,0.5,5.8,1.8c2.2,1.5,3.5,3.7,3.9,6.3c0.8,5.5-2.9,10.4-8.7,11c-2,0.2-3.9,0-5.8-0.7  c-3.4-1.4-5.4-4-5.8-7.6c-0.4-3.7,0.9-6.7,3.9-8.9C171.6,130.4,173.7,129.9,176.5,130z M179.3,139.6c0-0.6-0.1-1.2-0.3-1.7  c-0.5-1.2-1.4-1.8-2.6-2c-1.2-0.1-2.2,0.2-3,1.2c-0.8,1.1-0.9,2.3-0.6,3.5c0.5,2.1,2.7,3.2,4.6,2.3  C178.8,142.3,179.3,141,179.3,139.6z"></path>	<path d="M125.6,146.7c-0.8,0.6-1.5,1.2-2.3,1.6c-2.2,0.9-4.5,1.2-6.8,0.3c-1.9-0.7-3.2-2.5-3.2-4.6c0-4.3,0-8.7,0-13  c0-0.4,0.2-0.5,0.6-0.5c1.9,0,3.7,0,5.6,0c0.6,0,0.6,0,0.6,0.6c0,3.2,0,6.3,0,9.5c0,1.9,1.1,2.8,3.1,2.6c0.5-0.1,1-0.2,1.5-0.5  c0.7-0.5,1.2-1,1.1-2c-0.1-3.2,0-6.4,0-9.6c0-0.6,0-0.6,0.6-0.6c1.8,0,3.7,0,5.5,0c0.6,0,0.6,0,0.6,0.6c0,5.7,0,11.4,0,17.1  c0,0.4-0.1,0.6-0.6,0.6c-1.9,0-3.7,0-5.6,0c-0.6,0-0.6,0-0.6-0.6C125.7,147.6,125.8,147.2,125.6,146.7z"></path>	<path d="M210.1,146.7c-0.8,0.6-1.5,1.2-2.3,1.6c-2.2,0.9-4.4,1.2-6.7,0.4c-2-0.7-3.3-2.6-3.3-4.7c0-4.3,0-8.7,0-13  c0-0.4,0.2-0.5,0.6-0.5c1.9,0,3.7,0,5.6,0c0.6,0,0.6,0,0.6,0.6c0,3.2,0,6.4,0,9.6c0,0.7,0.1,1.3,0.6,1.9c0.6,0.6,1.4,0.7,2.1,0.7  c1,0,1.8-0.4,2.5-1.1c0.3-0.3,0.4-0.6,0.4-1c0-3.3,0-6.6,0-10c0-0.7,0-0.7,0.7-0.7c1.8,0,3.6,0,5.4,0c0.6,0,0.6,0,0.6,0.6  c0,5.7,0,11.4,0,17.1c0,0.4-0.1,0.6-0.6,0.6c-1.9,0-3.7,0-5.6,0c-0.6,0-0.6,0-0.6-0.6C210.2,147.6,210.2,147.2,210.1,146.7z"></path>	<path d="M226.1,129.8c2.8,0,5.2,0.7,7.4,1.9c0.6,0.3,0.6,0.4,0.3,1c-0.6,1.1-1.3,2.2-1.9,3.3c-0.2,0.3-0.3,0.4-0.6,0.2  c-1.1-0.8-2.3-1.2-3.7-1.5c-0.7-0.1-1.3-0.1-2-0.1c-0.1,0-0.2,0-0.3,0.1c-0.3,0.1-0.7,0.2-0.7,0.7c0,0.4,0.4,0.5,0.8,0.6  c1.1,0.2,2.3,0.4,3.4,0.6c1.5,0.3,3,0.7,4.2,1.7c2.4,1.9,2.7,5.9,0.5,8.1c-1.5,1.5-3.4,2.2-5.4,2.4c-2.6,0.3-5.1-0.1-7.5-0.9  c-1-0.4-1.9-0.8-2.8-1.4c-0.3-0.2-0.4-0.4-0.2-0.8c0.7-1.2,1.4-2.4,2.1-3.6c0.2-0.4,0.4-0.4,0.8-0.2c2,1.2,4.1,2,6.5,2  c0.4,0,0.7-0.1,1.1-0.2c0.2-0.1,0.4-0.3,0.4-0.6c0-0.3-0.2-0.5-0.5-0.6c-0.8-0.3-1.6-0.4-2.4-0.5c-1.6-0.2-3.1-0.5-4.6-1.2  c-3.6-1.7-3.6-6.5-1.4-8.7c1.4-1.4,3-2,4.9-2.3C225.1,129.8,225.7,129.8,226.1,129.8z"></path>	<path d="M193.4,133.5c0,2.8,0,5.6,0,8.4c0,0.8,0.4,1.1,1,1.3c0.5,0.1,1,0.2,1.5,0.1c0.3,0,0.5,0.1,0.5,0.4c0.3,1.2,0.6,2.4,0.8,3.6  c0.2,0.8,0,1.2-0.7,1.6c-0.5,0.3-1,0.4-1.6,0.5c-1.4,0.1-2.7,0.2-4.1,0c-1.7-0.3-2.9-1.2-3.7-2.7c-0.5-0.9-0.6-1.8-0.6-2.8  c0-6.3,0-12.6,0-18.9c0-0.7,0-0.7,0.7-0.7c1.8,0,3.7,0,5.5,0c0.6,0,0.6,0,0.6,0.6C193.4,127.8,193.4,130.6,193.4,133.5z"></path>	<path d="M80.9,119.9c-1-4.5-3.9-7.4-8.4-8.5c-2.7-0.7-5.4-0.2-7.9,1.1c-1.7,0.9-3.1,2.3-4.1,4c-0.4,0.6-0.4,0.6-1.1,0.4  c-0.6-0.2-1.3-0.4-1.9-0.6c-1.1-0.4-2.2-0.7-3.4-1c-0.5-0.1-0.7-0.4-0.8-0.9c-0.5-3.2-2.1-5.7-5-7.1c-2.7-1.3-5.4-1.4-8.1-0.1  c-3.3,1.5-5.6,5-5.2,9.1c0.2,2.7,1.4,5,3.6,6.6c2.8,2.1,5.9,2.4,9.2,1.2c1.7-0.7,3.1-1.8,4-3.4c0.2-0.4,0.5-0.4,0.9-0.3  c1.9,0.6,3.8,1.2,5.7,1.8c0.3,0.1,0.5,0.3,0.5,0.6c0,0.4,0,0.8,0.1,1.2c0.6,3.3,2.2,5.9,5,7.7c0.5,0.3,0.5,0.6,0.4,1.1  c-0.6,2.1-1.2,4.3-1.7,6.4c-0.3,0.8-0.5,1.6-0.7,2.4c-0.2,0.7-0.2,0.7-0.9,0.7c-1,0-2,0.1-3,0.3c-3.2,0.8-5.7,2.5-7.6,5.2  c-1,1.5-1.7,3.1-2,4.8c-0.3,0.9-0.3,1.8-0.3,2.7c0.1,3.8,1.5,7,4.4,9.5c3,2.6,6.4,3.5,10.3,2.9c3.9-0.6,6.9-2.6,9-6  c0.9-1.4,1.5-3,1.7-4.7c0.1-0.7,0.3-1.5,0.2-2.3c-0.1-0.8-0.2-1.6-0.3-2.4c-0.3-1.6-0.9-3.1-1.8-4.4c-1.1-1.7-2.6-3-4.3-4  c-0.4-0.2-0.4-0.4-0.3-0.8c0.3-1,0.5-2,0.8-3c0.5-2,1.1-3.9,1.6-5.9c0.2-0.7,0.2-0.8,1-0.8c0.2,0,0.5,0,0.7,0  c4-0.5,6.9-2.5,8.8-6.1c0.6-1.1,0.8-2.2,1-3.5C81.2,122.4,81.1,121.1,80.9,119.9z M44.2,119.7c-2.5,0-4.3-2-4.3-4.4  c0-2.3,1.8-4.3,4.3-4.3c2.4,0,4.3,1.9,4.3,4.3C48.5,117.7,46.7,119.7,44.2,119.7z M68.9,155c-0.1,2.1-0.8,3.9-2.2,5.4  c-0.9,1-2.1,1.7-3.4,2.1c-2.3,0.8-4.4,0.4-6.4-0.7c-2.3-1.3-3.5-3.4-3.9-6c-0.1-0.9,0-1.8,0.2-2.6h0c0.3-0.9,0.6-1.9,1.2-2.7  c1.4-1.9,3.3-3.2,5.8-3.5c2.5-0.3,4.7,0.6,6.4,2.3C68.1,150.9,68.9,152.8,68.9,155z M70.1,128.5c-3.5,0-6.1-2.7-6.3-5.5  c-0.4-4.5,3.1-7,6.3-7c3.6,0,6.3,2.8,6.3,6.3C76.4,125.8,73.5,128.5,70.1,128.5z"></path>	<path d="M64,105.9c0.1,1.8-1.4,3.6-3.6,3.6c-1.9,0-3.6-1.7-3.6-3.6c0-1.9,1.7-3.7,3.6-3.6C62.5,102.3,64,103.9,64,105.9z"></path>	<path d="M48.6,133.3c-0.1-1.7,1.3-3.6,3.6-3.6c1.9,0,3.6,1.7,3.6,3.6c-0.1,2.1-1.5,3.6-3.6,3.6C49.8,137,48.4,135,48.6,133.3z"></path>	<path d="M89.4,117.9c-2,0-3.6-1.5-3.6-3.6c0-2,1.6-3.6,3.6-3.6c2,0,3.6,1.6,3.6,3.6C93,116.3,91.4,117.9,89.4,117.9z"></path>	<path d="M76,141.7c-0.1-1.9,1.5-3.6,3.5-3.6c2,0,3.7,1.7,3.7,3.6c0,2-1.6,3.5-3.6,3.6C77.6,145.3,75.8,143.7,76,141.7z"></path></g><circle class="st26" cx="135" cy="135" r="132.2"></circle></svg>