<?xml version="1.0" encoding="utf-8"?>
<!-- Generator: Adobe Illustrator 22.1.0, SVG Export Plug-In . SVG Version: 6.00 Build 0)  -->
<svg version="1.1" id="Layer_1" xmlns="http://www.w3.org/2000/svg" xmlns:xlink="http://www.w3.org/1999/xlink" x="0px" y="0px"
	 viewBox="0 0 200 200" style="enable-background:new 0 0 200 200;" xml:space="preserve">
<style type="text/css">
	.st0{fill:#FFFFFF;stroke:#FFFFFF;stroke-width:5;stroke-miterlimit:10;}
	.st1{fill:#0091DA;}
	.st2{fill:#1D428A;}
	.st3{fill:#FF687D;}
	.st4{fill-rule:evenodd;clip-rule:evenodd;}
	.st5{fill:#B2B2B2;}
	.st6{fill-rule:evenodd;clip-rule:evenodd;fill:#B2B2B2;}
	.st7{fill:#111010;}
	.st8{fill-rule:evenodd;clip-rule:evenodd;fill:#FF687D;}
	.st9{fill:#FEFEFD;}
	.st10{fill:#696969;}
	.st11{fill:#87BE58;}
	.st12{fill:#EA7161;}
	.st13{fill:#3BB6FB;}
	.st14{fill:#FECB66;}
	.st15{fill:#F3F3F3;}
	.st16{fill:#F4C464;}
	.st17{fill:#3BB0F1;}
	.st18{fill:#FEFEFE;}
	.st19{fill:#FDFDFD;}
	.st20{fill:#E5E5E5;}
	.st21{fill:#656565;}
	.st22{fill:#515151;}
	.st23{fill:#DADADA;}
	.st24{fill:none;}
	.st25{fill:#FFFFFF;}
</style>
<g>
	<path class="st3" d="M85.1,159c-0.4,0.4-0.6,1-0.6,1.9c0,1.7,0.7,2.8,4.1,2.8c4.6,0,9.2,0,13.8,0l0.3,0c9.7,0,20.7,0,31.2-0.2
		c2.4,0,5.4-1.1,8-2.9c3.3-2.3,6.6-4.9,9.7-7.5c1.7-1.4,3.4-2.8,5.1-4.1c2.3-1.8,4.6-2.6,6.8-2.3c1.7,0.2,3.3,1.2,4.4,2.7
		c2.6,3.4,1.7,7.4-2.2,10.6c-3.4,2.8-6.9,5.5-10.3,8.2l-0.1,0.1c-4.6,3.7-9.4,7.5-14,11.3c-3.3,2.7-6.8,3.9-11.1,3.9
		c0,0-0.1,0-0.1,0c-27-0.1-55.4-0.1-78.2-0.1c-7.5,0-15.1,0-22.6,0c-1.2,0-3.6,0-4.2,0.6c-0.6,0.6-0.3,3.1-0.1,4.3
		c0,0.3,0.1,0.7,0.2,1h109.4c1-0.4,1.9-0.8,2.9-1.2c2.2-0.9,4.4-1.8,6.2-3.1c8.7-6.5,16.9-13.2,26-20.7c6.2-5,7.3-12.5,2.8-18.2
		c-4.4-5.6-12.7-6.3-18.8-1.6c-1,0.8-2,1.5-3,2.3c-2.6,1.9-5.3,3.9-7.4,6.1c-6,6.2-13,6-19.1,5l-1.3-0.2l0.1-1.3c0-0.1,0-0.3,0-0.4
		c0-0.4,0-0.9,0.1-1.3c1.1-5.2,0.3-9.6-2.2-12.8c-2.6-3.2-6.8-5-12.1-5c-3.5,0-7.1,0-10.5,0c-1.6,0-3.2,0-4.7,0
		c-1.8,0-3.6,0-5.2,0.1l-0.1,0c-3.8,0.1-7.8,0.1-11.6-0.1c-9.3-0.6-17,2.1-23.6,8.2c-4.2,3.9-8.7,5.4-14.2,4.9
		c-2.3-0.2-4.8-0.2-7.1-0.1c-1.5,0-3.2,0.1-4.8,0c-0.8,0-1.3,0.1-1.6,0.3c-0.3,0.3-0.5,1.1-0.5,2.3c0,0.9,0.1,2,0.4,2.4
		c0.1,0.1,0.5,0.3,1.5,0.3l0.7,0c2.9-0.2,5.9-0.3,8.8,0.1c8.7,1.2,16-1.3,22.3-7.6c3.6-3.6,8.3-5.4,14.2-5.4l4.2,0
		c10.5,0,21.3,0,32,0c5.7,0,9.5,3.1,9.6,7.8c0,2-0.6,3.8-2,5.2c-1.7,1.8-4.3,2.7-7.5,2.8c-6,0.1-12.3,0.1-20.5,0l-0.1-0.9v0.9
		C86.8,158.1,85.7,158.4,85.1,159z"/>
	<g>
		<path class="st3" d="M157,27.2c-0.5-1.4-1.2-1.8-1.8-1.9c-0.6-0.1-1.5-0.1-2.6,0.9c-2.2,2.1-4.4,4.3-6.6,6.4
			c-2.6,2.5-5.2,5.1-7.7,7.6c-1.2,1.2-2.3,1.2-3.4,0.2c-2.3-2.1-4.2-4.1-6-5.9c-1.2-1.2-1.1-2.8,0.1-4c2.8-2.7,5.6-5.5,8.3-8.2
			l6.1-6c0.7-0.7,1-1.6,0.8-2.5c-0.2-0.8-0.7-1.4-1.5-1.7c-7.3-2.6-14.5-2.2-21.3,1.1c-3,1.5-5.8,3.7-8.5,6.9
			c-1.1,1.2-1.8,2.8-2.5,4.2c-0.2,0.5-0.4,0.9-0.6,1.4c0,0,0,0,0,0c-0.5-0.5-1.1-0.8-1.8-0.8c0,0,0,0,0,0c-1.3,0-2.4,1-2.4,2.3
			c0,0.7,0.2,1.3,0.6,1.8c0.4,0.5,1.1,0.8,1.7,0.8c0,0,0.1,0,0.1,0c0.2,0,0.3,0,0.5,0c-0.9,4-0.9,8.1,0.2,12.3l0,0.2
			c0,0,0,0.1,0,0.1c-1.5,1.5-3,2.9-4.5,4.4L103,48c-1-0.5-2-0.8-3-1c-0.5-0.1-1-0.2-1.5-0.3c-0.4-0.1-0.4-0.2-0.4-0.3
			c-0.3-1.1-0.8-2.2-1.5-3.6c-0.1-0.3-0.2-0.4,0.1-0.8c0.6-0.9,1.1-1.8,1.6-2.7c1.2-2.1,0.9-4.3-0.8-6l-0.4-0.5
			c-0.6-0.6-1.2-1.2-1.8-1.9c-1.6-1.6-3.9-1.9-5.9-0.8c-0.1,0.1-0.3,0.1-0.4,0.2c-0.4,0.2-0.9,0.5-1.3,0.8c-1.1,0.9-1.9,1-2.9,0.2
			C84.4,31.2,84,31,83.6,31c-1-0.1-1.8-0.6-2.1-2.2c0.8-0.1,1.5-0.8,1.8-1.7c0.3-1.1-0.1-2.1-1-2.7c-0.9-0.6-1.9-0.5-2.7,0
			c-1-0.9-1.8-1.3-3.1-1.3c-1,0-2.3,0-3.5,0c-2.2,0.1-4,1.4-4.6,3.6c-0.2,0.8-0.5,1.6-0.6,2.5c-0.1,0.8-0.7,1.1-1.7,1.7
			c-0.4,0.2-0.8,0.4-1.3,0.6c-0.4,0.2-0.8,0.3-1.2,0.6c-0.2,0.1-0.3,0.1-0.5,0c-1-0.6-2-1.2-3-1.8c-2-1.1-4.2-0.8-5.8,0.8
			c-0.6,0.6-1.2,1.1-1.7,1.7L52,33.2c-1.8,1.8-2.1,3.9-0.9,6c0.6,1,1.2,2,1.7,2.9c0.2,0.3,0.2,0.4,0,0.6c-0.6,1.2-1.1,2.4-1.5,3.6
			c-0.1,0.2-0.1,0.3-0.3,0.3l-0.5,0.1c-1,0.2-2,0.5-2.9,0.8c-2.1,0.6-3.4,2.1-3.6,4.2c-0.1,1.5-0.1,3,0,4.4c0.2,1.7,1.1,3,2.7,3.8
			c0.2,0.1,0.3,0.2,0.4,0.4c0.3,0.8,0.9,1.4,1.7,1.6c0.7,0.2,1.5,0,2.2-0.6c0.1-0.1,0.2-0.1,0.2-0.2c0,0,0.1,0.1,0.2,0.3l0.1,0.3
			c0.4,1.1,0.8,2.2,1.4,3.3c0.1,0.2,0.1,0.3,0,0.6c-0.6,0.9-1.1,1.8-1.7,2.9c-0.6,1.1-0.8,2.2-0.7,3.2c-0.1-0.2-0.2-0.4-0.4-0.5
			c-0.5-0.4-1.1-0.7-1.8-0.7c-1.3,0.1-2.4,1.2-2.4,2.5c0,1.4,1.1,2.4,2.5,2.4c0,0,0,0,0,0c0.7,0,1.3-0.3,1.8-0.7
			c0.4-0.5,0.7-1.1,0.7-1.8c0,0,0,0,0,0c0,0,0,0,0,0c0.2,0.4,0.5,0.8,0.8,1.3c0.8,1,1.7,1.9,2.7,2.7c1.8,1.6,3.8,1.8,5.9,0.6
			l0.4-0.2c0.8-0.4,1.6-0.9,2.3-1.4c0.3-0.2,0.5-0.2,0.8,0c1,0.6,2.1,1.1,3.3,1.4c0.4,0.1,0.5,0.2,0.6,0.7c0.1,0.3,0.1,0.6,0.2,0.8
			c0.2,1,0.4,2,0.9,3c-1.3,1.3-2.8,2.7-4.2,4.1C64.3,86,64.3,86,64,85.9c-3.6-1-7-1.3-10.4-0.7c-0.4-1-1.4-1.5-2.6-1.3
			C49.8,84,49,85,49,86.2c-0.1,0-0.1,0-0.2,0.1c-5,1.6-9,4.5-12,8.4c-5.4,7.1-6.7,15.1-3.8,23.5c0.5,1.3,1.2,1.8,1.8,2
			c0.6,0.1,1.5,0.1,2.5-0.8c0.6-0.5,1.1-1.1,1.7-1.6c0.5-0.5,0.9-0.9,1.4-1.4c1-0.9,2-1.9,3-2.9c0.8-0.8,1.7-1.7,2.5-2.5
			c1.3-1.3,2.7-2.6,4.2-4.2c0.5-0.6,1.1-1.1,1.6-1.6l0.1-0.1c1.1-1.1,2.7-0.9,4,0.4c0.9,0.9,1.8,1.7,2.7,2.6
			c0.7,0.7,1.5,1.5,2.2,2.2c1,0.9,1.4,1.7,1.4,2.5c0,0.7-0.5,1.5-1.4,2.5c-0.5,0.5-1,0.9-1.5,1.4c-0.7,0.6-1.4,1.2-2,1.9
			c-2.3,2.4-4.7,4.7-7,6.9c-1.1,1.1-2.2,2.1-3.3,3.2c-0.4,0.4-1.5,1.5-1.2,2.8c0.3,1.3,1.8,1.9,2.3,2c2.9,1,5.8,1.5,8.8,1.5
			c1.2,0,2.4-0.1,3.6-0.2c10.7-1.4,19.2-9.4,21.4-19.8c0,0,0-0.1,0-0.1c0.9-0.4,1.4-1.1,1.5-2c0.1-0.8-0.3-1.7-1.1-2.3c0,0,0,0,0,0
			c0.1-2.7-0.2-4.9-0.8-6.8c-0.1-0.3-0.1-0.4,0.2-0.7c3.5-3.4,6.9-6.8,10.3-10.2l2.5-2.5c0.2-0.2,0.5-0.5,0.6-0.6
			c0.2,0.1,0.5,0.3,0.8,0.4c0.4,0.3,0.4,0.4,0.4,0.6c0,0.8,0.1,1.7,0.2,2.5l0.1,0.6c0,0.2,0,0.3-0.1,0.3c-0.7,0.6-1.5,1.3-2.2,2
			c-1.6,1.5-1.9,3.4-1,5.4c0.4,1,1,1.9,1.5,2.8c1,1.9,2.9,2.7,5,2.2l0.5-0.1c0.7-0.2,1.5-0.3,2.3-0.5c0.3-0.1,0.3,0,0.4,0.1
			c0.7,0.8,1.6,1.5,2.3,2c0.2,0.2,0.3,0.3,0.3,0.6l-0.1,0.9c0,0.5-0.1,1.1-0.1,1.6c-0.1,2.4,1,4.1,3.3,4.9c0.8,0.3,1.6,0.5,2.3,0.7
			l0.2,0.1c2.2,0.7,4.2-0.1,5.4-2c0.6-0.9,1-1.6,1.4-2.3c0.1-0.2,0.2-0.3,0.5-0.3c1,0,2.1-0.1,3-0.3c0.3,0,0.3,0,0.4,0.1
			c0.6,0.7,1.2,1.4,2,2.3c1.4,1.4,3.3,1.8,5.1,1c1-0.5,2-0.9,2.9-1.4c1.9-1,2.7-3,2.3-5.1l-0.1-0.6c-0.2-0.7-0.3-1.5-0.5-2.2
			c-0.1-0.2,0-0.2,0.1-0.4c0.8-0.7,1.5-1.6,2.1-2.5c0.1-0.2,0.1-0.2,0.3-0.1c1,0.1,1.9,0.2,2.9,0.2c2.3,0,3.9-1.1,4.7-3.3
			c0.3-0.8,0.5-1.7,0.8-2.5c0.7-2.2-0.1-4.3-2.1-5.5l-0.6-0.4c-0.6-0.4-1.2-0.7-1.8-1.1c-0.1-1-0.2-2.1-0.3-3.3c0-0.3,0-0.3,0.1-0.4
			c0.7-0.6,1.4-1.3,2.1-1.9c1.7-1.6,2-3.6,1-5.7c-0.1-0.2-0.3-0.5-0.4-0.7c-0.2-0.4-0.4-0.7-0.5-1c-0.8-2.2-2.7-2.8-4.3-3.4
			l-0.2-0.1c-0.9-0.3-1.8-0.1-2.3,0.6c-0.2,0.2-0.4,0.3-1,0.4c-0.2,0-0.5,0.1-0.7,0.1c-0.8-0.9-1.7-1.6-2.5-2.1
			c-0.2-0.2-0.2-0.2-0.2-0.4c0.1-1,0.2-2.1,0.2-3.1c0-1.9-1.2-3.6-2.9-4.3c-0.9-0.3-2-0.7-3.2-1c-2-0.5-4.1,0.3-5.2,2.1
			c-0.5,0.8-1,1.6-1.5,2.4c0,0,0,0.1-0.1,0.1c-0.5,0.1-1.1,0.1-1.6,0.2l0.1-0.1c1.4-1.3,2.8-2.7,4.1-4c1.7-1.7,3.4-3.4,5.1-5
			c0,0,0.1-0.1,0.1-0.1c0,0,0.1,0,0.2,0c3.2,0.9,6.4,1.1,9.6,0.8c-0.2,0.1-0.4,0.3-0.6,0.4c-0.4,0.5-0.7,1.1-0.7,1.7
			c0,0.7,0.3,1.3,0.7,1.7c0.5,0.4,1,0.7,1.7,0.7c0,0,0,0,0.1,0c1.3,0,2.4-1.1,2.4-2.4c0-0.6-0.2-1.2-0.7-1.7
			c-0.3-0.3-0.8-0.6-1.3-0.7c0,0,0.1,0,0.1,0c6.2-1.1,11.3-4,15.1-8.7C158.6,44.4,160.1,36.2,157,27.2z M53.2,129.7l0.4-0.5
			c1.3-1.3,2.5-2.7,3.8-4c1.5-1.5,3-3,4.5-4.5c1-0.9,1.9-1.9,2.9-2.8c3-3,3.1-7.6,0.1-10.6c-1.9-2-4-4-6.3-6.1
			c-2.8-2.6-7.5-2.5-10.3,0.3c-2.8,2.7-5.6,5.5-8.4,8.2l-3.3,3.2c-0.3-1.7-0.4-3.2-0.2-4.6c0.5-5.2,2.7-9.6,6.5-13.1
			c3.9-3.6,8.7-5.4,14.1-5.4c0.1,0,0.1,0,0.2,0c10,0.1,18.3,7.1,19.9,16.8c1,5.9-0.4,11.2-4.2,15.7c-4.5,5.5-10.5,8-18.3,7.5
			C54.3,129.9,53.7,129.8,53.2,129.7z M118.9,21.1c4-3.8,8.7-5.6,14.2-5.6c0.9,0,1.7,0,2.6,0.1c0.4,0,0.7,0.1,1.1,0.2l-0.6,0.6
			c-1.4,1.4-2.7,2.8-4.1,4.2c-2.2,2.2-4.5,4.5-6.9,6.7c-2.8,2.7-2.6,7-0.8,9.7c0.8,1.2,1.9,2.1,2.9,3.1c0.6,0.6,1.2,1.1,1.7,1.7
			c0.4,0.5,0.9,0.9,1.4,1.4c0.2,0.2,0.4,0.4,0.6,0.6c3.3,3.2,7.5,3.2,10.8,0l5.1-5c2.1-2.1,4.3-4.2,6.4-6.3
			c1.1,7.3-1.1,13.4-6.8,18.4c-6.2,5.5-16.1,6.5-23.4,2.4c-6-3.4-9.4-8.5-10.3-15.1C112,31.4,114,25.7,118.9,21.1z M127.8,76.6
			c0.8,0.6,1.7,1.3,2.6,2.2c1.2,1.1,2.6,1.5,4.2,1.1c0.9-0.2,1.8-0.4,2.6-0.6c0.2,0,0.3,0,0.3,0c0,0,0,0.1,0.1,0.2
			c0.3,0.6,0.6,1.2,1,1.9c0,0,0,0,0,0c-0.8,0.7-1.6,1.4-2.3,2c-1.2,1.1-1.6,2.5-1.4,4c0.2,1.1,0.2,2.3,0.2,3.2
			c0,1.6,0.7,2.9,2.1,3.8c0.8,0.5,1.6,1,2.6,1.6c0,0,0.1,0.1,0.1,0.1c0,0,0,0,0,0c-0.2,0.5-0.4,1-0.5,1.6l-0.2,0.6c0,0,0,0-0.1,0
			c-1.1-0.1-2.2-0.2-3.2-0.2c-1.6,0-2.9,0.6-3.7,1.9c-0.6,1-1.4,1.8-2.3,2.8c-1.2,1.3-1.1,2.8-0.9,4.1c0.2,0.8,0.3,1.6,0.6,2.8
			c0,0,0,0,0,0l-0.6,0.3c-0.5,0.2-0.9,0.5-1.5,0.8c0,0,0,0,0,0c-0.8-0.9-1.5-1.7-2.1-2.4c-1.1-1.1-2.4-1.6-4-1.3
			c-0.9,0.2-1.9,0.2-2.9,0.2c-1.9,0-3.5,0.9-4.4,2.5c-0.2,0.4-0.4,0.8-0.7,1.1c-0.2,0.4-0.5,0.7-0.7,1.1c0,0,0,0,0,0c0,0,0,0,0,0
			c-0.4-0.2-0.9-0.3-1.4-0.4c-0.3-0.1-0.5-0.2-0.8-0.3c0,0,0,0,0,0c0.1-1,0.2-2,0.2-3.1c0-1.6-0.6-2.9-1.9-3.8c-1-0.7-2-1.6-2.7-2.3
			c-1.6-1.5-3.6-1.1-4.2-1c-1,0.2-1.9,0.4-2.7,0.6c0,0,0,0,0,0c0,0,0,0,0-0.1c-0.3-0.7-0.6-1.3-1-2l0.3-0.3c0.7-0.6,1.3-1.2,1.9-1.8
			c1.2-1.1,1.7-2.6,1.4-4.2c-0.2-0.9-0.3-1.9-0.2-2.9c0-1.7-0.7-3.1-2.2-4.1c-0.9-0.6-1.7-1.1-2.5-1.5c0,0,0,0-0.1,0c0,0,0,0,0,0
			c0.1-0.3,0.2-0.7,0.3-1c0.1-0.4,0.3-0.9,0.4-1.1c0.2,0,0.6,0,1.1,0c0.2,0,0.3,0,0.5,0c0.3,0,0.5,0,0.8,0c1.9,0.3,3.6-0.4,4.8-2
			c0.6-0.8,1.3-1.6,2-2.3c1.2-1.2,1.6-2.7,1.2-4.5c-0.2-0.8-0.4-1.6-0.6-2.5c0-0.1,0-0.2,0-0.2c0,0,0,0,0.1-0.1
			c0.3-0.2,0.7-0.3,1-0.5l0.3-0.2c0.2-0.1,0.5-0.3,0.7-0.3c0.1,0.1,0.1,0.2,0.2,0.2c0.2,0.2,0.4,0.4,0.6,0.7
			c0.2,0.2,0.4,0.4,0.5,0.6c1.4,1.9,3.3,2.6,5.5,2c0.7-0.2,1.4-0.2,2.1-0.1c1.9,0.1,3.4-0.8,4.5-2.5c0.5-0.7,0.9-1.5,1.4-2.2
			c0.4,0.2,0.9,0.3,1.3,0.4c0.3,0.1,0.6,0.2,0.8,0.3c0,0,0,0,0,0c0,0,0,0.1,0,0.1c-0.1,1-0.1,2-0.1,3l0,0.3
			C126,74.5,126.6,75.7,127.8,76.6z M92.2,83.2L91.9,84c-0.3,0.8-0.3,1.6,0.1,2.2c0,0,0,0.1-0.2,0.2c-1.7,1.7-3.4,3.3-5.1,5
			l-2.3,2.3c-0.6,0.6-1.2,1.2-1.8,1.7c-1,1-2,1.9-3,2.9c-1.7-3.3-4.2-6.2-7.5-8.6c-0.9-0.6-1.8-1.2-2.8-1.8c1.2-1.1,2.3-2.3,3.5-3.4
			c0.1-0.1,0.1-0.1,0.2-0.1c1.1,0,2.3,0,3.4,0c2.4,0,4.2-1.5,4.8-3.8c0.1-0.5,0.2-1,0.3-1.4c0.1-0.5,0.3-1.1,0.4-1.6
			c0.1-0.3,0.2-0.4,0.4-0.5c1.4-0.4,2.6-0.9,3.7-1.5c0.1-0.1,0.1-0.1,0.1-0.1c0,0,0,0,0.1,0.1c0.5,0.3,1.1,0.7,1.6,1
			c0.3,0.2,0.7,0.4,1,0.6c2.3,1.4,4.4,1.2,6.4-0.6c0.8-0.7,1.6-1.5,2.3-2.2c1.7-1.7,1.9-3.8,0.8-5.9c-0.5-0.9-1.1-1.8-1.6-2.7
			l-0.2-0.3c-0.2-0.3-0.2-0.4,0-0.6c0.6-1.1,1.1-2.3,1.5-3.6c0.1-0.2,0.1-0.3,0.3-0.3l0.8-0.2c0.8-0.2,1.6-0.4,2.4-0.6
			c2.5-0.7,3.7-2.3,3.8-4.9l0-0.3c0-0.4,0.1-0.9,0-1.4c-0.1-0.7,0.1-1.3,0.9-2c1.4-1.3,2.8-2.7,4.2-4.1l0.2-0.2
			c1.5,2.8,3.6,5.4,6.6,7.9c1.1,0.9,2.4,1.8,3.8,2.5c-3.2,3-6.2,6.1-8.9,8.7c-1.6-1.3-3.3-1.5-5.2-0.6c-0.8,0.4-1.6,0.8-2.4,1.3
			c-1.9,1-2.8,2.9-2.3,5c0.2,0.9,0.4,1.9,0.7,2.8c0.1,0.2,0.1,0.3-0.1,0.4c-0.5,0.5-0.9,0.9-1.3,1.4l-0.5,0.5
			c-0.6,0.6-0.7,0.7-0.8,0.7c0,0,0,0,0,0l-0.2,0c-0.3,0-0.6-0.1-0.9-0.1c-0.6-0.1-1.1-0.1-1.7-0.1c-2.1,0-3.8,1.1-4.5,3.1
			C92.6,81.6,92.4,82.4,92.2,83.2z M55.4,70.9c0,0,0-0.1,0.1-0.3l0.5-0.8c0.4-0.7,0.8-1.4,1.2-2c1-1.6,1-3.4,0.1-5
			c-0.6-1.1-1-2.2-1.4-3.3c-0.6-1.6-1.7-2.7-3.3-3.1l-0.7-0.2c-0.9-0.2-1.8-0.5-2.7-0.7c-0.2,0-0.2-0.1-0.2-0.1c0-1,0-2.1,0-3.2
			c0,0,0.1,0,0.2-0.1l0.4-0.1c1-0.2,1.9-0.5,2.9-0.7c1.6-0.4,2.8-1.5,3.4-3.1c0.5-1.4,1-2.5,1.5-3.5c0.8-1.6,0.7-3.2-0.2-4.8
			L56.7,39c-0.4-0.6-0.7-1.2-1.1-1.9c-0.2-0.3-0.2-0.4-0.2-0.4c0,0,0.1-0.1,0.3-0.4c0.3-0.3,0.5-0.5,0.8-0.8
			c0.3-0.3,0.6-0.6,0.9-0.9c0.1-0.1,0.2-0.2,0.2-0.2c0,0,0.1,0,0.2,0.1c0.6,0.4,1.3,0.8,1.9,1.1c0.3,0.2,0.6,0.4,1,0.6
			c1.6,0.9,3.2,1,4.8,0.2c1.3-0.6,2.3-1.1,3.4-1.4c1.7-0.5,2.8-1.7,3.3-3.4c0.4-1.3,0.6-2.4,0.9-3.5c0,0,0,0,0-0.1l0.4,0
			c0.9,0,1.9,0,2.8-0.1c0,0,0,0,0.1,0.2c0.2,0.8,0.4,1.5,0.6,2.3l0.3,1c0.5,1.8,1.6,3.1,3.4,3.6c1.1,0.3,2.2,0.8,3.4,1.4
			c1.6,0.8,3.2,0.7,4.7-0.2c1-0.6,2-1.2,3-1.8c0.1-0.1,0.2-0.1,0.2-0.1c0,0,0.1,0,0.1,0.1l0.2,0.2c0.6,0.6,1.2,1.2,1.9,1.9l0,0l0,0
			c0,0.1-0.1,0.2-0.2,0.3l-0.4,0.6c-0.4,0.7-0.8,1.3-1.2,2c-1,1.7-1.1,3.4-0.2,5.1c0.5,1,1,2,1.3,3.1c0.5,1.8,1.8,3,3.8,3.5l0.2,0.1
			c0.9,0.2,1.9,0.5,2.8,0.7c0.2,0,0.3,0.1,0.3,0.1c0,0,0,0.1,0,0.3c0,1,0,1.9,0,2.8c0,0.1,0,0.2,0,0.2c0,0-0.1,0-0.2,0.1
			c-0.7,0.1-1.3,0.3-2,0.5c-0.4,0.1-0.9,0.2-1.3,0.3c-1.7,0.4-2.9,1.5-3.5,3.2c-0.4,1.2-0.9,2.3-1.4,3.5c-0.8,1.6-0.7,3.2,0.2,4.8
			l1.7,2.9c0.1,0.1,0.1,0.2,0.1,0.2c0,0,0,0.1-0.1,0.2c-0.7,0.7-1.3,1.3-2,2c0,0-0.1,0.1-0.1,0.1c0,0-0.1,0-0.2-0.1
			c-1-0.6-2.1-1.3-3.2-1.9c-1.4-0.8-2.9-0.9-4.3-0.2c-1.1,0.5-2.5,1.1-4,1.7c-1.4,0.5-2.5,1.6-2.9,3.1c-0.3,1.2-0.6,2.3-0.9,3.5
			c-0.1,0.3-0.1,0.3-0.4,0.3c-0.7,0-1.6,0-2.6,0c-0.3,0-0.3,0-0.4-0.3l-0.3-1c-0.2-0.7-0.3-1.3-0.5-2c-0.4-1.8-1.6-3.1-3.4-3.7
			c-1.4-0.5-2.4-0.9-3.4-1.4c-0.7-0.4-1.5-0.6-2.2-0.6c-0.8,0-1.6,0.2-2.4,0.7l-0.5,0.3c-0.9,0.5-1.8,1-2.6,1.6
			c-0.1,0.1-0.1,0.1-0.1,0.1c0,0-0.1,0-0.1-0.1c-0.6-0.6-1.3-1.3-2-2C55.3,70.9,55.4,70.9,55.4,70.9z M114.7,70.1l-0.4-0.5
			c0,0,0,0,0,0l0.6,0.4C114.8,70.1,114.8,70.1,114.7,70.1z"/>
		<path class="st3" d="M137.4,67c-1.3,0.1-2.3,1.2-2.3,2.6c0,0.7,0.3,1.3,0.8,1.8c0.5,0.4,1,0.7,1.7,0.7c0,0,0,0,0,0
			c1.3,0,2.4-1.1,2.4-2.5c0-0.7-0.3-1.3-0.8-1.8C138.7,67.2,138.1,66.9,137.4,67z"/>
		<path class="st3" d="M101.3,28.1C101.3,28.1,101.3,28.1,101.3,28.1c1.4,0,2.5-1.1,2.5-2.4c0-0.6-0.2-1.3-0.7-1.7
			c-0.5-0.5-1.1-0.8-1.8-0.8c-1.3,0-2.4,1-2.4,2.4c0,0.7,0.2,1.3,0.7,1.8C100,27.8,100.6,28.1,101.3,28.1z"/>
		<path class="st3" d="M101.4,110.9c-0.7,0-1.3,0.3-1.8,0.7c-0.5,0.5-0.7,1.1-0.7,1.7c0,0.7,0.3,1.3,0.8,1.8
			c0.5,0.4,1.1,0.7,1.7,0.7c0,0,0,0,0.1,0c1.4,0,2.4-1.1,2.4-2.5C103.8,111.9,102.7,110.9,101.4,110.9z"/>
		<path class="st3" d="M48.3,68.5L48.3,68.5C48.3,68.5,48.3,68.5,48.3,68.5c0.7,0,1.3-0.2,1.8-0.7c0.5-0.5,0.7-1.1,0.7-1.7
			c0-1.3-1.1-2.4-2.4-2.4c-0.6,0-1.3,0.2-1.8,0.7c-0.5,0.5-0.8,1.1-0.8,1.7c0,0.6,0.2,1.3,0.7,1.7C47,68.3,47.6,68.5,48.3,68.5z"/>
		<path class="st3" d="M87.7,27.6c0,0,0.1,0,0.1,0c1.3-0.1,2.3-1.2,2.3-2.5c-0.1-1.4-1.1-2.4-2.5-2.3c-1.3,0-2.4,1.1-2.4,2.4
			c0,0.7,0.3,1.3,0.8,1.8C86.5,27.4,87.1,27.6,87.7,27.6z"/>
		<path class="st3" d="M87.8,111.4c-0.7,0-1.3,0.3-1.7,0.7c-0.5,0.5-0.7,1.1-0.7,1.8c0,0.7,0.3,1.3,0.7,1.7c0.4,0.4,1,0.7,1.7,0.7
			c0,0,0.1,0,0.1,0c1.3-0.1,2.3-1.2,2.3-2.5C90.2,112.5,89.1,111.4,87.8,111.4z"/>
		<path class="st3" d="M49.5,82.2c0.7,0,1.3-0.3,1.7-0.8c0.4-0.5,0.7-1.1,0.6-1.8c-0.1-1.2-1.2-2.3-2.4-2.3c0,0,0,0-0.1,0h0
			c-1.3,0-2.4,1.3-2.4,2.5c0,0.6,0.3,1.3,0.8,1.7c0.5,0.4,1.1,0.7,1.7,0.7C49.4,82.2,49.5,82.2,49.5,82.2z"/>
		<path class="st3" d="M94.5,27.3C94.5,27.3,94.5,27.3,94.5,27.3c1.4,0,2.5-1.1,2.5-2.4c0-0.6-0.3-1.2-0.7-1.7
			c-0.5-0.5-1.1-0.7-1.7-0.7c0,0,0,0,0,0c-1.3,0-2.4,1.1-2.4,2.4c0,0.7,0.2,1.3,0.7,1.8C93.2,27,93.8,27.3,94.5,27.3z"/>
		<path class="st3" d="M94.7,111.7L94.7,111.7c-1.3,0-2.5,1-2.5,2.4c0,0.6,0.2,1.3,0.7,1.7c0.5,0.5,1.1,0.8,1.8,0.8c0,0,0,0,0,0
			c1.3,0,2.4-1,2.4-2.3C97.1,112.8,96,111.7,94.7,111.7z"/>
		<path class="st3" d="M74.7,63.3C74.7,63.3,74.7,63.3,74.7,63.3c5.3,0,9.6-4.1,9.6-9.4c0-2.5-1-4.9-2.8-6.7
			c-1.8-1.8-4.2-2.8-6.8-2.8c-2.6,0-5,1-6.8,2.8c-1.8,1.8-2.8,4.2-2.8,6.7C65.2,59,69.4,63.3,74.7,63.3z M74.7,58.4
			C74.7,58.4,74.7,58.4,74.7,58.4c-2.6,0-4.5-2.1-4.5-4.7c0-2.5,2.1-4.5,4.6-4.6c1.2,0,2.3,0.5,3.2,1.3c0.9,0.9,1.4,2.1,1.4,3.3
			c0,1.2-0.5,2.4-1.3,3.3C77.1,57.9,75.9,58.4,74.7,58.4z"/>
		<path class="st3" d="M118.3,81.9C118.3,81.9,118.3,81.9,118.3,81.9c-4.7,0-8.6,3.9-8.6,8.6c0,2.3,0.9,4.5,2.5,6.1
			c1.6,1.6,3.8,2.5,6.1,2.5c0,0,0,0,0,0c4.8,0,8.6-3.8,8.6-8.5c0-2.4-0.9-4.6-2.5-6.2C122.8,82.8,120.6,81.9,118.3,81.9z
			 M122.1,90.6c0,0.9-0.4,1.9-1.1,2.6c-0.7,0.7-1.6,1.1-2.6,1.1c0,0,0,0,0,0c-2.1,0-3.8-1.7-3.8-3.7c0-2,1.7-3.7,3.8-3.7
			c0,0,0,0,0,0c1,0,1.9,0.4,2.6,1.1C121.7,88.6,122.1,89.6,122.1,90.6z"/>
	</g>
</g>
</svg>
