<?xml version="1.0" encoding="utf-8"?>
<!-- Generator: Adobe Illustrator 22.1.0, SVG Export Plug-In . SVG Version: 6.00 Build 0)  -->
<svg version="1.1" id="Layer_1" xmlns="http://www.w3.org/2000/svg" xmlns:xlink="http://www.w3.org/1999/xlink" x="0px" y="0px"
	 viewBox="0 0 200 200" style="enable-background:new 0 0 200 200;" xml:space="preserve">
<style type="text/css">
	.st0{fill:#FFFFFF;stroke:#FFFFFF;stroke-width:5;stroke-miterlimit:10;}
	.st1{fill:#0091DA;}
	.st2{fill:#1D428A;}
	.st3{fill:#FF687D;}
	.st4{fill-rule:evenodd;clip-rule:evenodd;}
	.st5{fill:#B2B2B2;}
	.st6{fill-rule:evenodd;clip-rule:evenodd;fill:#B2B2B2;}
	.st7{fill:#111010;}
	.st8{fill-rule:evenodd;clip-rule:evenodd;fill:#FF687D;}
	.st9{fill:#FEFEFD;}
	.st10{fill:#696969;}
	.st11{fill:#87BE58;}
	.st12{fill:#EA7161;}
	.st13{fill:#3BB6FB;}
	.st14{fill:#FECB66;}
	.st15{fill:#F3F3F3;}
	.st16{fill:#F4C464;}
	.st17{fill:#3BB0F1;}
	.st18{fill:#FEFEFE;}
	.st19{fill:#FDFDFD;}
	.st20{fill:#E5E5E5;}
	.st21{fill:#656565;}
	.st22{fill:#515151;}
	.st23{fill:#DADADA;}
	.st24{fill:none;}
	.st25{fill:#FFFFFF;}
</style>
<g>
	<path class="st3" d="M160.4,35.9c0,8.8,7.2,16,16,16s16-7.2,16-16s-7.2-16-16-16S160.4,27.1,160.4,35.9z M165.7,35.9
		c0-5.9,4.8-10.8,10.8-10.8c5.9,0,10.8,4.8,10.8,10.8c0,5.9-4.8,10.8-10.8,10.8C170.5,46.7,165.7,41.9,165.7,35.9z"/>
	<path class="st3" d="M174.2,38.2l0,3.4c0,0.4,0,0.7,0,1.1c0,0.7,0.4,1.4,1,1.8c0.4,0.3,0.8,0.4,1.3,0.4c0.3,0,0.5,0,0.8-0.1
		c0.9-0.3,1.5-1.2,1.5-2.2l0-4.4l3.3,0l1.2,0c0.6,0,1.2-0.3,1.6-0.7c0.4-0.4,0.6-1,0.6-1.6c-0.1-1.2-1-2.1-2.3-2.1l-4.4,0l0-4.4
		c0-0.7-0.3-1.4-0.9-1.8c-0.5-0.4-1.2-0.6-1.9-0.4c-1,0.2-1.7,1.2-1.7,2.2l0,4.4l-4,0c-0.2,0-0.3,0-0.5,0c-0.6,0-1.2,0.3-1.6,0.8
		c-0.4,0.5-0.6,1.1-0.5,1.7c0.2,1.2,1.1,2,2.3,2H174.2z"/>
	<path class="st3" d="M119.6,160.8c-1.8-0.3-3.6,0-5.2,0.6l-6.2-8.3c1.4-1.8,2.2-4.1,2.2-6.4c0-0.3,0-0.6-0.1-0.9l9.7-3.7
		c2,2.7,5.1,4.3,8.4,4.3c5.8,0,10.5-4.7,10.5-10.5c0-1.3-0.2-2.5-0.7-3.7c-1-2.6-2.9-4.7-5.5-5.8c-2.5-1.1-5.3-1.2-7.9-0.3l-0.1,0.1
		c-4.4,1.7-7.1,6-6.7,10.7l-9.6,3.7c-1.4-1.9-3.3-3.2-5.6-3.9v-10.4c5.3-1.5,8.6-6.9,7.4-12.3c-0.6-2.7-2.2-5.1-4.6-6.6
		c-2.4-1.5-5.1-2-7.9-1.4c-2.7,0.6-5.1,2.2-6.6,4.6c-1.5,2.4-2,5.1-1.4,7.9c0.8,3.8,3.7,6.8,7.4,7.8v10.4c-2.2,0.6-4.2,2-5.6,3.9
		l-9.7-3.7c0-0.3,0.1-0.6,0.1-0.9c0-2.8-1.1-5.4-3.1-7.4c-2-2-4.6-3-7.4-3c0,0,0,0,0,0c-2.8,0-5.4,1.1-7.4,3.1c-2,2-3.1,4.6-3,7.4
		c0,2.8,1.1,5.4,3.1,7.4c2,2,4.6,3,7.4,3c0,0,0,0,0,0c2.8,0,5.4-1.1,7.4-3.1c0.4-0.4,0.7-0.8,1-1.2l9.7,3.6c0,0.3-0.1,0.6-0.1,0.9
		c0,2.3,0.8,4.5,2.2,6.4l-6.2,8.3c-1.2-0.5-2.4-0.7-3.7-0.7c-5.8,0-10.5,4.7-10.5,10.5c0,2.8,1.1,5.4,3.1,7.4c1.9,2,4.6,3.1,7.4,3.1
		c0,0,0,0,0,0c5.7,0,10.4-4.7,10.4-10.4c0-2.3-0.8-4.6-2.2-6.5l6.2-8.3c2.4,0.9,5,0.9,7.4,0l6.2,8.3c-2.9,3.7-2.9,8.8-0.1,12.7
		c1.7,2.2,4.1,3.7,6.9,4.1c0.5,0.1,1,0.1,1.5,0.1c2.2,0,4.4-0.7,6.2-2l0.1-0.1c4.6-3.5,5.5-10,2.1-14.6
		C124.9,162.7,122.4,161.2,119.6,160.8z M95.2,146.7c0-2.6,2.1-4.8,4.7-4.8c0,0,0,0,0,0c1.9,0,3.6,1.1,4.3,2.8c0,0.1,0,0.1,0,0.2
		l0,0.3l0.1,0.1c0.2,0.5,0.3,1,0.3,1.5c0,1.3-0.4,2.5-1.3,3.4c-0.9,0.9-2.1,1.5-3.3,1.5c-1.3,0-2.5-0.4-3.4-1.3
		c-0.9-0.9-1.5-2.1-1.5-3.4C95.2,146.9,95.2,146.9,95.2,146.7z M100,121C100,121,100,121,100,121c-2.7,0-4.8-2.2-4.8-4.8l-0.8,0
		l0.8,0c0-2.6,2.2-4.8,4.8-4.8c0,0,0,0,0,0c2.6,0,4.8,2.2,4.8,4.8C104.8,118.8,102.6,121,100,121z M85.6,174.2l-0.3,0.3
		c-0.9,0.9-2.1,1.4-3.4,1.4c0,0,0,0,0,0c0,0,0,0,0,0c-1.3,0-2.5-0.5-3.4-1.4c-0.9-0.9-1.4-2.1-1.4-3.4c0-1.3,0.5-2.5,1.4-3.4
		c1.9-1.9,4.9-1.9,6.8,0C87,169.6,87.1,172.4,85.6,174.2z M114.3,174.1L114.3,174.1c-1.6-2.1-1.2-5.1,1-6.7c1-0.8,2.3-1.1,3.5-0.9
		c1.3,0.2,2.4,0.9,3.2,1.9c1.6,2.1,1.1,5.1-1,6.7c-1,0.8-2.3,1.1-3.5,0.9C116.2,175.8,115.1,175.1,114.3,174.1L114.3,174.1z
		 M126.8,131.4c0.5-0.2,1.1-0.3,1.7-0.3c0.7,0,1.3,0.1,2,0.4c1.1,0.5,2.1,1.5,2.5,2.7c0.9,2.5-0.3,5.3-2.8,6.2
		c-1.2,0.4-2.5,0.4-3.6-0.1c-1.1-0.5-2.1-1.5-2.5-2.7C123.1,135.2,124.3,132.4,126.8,131.4L126.8,131.4z M76,137.4l-0.1,0.3
		c0,0.1,0,0.1,0,0.2c-0.8,1.7-2.4,2.8-4.3,2.8c0,0,0,0,0,0c-1.3,0-2.5-0.5-3.4-1.4c-0.9-0.9-1.4-2.1-1.4-3.4c0-2.7,2.1-4.8,4.8-4.8
		c0,0,0,0,0,0c2.6,0,4.8,2.1,4.8,4.8v0C76.3,136.5,76.2,137,76,137.4z"/>
	<path class="st3" d="M188.3,58.4c0.5-2.2,0.7-4.5,0.7-6.7c0-0.2,0-0.3,0-0.5l-0.1-1.8l-1.2,0.9c-1.2,1-2.6,1.8-4,2.4l-0.4,0.2
		l0,0.5c-0.1,1.8-0.4,3.7-0.9,5.4c-0.3,1.2,0.2,2.5,1.2,3.1c5.5,3.5,8.7,9.4,8.7,15.9c-0.1,10.6-8.8,19.2-19.4,19.1h-18.1
		c-4-14.6-17.1-24.7-32.2-24.8c0.2-1.3,0.3-2.6,0.3-3.9c0-10.2-4.8-19.9-12.8-26.1c5-1.1,10.3-0.6,15,1.4c0.7,0.3,1.5,0.3,2.2,0.1
		c0.7-0.3,1.3-0.8,1.6-1.5l0-0.1c4.3-10.9,14.6-18,26.3-18c0,0,0,0,0,0c2.1,0,4.2,0.2,6.2,0.7l0.5,0.1l0.3-0.4
		c1-1.2,2.1-2.3,3.4-3.2l1.2-0.9l-1.5-0.4c-3.3-1-6.7-1.5-10.2-1.5c-12.9,0-24.8,7.4-30.5,19c-6.9-2.3-14.3-2-21,0.9
		c-16.7-8-36.9-1.1-45.2,15.6c0,0,0,0,0,0c-1.4-0.5-2.9-0.8-4.4-1.1l-1.5-0.3l0.7,1.4c0.7,1.4,1.3,2.9,1.6,4.4l0.1,0.4l0.4,0.1
		c1.2,0.3,2.3,0.7,3.4,1.2c1.4,0.6,3.1,0,3.7-1.4l0.1-0.1c4.3-10.9,14.6-18,26.3-18c0,0,0,0,0,0c4.6,0,9.2,1.1,13.3,3.3
		c9.1,4.7,14.8,14.1,14.9,24.4c0,1.5-0.2,2.9-0.4,4.4c-10.9,1.7-20.3,8.6-25.2,18.5C76.5,86,60,93.9,54.6,109
		c-0.5,1.4-0.9,2.9-1.2,4.5H22.7c0,0,0,0,0,0c-8.1,0-14.7-6.6-14.7-14.7c0-3.9,1.5-7.6,4.3-10.4c2.8-2.8,6.5-4.3,10.4-4.3
		c1.6,0,2.8-1.3,2.8-2.8c0-1.2,0.1-2.4,0.4-3.8l0.1-0.4l-0.4-0.3c-1.2-1-2.3-2.2-3.3-3.5l-0.9-1.3l-0.4,1.5c-0.5,1.7-0.8,3.4-1,5.1
		C9,79.9,1.1,89.7,2.1,100.6c0.9,10.4,9.8,18.5,20.3,18.5c0.1,0,0.2,0,0.3,0h21.6c-3.6,2.4-6.4,5.8-7.9,10
		c-1.9,5.1-1.6,10.6,0.7,15.5c3.3,7.2,10.5,11.7,18.4,11.7c0.1,0,0.3,0,0.4,0h22.8c1.6,0,2.8-1.3,2.8-2.8c0-1.6-1.3-2.8-2.8-2.8
		H55.8c0,0,0,0,0,0c-3.9,0-7.6-1.5-10.4-4.3C42.6,143.7,41,140,41,136c0-3.9,1.5-7.6,4.3-10.4c2.8-2.8,6.5-4.3,10.4-4.3
		c1.6,0,2.8-1.3,2.8-2.8c0.1-12.8,10.6-23.2,23.5-23.2c0.1,0,0.1,0,0.2,0c3.4,0,6.6,0.7,9.7,2.1c0.7,0.3,1.5,0.3,2.2,0
		c0.7-0.3,1.3-0.9,1.6-1.6c3.9-9.9,12.9-16.7,23.5-17.7c7.3-1,14.5,1,20.3,5.4c5.8,4.5,9.5,10.9,10.5,18.2c0.2,1.2,0.2,2.5,0.2,3.8
		c0,2.4-0.3,4.9-1,7.2c-0.3,1.2,0.2,2.5,1.2,3.1c5.5,3.5,8.7,9.4,8.7,15.9c-0.1,10.5-8.7,19.1-19.3,19.1c-0.1,0-0.1,0-0.2,0h-19
		c-1.6,0-2.8,1.3-2.8,2.8c0,1.6,1.3,2.8,2.8,2.8h19c0.1,0,0.1,0,0.2,0c13.6,0,24.8-11.1,24.9-24.7c0-7.6-3.6-14.9-9.7-19.5
		c0.5-2.2,0.7-4.5,0.7-6.7c0-0.9,0-1.9-0.1-2.8h17.1c0.1,0,0.1,0,0.2,0c13.6,0,24.8-11.1,24.9-24.7C198,70.2,194.4,63,188.3,58.4z"
		/>
	<path class="st3" d="M37.1,78.4c8.8,0,16-7.2,16-16s-7.2-16-16-16s-16,7.2-16,16S28.2,78.4,37.1,78.4z M26.3,62.4
		c0-5.9,4.8-10.8,10.8-10.8s10.8,4.8,10.8,10.8c0,5.9-4.8,10.8-10.8,10.8S26.3,68.4,26.3,62.4z"/>
	<path class="st3" d="M34.8,64.7l0,3.4c0,0.3,0,0.7,0,1c0,0.7,0.4,1.4,1,1.8c0.4,0.3,0.8,0.4,1.3,0.4c0.3,0,0.5,0,0.8-0.1
		c0.9-0.3,1.5-1.2,1.5-2.2l0-4.4l3.7,0c0.3,0,0.5,0,0.8,0c0.6,0,1.2-0.3,1.6-0.7c0.4-0.4,0.6-1,0.6-1.6c-0.1-1.2-1-2.1-2.3-2.1
		l-4.4,0l0-4.4c0-0.7-0.3-1.4-0.9-1.8c-0.5-0.4-1.2-0.6-1.9-0.4c-1,0.2-1.7,1.2-1.7,2.2l0,4.4l-4,0c-0.2,0-0.3,0-0.5,0
		c-0.6,0-1.2,0.3-1.6,0.8c-0.4,0.5-0.6,1.1-0.5,1.7c0.2,1.2,1.1,2,2.3,2H34.8z"/>
</g>
</svg>
