<?xml version="1.0" encoding="utf-8"?>
<!-- Generator: Adobe Illustrator 22.1.0, SVG Export Plug-In . SVG Version: 6.00 Build 0)  -->
<svg version="1.1" id="Layer_1" xmlns="http://www.w3.org/2000/svg" xmlns:xlink="http://www.w3.org/1999/xlink" x="0px" y="0px"
	 viewBox="0 0 350 210" style="enable-background:new 0 0 350 210;" xml:space="preserve">
<style type="text/css">
	.st0{fill:#FFFFFF;}
	.st1{fill:#FFFFFF;stroke:#FFFFFF;stroke-width:5;stroke-miterlimit:10;}
	.st2{fill:#008FD8;}
	.st3{fill:#1D4288;}
	.st4{fill:#FF687D;}
	.st5{fill-rule:evenodd;clip-rule:evenodd;}
	.st6{fill:#B2B2B2;}
	.st7{fill-rule:evenodd;clip-rule:evenodd;fill:#B2B2B2;}
	.st8{fill:#111010;}
	.st9{fill-rule:evenodd;clip-rule:evenodd;fill:#FF687D;}
	.st10{fill:none;}
	.st11{fill:#3A4348;}
	.st12{fill:#F09000;}
	.st13{fill:#2E2C27;}
	.st14{fill:#8D8D8B;}
	.st15{fill:#E5282A;}
	.st16{fill:#F3AE1C;}
	.st17{fill:#2399D4;}
	.st18{fill:#243F80;}
	.st19{fill:#C2282A;}
	.st20{fill:#2C2D3A;}
	.st21{fill:url(#SVGID_3_);}
	.st22{fill:#1680C1;}
	.st23{fill:#22B4DC;}
	.st24{fill:#32609A;}
	.st25{fill:#ACB5C5;}
	.st26{fill:#FF7400;}
	.st27{fill:#F7F7F7;}
	.st28{clip-path:url(#SVGID_5_);}
	.st29{fill-rule:evenodd;clip-rule:evenodd;fill:#FFFFFF;}
	.st30{clip-path:url(#SVGID_7_);}
	.st31{clip-path:url(#SVGID_9_);}
	.st32{clip-path:url(#SVGID_11_);fill:#FFFFFF;}
	.st33{clip-path:url(#SVGID_13_);}
	.st34{clip-path:url(#SVGID_15_);fill:#FFFFFF;}
	.st35{clip-path:url(#SVGID_17_);}
	.st36{clip-path:url(#SVGID_19_);fill:#161A42;}
	.st37{clip-path:url(#SVGID_21_);}
	.st38{clip-path:url(#SVGID_23_);}
	.st39{clip-path:url(#SVGID_27_);}
	.st40{clip-path:url(#SVGID_29_);}
	.st41{clip-path:url(#SVGID_31_);}
	.st42{clip-path:url(#SVGID_33_);}
	.st43{clip-path:url(#SVGID_35_);fill:#161A42;}
	.st44{clip-path:url(#SVGID_37_);}
	.st45{clip-path:url(#SVGID_39_);fill:#040404;}
	.st46{clip-path:url(#SVGID_41_);}
	.st47{clip-path:url(#SVGID_43_);}
	.st48{clip-path:url(#SVGID_45_);}
	.st49{clip-path:url(#SVGID_47_);}
	.st50{clip-path:url(#SVGID_49_);}
	.st51{clip-path:url(#SVGID_51_);}
	.st52{clip-path:url(#SVGID_55_);}
	.st53{clip-path:url(#SVGID_57_);}
	.st54{clip-path:url(#SVGID_59_);}
	.st55{clip-path:url(#SVGID_61_);}
	.st56{clip-path:url(#SVGID_63_);fill:#F2BD21;}
	.st57{clip-path:url(#SVGID_65_);}
	.st58{clip-path:url(#SVGID_67_);fill:#FFFFFF;}
	.st59{clip-path:url(#SVGID_69_);}
	.st60{clip-path:url(#SVGID_71_);}
	.st61{clip-path:url(#SVGID_73_);}
	.st62{clip-path:url(#SVGID_75_);}
	.st63{clip-path:url(#SVGID_77_);fill:#446AAF;}
	.st64{clip-path:url(#SVGID_79_);}
	.st65{clip-path:url(#SVGID_81_);fill:#456BB0;}
	.st66{clip-path:url(#SVGID_83_);}
	.st67{clip-path:url(#SVGID_85_);fill:#456BB0;}
	.st68{clip-path:url(#SVGID_87_);}
	.st69{clip-path:url(#SVGID_89_);fill:#456BB0;}
	.st70{clip-path:url(#SVGID_91_);}
	.st71{clip-path:url(#SVGID_93_);fill:#161A42;}
	.st72{clip-path:url(#SVGID_95_);}
	.st73{clip-path:url(#SVGID_97_);fill:#FFC634;}
	.st74{clip-path:url(#SVGID_97_);fill:#161A42;}
	.st75{clip-path:url(#SVGID_99_);}
	.st76{clip-path:url(#SVGID_101_);fill:#FFC634;}
	.st77{clip-path:url(#SVGID_101_);fill:#161A42;}
	.st78{clip-path:url(#SVGID_103_);}
	.st79{clip-path:url(#SVGID_105_);fill:#FFC634;}
	.st80{clip-path:url(#SVGID_105_);fill:#161A42;}
	.st81{clip-path:url(#SVGID_107_);}
	.st82{clip-path:url(#SVGID_109_);fill:#FFC634;}
	.st83{clip-path:url(#SVGID_109_);fill:#161A42;}
	.st84{clip-path:url(#SVGID_111_);}
	.st85{clip-path:url(#SVGID_113_);fill:#FFC634;}
	.st86{clip-path:url(#SVGID_115_);}
	.st87{clip-path:url(#SVGID_117_);fill:#FFC634;}
	.st88{clip-path:url(#SVGID_119_);}
	.st89{clip-path:url(#SVGID_121_);fill:#FFC634;}
	.st90{clip-path:url(#SVGID_123_);}
	.st91{clip-path:url(#SVGID_125_);fill:none;stroke:#ABABAB;stroke-width:0.4517;stroke-linecap:round;}
	.st92{clip-path:url(#SVGID_125_);fill:none;stroke:#161A42;stroke-width:0.4513;stroke-linecap:round;}
	.st93{clip-path:url(#SVGID_127_);}
	.st94{clip-path:url(#SVGID_131_);}
	.st95{clip-path:url(#SVGID_133_);fill:#FFFFFF;}
	.st96{clip-path:url(#SVGID_135_);fill:#FFFFFF;}
	.st97{clip-path:url(#SVGID_131_);fill:none;}
	.st98{clip-path:url(#SVGID_193_);}
	.st99{clip-path:url(#SVGID_195_);fill:#FFFFFF;}
	.st100{clip-path:url(#SVGID_197_);fill:#FFFFFF;}
	.st101{clip-path:url(#SVGID_199_);fill:#161A42;}
	.st102{clip-path:url(#SVGID_201_);}
	.st103{clip-path:url(#SVGID_205_);}
	.st104{clip-path:url(#SVGID_207_);}
	.st105{clip-path:url(#SVGID_209_);}
	.st106{clip-path:url(#SVGID_211_);fill:#071631;}
	.st107{clip-path:url(#SVGID_213_);fill:#040404;}
	.st108{clip-path:url(#SVGID_215_);}
	.st109{clip-path:url(#SVGID_217_);}
	.st110{clip-path:url(#SVGID_219_);}
	.st111{clip-path:url(#SVGID_221_);}
	.st112{clip-path:url(#SVGID_223_);}
	.st113{clip-path:url(#SVGID_227_);}
	.st114{clip-path:url(#SVGID_229_);}
	.st115{clip-path:url(#SVGID_231_);}
	.st116{clip-path:url(#SVGID_233_);fill:#F2BD21;}
	.st117{clip-path:url(#SVGID_235_);fill:#FFFFFF;}
	.st118{clip-path:url(#SVGID_237_);}
	.st119{clip-path:url(#SVGID_239_);}
	.st120{clip-path:url(#SVGID_241_);}
	.st121{clip-path:url(#SVGID_243_);fill:#F2BD21;}
	.st122{clip-path:url(#SVGID_245_);fill:#1C4222;}
	.st123{clip-path:url(#SVGID_247_);fill:#1C4222;}
	.st124{clip-path:url(#SVGID_249_);fill:#1C4222;}
	.st125{clip-path:url(#SVGID_251_);fill:#071631;}
	.st126{clip-path:url(#SVGID_253_);fill:#FFC634;}
	.st127{clip-path:url(#SVGID_253_);fill:#161A42;}
	.st128{clip-path:url(#SVGID_255_);fill:#FFC634;}
	.st129{clip-path:url(#SVGID_255_);fill:#161A42;}
	.st130{clip-path:url(#SVGID_257_);fill:#FFC634;}
	.st131{clip-path:url(#SVGID_257_);fill:#161A42;}
	.st132{clip-path:url(#SVGID_259_);fill:#FFC634;}
	.st133{clip-path:url(#SVGID_259_);fill:#161A42;}
	.st134{clip-path:url(#SVGID_261_);fill:#FFC634;}
	.st135{clip-path:url(#SVGID_263_);fill:#FFC634;}
	.st136{clip-path:url(#SVGID_265_);fill:#FFC634;}
	.st137{clip-path:url(#SVGID_267_);fill:none;stroke:#ABABAB;stroke-width:0.4475;stroke-linecap:round;}
	.st138{clip-path:url(#SVGID_267_);fill:none;stroke:#161A42;stroke-width:0.4472;stroke-linecap:round;}
	.st139{clip-path:url(#SVGID_269_);}
	.st140{clip-path:url(#SVGID_275_);}
	.st141{clip-path:url(#SVGID_277_);fill:#FFFFFF;}
	.st142{clip-path:url(#SVGID_279_);fill:#FFFFFF;}
	.st143{clip-path:url(#SVGID_281_);fill:#171B43;}
	.st144{clip-path:url(#SVGID_283_);}
	.st145{clip-path:url(#SVGID_287_);}
	.st146{clip-path:url(#SVGID_289_);}
	.st147{clip-path:url(#SVGID_291_);}
	.st148{clip-path:url(#SVGID_293_);fill:#082735;}
	.st149{clip-path:url(#SVGID_295_);fill:#030302;}
	.st150{clip-path:url(#SVGID_297_);}
	.st151{clip-path:url(#SVGID_299_);}
	.st152{clip-path:url(#SVGID_301_);}
	.st153{clip-path:url(#SVGID_303_);}
	.st154{clip-path:url(#SVGID_305_);}
	.st155{clip-path:url(#SVGID_309_);}
	.st156{clip-path:url(#SVGID_311_);}
	.st157{clip-path:url(#SVGID_313_);}
	.st158{clip-path:url(#SVGID_315_);fill:#F4BE22;}
	.st159{clip-path:url(#SVGID_317_);fill:#FFFFFF;}
	.st160{clip-path:url(#SVGID_319_);}
	.st161{clip-path:url(#SVGID_321_);}
	.st162{clip-path:url(#SVGID_323_);}
	.st163{clip-path:url(#SVGID_325_);fill:#F4BE22;}
	.st164{clip-path:url(#SVGID_327_);fill:#1B4221;}
	.st165{clip-path:url(#SVGID_329_);fill:#1B4221;}
	.st166{clip-path:url(#SVGID_331_);fill:#1B4221;}
	.st167{clip-path:url(#SVGID_333_);fill:#082735;}
	.st168{clip-path:url(#SVGID_335_);fill:#FFC733;}
	.st169{clip-path:url(#SVGID_335_);fill:#171B43;}
	.st170{clip-path:url(#SVGID_337_);fill:#FFC733;}
	.st171{clip-path:url(#SVGID_337_);fill:#171B43;}
	.st172{clip-path:url(#SVGID_339_);fill:#FFC733;}
	.st173{clip-path:url(#SVGID_339_);fill:#171B43;}
	.st174{clip-path:url(#SVGID_341_);fill:#FFC733;}
	.st175{clip-path:url(#SVGID_341_);fill:#171B43;}
	.st176{clip-path:url(#SVGID_343_);fill:#FFC733;}
	.st177{clip-path:url(#SVGID_345_);fill:#FFC733;}
	.st178{clip-path:url(#SVGID_347_);fill:#FFC733;}
	.st179{clip-path:url(#SVGID_349_);fill:none;stroke:#ABABAB;stroke-width:0.4474;stroke-linecap:round;}
	.st180{clip-path:url(#SVGID_349_);fill:none;stroke:#171B43;stroke-width:0.447;stroke-linecap:round;}
	.st181{clip-path:url(#SVGID_351_);}
	.st182{opacity:0.25;fill:url(#SVGID_356_);}
	.st183{fill:#78909C;}
	.st184{fill:#0E6C72;}
	.st185{fill:url(#SVGID_357_);}
	.st186{fill:url(#SVGID_358_);}
	.st187{fill:url(#SVGID_359_);}
	.st188{fill:url(#SVGID_360_);}
	.st189{fill:url(#SVGID_361_);}
	.st190{fill:url(#SVGID_362_);}
	.st191{fill:url(#SVGID_363_);}
	.st192{fill:url(#SVGID_364_);}
	.st193{fill:url(#SVGID_365_);}
	.st194{fill:url(#SVGID_366_);}
	.st195{fill:url(#SVGID_367_);}
	.st196{fill:url(#SVGID_368_);}
	.st197{fill:url(#SVGID_369_);}
	.st198{fill:url(#SVGID_370_);}
	.st199{fill:url(#SVGID_371_);}
	.st200{fill:url(#SVGID_372_);}
	.st201{fill:url(#SVGID_373_);}
	.st202{fill:url(#SVGID_374_);}
	.st203{fill:url(#SVGID_377_);}
	.st204{fill:url(#SVGID_380_);}
	.st205{clip-path:url(#SVGID_384_);fill:url(#SVGID_385_);}
	.st206{clip-path:url(#SVGID_384_);fill:url(#SVGID_386_);}
	.st207{fill:none;stroke:#FFFFFF;stroke-miterlimit:10;}
	.st208{clip-path:url(#SVGID_390_);fill:url(#SVGID_391_);}
	.st209{clip-path:url(#SVGID_390_);fill:url(#SVGID_392_);}
	.st210{fill:none;stroke:#000000;stroke-width:6;stroke-miterlimit:10;}
	.st211{fill:none;stroke:#000000;stroke-miterlimit:10;}
	.st212{fill:#EDEDED;}
	.st213{fill:#FF9900;}
	.st214{stroke:#FFFFFF;stroke-width:0.45;stroke-miterlimit:10;}
</style>
<rect x="2.8" y="4" class="st211" width="343.5" height="202"/>
<g>
	<path d="M108.1,86c0.1,1.2,0,2.4,0,3.6c0,11.3,0,22.6,0,33.8c0,0.7,0,0.7-0.6,0.7c-5.1,0-10.1,0-15.2,0c-0.6,0-0.6,0-0.6-0.7
		c0-6.7,0-13.4,0-20.2c0-0.7,0-0.7-0.7-0.7c-6.7,0-13.4,0-20.1,0c-0.7,0-0.7,0-0.7-0.7c0-5.1,0-10.2,0-15.3c0-0.2,0-0.4,0-0.6
		C82.8,86,95.4,86,108.1,86z"/>
	<path d="M280.1,110.5c-4.8,0-9.5,0-14.3,0c-0.7,0-0.7,0.1-0.6,0.7c0.3,1.6,0.9,2.9,2.3,3.8c2,1.3,5.4,1,6.6-1.8
		c0.1-0.3,0.3-0.4,0.7-0.4c1.6,0,3.1,0,4.7,0c0.5,0,0.5,0,0.4,0.5c-1.2,3.7-3.6,5.8-7.4,6.5c-2.4,0.4-4.7,0.3-7-0.6
		c-2.4-1-4.2-2.7-5.1-5.1c-1.4-3.5-1.3-7.1,0.4-10.5c1.2-2.5,3.3-4.1,5.9-4.8c2.4-0.7,4.8-0.6,7.1,0.1c2.7,0.9,4.5,2.8,5.5,5.4
		c0.4,1.1,0.7,2.2,0.8,3.4c0,0.1,0,0.2,0.1,0.3C280.1,108.9,280.1,109.7,280.1,110.5z M269.9,107.1c1.4,0,2.8,0,4.1,0
		c0.3,0,0.5,0,0.5-0.4c-0.1-1.2-0.5-2.3-1.5-3.2c-1.3-1.1-2.8-1.3-4.3-0.9c-2,0.5-3,2-3.4,3.9c-0.1,0.5,0,0.6,0.5,0.6
		C267.2,107.1,268.6,107.1,269.9,107.1z"/>
	<path d="M212.7,102.3c0.6-1.1,1.4-2,2.4-2.7c2.3-1.5,4.9-1.7,7.4-0.7c2.6,0.9,3.8,3,4.4,5.6c0.2,0.9,0.3,1.9,0.3,2.9
		c0,3.9,0,7.8,0,11.7c0,0.6,0,0.6-0.7,0.6c-1.5,0-3,0-4.5,0c-0.7,0-0.7,0-0.7-0.7c0-3.7,0-7.4,0-11.1c0-0.8-0.1-1.5-0.3-2.2
		c-0.6-1.7-2.1-2.3-3.8-2.2c-2.4,0.2-3.5,1.8-3.6,4c-0.1,3.1,0,6.2,0,9.3c0,0.8,0,1.5,0,2.3c0,0.4-0.1,0.6-0.6,0.6
		c-1.6,0-3.1,0-4.7,0c-0.6,0-0.6,0-0.6-0.6c0-3.8,0-7.6,0-11.5c0-0.7-0.1-1.4-0.4-2c-0.7-1.6-2.1-2.3-3.8-2.1
		c-2,0.3-3.1,1.3-3.5,3.3c-0.1,0.5-0.1,1.1-0.1,1.6c0,3.5,0,7.1,0,10.6c0,0.6,0,0.6-0.6,0.6c-1.5,0-3.1,0-4.6,0
		c-0.4,0-0.6-0.1-0.6-0.6c0-6.5,0-13.1,0-19.6c0-0.4,0.1-0.6,0.6-0.6c1.5,0,3.1,0,4.6,0c0.6,0,0.6,0,0.6,0.6c0,0.8,0,1.6,0,2.5
		c1.4-2.6,3.5-3.7,6.4-3.6C209.2,98.4,211.4,99.7,212.7,102.3z"/>
	<path d="M129.2,105.4c0-4.5,0-9.1,0-13.6c0-0.6,0-0.6,0.6-0.6c4.7,0,9.4,0,14.1,0c2.7,0,5.1,0.8,7,2.6c1.3,1.2,2.1,2.8,2.5,4.6
		c0.4,2,0.2,4-0.7,5.8c-1.2,2.5-3.2,4-5.9,4.8c-1.1,0.3-2.3,0.4-3.4,0.4c-2.4,0-4.8,0-7.2,0c-0.6,0-0.6,0-0.6,0.6c0,3,0,6,0,9.1
		c0,0.6,0,0.6-0.6,0.6c-1.7,0-3.5,0-5.2,0c-0.6,0-0.6,0-0.6-0.6C129.2,114.5,129.2,109.9,129.2,105.4z M135.7,100.2
		c0,1.2,0,2.5,0,3.7c0,0.4,0.1,0.6,0.5,0.6c2.1,0,4.3,0,6.4,0c0.5,0,1-0.1,1.6-0.2c2.3-0.6,3.6-2.9,3.1-5.1
		c-0.5-1.9-2.3-3.2-4.4-3.2c-2.2,0-4.5,0-6.7,0c-0.4,0-0.5,0.1-0.5,0.5C135.7,97.7,135.7,99,135.7,100.2z"/>
	<path d="M184,110.5c-2.3,0-4.6,0-6.9,0c-0.6,0-0.6,0.1-0.6,0.6c0.3,1.6,0.9,3,2.4,3.9c2,1.2,5.4,0.9,6.6-1.8
		c0.1-0.3,0.3-0.4,0.7-0.4c1.6,0,3.1,0,4.7,0c0.5,0,0.5,0,0.4,0.5c-1.2,3.8-3.9,6-7.8,6.6c-2.4,0.4-4.8,0.2-7.1-0.9
		c-3.1-1.5-4.8-4.1-5.3-7.5c-0.3-2-0.3-4,0.3-5.9c1.2-3.9,3.8-6.3,7.8-7.1c2.7-0.5,5.4-0.3,7.9,1.2c2.2,1.3,3.4,3.4,4.1,5.9
		c0.4,1.5,0.5,3,0.5,4.5c0,0.4-0.2,0.4-0.5,0.4c-2.2,0-4.4,0-6.6,0C184.3,110.5,184.2,110.5,184,110.5z M181.4,107.1
		c1.2,0,2.3,0,3.5,0c1.3,0,1.3,0,1-1.3c-0.8-3-4.3-4.4-6.9-2.6c-1.3,0.8-1.9,2.1-2.1,3.5c-0.1,0.4,0.1,0.4,0.4,0.4
		C178.6,107.1,180,107.1,181.4,107.1z"/>
	<path d="M70.1,115.8c0-2.6,0-5.1,0-7.7c0-0.6,0-0.6,0.6-0.6c5.1,0,10.2,0,15.3,0c0.6,0,0.6,0,0.6,0.6c0,5.1,0,10.3,0,15.4
		c0,0.6,0,0.6-0.6,0.6c-5.1,0-10.2,0-15.3,0c-0.6,0-0.6,0-0.6-0.6C70.1,120.9,70.1,118.3,70.1,115.8z"/>
	<path d="M254.9,105.5c-0.7,0-1.4,0-2.1,0c-0.3,0-0.5-0.1-0.6-0.4c-0.5-1.8-1.4-2.5-3.3-2.7c-0.9-0.1-1.7,0-2.5,0.4
		c-0.4,0.2-0.8,0.5-1,0.8c-0.5,0.9-0.2,1.9,0.7,2.3c1,0.5,2.2,0.7,3.3,1c1.6,0.4,3.3,0.7,4.9,1.3c2.7,1.1,3.7,3.1,3.4,5.9
		c-0.3,3-2.1,4.7-4.9,5.5c-3,0.8-6,0.8-8.9-0.4c-2.6-1-4.1-3-4.6-5.7c-0.1-0.3-0.1-0.6-0.1-1c0-0.3,0.1-0.4,0.3-0.4c1.5,0,3,0,4.5,0
		c0.3,0,0.4,0.2,0.4,0.4c0.3,1.1,0.8,2.1,1.8,2.7c1.6,0.8,3.2,0.9,4.9,0.1c0.8-0.4,1-1.1,1-1.9c0-0.8-0.5-1.2-1.2-1.5
		c-1.2-0.5-2.5-0.7-3.7-1c-1.4-0.3-2.9-0.6-4.2-1.2c-0.9-0.4-1.8-1-2.4-1.8c-0.9-1.3-1-2.8-0.8-4.3c0.3-2.3,1.7-3.8,3.9-4.6
		c3.1-1.1,6.3-1.1,9.4,0.1c2.7,1,3.9,3.1,4.4,5.9c0.1,0.4-0.1,0.5-0.4,0.5C256.4,105.5,255.7,105.5,254.9,105.5z"/>
	<path d="M161.7,103.9c0.5-1.3,1.2-2.4,2.3-3.3c1.3-1.1,2.8-1.6,4.4-1.8c0.6-0.1,1.1-0.1,1.7-0.1c0.3,0,0.5,0.1,0.5,0.4
		c0,1.7,0,3.4,0,5.1c0,0.3-0.1,0.4-0.4,0.4c-1.6-0.1-3.2-0.2-4.7,0.3c-1.8,0.6-2.9,1.8-3.3,3.6c-0.2,0.9-0.4,1.8-0.4,2.7
		c0,2.6,0,5.1,0,7.7c0,0.6,0,0.7-0.7,0.7c-1.5,0-3.1,0-4.6,0c-0.4,0-0.6-0.1-0.6-0.6c0-6.5,0-13.1,0-19.6c0-0.6,0-0.6,0.6-0.6
		c1.5,0,3.1,0,4.6,0c0.6,0,0.6,0,0.6,0.6c0,1.3,0,2.6,0,3.8C161.6,103.5,161.6,103.7,161.7,103.9z"/>
	<path d="M236.5,109.3c0,3.2,0,6.5,0,9.7c0,0.6,0,0.6-0.6,0.6c-1.5,0-3.1,0-4.6,0c-0.4,0-0.6-0.1-0.6-0.5c0-6.6,0-13.1,0-19.7
		c0-0.4,0.1-0.6,0.5-0.6c1.6,0,3.1,0,4.7,0c0.4,0,0.6,0.1,0.6,0.6C236.5,102.7,236.5,106,236.5,109.3z"/>
	<path d="M236.9,92.5c0,0.9,0,1.9,0,2.8c0,0.4-0.1,0.5-0.5,0.5c-1.9,0-3.7,0-5.6,0c-0.4,0-0.5-0.1-0.5-0.5c0-1.9,0-3.7,0-5.6
		c0-0.4,0.1-0.5,0.5-0.5c1.9,0,3.7,0,5.6,0c0.4,0,0.5,0.1,0.5,0.5C236.9,90.6,236.9,91.5,236.9,92.5z"/>
</g>
</svg>
