<svg xmlns="http://www.w3.org/2000/svg" viewBox="0 0 500 500" width="500" height="500" preserveAspectRatio="xMidYMid meet" style="width: 100%; height: 100%; transform: translate3d(0px, 0px, 0px);"><defs><clipPath id="__lottie_element_27"><rect width="500" height="500" x="0" y="0"></rect></clipPath></defs><g clip-path="url(#__lottie_element_27)"><g transform="matrix(1,0,0,1,251,240)" opacity="1" style="display: block;"><g opacity="1" transform="matrix(0.9161800146102905,0,0,0.9161800146102905,-1,10)"><path stroke-linecap="round" stroke-linejoin="miter" fill-opacity="0" stroke-miterlimit="4" stroke-dasharray=" 32" stroke-dashoffset="0" stroke="rgb(240,104,125)" stroke-opacity="1" stroke-width="6" d=" M0,-202 C111.48380279541016,-202 202,-111.48380279541016 202,0 C202,111.48380279541016 111.48380279541016,202 0,202 C-111.48380279541016,202 -202,111.48380279541016 -202,0 C-202,-111.48380279541016 -111.48380279541016,-202 0,-202z"></path></g></g><g style="display: block;" transform="matrix(1,0,0,1,251,240)" opacity="1"><g opacity="1" transform="matrix(0.9161800146102905,0,0,0.9161800146102905,-1,10)"><path stroke-linecap="round" stroke-linejoin="miter" fill-opacity="0" stroke-miterlimit="4" stroke="rgb(254,153,0)" stroke-opacity="1" stroke-width="35" d=" M0,-202 C111.48380279541016,-202 202,-111.48380279541016 202,0 C202,111.48380279541016 111.48380279541016,202 0,202 C-111.48380279541016,202 -202,111.48380279541016 -202,0 C-202,-57.97700119018555 -177.52000427246094,-110.28299713134766 -138.3419952392578,-147.13600158691406"></path></g></g><g transform="matrix(0.862892746925354,-0.5053870677947998,0.5053870677947998,0.862892746925354,227.16990661621094,236.70358276367188)" opacity="1" style="display: block;"><g opacity="1" transform="matrix(1.469290018081665,0,0,1.469290018081665,13,23)"><path stroke-linecap="butt" stroke-linejoin="miter" fill-opacity="0" stroke-miterlimit="4" stroke="rgb(254,153,0)" stroke-opacity="1" stroke-width="2.5" d=" M0,-89 C27.572999954223633,-89 52.23500061035156,-76.43299865722656 68.56500244140625,-56.720001220703125"></path></g></g><g transform="matrix(-1.1532529592514038,0.09090203791856766,-0.09090203791856766,-1.1532529592514038,267.0134582519531,275.2791442871094)" opacity="1" style="display: block;"><g opacity="1" transform="matrix(-1.4578299522399902,0,0,-1.4578299522399902,13,23)"><path stroke-linecap="butt" stroke-linejoin="miter" fill-opacity="0" stroke-miterlimit="4" stroke="rgb(240,104,125)" stroke-opacity="1" stroke-width="2.5" d=" M0,-89 C27.572999954223633,-89 52.23500061035156,-76.43299865722656 68.56500244140625,-56.720001220703125"></path></g></g><g transform="matrix(1.6939448118209839,0.4995894730091095,-0.4995894730091095,1.6939448118209839,239.4752960205078,204.58160400390625)" opacity="1" style="display: block;"><g opacity="1" transform="matrix(1.0895929336547852,0.985697865486145,-0.985697865486145,1.0895929336547852,13,23)"><path stroke-linecap="butt" stroke-linejoin="miter" fill-opacity="0" stroke-miterlimit="4" stroke="rgb(240,104,125)" stroke-opacity="1" stroke-width="1.5" d=" M0,-89 C27.572999954223633,-89 52.23500061035156,-76.43299865722656 68.56500244140625,-56.720001220703125"></path></g></g></g></svg>