<svg version="1.1" id="Layer_1" xmlns="http://www.w3.org/2000/svg" xmlns:xlink="http://www.w3.org/1999/xlink"
height="80px" width="100%"
 x="0px" y="0px" viewBox="0 0 200 200" style="enable-background:new 0 0 200 200;" xml:space="preserve">
<style type="text/css">
	.st0{fill:#FFFFFF;}
	.st1{fill:#FFFFFF;stroke:#FFFFFF;stroke-width:5;stroke-miterlimit:10;}
	.st2{fill:#008FD8;}
	.st3{fill:#1D4288;}
	.st4{fill:#FF687D;}
	.st5{fill-rule:evenodd;clip-rule:evenodd;}
	.st6{fill:#B2B2B2;}
	.st7{fill-rule:evenodd;clip-rule:evenodd;fill:#B2B2B2;}
	.st8{fill:#111010;}
	.st9{fill-rule:evenodd;clip-rule:evenodd;fill:#FF687D;}
	.st10{fill:none;}
	.st11{fill:#3A4348;}
	.st12{fill:#F09000;}
	.st13{fill:#2E2C27;}
	.st14{fill:#8D8D8B;}
	.st15{fill:#E5282A;}
	.st16{fill:#F3AE1C;}
	.st17{fill:#2399D4;}
	.st18{fill:#243F80;}
	.st19{fill:#C2282A;}
	.st20{fill:#2C2D3A;}
	.st21{fill:url(#SVGID_3_);}
	.st22{fill:#1680C1;}
	.st23{fill:#22B4DC;}
	.st24{fill:#32609A;}
	.st25{fill:#ACB5C5;}
	.st26{fill:#FF7400;}
	.st27{fill:#F7F7F7;}
	.st28{clip-path:url(#SVGID_5_);}
	.st29{fill-rule:evenodd;clip-rule:evenodd;fill:#FFFFFF;}
	.st30{clip-path:url(#SVGID_7_);}
	.st31{clip-path:url(#SVGID_9_);}
	.st32{clip-path:url(#SVGID_11_);fill:#FFFFFF;}
	.st33{clip-path:url(#SVGID_13_);}
	.st34{clip-path:url(#SVGID_15_);fill:#FFFFFF;}
	.st35{clip-path:url(#SVGID_17_);}
	.st36{clip-path:url(#SVGID_19_);fill:#161A42;}
	.st37{clip-path:url(#SVGID_21_);}
	.st38{clip-path:url(#SVGID_23_);}
	.st39{clip-path:url(#SVGID_27_);}
	.st40{clip-path:url(#SVGID_29_);}
	.st41{clip-path:url(#SVGID_31_);}
	.st42{clip-path:url(#SVGID_33_);}
	.st43{clip-path:url(#SVGID_35_);fill:#161A42;}
	.st44{clip-path:url(#SVGID_37_);}
	.st45{clip-path:url(#SVGID_39_);fill:#040404;}
	.st46{clip-path:url(#SVGID_41_);}
	.st47{clip-path:url(#SVGID_43_);}
	.st48{clip-path:url(#SVGID_45_);}
	.st49{clip-path:url(#SVGID_47_);}
	.st50{clip-path:url(#SVGID_49_);}
	.st51{clip-path:url(#SVGID_51_);}
	.st52{clip-path:url(#SVGID_55_);}
	.st53{clip-path:url(#SVGID_57_);}
	.st54{clip-path:url(#SVGID_59_);}
	.st55{clip-path:url(#SVGID_61_);}
	.st56{clip-path:url(#SVGID_63_);fill:#F2BD21;}
	.st57{clip-path:url(#SVGID_65_);}
	.st58{clip-path:url(#SVGID_67_);fill:#FFFFFF;}
	.st59{clip-path:url(#SVGID_69_);}
	.st60{clip-path:url(#SVGID_71_);}
	.st61{clip-path:url(#SVGID_73_);}
	.st62{clip-path:url(#SVGID_75_);}
	.st63{clip-path:url(#SVGID_77_);fill:#446AAF;}
	.st64{clip-path:url(#SVGID_79_);}
	.st65{clip-path:url(#SVGID_81_);fill:#456BB0;}
	.st66{clip-path:url(#SVGID_83_);}
	.st67{clip-path:url(#SVGID_85_);fill:#456BB0;}
	.st68{clip-path:url(#SVGID_87_);}
	.st69{clip-path:url(#SVGID_89_);fill:#456BB0;}
	.st70{clip-path:url(#SVGID_91_);}
	.st71{clip-path:url(#SVGID_93_);fill:#161A42;}
	.st72{clip-path:url(#SVGID_95_);}
	.st73{clip-path:url(#SVGID_97_);fill:#FFC634;}
	.st74{clip-path:url(#SVGID_97_);fill:#161A42;}
	.st75{clip-path:url(#SVGID_99_);}
	.st76{clip-path:url(#SVGID_101_);fill:#FFC634;}
	.st77{clip-path:url(#SVGID_101_);fill:#161A42;}
	.st78{clip-path:url(#SVGID_103_);}
	.st79{clip-path:url(#SVGID_105_);fill:#FFC634;}
	.st80{clip-path:url(#SVGID_105_);fill:#161A42;}
	.st81{clip-path:url(#SVGID_107_);}
	.st82{clip-path:url(#SVGID_109_);fill:#FFC634;}
	.st83{clip-path:url(#SVGID_109_);fill:#161A42;}
	.st84{clip-path:url(#SVGID_111_);}
	.st85{clip-path:url(#SVGID_113_);fill:#FFC634;}
	.st86{clip-path:url(#SVGID_115_);}
	.st87{clip-path:url(#SVGID_117_);fill:#FFC634;}
	.st88{clip-path:url(#SVGID_119_);}
	.st89{clip-path:url(#SVGID_121_);fill:#FFC634;}
	.st90{clip-path:url(#SVGID_123_);}
	.st91{clip-path:url(#SVGID_125_);fill:none;stroke:#ABABAB;stroke-width:0.4517;stroke-linecap:round;}
	.st92{clip-path:url(#SVGID_125_);fill:none;stroke:#161A42;stroke-width:0.4513;stroke-linecap:round;}
	.st93{clip-path:url(#SVGID_127_);}
	.st94{clip-path:url(#SVGID_131_);}
	.st95{clip-path:url(#SVGID_133_);fill:#FFFFFF;}
	.st96{clip-path:url(#SVGID_135_);fill:#FFFFFF;}
	.st97{clip-path:url(#SVGID_131_);fill:none;}
	.st98{clip-path:url(#SVGID_193_);}
	.st99{clip-path:url(#SVGID_195_);fill:#FFFFFF;}
	.st100{clip-path:url(#SVGID_197_);fill:#FFFFFF;}
	.st101{clip-path:url(#SVGID_199_);fill:#161A42;}
	.st102{clip-path:url(#SVGID_201_);}
	.st103{clip-path:url(#SVGID_205_);}
	.st104{clip-path:url(#SVGID_207_);}
	.st105{clip-path:url(#SVGID_209_);}
	.st106{clip-path:url(#SVGID_211_);fill:#071631;}
	.st107{clip-path:url(#SVGID_213_);fill:#040404;}
	.st108{clip-path:url(#SVGID_215_);}
	.st109{clip-path:url(#SVGID_217_);}
	.st110{clip-path:url(#SVGID_219_);}
	.st111{clip-path:url(#SVGID_221_);}
	.st112{clip-path:url(#SVGID_223_);}
	.st113{clip-path:url(#SVGID_227_);}
	.st114{clip-path:url(#SVGID_229_);}
	.st115{clip-path:url(#SVGID_231_);}
	.st116{clip-path:url(#SVGID_233_);fill:#F2BD21;}
	.st117{clip-path:url(#SVGID_235_);fill:#FFFFFF;}
	.st118{clip-path:url(#SVGID_237_);}
	.st119{clip-path:url(#SVGID_239_);}
	.st120{clip-path:url(#SVGID_241_);}
	.st121{clip-path:url(#SVGID_243_);fill:#F2BD21;}
	.st122{clip-path:url(#SVGID_245_);fill:#1C4222;}
	.st123{clip-path:url(#SVGID_247_);fill:#1C4222;}
	.st124{clip-path:url(#SVGID_249_);fill:#1C4222;}
	.st125{clip-path:url(#SVGID_251_);fill:#071631;}
	.st126{clip-path:url(#SVGID_253_);fill:#FFC634;}
	.st127{clip-path:url(#SVGID_253_);fill:#161A42;}
	.st128{clip-path:url(#SVGID_255_);fill:#FFC634;}
	.st129{clip-path:url(#SVGID_255_);fill:#161A42;}
	.st130{clip-path:url(#SVGID_257_);fill:#FFC634;}
	.st131{clip-path:url(#SVGID_257_);fill:#161A42;}
	.st132{clip-path:url(#SVGID_259_);fill:#FFC634;}
	.st133{clip-path:url(#SVGID_259_);fill:#161A42;}
	.st134{clip-path:url(#SVGID_261_);fill:#FFC634;}
	.st135{clip-path:url(#SVGID_263_);fill:#FFC634;}
	.st136{clip-path:url(#SVGID_265_);fill:#FFC634;}
	.st137{clip-path:url(#SVGID_267_);fill:none;stroke:#ABABAB;stroke-width:0.4475;stroke-linecap:round;}
	.st138{clip-path:url(#SVGID_267_);fill:none;stroke:#161A42;stroke-width:0.4472;stroke-linecap:round;}
	.st139{clip-path:url(#SVGID_269_);}
	.st140{clip-path:url(#SVGID_275_);}
	.st141{clip-path:url(#SVGID_277_);fill:#FFFFFF;}
	.st142{clip-path:url(#SVGID_279_);fill:#FFFFFF;}
	.st143{clip-path:url(#SVGID_281_);fill:#171B43;}
	.st144{clip-path:url(#SVGID_283_);}
	.st145{clip-path:url(#SVGID_287_);}
	.st146{clip-path:url(#SVGID_289_);}
	.st147{clip-path:url(#SVGID_291_);}
	.st148{clip-path:url(#SVGID_293_);fill:#082735;}
	.st149{clip-path:url(#SVGID_295_);fill:#030302;}
	.st150{clip-path:url(#SVGID_297_);}
	.st151{clip-path:url(#SVGID_299_);}
	.st152{clip-path:url(#SVGID_301_);}
	.st153{clip-path:url(#SVGID_303_);}
	.st154{clip-path:url(#SVGID_305_);}
	.st155{clip-path:url(#SVGID_309_);}
	.st156{clip-path:url(#SVGID_311_);}
	.st157{clip-path:url(#SVGID_313_);}
	.st158{clip-path:url(#SVGID_315_);fill:#F4BE22;}
	.st159{clip-path:url(#SVGID_317_);fill:#FFFFFF;}
	.st160{clip-path:url(#SVGID_319_);}
	.st161{clip-path:url(#SVGID_321_);}
	.st162{clip-path:url(#SVGID_323_);}
	.st163{clip-path:url(#SVGID_325_);fill:#F4BE22;}
	.st164{clip-path:url(#SVGID_327_);fill:#1B4221;}
	.st165{clip-path:url(#SVGID_329_);fill:#1B4221;}
	.st166{clip-path:url(#SVGID_331_);fill:#1B4221;}
	.st167{clip-path:url(#SVGID_333_);fill:#082735;}
	.st168{clip-path:url(#SVGID_335_);fill:#FFC733;}
	.st169{clip-path:url(#SVGID_335_);fill:#171B43;}
	.st170{clip-path:url(#SVGID_337_);fill:#FFC733;}
	.st171{clip-path:url(#SVGID_337_);fill:#171B43;}
	.st172{clip-path:url(#SVGID_339_);fill:#FFC733;}
	.st173{clip-path:url(#SVGID_339_);fill:#171B43;}
	.st174{clip-path:url(#SVGID_341_);fill:#FFC733;}
	.st175{clip-path:url(#SVGID_341_);fill:#171B43;}
	.st176{clip-path:url(#SVGID_343_);fill:#FFC733;}
	.st177{clip-path:url(#SVGID_345_);fill:#FFC733;}
	.st178{clip-path:url(#SVGID_347_);fill:#FFC733;}
	.st179{clip-path:url(#SVGID_349_);fill:none;stroke:#ABABAB;stroke-width:0.4474;stroke-linecap:round;}
	.st180{clip-path:url(#SVGID_349_);fill:none;stroke:#171B43;stroke-width:0.447;stroke-linecap:round;}
	.st181{clip-path:url(#SVGID_351_);}
	.st182{opacity:0.25;fill:url(#SVGID_356_);}
	.st183{fill:#78909C;}
	.st184{fill:#0E6C72;}
	.st185{fill:url(#SVGID_357_);}
	.st186{fill:url(#SVGID_358_);}
	.st187{fill:url(#SVGID_359_);}
	.st188{fill:url(#SVGID_360_);}
	.st189{fill:url(#SVGID_361_);}
	.st190{fill:url(#SVGID_362_);}
	.st191{fill:url(#SVGID_363_);}
	.st192{fill:url(#SVGID_364_);}
	.st193{fill:url(#SVGID_365_);}
	.st194{fill:url(#SVGID_366_);}
	.st195{fill:url(#SVGID_367_);}
	.st196{fill:url(#SVGID_368_);}
	.st197{fill:url(#SVGID_369_);}
	.st198{fill:url(#SVGID_370_);}
	.st199{fill:url(#SVGID_371_);}
	.st200{fill:url(#SVGID_372_);}
	.st201{fill:url(#SVGID_373_);}
	.st202{fill:url(#SVGID_374_);}
	.st203{fill:url(#SVGID_377_);}
	.st204{fill:url(#SVGID_380_);}
	.st205{clip-path:url(#SVGID_384_);fill:url(#SVGID_385_);}
	.st206{clip-path:url(#SVGID_384_);fill:url(#SVGID_386_);}
	.st207{fill:none;stroke:#FFFFFF;stroke-miterlimit:10;}
	.st208{clip-path:url(#SVGID_390_);fill:url(#SVGID_391_);}
	.st209{clip-path:url(#SVGID_390_);fill:url(#SVGID_392_);}
	.st210{fill:none;stroke:#000000;stroke-width:6;stroke-miterlimit:10;}
	.st211{fill:none;stroke:#000000;stroke-miterlimit:10;}
	.st212{fill:#EDEDED;}
	.st213{fill:#FF9900;}
</style>
<g>
	<path class="st4" d="M34.8,93.9c0-23.1,14.5-43.6,36.2-51.4c6.1-2.2,12.4-3.4,18.9-3.2c21.2,0.8,37.3,10.3,47.7,28.8
		c5,8.8,7,18.5,6.5,28.6c-0.4,8.6-2.7,16.7-7,24.1c-0.6,1-0.5,1.6,0.3,2.4c14.6,14.5,29.2,29.1,43.8,43.7c2.3,2.3,3.8,5,4.3,8.3
		c1,7.1-4.8,14.2-11.9,14.6c-4.2,0.2-7.8-1.1-10.8-4.1c-14.6-14.6-29.2-29.1-43.7-43.7c-0.9-0.9-1.6-1.1-2.8-0.4
		c-7.8,4.4-16.1,6.8-25,6.9c-22,0.2-38.6-9.4-49.7-28.4c-3.8-6.6-5.8-13.8-6.5-21.5C34.9,97.1,34.8,95.5,34.8,93.9z M45.5,94
		c-0.1,23.6,18.9,44,44.1,43.9c25-0.1,44-20.7,43.7-44.7c-0.3-23.7-20-43.3-44-43.3C65.1,50.1,45.5,69.8,45.5,94z M172.3,179.2
		c1,0.1,1.6-0.3,2.1-1.1c0.5-0.8,0.5-1.6,0-2.4c-0.3-0.5-0.8-1-1.2-1.4c-13.9-13.9-27.7-27.7-41.6-41.6c-1.7-1.7-1.7-1.7-3.4,0
		c-0.3,0.3-0.6,0.6-0.9,0.9c-0.8,0.6-0.7,1.1,0,1.8c3.9,3.8,7.7,7.7,11.6,11.6c10.4,10.4,20.8,20.8,31.2,31.2
		C170.7,178.7,171.3,179.3,172.3,179.2z"></path>
	<path d="M117.5,156.7c-0.8,4.6-1.5,9.2-2.3,13.9c-0.1,0.9-0.5,1.3-1.4,1.6c-5.8,1.5-11.7,2.2-17.7,2.6c-3,0.2-6.1,0.3-9.1,0.2
		c-7.3-0.2-14.6-1-21.7-2.8c-1-0.2-1.5-0.7-1.6-1.7c-0.7-4.5-1.5-9-2.4-13.5c0,3.9,0,7.8,0,11.7c0,2.4,0,2.4-2.3,1.6
		c-4.2-1.5-8.2-3.2-11.9-5.7c-0.8-0.5-1.1-1.1-1.1-2.1c0-4.5,0-9.1,0.1-13.6c0.1-3.8,0.5-7.5,1.8-11.1c0.5-1.4,0.6-1.5,1.7-0.5
		c8.8,8.2,19.2,13.1,31.1,14.9c11.1,1.7,21.8,0.2,32.2-4.1c1.1-0.5,2.2-1,3.3-1.6c0.6-0.3,1.1-0.3,1.6,0.2c4.5,4.5,9,9,13.5,13.6
		c1.3,1.3,0.9,4.1-0.7,5c-3.6,2.1-7.4,3.9-11.4,5.1c-1.3,0.4-1.5,0.3-1.5-1.1c0-3.9,0-7.7,0-11.6c0-0.4,0-0.8,0-1.2
		C117.6,156.7,117.5,156.7,117.5,156.7z"></path>
	<path d="M16.6,129c0,4.2,0,8.4,0,12.6c0,1.7-0.1,1.8-1.7,1.3c-4.3-1.5-8.4-3.3-12.3-5.8c-0.9-0.6-1.3-1.3-1.3-2.4
		c0.1-5.5-0.2-10.9,0.2-16.4c0.9-11.3,5.9-19,17-23.3c3.4-1.3,6.9-2.1,10.4-2.7c1.4-0.2,1.5-0.1,1.5,1.3c0,13.7,4.2,26,12.6,36.8
		c0.7,1,0.9,1.7,0.4,2.8c-1.8,3.7-2.6,7.7-3,11.7c-0.2,2.1-0.2,2.1-2.3,2c-5.9-0.3-11.8-1.1-17.5-2.5c-1.1-0.3-1.6-0.8-1.7-1.9
		c-0.7-4.5-1.5-9.1-2.2-13.6C16.7,129,16.7,129,16.6,129z"></path>
	<path d="M162.2,128.8c-0.5,3.2-1,6.4-1.6,9.6c-0.1,0.5,0,1.1-0.5,1.3c-0.5,0.2-0.8-0.4-1.1-0.7c-5.5-5.4-10.9-10.9-16.4-16.3
		c-0.8-0.8-0.9-1.4-0.4-2.4c4-8.2,6.1-16.8,6.1-25.9c0-2.2,0-2.2,2.2-1.8c4.9,0.9,9.7,2.2,14.1,4.7c7.6,4.2,11.5,10.8,12.4,19.2
		c0.7,6.3,0.2,12.7,0.3,19c0,0.8-0.5,1.2-1,1.6c-3.7,2.5-7.8,4.3-12,5.7c-1.5,0.5-2.1,0.1-2.1-1.5c0-4.1,0-8.3,0-12.4
		C162.3,128.8,162.2,128.8,162.2,128.8z"></path>
	<path d="M133.1,34.1c0-8.5,6.3-15.4,14.8-16.2c8-0.7,15.5,5.1,17,13c1.3,7.2-2.3,14.3-8.9,17.4c-0.9,0.4-1.4,0.3-2.1-0.4
		c-4-4.4-9-7.1-14.8-8.3c-1.2-0.2-2.5-0.5-3.8-0.4c-1.1,0.1-1.6-0.5-1.8-1.5C133.3,36.6,133,35.3,133.1,34.1z"></path>
	<path d="M29.3,17.9c10.7,0,18.3,9.4,16.2,19.3c-0.4,2-0.5,2-2.6,2.2C35.8,39.9,29.8,42.8,25,48c-0.7,0.7-1.2,0.9-2,0.4
		c-10-4.9-12.3-17.7-4.6-25.7C21.5,19.5,25.4,17.9,29.3,17.9z"></path>
	<path d="M168.8,77.7c-0.5,3.2-1.1,6.3-1.6,9.5c-0.1,0.9-0.5,1.3-1.4,1.5c-2.1,0.5-4.3,0.9-6.5,1.2c-0.6,0.1-1.1,0-1.6-0.2
		c-2-0.6-4-1-6.1-1.4c-0.4-0.1-0.9,0-1-0.4c-0.1-0.4,0.4-0.6,0.7-0.8c4.1-3.5,7.1-7.8,8.6-12.9c2.1-7.2,1.4-14.2-2.2-20.9
		c-0.2-0.3-0.4-0.7-0.5-1c-0.2-0.4,0-0.6,0.4-0.6c6.9,0.9,13.5,2.3,18,8.3c2,2.7,2.7,5.9,3,9.2c0.4,4.3,0.1,8.5,0.2,12.8
		c0,1-0.3,1.6-1.1,2.1c-2.4,1.4-5,2.5-7.6,3.4c-1,0.4-1.3-0.1-1.2-1C168.9,83.7,168.9,80.7,168.8,77.7
		C168.9,77.8,168.8,77.8,168.8,77.7z"></path>
	<path d="M10,78.1c0,2.8,0,5.7,0,8.5c0,1.1-0.4,1.3-1.4,1C6,86.6,3.4,85.5,1,84C0.5,83.7,0,83.4,0,82.8c0.1-5-0.3-10.1,0.4-15.1
		c1-7,4.9-11.5,11.4-13.9c2.9-1.1,5.9-1.6,9-2c0.3,0,0.5-0.1,0.7,0.1c0.2,0.3,0,0.6-0.2,0.9c-2.4,4-3.6,8.3-3.7,12.9
		c-0.1,6.6,1.9,12.5,6,17.6c1.2,1.4,2.4,2.7,3.8,3.9c0.2,0.2,0.6,0.4,0.5,0.8c-0.1,0.3-0.5,0.3-0.8,0.3c-2.1,0.4-4.2,0.9-6.3,1.5
		c-2,0.5-3.9-0.2-5.7-0.6c-3.3-0.6-3.4-0.7-3.9-4c-0.4-2.4-0.8-4.8-1.2-7.2C10.1,78,10.1,78,10,78.1z"></path>
	<path d="M134.2,43.5c11.5,0,21.2,8.4,22.6,19.9c1,8-1.6,14.8-7.7,20.2c-1.2,1.1-1.3,1-1.6-0.6c-1.4-7.4-4.1-14.3-8.1-20.7
		c-3.8-6-8.6-11.1-14.2-15.4c-1.2-0.9-1.2-1,0.2-1.6C128.1,44.1,131.1,43.5,134.2,43.5z"></path>
	<path d="M44.8,43.6c3.1-0.1,6.1,0.5,9,1.8c1.2,0.6,1.3,0.7,0.1,1.5c-5.7,4.3-10.4,9.4-14.2,15.4c-4,6.3-6.8,13.1-8.2,20.5
		c-0.4,1.9-0.5,2-2,0.6c-4.4-4.1-7-9.1-7.5-15.2C21,56.1,29.7,45,42.5,43.6C43.3,43.5,44.1,43.6,44.8,43.6z"></path>
	<path d="M105.3,34c0,3.2,0,3.1-3.1,2.5c-9-1.9-18-1.9-26.9,0.3c-1.7,0.4-1.8,0.4-1.9-1.3c-0.9-8.3,4.9-15.9,13.2-17.3
		C96.4,16.5,105.3,24,105.3,34z"></path>
	<path d="M59.9,10c6.5,0,11.4,5,11.4,11.6c0,6.2-5.2,11.3-11.4,11.3c-6.3,0-11.5-5.2-11.5-11.5C48.3,15.1,53.5,10,59.9,10z"></path>
	<path d="M119.6,10c6.4,0,11.4,5,11.4,11.5c0,6.3-5.1,11.4-11.4,11.4c-6.3,0-11.5-5.2-11.5-11.5C108.1,15.1,113.2,10,119.6,10z"></path>
	<path d="M113.1,34.1c0.5-0.2,1,0,1.6,0.2c3.2,1.3,6.5,1.3,9.7,0c1.3-0.5,2.7-0.1,4,0.3c0.4,0.1,1.3,4.7,0.9,5
		c-0.2,0.2-0.5,0.3-0.8,0.3c-2.7,0.6-5.4,1.5-7.8,3c-0.7,0.4-1.2,0.4-1.9,0c-2.7-1.6-5.6-2.9-8.6-4c-0.9-0.3-1.1-0.8-1-1.7
		c0.4-2.6,0.4-2.6,3-2.9C112.6,34.1,112.8,34.1,113.1,34.1z"></path>
	<path d="M54,34c0.2,0,0.6,0.1,1,0.3c3.3,1.3,6.5,1.3,9.7-0.1c1.3-0.5,2.6,0,3.8,0.3c0.4,0.1,0.5,0.6,0.5,0.9c0.6,2.9,0.6,2.9-2.2,4
		c-2.3,1-4.6,2.1-6.8,3.4c-0.7,0.4-1.3,0.4-2,0c-2.3-1.4-4.9-2.3-7.5-2.9c-1-0.2-1.3-0.5-1.1-1.5c0.2-0.7,0.4-1.4,0.4-2.1
		c0-1.4,0.7-2,2-2C52.5,34.3,53.2,34.1,54,34z"></path>
	<path d="M89.5,71.2c11.8-0.1,22.7,9.3,22.8,22.6c0.1,13.5-10.9,23-23,23c-12.4-0.1-22.7-10.3-22.7-22.8
		C66.6,81.4,76.8,71.2,89.5,71.2z"></path>
	<path d="M89.4,133.6c-9.7-0.1-18.2-3.2-25.7-9.4c-1.2-1-1.1-1.2,0.3-1.8c4.2-1.5,8.5-2.3,12.8-2.9c1-0.1,1.9,0.1,2.8,0.5
		c6.6,2.8,13.1,2.8,19.7-0.1c0.8-0.3,1.5-0.4,2.3-0.3c4.5,0.5,8.9,1.3,13.2,2.9c1.2,0.5,1.3,0.7,0.3,1.6c-6.1,5.2-13.1,8.3-21.1,9.3
		C92.7,133.5,91.1,133.6,89.4,133.6z"></path>
</g>
</svg>