<svg version="1.1" id="Layer_1" xmlns="http://www.w3.org/2000/svg" xmlns:xlink="http://www.w3.org/1999/xlink" 
height="80px" width="100%"
x="0px" y="0px" viewBox="0 0 200 200" style="enable-background:new 0 0 200 200;" xml:space="preserve">
<style type="text/css">
	.st0{fill:#FFFFFF;}
	.st1{fill:#FFFFFF;stroke:#FFFFFF;stroke-width:5;stroke-miterlimit:10;}
	.st2{fill:#008FD8;}
	.st3{fill:#1D4288;}
	.st4{fill:#FF687D;}
	.st5{fill-rule:evenodd;clip-rule:evenodd;}
	.st6{fill:#B2B2B2;}
	.st7{fill-rule:evenodd;clip-rule:evenodd;fill:#B2B2B2;}
	.st8{fill:#111010;}
	.st9{fill-rule:evenodd;clip-rule:evenodd;fill:#FF687D;}
	.st10{fill:none;}
	.st11{fill:#3A4348;}
	.st12{fill:#F09000;}
	.st13{fill:#2E2C27;}
	.st14{fill:#8D8D8B;}
	.st15{fill:#E5282A;}
	.st16{fill:#F3AE1C;}
	.st17{fill:#2399D4;}
	.st18{fill:#243F80;}
	.st19{fill:#C2282A;}
	.st20{fill:#2C2D3A;}
	.st21{fill:url(#SVGID_3_);}
	.st22{fill:#1680C1;}
	.st23{fill:#22B4DC;}
	.st24{fill:#32609A;}
	.st25{fill:#ACB5C5;}
	.st26{fill:#FF7400;}
	.st27{fill:#F7F7F7;}
	.st28{clip-path:url(#SVGID_5_);}
	.st29{fill-rule:evenodd;clip-rule:evenodd;fill:#FFFFFF;}
	.st30{clip-path:url(#SVGID_7_);}
	.st31{clip-path:url(#SVGID_9_);}
	.st32{clip-path:url(#SVGID_11_);fill:#FFFFFF;}
	.st33{clip-path:url(#SVGID_13_);}
	.st34{clip-path:url(#SVGID_15_);fill:#FFFFFF;}
	.st35{clip-path:url(#SVGID_17_);}
	.st36{clip-path:url(#SVGID_19_);fill:#161A42;}
	.st37{clip-path:url(#SVGID_21_);}
	.st38{clip-path:url(#SVGID_23_);}
	.st39{clip-path:url(#SVGID_27_);}
	.st40{clip-path:url(#SVGID_29_);}
	.st41{clip-path:url(#SVGID_31_);}
	.st42{clip-path:url(#SVGID_33_);}
	.st43{clip-path:url(#SVGID_35_);fill:#161A42;}
	.st44{clip-path:url(#SVGID_37_);}
	.st45{clip-path:url(#SVGID_39_);fill:#040404;}
	.st46{clip-path:url(#SVGID_41_);}
	.st47{clip-path:url(#SVGID_43_);}
	.st48{clip-path:url(#SVGID_45_);}
	.st49{clip-path:url(#SVGID_47_);}
	.st50{clip-path:url(#SVGID_49_);}
	.st51{clip-path:url(#SVGID_51_);}
	.st52{clip-path:url(#SVGID_55_);}
	.st53{clip-path:url(#SVGID_57_);}
	.st54{clip-path:url(#SVGID_59_);}
	.st55{clip-path:url(#SVGID_61_);}
	.st56{clip-path:url(#SVGID_63_);fill:#F2BD21;}
	.st57{clip-path:url(#SVGID_65_);}
	.st58{clip-path:url(#SVGID_67_);fill:#FFFFFF;}
	.st59{clip-path:url(#SVGID_69_);}
	.st60{clip-path:url(#SVGID_71_);}
	.st61{clip-path:url(#SVGID_73_);}
	.st62{clip-path:url(#SVGID_75_);}
	.st63{clip-path:url(#SVGID_77_);fill:#446AAF;}
	.st64{clip-path:url(#SVGID_79_);}
	.st65{clip-path:url(#SVGID_81_);fill:#456BB0;}
	.st66{clip-path:url(#SVGID_83_);}
	.st67{clip-path:url(#SVGID_85_);fill:#456BB0;}
	.st68{clip-path:url(#SVGID_87_);}
	.st69{clip-path:url(#SVGID_89_);fill:#456BB0;}
	.st70{clip-path:url(#SVGID_91_);}
	.st71{clip-path:url(#SVGID_93_);fill:#161A42;}
	.st72{clip-path:url(#SVGID_95_);}
	.st73{clip-path:url(#SVGID_97_);fill:#FFC634;}
	.st74{clip-path:url(#SVGID_97_);fill:#161A42;}
	.st75{clip-path:url(#SVGID_99_);}
	.st76{clip-path:url(#SVGID_101_);fill:#FFC634;}
	.st77{clip-path:url(#SVGID_101_);fill:#161A42;}
	.st78{clip-path:url(#SVGID_103_);}
	.st79{clip-path:url(#SVGID_105_);fill:#FFC634;}
	.st80{clip-path:url(#SVGID_105_);fill:#161A42;}
	.st81{clip-path:url(#SVGID_107_);}
	.st82{clip-path:url(#SVGID_109_);fill:#FFC634;}
	.st83{clip-path:url(#SVGID_109_);fill:#161A42;}
	.st84{clip-path:url(#SVGID_111_);}
	.st85{clip-path:url(#SVGID_113_);fill:#FFC634;}
	.st86{clip-path:url(#SVGID_115_);}
	.st87{clip-path:url(#SVGID_117_);fill:#FFC634;}
	.st88{clip-path:url(#SVGID_119_);}
	.st89{clip-path:url(#SVGID_121_);fill:#FFC634;}
	.st90{clip-path:url(#SVGID_123_);}
	.st91{clip-path:url(#SVGID_125_);fill:none;stroke:#ABABAB;stroke-width:0.4517;stroke-linecap:round;}
	.st92{clip-path:url(#SVGID_125_);fill:none;stroke:#161A42;stroke-width:0.4513;stroke-linecap:round;}
	.st93{clip-path:url(#SVGID_127_);}
	.st94{clip-path:url(#SVGID_131_);}
	.st95{clip-path:url(#SVGID_133_);fill:#FFFFFF;}
	.st96{clip-path:url(#SVGID_135_);fill:#FFFFFF;}
	.st97{clip-path:url(#SVGID_131_);fill:none;}
	.st98{clip-path:url(#SVGID_193_);}
	.st99{clip-path:url(#SVGID_195_);fill:#FFFFFF;}
	.st100{clip-path:url(#SVGID_197_);fill:#FFFFFF;}
	.st101{clip-path:url(#SVGID_199_);fill:#161A42;}
	.st102{clip-path:url(#SVGID_201_);}
	.st103{clip-path:url(#SVGID_205_);}
	.st104{clip-path:url(#SVGID_207_);}
	.st105{clip-path:url(#SVGID_209_);}
	.st106{clip-path:url(#SVGID_211_);fill:#071631;}
	.st107{clip-path:url(#SVGID_213_);fill:#040404;}
	.st108{clip-path:url(#SVGID_215_);}
	.st109{clip-path:url(#SVGID_217_);}
	.st110{clip-path:url(#SVGID_219_);}
	.st111{clip-path:url(#SVGID_221_);}
	.st112{clip-path:url(#SVGID_223_);}
	.st113{clip-path:url(#SVGID_227_);}
	.st114{clip-path:url(#SVGID_229_);}
	.st115{clip-path:url(#SVGID_231_);}
	.st116{clip-path:url(#SVGID_233_);fill:#F2BD21;}
	.st117{clip-path:url(#SVGID_235_);fill:#FFFFFF;}
	.st118{clip-path:url(#SVGID_237_);}
	.st119{clip-path:url(#SVGID_239_);}
	.st120{clip-path:url(#SVGID_241_);}
	.st121{clip-path:url(#SVGID_243_);fill:#F2BD21;}
	.st122{clip-path:url(#SVGID_245_);fill:#1C4222;}
	.st123{clip-path:url(#SVGID_247_);fill:#1C4222;}
	.st124{clip-path:url(#SVGID_249_);fill:#1C4222;}
	.st125{clip-path:url(#SVGID_251_);fill:#071631;}
	.st126{clip-path:url(#SVGID_253_);fill:#FFC634;}
	.st127{clip-path:url(#SVGID_253_);fill:#161A42;}
	.st128{clip-path:url(#SVGID_255_);fill:#FFC634;}
	.st129{clip-path:url(#SVGID_255_);fill:#161A42;}
	.st130{clip-path:url(#SVGID_257_);fill:#FFC634;}
	.st131{clip-path:url(#SVGID_257_);fill:#161A42;}
	.st132{clip-path:url(#SVGID_259_);fill:#FFC634;}
	.st133{clip-path:url(#SVGID_259_);fill:#161A42;}
	.st134{clip-path:url(#SVGID_261_);fill:#FFC634;}
	.st135{clip-path:url(#SVGID_263_);fill:#FFC634;}
	.st136{clip-path:url(#SVGID_265_);fill:#FFC634;}
	.st137{clip-path:url(#SVGID_267_);fill:none;stroke:#ABABAB;stroke-width:0.4475;stroke-linecap:round;}
	.st138{clip-path:url(#SVGID_267_);fill:none;stroke:#161A42;stroke-width:0.4472;stroke-linecap:round;}
	.st139{clip-path:url(#SVGID_269_);}
	.st140{clip-path:url(#SVGID_275_);}
	.st141{clip-path:url(#SVGID_277_);fill:#FFFFFF;}
	.st142{clip-path:url(#SVGID_279_);fill:#FFFFFF;}
	.st143{clip-path:url(#SVGID_281_);fill:#171B43;}
	.st144{clip-path:url(#SVGID_283_);}
	.st145{clip-path:url(#SVGID_287_);}
	.st146{clip-path:url(#SVGID_289_);}
	.st147{clip-path:url(#SVGID_291_);}
	.st148{clip-path:url(#SVGID_293_);fill:#082735;}
	.st149{clip-path:url(#SVGID_295_);fill:#030302;}
	.st150{clip-path:url(#SVGID_297_);}
	.st151{clip-path:url(#SVGID_299_);}
	.st152{clip-path:url(#SVGID_301_);}
	.st153{clip-path:url(#SVGID_303_);}
	.st154{clip-path:url(#SVGID_305_);}
	.st155{clip-path:url(#SVGID_309_);}
	.st156{clip-path:url(#SVGID_311_);}
	.st157{clip-path:url(#SVGID_313_);}
	.st158{clip-path:url(#SVGID_315_);fill:#F4BE22;}
	.st159{clip-path:url(#SVGID_317_);fill:#FFFFFF;}
	.st160{clip-path:url(#SVGID_319_);}
	.st161{clip-path:url(#SVGID_321_);}
	.st162{clip-path:url(#SVGID_323_);}
	.st163{clip-path:url(#SVGID_325_);fill:#F4BE22;}
	.st164{clip-path:url(#SVGID_327_);fill:#1B4221;}
	.st165{clip-path:url(#SVGID_329_);fill:#1B4221;}
	.st166{clip-path:url(#SVGID_331_);fill:#1B4221;}
	.st167{clip-path:url(#SVGID_333_);fill:#082735;}
	.st168{clip-path:url(#SVGID_335_);fill:#FFC733;}
	.st169{clip-path:url(#SVGID_335_);fill:#171B43;}
	.st170{clip-path:url(#SVGID_337_);fill:#FFC733;}
	.st171{clip-path:url(#SVGID_337_);fill:#171B43;}
	.st172{clip-path:url(#SVGID_339_);fill:#FFC733;}
	.st173{clip-path:url(#SVGID_339_);fill:#171B43;}
	.st174{clip-path:url(#SVGID_341_);fill:#FFC733;}
	.st175{clip-path:url(#SVGID_341_);fill:#171B43;}
	.st176{clip-path:url(#SVGID_343_);fill:#FFC733;}
	.st177{clip-path:url(#SVGID_345_);fill:#FFC733;}
	.st178{clip-path:url(#SVGID_347_);fill:#FFC733;}
	.st179{clip-path:url(#SVGID_349_);fill:none;stroke:#ABABAB;stroke-width:0.4474;stroke-linecap:round;}
	.st180{clip-path:url(#SVGID_349_);fill:none;stroke:#171B43;stroke-width:0.447;stroke-linecap:round;}
	.st181{clip-path:url(#SVGID_351_);}
	.st182{opacity:0.25;fill:url(#SVGID_356_);}
	.st183{fill:#78909C;}
	.st184{fill:#0E6C72;}
	.st185{fill:url(#SVGID_357_);}
	.st186{fill:url(#SVGID_358_);}
	.st187{fill:url(#SVGID_359_);}
	.st188{fill:url(#SVGID_360_);}
	.st189{fill:url(#SVGID_361_);}
	.st190{fill:url(#SVGID_362_);}
	.st191{fill:url(#SVGID_363_);}
	.st192{fill:url(#SVGID_364_);}
	.st193{fill:url(#SVGID_365_);}
	.st194{fill:url(#SVGID_366_);}
	.st195{fill:url(#SVGID_367_);}
	.st196{fill:url(#SVGID_368_);}
	.st197{fill:url(#SVGID_369_);}
	.st198{fill:url(#SVGID_370_);}
	.st199{fill:url(#SVGID_371_);}
	.st200{fill:url(#SVGID_372_);}
	.st201{fill:url(#SVGID_373_);}
	.st202{fill:url(#SVGID_374_);}
	.st203{fill:url(#SVGID_377_);}
	.st204{fill:url(#SVGID_380_);}
	.st205{clip-path:url(#SVGID_384_);fill:url(#SVGID_385_);}
	.st206{clip-path:url(#SVGID_384_);fill:url(#SVGID_386_);}
	.st207{fill:none;stroke:#FFFFFF;stroke-miterlimit:10;}
	.st208{clip-path:url(#SVGID_390_);fill:url(#SVGID_391_);}
	.st209{clip-path:url(#SVGID_390_);fill:url(#SVGID_392_);}
	.st210{fill:none;stroke:#000000;stroke-width:6;stroke-miterlimit:10;}
	.st211{fill:none;stroke:#000000;stroke-miterlimit:10;}
	.st212{fill:#EDEDED;}
	.st213{fill:#FF9900;}
</style>
<g>
	<g>
		<path d="M121.8,86.7c21.6,0.4,40.1,17.2,40.2,40.5c0.1,23-17.9,40.9-40.4,40.9c-23.4,0-41.2-18.2-41-41.1
			C80.8,105.4,98.4,86.6,121.8,86.7z M121.1,124.3c0,0.1,0,0.2,0,0.3c3.4,0,6.7-0.1,10.1,0c1.9,0.1,2.6-0.7,2.4-2.5
			c-0.4-3.1-0.7-6.2-1-9.3c-0.1-1.2-0.9-1.7-2.1-1.7c-1.9,0.1-3.7,0.3-5.6,0.4c-4,0.1-8,0.1-11.9-0.3c-1.2-0.1-2.4-0.2-2.6,1.5
			c-0.4,3.2-1,6.5-1,9.8c0,1.4,0.3,2,1.8,1.9C114.4,124.3,117.7,124.3,121.1,124.3z M121.3,130.3
			C121.3,130.3,121.3,130.3,121.3,130.3c-3.2,0-6.4,0.1-9.6,0c-1.8,0-2.7,0.6-2.4,2.5c0.3,2.9,0.6,5.7,0.9,8.6
			c0.1,1.4,0.8,2.1,2.3,2.1c5.9,0,11.9,0,17.8,0c1.4,0,2.2-0.6,2.3-2c0.3-2.9,0.6-5.7,0.9-8.6c0.2-1.8-0.5-2.6-2.4-2.5
			C127.8,130.4,124.5,130.3,121.3,130.3z M147.5,124.6c2.2,0,4.4,0,6.5,0c1.6,0,2.1-0.7,1.9-2.2c-0.7-4.8-2.3-9.2-4.8-13.3
			c-0.6-1-1.4-1.2-2.6-0.9c-2.9,0.7-5.9,1.4-8.9,2c-1.4,0.3-1.8,0.9-1.5,2.3c0.6,3.4,1.1,6.8,1.1,10.2c0,1.6,0.8,2,2.2,2
			C143.5,124.6,145.5,124.6,147.5,124.6z M94.7,124.6C94.7,124.6,94.7,124.6,94.7,124.6c2.2,0,4.4,0,6.5,0c1.2,0,2.2-0.4,2.2-1.9
			c0-3.5,0.5-7,1-10.5c0.2-1.2-0.3-1.9-1.6-2.1c-2.9-0.6-5.8-1.2-8.7-2c-1.1-0.3-1.9-0.1-2.6,0.9c-2.6,4-4.1,8.4-4.9,13.1
			c-0.3,1.6,0.3,2.5,2.1,2.4C90.8,124.5,92.8,124.6,94.7,124.6z M147.6,130.3C147.6,130.3,147.6,130.3,147.6,130.3
			c-2.1,0-4.2,0-6.3,0c-1.3,0-2.1,0.5-2,1.9c0.1,3.5-0.5,6.8-1.1,10.2c-0.3,1.5,0.3,2,1.6,2.2c3,0.6,5.9,1.3,8.9,2
			c1.2,0.3,1.9-0.1,2.5-1c2.5-4,4.1-8.4,4.8-13.1c0.3-1.6-0.4-2.3-2-2.3C151.8,130.4,149.7,130.3,147.6,130.3z M95.1,130.3
			c-2.1,0-4.2,0-6.3,0c-1.5,0-2.2,0.6-2,2.1c0.7,4.7,2.2,9.1,4.7,13.1c0.7,1.1,1.4,1.4,2.7,1c2.7-0.7,5.5-1.4,8.2-1.9
			c1.8-0.3,2.2-1.3,1.9-2.8c-0.5-3.2-1-6.3-0.9-9.5c0-1.7-0.8-2.2-2.3-2.1C99.1,130.4,97.1,130.3,95.1,130.3z M120.3,105.9
			c3.4,0,6.1,0.1,8.7-0.4c1-0.2,1.7-0.4,1.2-1.6c-1.3-3.3-2.5-6.8-5.1-9.4c-2.6-2.6-4.8-2.7-7.5-0.1c-2.6,2.6-4,5.9-5.2,9.3
			c-0.4,1.1,0,1.5,1.1,1.7C116,106,118.5,105.8,120.3,105.9z M121.7,162.2c1.1,0.1,2.4-0.5,3.4-1.6c2.6-2.8,4.1-6.2,5.2-9.8
			c0.4-1.2-0.2-1.6-1.2-1.6c-5.1,0-10.1,0-15.2,0c-1.4,0-1.8,0.6-1.4,1.9c1.1,3.2,2.5,6.2,4.7,8.8
			C118.2,161.2,119.5,162.2,121.7,162.2z M132.3,94.2c1.6,3.5,2.9,6.4,3.9,9.5c0.2,0.7,0.7,1,1.4,0.9c2.3-0.5,4.6-1,6.8-1.5
			c1-0.2,1.1-0.8,0.4-1.5C141.4,98.4,137.4,96,132.3,94.2z M110.2,94.2c-5.3,2-9.7,4.5-13.6,8.6c3,0.6,5.5,1.2,8,1.7
			c0.9,0.2,1.5-0.1,1.8-1C107.6,100.6,108.8,97.7,110.2,94.2z M105.2,150.2c-2.6,0.5-4.8,1-7,1.4c-1.5,0.3-1.4,1-0.4,1.8
			c3.2,2.7,6.7,4.8,10.5,6.4c0.4,0.2,0.9,0.5,1.3,0c0.2-0.2,0.1-0.8-0.1-1.1c-1.2-2.4-2.2-5-3-7.6
			C106.2,150.5,105.7,150.1,105.2,150.2z M132.3,160.3c4.5-0.9,11.6-5.5,13.2-8.4c-2.4-0.5-4.8-0.9-7.1-1.5
			c-1.5-0.4-2.2,0.1-2.6,1.5C135.1,154.7,134,157.5,132.3,160.3z"></path>
		<path d="M66,59.4c18.6,0,37.2,0,55.8,0c3.4,0,3.4,0,3.4,3.4c0,6.1,0,12.2,0,18.3c0,1.7-0.5,2.4-2.3,2.3c-7.2-0.4-14,1-20.4,4.2
			c-1.6,0.8-3.2,1.1-4.9,1.1c-29.2,0-58.5,0-87.7,0c-3.3,0-3.3,0-3.3-3.2c0-7.6,0-15.2,0-22.7c0-3.3,0-3.3,3.2-3.3
			C28.5,59.4,47.2,59.4,66,59.4z M44.2,79.1c7.2,0,14.4,0,21.5,0c2,0,3.7-0.5,4.9-2.2c1.1-1.6,1.3-3.3,0.4-5.1
			c-1.1-2.3-3.2-2.8-5.5-2.8c-14.1,0-28.2,0-42.4,0c-3.8,0-5.9,1.9-5.8,5.2c0.1,3.1,2.2,4.9,5.8,4.9C30.2,79.1,37.2,79.1,44.2,79.1z
			 M97.4,74c0-2.8-2.2-5-4.9-4.9c-2.8,0.1-4.8,2.2-4.9,5c0,2.9,2.2,5.1,5,5C95.4,79,97.4,76.8,97.4,74z M114.3,74
			c0-2.7-2.2-4.9-4.9-4.9c-2.8,0-4.8,2-4.8,4.9c0,3,2.1,5.1,5,5C112.2,79,114.3,76.8,114.3,74z"></path>
		<path d="M93.7,92.9c-4.2,3.6-7.6,7.4-10.2,11.9c-2.8,4.6-4.7,9.5-5.6,14.8c-0.3,1.7-1,2.4-2.7,2.4c-22.1,0-44.2,0-66.3,0
			c-1.8,0-2.5-0.6-2.5-2.5c0.1-8.2,0.1-16.4,0-24.6c0-2.7,1.6-2.6,3.4-2.6c26.7,0,53.4,0,80.1,0C91,92.4,92.2,92.3,93.7,92.9z
			 M44.5,112c7.3,0,14.5,0,21.8,0c1.6,0,3.1-0.2,4.1-1.7c1.1-1.7,1.5-3.4,0.6-5.3c-1-2-2.8-2.8-5-2.8c-14.4,0-28.8,0-43.1,0
			c-3.5,0-5.6,1.9-5.5,5c0,3.2,1.9,4.8,5.6,4.8C30.1,112.1,37.3,112,44.5,112z"></path>
		<path d="M46.5,155.2c-12.3,0-24.7,0-37,0c-2.9,0-3.1-0.1-3.1-3c0-8,0-15.9,0-23.9c0-2,0.7-2.7,2.7-2.7c21.8,0,43.6,0.1,65.4,0
			c2.3,0,2.9,0.9,2.9,3.1c0.1,8.9,2.9,17,8,24.3c0.4,0.5,1.2,1,0.8,1.8c-0.4,0.7-1.3,0.5-1.9,0.5C71.7,155.2,59.1,155.2,46.5,155.2z
			 M44.4,144.8c7.3,0,14.7,0,22,0c2.3,0,3.9-1,4.8-3.1c0.8-2.1,0.3-4-1.3-5.6c-1.4-1.4-3.3-1.3-5.1-1.3c-13.9,0-27.8,0-41.6,0.1
			c-3.7,0-5.8,1.8-5.8,5c0,3.2,2,5,5.7,5C30.2,144.8,37.3,144.7,44.4,144.8z"></path>
		<path d="M65.8,190c-4.6,0-9.2,0-13.8,0c-2.6,0-3.4-0.7-3.4-3.3c0-4.1,0-8.3,0-12.4c0-2.6,0.7-3.2,3.4-3.3c1.9,0,3.8-0.1,5.6,0
			c2,0.1,2.9-0.6,2.8-2.7c-0.1-2.5,0-5,0-7.5c-0.1-1.7,0.6-2.5,2.3-2.4c2.2,0.1,4.4,0,6.6,0c1.5,0,2.1,0.6,2.1,2.1
			c0,2.7,0,5.5,0,8.2c0,1.6,0.6,2.3,2.2,2.2c2.1-0.1,4.2,0,6.3,0c2.1,0,3.2,0.9,3.2,3.1c0,4.3,0,8.6,0,12.9c0,2.2-1.1,3.1-3.2,3.1
			C75.2,190,70.5,190,65.8,190z"></path>
		<path d="M29.4,184.4c-4.5,0-9.1,0-13.6,0c-2.9,0-4.5-1.4-4.6-3.8c-0.1-2.2,1.7-4.1,4.4-4.2c9.3-0.1,18.6-0.1,27.9-0.1
			c0.8,0,1.7,0.1,1.8,1.1c0.3,2,0.3,4.1,0,6.1c-0.2,1.2-1.3,0.9-2.1,0.9C38.6,184.4,34,184.4,29.4,184.4
			C29.4,184.4,29.4,184.4,29.4,184.4z"></path>
		<path d="M101.9,184.4c-4.5,0-9.1,0-13.6,0c-1.5,0-1.9-0.4-2-2c-0.4-7.4-0.2-6.1,5.9-6.2c7.1-0.1,14.2,0,21.3,0
			c1.1,0,2.2,0,3.3,0.2c2.4,0.5,3.7,2.2,3.5,4.2c-0.2,2.2-1.7,3.6-4.2,3.6C111.4,184.4,106.7,184.4,101.9,184.4
			C101.9,184.4,101.9,184.4,101.9,184.4z"></path>
		<path d="M4.1,184.4c-2.2,0-4.1-1.9-4.1-3.9c0-2.1,2-4,4.1-4c2.2,0,4,1.8,4,4C8.1,182.7,6.4,184.4,4.1,184.4z"></path>
		<path d="M131.5,180.4c0,2.2-1.5,3.9-3.8,3.9c-2.3,0.1-4.1-1.5-4.2-3.8c-0.1-2.2,1.8-4.1,3.9-4.1
			C129.7,176.4,131.4,178.2,131.5,180.4z"></path>
	</g>
	<path class="st4" d="M125.7,55.6c-0.5,0-1.1,0.1-1.6,0.1c-38.5,0-77.1,0-115.6,0c-0.3,0-0.7,0-1,0c-0.6,0-0.9-0.3-0.9-0.9
		c-0.5-7.2,1.5-13.4,7-18.3c0.9-0.8,1.8-1.5,2.8-2.1c0.7-0.4,0.8-0.8,0.3-1.4c-2.2-2.7-3.1-5.9-3-9.4c0.2-7,6.4-13.1,13.4-13.4
		c6.9-0.2,13.4,4.7,14.5,11.8c0.6,3.9-0.2,7.6-2.7,10.7c-0.7,0.9-0.5,1.3,0.4,1.8c3.1,2,5.5,4.7,7.2,8c0.1,0.3,0.2,0.7,0.5,0.7
		c0.4,0,0.4-0.4,0.5-0.7c1.8-3.4,4.3-6.2,7.5-8.2c0.9-0.5,0.6-0.9,0.2-1.5c-6.5-8.8-1.7-20.7,9-22.5c8.1-1.4,16,5.3,16.1,13.5
		c0,3.4-0.9,6.5-3,9.2c-0.5,0.6-0.5,1,0.2,1.4c3.3,2,5.7,4.8,7.5,8.2c0.1,0.3,0.2,0.7,0.5,0.7c0.3,0,0.4-0.4,0.5-0.7
		c1.7-3.3,4.2-6.1,7.3-8.1c1-0.6,0.8-1,0.2-1.8c-4.4-5.9-3.7-14.1,1.8-18.9c4.5-3.9,9.6-4.8,15.1-2.4c5.4,2.4,8.2,6.8,8.4,12.7
		c0.1,3.3-1,6.2-3,8.8c-0.5,0.6-0.5,0.9,0.2,1.4c5.2,3.4,8.4,8.1,9.6,14.2c0,0.2,0.1,0.4,0.2,0.6C125.7,51.2,125.7,53.4,125.7,55.6z
		"></path>
</g>
</svg>