<svg version="1.1" id="Layer_1" xmlns="http://www.w3.org/2000/svg" xmlns:xlink="http://www.w3.org/1999/xlink"
height="80px" width="100%"
 x="0px" y="0px" viewBox="0 0 200 200" style="enable-background:new 0 0 200 200;" xml:space="preserve">
<style type="text/css">
	.st0{fill:#FFFFFF;}
	.st1{fill:#FFFFFF;stroke:#FFFFFF;stroke-width:5;stroke-miterlimit:10;}
	.st2{fill:#008FD8;}
	.st3{fill:#1D4288;}
	.st4{fill:#FF687D;}
	.st5{fill-rule:evenodd;clip-rule:evenodd;}
	.st6{fill:#B2B2B2;}
	.st7{fill-rule:evenodd;clip-rule:evenodd;fill:#B2B2B2;}
	.st8{fill:#111010;}
	.st9{fill-rule:evenodd;clip-rule:evenodd;fill:#FF687D;}
	.st10{fill:none;}
	.st11{fill:#3A4348;}
	.st12{fill:#F09000;}
	.st13{fill:#2E2C27;}
	.st14{fill:#8D8D8B;}
	.st15{fill:#E5282A;}
	.st16{fill:#F3AE1C;}
	.st17{fill:#2399D4;}
	.st18{fill:#243F80;}
	.st19{fill:#C2282A;}
	.st20{fill:#2C2D3A;}
	.st21{fill:url(#SVGID_3_);}
	.st22{fill:#1680C1;}
	.st23{fill:#22B4DC;}
	.st24{fill:#32609A;}
	.st25{fill:#ACB5C5;}
	.st26{fill:#FF7400;}
	.st27{fill:#F7F7F7;}
	.st28{clip-path:url(#SVGID_5_);}
	.st29{fill-rule:evenodd;clip-rule:evenodd;fill:#FFFFFF;}
	.st30{clip-path:url(#SVGID_7_);}
	.st31{clip-path:url(#SVGID_9_);}
	.st32{clip-path:url(#SVGID_11_);fill:#FFFFFF;}
	.st33{clip-path:url(#SVGID_13_);}
	.st34{clip-path:url(#SVGID_15_);fill:#FFFFFF;}
	.st35{clip-path:url(#SVGID_17_);}
	.st36{clip-path:url(#SVGID_19_);fill:#161A42;}
	.st37{clip-path:url(#SVGID_21_);}
	.st38{clip-path:url(#SVGID_23_);}
	.st39{clip-path:url(#SVGID_27_);}
	.st40{clip-path:url(#SVGID_29_);}
	.st41{clip-path:url(#SVGID_31_);}
	.st42{clip-path:url(#SVGID_33_);}
	.st43{clip-path:url(#SVGID_35_);fill:#161A42;}
	.st44{clip-path:url(#SVGID_37_);}
	.st45{clip-path:url(#SVGID_39_);fill:#040404;}
	.st46{clip-path:url(#SVGID_41_);}
	.st47{clip-path:url(#SVGID_43_);}
	.st48{clip-path:url(#SVGID_45_);}
	.st49{clip-path:url(#SVGID_47_);}
	.st50{clip-path:url(#SVGID_49_);}
	.st51{clip-path:url(#SVGID_51_);}
	.st52{clip-path:url(#SVGID_55_);}
	.st53{clip-path:url(#SVGID_57_);}
	.st54{clip-path:url(#SVGID_59_);}
	.st55{clip-path:url(#SVGID_61_);}
	.st56{clip-path:url(#SVGID_63_);fill:#F2BD21;}
	.st57{clip-path:url(#SVGID_65_);}
	.st58{clip-path:url(#SVGID_67_);fill:#FFFFFF;}
	.st59{clip-path:url(#SVGID_69_);}
	.st60{clip-path:url(#SVGID_71_);}
	.st61{clip-path:url(#SVGID_73_);}
	.st62{clip-path:url(#SVGID_75_);}
	.st63{clip-path:url(#SVGID_77_);fill:#446AAF;}
	.st64{clip-path:url(#SVGID_79_);}
	.st65{clip-path:url(#SVGID_81_);fill:#456BB0;}
	.st66{clip-path:url(#SVGID_83_);}
	.st67{clip-path:url(#SVGID_85_);fill:#456BB0;}
	.st68{clip-path:url(#SVGID_87_);}
	.st69{clip-path:url(#SVGID_89_);fill:#456BB0;}
	.st70{clip-path:url(#SVGID_91_);}
	.st71{clip-path:url(#SVGID_93_);fill:#161A42;}
	.st72{clip-path:url(#SVGID_95_);}
	.st73{clip-path:url(#SVGID_97_);fill:#FFC634;}
	.st74{clip-path:url(#SVGID_97_);fill:#161A42;}
	.st75{clip-path:url(#SVGID_99_);}
	.st76{clip-path:url(#SVGID_101_);fill:#FFC634;}
	.st77{clip-path:url(#SVGID_101_);fill:#161A42;}
	.st78{clip-path:url(#SVGID_103_);}
	.st79{clip-path:url(#SVGID_105_);fill:#FFC634;}
	.st80{clip-path:url(#SVGID_105_);fill:#161A42;}
	.st81{clip-path:url(#SVGID_107_);}
	.st82{clip-path:url(#SVGID_109_);fill:#FFC634;}
	.st83{clip-path:url(#SVGID_109_);fill:#161A42;}
	.st84{clip-path:url(#SVGID_111_);}
	.st85{clip-path:url(#SVGID_113_);fill:#FFC634;}
	.st86{clip-path:url(#SVGID_115_);}
	.st87{clip-path:url(#SVGID_117_);fill:#FFC634;}
	.st88{clip-path:url(#SVGID_119_);}
	.st89{clip-path:url(#SVGID_121_);fill:#FFC634;}
	.st90{clip-path:url(#SVGID_123_);}
	.st91{clip-path:url(#SVGID_125_);fill:none;stroke:#ABABAB;stroke-width:0.4517;stroke-linecap:round;}
	.st92{clip-path:url(#SVGID_125_);fill:none;stroke:#161A42;stroke-width:0.4513;stroke-linecap:round;}
	.st93{clip-path:url(#SVGID_127_);}
	.st94{clip-path:url(#SVGID_131_);}
	.st95{clip-path:url(#SVGID_133_);fill:#FFFFFF;}
	.st96{clip-path:url(#SVGID_135_);fill:#FFFFFF;}
	.st97{clip-path:url(#SVGID_131_);fill:none;}
	.st98{clip-path:url(#SVGID_193_);}
	.st99{clip-path:url(#SVGID_195_);fill:#FFFFFF;}
	.st100{clip-path:url(#SVGID_197_);fill:#FFFFFF;}
	.st101{clip-path:url(#SVGID_199_);fill:#161A42;}
	.st102{clip-path:url(#SVGID_201_);}
	.st103{clip-path:url(#SVGID_205_);}
	.st104{clip-path:url(#SVGID_207_);}
	.st105{clip-path:url(#SVGID_209_);}
	.st106{clip-path:url(#SVGID_211_);fill:#071631;}
	.st107{clip-path:url(#SVGID_213_);fill:#040404;}
	.st108{clip-path:url(#SVGID_215_);}
	.st109{clip-path:url(#SVGID_217_);}
	.st110{clip-path:url(#SVGID_219_);}
	.st111{clip-path:url(#SVGID_221_);}
	.st112{clip-path:url(#SVGID_223_);}
	.st113{clip-path:url(#SVGID_227_);}
	.st114{clip-path:url(#SVGID_229_);}
	.st115{clip-path:url(#SVGID_231_);}
	.st116{clip-path:url(#SVGID_233_);fill:#F2BD21;}
	.st117{clip-path:url(#SVGID_235_);fill:#FFFFFF;}
	.st118{clip-path:url(#SVGID_237_);}
	.st119{clip-path:url(#SVGID_239_);}
	.st120{clip-path:url(#SVGID_241_);}
	.st121{clip-path:url(#SVGID_243_);fill:#F2BD21;}
	.st122{clip-path:url(#SVGID_245_);fill:#1C4222;}
	.st123{clip-path:url(#SVGID_247_);fill:#1C4222;}
	.st124{clip-path:url(#SVGID_249_);fill:#1C4222;}
	.st125{clip-path:url(#SVGID_251_);fill:#071631;}
	.st126{clip-path:url(#SVGID_253_);fill:#FFC634;}
	.st127{clip-path:url(#SVGID_253_);fill:#161A42;}
	.st128{clip-path:url(#SVGID_255_);fill:#FFC634;}
	.st129{clip-path:url(#SVGID_255_);fill:#161A42;}
	.st130{clip-path:url(#SVGID_257_);fill:#FFC634;}
	.st131{clip-path:url(#SVGID_257_);fill:#161A42;}
	.st132{clip-path:url(#SVGID_259_);fill:#FFC634;}
	.st133{clip-path:url(#SVGID_259_);fill:#161A42;}
	.st134{clip-path:url(#SVGID_261_);fill:#FFC634;}
	.st135{clip-path:url(#SVGID_263_);fill:#FFC634;}
	.st136{clip-path:url(#SVGID_265_);fill:#FFC634;}
	.st137{clip-path:url(#SVGID_267_);fill:none;stroke:#ABABAB;stroke-width:0.4475;stroke-linecap:round;}
	.st138{clip-path:url(#SVGID_267_);fill:none;stroke:#161A42;stroke-width:0.4472;stroke-linecap:round;}
	.st139{clip-path:url(#SVGID_269_);}
	.st140{clip-path:url(#SVGID_275_);}
	.st141{clip-path:url(#SVGID_277_);fill:#FFFFFF;}
	.st142{clip-path:url(#SVGID_279_);fill:#FFFFFF;}
	.st143{clip-path:url(#SVGID_281_);fill:#171B43;}
	.st144{clip-path:url(#SVGID_283_);}
	.st145{clip-path:url(#SVGID_287_);}
	.st146{clip-path:url(#SVGID_289_);}
	.st147{clip-path:url(#SVGID_291_);}
	.st148{clip-path:url(#SVGID_293_);fill:#082735;}
	.st149{clip-path:url(#SVGID_295_);fill:#030302;}
	.st150{clip-path:url(#SVGID_297_);}
	.st151{clip-path:url(#SVGID_299_);}
	.st152{clip-path:url(#SVGID_301_);}
	.st153{clip-path:url(#SVGID_303_);}
	.st154{clip-path:url(#SVGID_305_);}
	.st155{clip-path:url(#SVGID_309_);}
	.st156{clip-path:url(#SVGID_311_);}
	.st157{clip-path:url(#SVGID_313_);}
	.st158{clip-path:url(#SVGID_315_);fill:#F4BE22;}
	.st159{clip-path:url(#SVGID_317_);fill:#FFFFFF;}
	.st160{clip-path:url(#SVGID_319_);}
	.st161{clip-path:url(#SVGID_321_);}
	.st162{clip-path:url(#SVGID_323_);}
	.st163{clip-path:url(#SVGID_325_);fill:#F4BE22;}
	.st164{clip-path:url(#SVGID_327_);fill:#1B4221;}
	.st165{clip-path:url(#SVGID_329_);fill:#1B4221;}
	.st166{clip-path:url(#SVGID_331_);fill:#1B4221;}
	.st167{clip-path:url(#SVGID_333_);fill:#082735;}
	.st168{clip-path:url(#SVGID_335_);fill:#FFC733;}
	.st169{clip-path:url(#SVGID_335_);fill:#171B43;}
	.st170{clip-path:url(#SVGID_337_);fill:#FFC733;}
	.st171{clip-path:url(#SVGID_337_);fill:#171B43;}
	.st172{clip-path:url(#SVGID_339_);fill:#FFC733;}
	.st173{clip-path:url(#SVGID_339_);fill:#171B43;}
	.st174{clip-path:url(#SVGID_341_);fill:#FFC733;}
	.st175{clip-path:url(#SVGID_341_);fill:#171B43;}
	.st176{clip-path:url(#SVGID_343_);fill:#FFC733;}
	.st177{clip-path:url(#SVGID_345_);fill:#FFC733;}
	.st178{clip-path:url(#SVGID_347_);fill:#FFC733;}
	.st179{clip-path:url(#SVGID_349_);fill:none;stroke:#ABABAB;stroke-width:0.4474;stroke-linecap:round;}
	.st180{clip-path:url(#SVGID_349_);fill:none;stroke:#171B43;stroke-width:0.447;stroke-linecap:round;}
	.st181{clip-path:url(#SVGID_351_);}
	.st182{opacity:0.25;fill:url(#SVGID_356_);}
	.st183{fill:#78909C;}
	.st184{fill:#0E6C72;}
	.st185{fill:url(#SVGID_357_);}
	.st186{fill:url(#SVGID_358_);}
	.st187{fill:url(#SVGID_359_);}
	.st188{fill:url(#SVGID_360_);}
	.st189{fill:url(#SVGID_361_);}
	.st190{fill:url(#SVGID_362_);}
	.st191{fill:url(#SVGID_363_);}
	.st192{fill:url(#SVGID_364_);}
	.st193{fill:url(#SVGID_365_);}
	.st194{fill:url(#SVGID_366_);}
	.st195{fill:url(#SVGID_367_);}
	.st196{fill:url(#SVGID_368_);}
	.st197{fill:url(#SVGID_369_);}
	.st198{fill:url(#SVGID_370_);}
	.st199{fill:url(#SVGID_371_);}
	.st200{fill:url(#SVGID_372_);}
	.st201{fill:url(#SVGID_373_);}
	.st202{fill:url(#SVGID_374_);}
	.st203{fill:url(#SVGID_377_);}
	.st204{fill:url(#SVGID_380_);}
	.st205{clip-path:url(#SVGID_384_);fill:url(#SVGID_385_);}
	.st206{clip-path:url(#SVGID_384_);fill:url(#SVGID_386_);}
	.st207{fill:none;stroke:#FFFFFF;stroke-miterlimit:10;}
	.st208{clip-path:url(#SVGID_390_);fill:url(#SVGID_391_);}
	.st209{clip-path:url(#SVGID_390_);fill:url(#SVGID_392_);}
	.st210{fill:none;stroke:#000000;stroke-width:6;stroke-miterlimit:10;}
	.st211{fill:none;stroke:#000000;stroke-miterlimit:10;}
	.st212{fill:#EDEDED;}
	.st213{fill:#FF9900;}
</style>
<g>
	<path d="M168.8,82.1c0,2,0,3.9,0,5.9c-0.2,1.4-0.4,2.9-0.7,4.2c-3.4,14.1-12.3,23.1-25.9,27.6c-5.2,1.7-10.6,1.8-16,1.8
		c-0.9,0-1.1-0.3-1.3-1.2c-1.8-13.3-8.2-23.8-19.9-30.6c-13.5-7.9-27.6-7.9-41.1-0.1c-11.8,6.8-18.4,17.4-20.1,30.9
		c-0.1,0.7-0.3,1-1.1,1c-3.5,0-7,0-10.4,0c-2.9,0-5.8-0.3-8.6-1.2c-11.9-3.5-19.8-11-22.9-23.2c-0.3-1.3-0.5-2.7-0.8-4
		c0-1.5,0-3.1,0-4.6c0.1-0.2,0.2-0.5,0.2-0.7c1.2-12.1,10.2-22.4,22.4-25.8c0.7-0.2,1.6-0.2,2.1-0.6c0.6-0.5,0.1-1.4,0.1-2.2
		c1-9.1,4.9-16.7,11.7-22.7c6.7-6,14.8-7.8,23.6-7c0.8,0.1,1.3,0,1.7-0.8c1.3-2.3,2.9-4.3,4.7-6.2C74,14.7,83.2,10.5,94.1,10
		c13.6-0.6,25,4.2,33.6,14.8c6.3,7.7,8.9,16.6,7.8,26.6c-0.1,0.9,0.1,1.1,1,1.1c1.8,0,3.6,0.2,5.3,0.6c12.9,3,21.8,10.4,25.9,23.2
		C168.2,78.2,168.4,80.2,168.8,82.1z"></path>
	<path d="M116.5,172c-2.8-6.3-5.5-12.6-8.3-18.9c-0.2-0.4-0.2-0.7-0.1-1c3-2.6,5.5-5.7,7.5-9.1c0.9-1.5,1.7-3.1,2.4-4.7l-0.1,0
		c1.6-4.1,2.6-8.6,2.5-13.3c0-20.2-16.2-36.1-36.6-36.1c-19.6,0-35.7,16.4-35.6,36.1c0,11.2,5.1,21.1,13,27.7c0,0.2,0,0.4-0.2,0.7
		c-3.3,7.5-6.6,15-9.9,22.5c-0.2,0.5-0.8,1.1-0.4,1.6c0.4,0.4,1-0.1,1.5-0.3c4.9-1.5,9.8-2.9,14.7-4.4c0.8-0.3,1.3-0.1,1.7,0.7
		c2.3,4.8,4.7,9.6,7,14.4c0.1,0.3,0.2,0.8,0.6,0.8c0.4,0,0.4-0.5,0.6-0.8c2.4-5.4,4.7-10.7,7.1-16.1c0.2-0.5,0.5-1,0.7-1.6
		c0.5,0.3,0.5,0.7,0.7,1.1c2.6,6,5.2,11.9,7.8,17.9c0.1,0.3,0.2,0.7,0.4,1h0.4c2.5-5.1,5-10.2,7.4-15.4c0.4-0.8,0.8-0.9,1.6-0.7
		c5.1,1.5,10.2,3,15.2,4.6c0.1,0,0.3,0.1,0.4,0.1c0.3,0,0.5,0.3,0.7,0c0.2-0.2,0-0.5-0.1-0.7C118.3,175.9,117.4,173.9,116.5,172z
		 M84.4,150.5c-14.2,0-25.6-11.5-25.6-25.6c0-14.1,11.5-25.6,25.6-25.6c14.1,0,25.6,11.5,25.6,25.6C110,139,98.5,150.5,84.4,150.5z"></path>
	<path class="st4" d="M71.6,143.7c0.6-3.7,1.1-7.3,1.9-10.8c0.4-1.9,0.1-3.2-1.4-4.5c-2.6-2.3-5-4.9-7.5-7.3
		c-0.2-0.2-0.7-0.4-0.6-0.8c0.1-0.4,0.6-0.4,1-0.4c3.9-0.6,7.8-1.2,11.7-1.7c0.9-0.1,1.4-0.5,1.7-1.3c1.7-3.6,3.5-7.2,5.3-10.7
		c0.1-0.3,0.2-0.8,0.6-0.8c0.4,0,0.5,0.5,0.6,0.8c1.8,3.6,3.6,7.1,5.3,10.7c0.4,0.8,0.9,1.1,1.7,1.3c3.9,0.5,7.8,1.1,11.7,1.7
		c0.4,0.1,0.9,0,1,0.4c0.1,0.4-0.3,0.6-0.6,0.8c-2.9,2.8-5.8,5.6-8.7,8.4c-0.6,0.6-0.7,1.2-0.5,1.9c0.7,3.8,1.3,7.6,2,11.4
		c0.1,0.5,0.4,1.1,0,1.4c-0.4,0.3-0.9-0.2-1.3-0.4c-3.4-1.8-6.8-3.5-10.2-5.4c-0.8-0.4-1.4-0.4-2.1,0c-3.5,1.9-7.1,3.8-10.7,5.6
		C72.2,144.2,71.6,144.7,71.6,143.7z"></path>
</g>
</svg>