<svg xmlns="http://www.w3.org/2000/svg" xmlns:xlink="http://www.w3.org/1999/xlink" id="Layer_1" x="0px" y="0px" viewBox="0 0 270 270" style="enable-background:new 0 0 270 270;" xml:space="preserve"><style type="text/css">	.st0{fill:#FFFFFF;stroke:#FFFFFF;stroke-width:5;stroke-miterlimit:10;}	.st1{fill:#0091DA;}	.st2{fill:#1D428A;}	.st3{fill:#FF687D;}	.st4{fill-rule:evenodd;clip-rule:evenodd;}	.st5{fill:#B2B2B2;}	.st6{fill-rule:evenodd;clip-rule:evenodd;fill:#B2B2B2;}	.st7{fill:#111010;}	.st8{fill-rule:evenodd;clip-rule:evenodd;fill:#FF687D;}	.st9{fill:none;}	.st10{fill:#FFFFFF;}	.st11{fill:#3A4348;}	.st12{fill:#F29200;}	.st13{fill:#2E2C27;}	.st14{fill:#8F8F8D;}	.st15{fill:#E7282A;}	.st16{fill:#F5B01C;}	.st17{fill:#239BD6;}	.st18{fill:#243F82;}	.st19{fill:#C4282A;}	.st20{fill:#2C2D3A;}	.st21{fill:url(#SVGID_1_);}	.st22{fill:#1680C3;}	.st23{fill:#22B6DE;}	.st24{fill:#32609C;}	.st25{fill:#AEB7C7;}	.st26{fill:none;stroke:#000000;stroke-width:4;stroke-miterlimit:10;}</style><g>	<path d="M73.7,159.9c3,0,6.1,0.1,9.1,0c1.3,0,2,0.4,2.5,1.5c2.7,5.3,6.3,10,10.6,14.2c7.5,7.2,16.3,12.1,26.5,14.3  c12,2.7,23.7,1.6,35-3.4c12.1-5.3,21.1-13.8,27.3-25.4c0.5-0.9,1-1.1,2-1.1c6.5,0,13,0.1,19.5,0c1.3,0,1.5,0.3,1,1.4  c-10.3,26.1-29.1,42.9-56.5,48.8c-37.3,8.1-74.5-12.7-87.8-48.4c-0.7-1.8-0.7-1.8,1.2-1.8C67.3,159.9,70.5,159.9,73.7,159.9z"></path>	<path d="M195.7,108.2c-3.3,0-6.6,0-9.9,0c-1,0-1.5-0.3-2-1.2c-8.5-14.3-20.8-23.5-37.1-27c-11.8-2.6-23.4-1.3-34.5,3.5  c-11.4,5-20.1,13-26.2,23.8c-0.4,0.6-0.7,0.9-1.5,0.9c-6.8,0-13.6,0-20.4,0c-1.6,0-0.9-0.8-0.7-1.4c6.5-16.1,17.1-28.7,31.9-37.7  c40.5-24.4,93.3-6.7,111,37.2c0.8,1.9,0.8,1.9-1.3,1.9C201.9,108.2,198.8,108.2,195.7,108.2z"></path>	<path d="M121.4,135.1c0-4.6-0.1-9.1,0-13.7c0.1-5.5,3.6-10.1,8.7-11.2c6.7-1.4,12.8,2,14.4,8.6c0.6,2.5,0.4,5.1,0.4,7.6  c0,0.6-0.3,0.8-0.9,0.8c-2,0-4,0-6,0c-0.8,0-0.9-0.4-0.9-1.1c0-1.6,0-3.1,0-4.7c-0.1-2.5-1.9-4.3-4.3-4.3c-2.4,0-4.2,1.8-4.3,4.3  c0,9,0,18,0,27c0,2.4,1.9,4.2,4.2,4.2c2.4,0,4.3-1.8,4.3-4.2c0-2.8,0-5.7,0-8.5c0-1-0.2-1.2-1.2-1.2c-2.9,0-2.9-0.1-2.9-2.9  c0-1.2,0.1-2.3,0-3.5c-0.1-0.9,0.3-1,1.1-1c3.2,0,6.4,0,9.6,0c0.8,0,1.2,0.1,1.2,1.1c-0.1,6,0.4,12.1-0.3,18  c-0.5,4.5-3.4,7.6-7.6,9.1c-8.2,3-15.6-3.1-15.7-10.8C121.4,144.2,121.4,139.6,121.4,135.1z"></path>	<path d="M163.5,110.4c1.4,0,2.8,0,4.2,0c0.8,0,1.1,0.3,1.2,1.1c1.5,9.1,2.9,18.1,4.4,27.2c1.1,6.5,2.3,13,3.4,19.4  c0.2,1.1,0.2,1.8-1.4,1.7c-1.7-0.2-3.4-0.1-5,0c-1,0.1-1.3-0.3-1.4-1.2c-0.5-3.2-1-6.4-1.5-9.6c-0.1-0.5-0.4-0.5-0.7-0.5  c-2.1,0-4.3,0-6.4,0c-0.7,0-0.7,0.3-0.8,0.9c-0.5,3.2-1.1,6.4-1.5,9.7c-0.1,0.7-0.4,0.8-1,0.8c-1.9,0-3.9,0-5.8,0  c-0.8,0-1.1-0.2-1-1.1c0.4-2.7,0.8-5.3,1.3-8c0.5-2.8,1-5.7,1.5-8.5c0.6-3.5,1.3-7.1,1.9-10.6c0.6-3.4,0.9-6.8,1.6-10.1  c0.8-3.5,1.3-7.1,1.9-10.6c0.1-0.7,0.5-0.5,0.9-0.5C160.7,110.4,162.1,110.4,163.5,110.4z M163.8,122.7c-0.1,0-0.2,0-0.3,0.1  c-0.7,4.8-1.4,9.5-2,14.3c-0.2,1.3-1.1,3.2-0.3,3.8c0.9,0.7,2.7,0.2,4.1,0.3c1,0.1,1.1-0.3,1-1.2c-0.5-3.5-1-7-1.5-10.5  C164.4,127.2,164.1,124.9,163.8,122.7z"></path>	<path d="M100.8,138.7c0-6.4,0-12.9,0-19.3c0-1.3-0.4-1.6-1.6-1.5c-1.8,0.1-3.6,0-5.3,0c-0.7,0-1.1-0.1-1-0.9c0.1-1.9,0-3.8,0-5.7  c0-0.8,0.3-1,1-1c7.1,0,14.1,0,21.2,0c0.7,0,1.1,0.1,1,0.9c0,1.9-0.1,3.8,0,5.7c0,0.8-0.4,0.9-1.1,0.9c-1.8,0-3.6,0.1-5.3,0  c-1.3-0.1-1.5,0.4-1.5,1.6c0,12.8,0,25.6,0.1,38.3c0,1.7-0.5,2.1-2.1,2c-1.3-0.1-2.7-0.1-4.1,0c-1.1,0.1-1.4-0.3-1.4-1.4  C100.8,151.8,100.8,145.2,100.8,138.7z"></path></g><circle class="st26" cx="135" cy="135" r="132.2"></circle></svg>