<?xml version="1.0" encoding="utf-8"?>
<!-- Generator: Adobe Illustrator 22.1.0, SVG Export Plug-In . SVG Version: 6.00 Build 0)  -->
<svg version="1.1" id="Layer_1" xmlns="http://www.w3.org/2000/svg" xmlns:xlink="http://www.w3.org/1999/xlink" x="0px" y="0px"
	 viewBox="0 0 200 200" style="enable-background:new 0 0 200 200;" xml:space="preserve">
<style type="text/css">
	.st0{fill:#FFFFFF;stroke:#FFFFFF;stroke-width:5;stroke-miterlimit:10;}
	.st1{fill:#0091DA;}
	.st2{fill:#1D428A;}
	.st3{fill:#FF687D;}
	.st4{fill-rule:evenodd;clip-rule:evenodd;}
	.st5{fill:#B2B2B2;}
	.st6{fill-rule:evenodd;clip-rule:evenodd;fill:#B2B2B2;}
	.st7{fill:#111010;}
	.st8{fill-rule:evenodd;clip-rule:evenodd;fill:#FF687D;}
	.st9{fill:#FEFEFD;}
	.st10{fill:#696969;}
	.st11{fill:#87BE58;}
	.st12{fill:#EA7161;}
	.st13{fill:#3BB6FB;}
	.st14{fill:#FECB66;}
	.st15{fill:#F3F3F3;}
	.st16{fill:#F4C464;}
	.st17{fill:#3BB0F1;}
	.st18{fill:#FEFEFE;}
	.st19{fill:#FDFDFD;}
	.st20{fill:#E5E5E5;}
	.st21{fill:#656565;}
	.st22{fill:#515151;}
	.st23{fill:#DADADA;}
	.st24{fill:none;}
	.st25{fill:#FFFFFF;}
</style>
<g>
	<g>
		<g>
			<path class="st3" d="M141.3,88H55c-1.3,0-2.4,1.1-2.4,2.4v17.9c0,1.3,1.1,2.4,2.4,2.4h86.3c1.3,0,2.4-1.1,2.4-2.4V90.3
				C143.7,89,142.6,88,141.3,88z M63.3,102.5c-1.8,0-3.2-1.5-3.2-3.2c0-1.8,1.5-3.2,3.2-3.2c1.8,0,3.2,1.5,3.2,3.2
				C66.5,101.1,65.1,102.5,63.3,102.5z M137.2,102.5h-24.6v-6.5h24.6V102.5z"/>
		</g>
		<g>
			<path class="st3" d="M141.3,62.2H55c-1.3,0-2.4,1.1-2.4,2.4v17.9c0,1.3,1.1,2.4,2.4,2.4h86.3c1.3,0,2.4-1.1,2.4-2.4V64.6
				C143.7,63.3,142.6,62.2,141.3,62.2z M63.3,76.8c-1.8,0-3.2-1.5-3.2-3.2c0-1.8,1.5-3.2,3.2-3.2c1.8,0,3.2,1.5,3.2,3.2
				C66.5,75.3,65.1,76.8,63.3,76.8z M137.2,76.8h-24.6v-6.5h24.6V76.8z"/>
		</g>
		<g>
			<path class="st3" d="M141.3,113.7H55c-1.3,0-2.4,1.1-2.4,2.4V134c0,1.3,1.1,2.4,2.4,2.4h86.3c1.3,0,2.4-1.1,2.4-2.4v-17.9
				C143.7,114.8,142.6,113.7,141.3,113.7z M63.3,128.3c-1.8,0-3.2-1.5-3.2-3.2c0-1.8,1.5-3.2,3.2-3.2c1.8,0,3.2,1.5,3.2,3.2
				C66.5,126.9,65.1,128.3,63.3,128.3z M137.2,128.3h-24.6v-6.5h24.6V128.3z"/>
		</g>
	</g>
	<g>
		<circle class="st3" cx="29.7" cy="32.2" r="10.7"/>
	</g>
	<g>
		<circle class="st3" cx="30" cy="169.1" r="10.7"/>
	</g>
	<g>
		<circle class="st3" cx="167.3" cy="169.1" r="10.7"/>
	</g>
	<g>
		<circle class="st3" cx="166.9" cy="31.8" r="10.7"/>
	</g>
	<g>
		<path class="st3" d="M32.5,85c5.4-24.8,24.6-44.6,49.1-50.8c-0.3-1.3-0.5-2.6-0.5-3.9c0-1,0.1-1.9,0.2-2.8
			c-28,6.5-49.9,29-55.6,57.2c0.8-0.1,1.7-0.2,2.6-0.2C29.8,84.5,31.2,84.7,32.5,85z"/>
		<path class="st3" d="M82.3,164.6c-23.2-5.6-41.6-23.3-48.5-45.9c-1.7,0.6-3.5,0.9-5.4,0.9c-0.4,0-0.8,0-1.2-0.1
			c7.3,25.6,28,45.5,54,51.7c0-0.1,0-0.2,0-0.4C81.1,168.5,81.5,166.5,82.3,164.6z"/>
		<path class="st3" d="M114.9,164.3c0.8,2,1.2,4.1,1.2,6.4c0,0,0,0.1,0,0.1c25.5-6.4,45.8-26.2,53-51.5c-2.3-0.2-4.4-0.8-6.4-1.8
			C156.3,140.4,138,158.4,114.9,164.3z"/>
		<path class="st3" d="M115.6,34.5c24.3,6.6,43.2,26.5,48.3,51.4c2-0.8,4.2-1.3,6.5-1.3c-5.7-27.8-27.1-50-54.5-56.8
			c0.1,0.8,0.2,1.7,0.2,2.6C116.1,31.7,115.9,33.1,115.6,34.5z"/>
		<path class="st3" d="M171.4,90.6c-0.3,0-0.5,0-0.8,0c-2.1,0-4,0.6-5.7,1.5c-3.4,2-5.7,5.6-5.7,9.8c0,3.9,2,7.3,5,9.4
			c1.8,1.2,4,2,6.4,2c0,0,0,0,0.1,0c6.3,0,11.4-5.1,11.4-11.4C182,96,177.3,91,171.4,90.6z"/>
		<path class="st3" d="M108.8,165.6c-1.9-3.7-5.7-6.3-10.2-6.3c-4.5,0-8.4,2.6-10.2,6.4c-0.7,1.5-1.2,3.2-1.2,5c0,0.5,0,1.1,0.1,1.6
			c0.8,5.5,5.5,9.8,11.3,9.8c5.8,0,10.6-4.4,11.3-10c0.1-0.5,0.1-0.9,0.1-1.4C110,168.9,109.6,167.1,108.8,165.6z"/>
		<path class="st3" d="M31.5,91c-1-0.3-2-0.4-3.1-0.4c-1.3,0-2.5,0.2-3.6,0.6C20.3,92.7,17,96.9,17,102c0,5.3,3.7,9.8,8.6,11
			c0.9,0.2,1.8,0.3,2.7,0.3c1.4,0,2.7-0.3,3.9-0.7c4.4-1.6,7.5-5.8,7.5-10.7C39.8,96.8,36.3,92.4,31.5,91z"/>
		<path class="st3" d="M109.3,26.4c-1.6-4.4-5.8-7.5-10.7-7.5c-4.9,0-9,3-10.6,7.3c-0.5,1.3-0.8,2.6-0.8,4.1c0,0.9,0.1,1.8,0.3,2.7
			c1.2,5,5.7,8.7,11,8.7c5.3,0,9.7-3.6,11-8.5c0.2-0.9,0.4-1.9,0.4-2.9C110,28.9,109.8,27.6,109.3,26.4z"/>
	</g>
	<g>
		<rect x="34.2" y="153.1" transform="matrix(0.707 -0.7072 0.7072 0.707 -98.0761 76.0254)" class="st3" width="17" height="6.6"/>
	</g>
	<g>
		
			<rect x="151.2" y="145.9" transform="matrix(0.7071 -0.7071 0.7071 0.7071 -64.6045 154.7878)" class="st3" width="6.6" height="18.9"/>
	</g>
	<g>
		
			<rect x="146.2" y="41.1" transform="matrix(0.707 -0.7072 0.7072 0.707 13.8414 122.246)" class="st3" width="16.5" height="6.6"/>
	</g>
	<g>
		
			<rect x="38.4" y="35.2" transform="matrix(0.7071 -0.7071 0.7071 0.7071 -18.3414 42.1565)" class="st3" width="6.6" height="16.1"/>
	</g>
</g>
</svg>
